<?xml version="1.0" encoding="utf-8"?>
<!-- Generator: Adobe Illustrator 25.2.3, SVG Export Plug-In . SVG Version: 6.00 Build 0)  -->
<svg version="1.1" id="Ebene_1" xmlns="http://www.w3.org/2000/svg" xmlns:xlink="http://www.w3.org/1999/xlink" x="0px" y="0px"
	 viewBox="0 0 1000 1000" style="enable-background:new 0 0 1000 1000;" xml:space="preserve">
<style type="text/css">
	.st0{fill:#C2C6CE;stroke:#FFFFFF;stroke-width:0.4291;stroke-miterlimit:3.0805;}
	
		.st1{fill-rule:evenodd;clip-rule:evenodd;fill:url(#SVGID_1_);stroke:#AF6D4A;stroke-width:2.1886;stroke-linecap:round;stroke-linejoin:round;stroke-miterlimit:3.0805;stroke-opacity:0.3946;}
	.st2{opacity:0.4868;fill-rule:evenodd;clip-rule:evenodd;fill:url(#SVGID_2_);enable-background:new    ;}
	
		.st3{opacity:0.8624;fill-rule:evenodd;clip-rule:evenodd;fill:url(#SVGID_3_);stroke:#A8592E;stroke-width:2.489;stroke-miterlimit:3.0805;stroke-opacity:0.2;enable-background:new    ;}
	
		.st4{fill-rule:evenodd;clip-rule:evenodd;fill:#8F4D0C;stroke:#965311;stroke-width:1.4161;stroke-linecap:round;stroke-linejoin:round;stroke-miterlimit:3.0805;stroke-opacity:0.5081;}
	
		.st5{fill-rule:evenodd;clip-rule:evenodd;fill:url(#SVGID_4_);stroke:#82481C;stroke-width:2.0598;stroke-miterlimit:3.0805;stroke-opacity:0.2432;}
	.st6{opacity:0.4921;fill-rule:evenodd;clip-rule:evenodd;fill:url(#SVGID_5_);enable-background:new    ;}
	
		.st7{opacity:0.8466;fill-rule:evenodd;clip-rule:evenodd;fill:url(#SVGID_6_);stroke:#A8592E;stroke-width:2.3173;stroke-linecap:round;stroke-linejoin:round;stroke-miterlimit:3.0805;stroke-opacity:0.2;enable-background:new    ;}
	
		.st8{fill-rule:evenodd;clip-rule:evenodd;fill:#BC683B;stroke:#E7D29F;stroke-width:2.6606;stroke-linecap:round;stroke-linejoin:round;stroke-miterlimit:3.0805;stroke-opacity:0.3622;}
	
		.st9{fill-rule:evenodd;clip-rule:evenodd;fill:url(#SVGID_7_);stroke:#82481C;stroke-width:2.0598;stroke-miterlimit:3.0805;stroke-opacity:0.2471;}
	
		.st10{fill-rule:evenodd;clip-rule:evenodd;fill:#7C869A;fill-opacity:0.8162;stroke:#B5C4E7;stroke-width:1.4161;stroke-linecap:round;stroke-linejoin:round;stroke-miterlimit:3.0805;stroke-opacity:0.4162;}
	.st11{fill:url(#SVGID_8_);}
	.st12{fill:url(#SVGID_9_);}
	.st13{fill-rule:evenodd;clip-rule:evenodd;fill:url(#SVGID_10_);}
	
		.st14{fill-rule:evenodd;clip-rule:evenodd;fill:url(#SVGID_11_);stroke:url(#SVGID_12_);stroke-width:1.7165;stroke-miterlimit:3.0805;stroke-opacity:0.6;}
	
		.st15{fill-rule:evenodd;clip-rule:evenodd;fill:#929292;fill-opacity:0.3243;stroke:#8B8B8B;stroke-width:0.3433;stroke-miterlimit:3.0805;stroke-opacity:0.1243;}
	.st16{fill-rule:evenodd;clip-rule:evenodd;fill:#ACACAC;fill-opacity:0.9135;}
	.st17{fill:none;stroke:#626262;stroke-width:1.8453;stroke-miterlimit:3.0805;stroke-opacity:0.5243;}
	
		.st18{fill-rule:evenodd;clip-rule:evenodd;fill:#BEB5B1;fill-opacity:0.7568;stroke:#505050;stroke-width:1.8453;stroke-miterlimit:3.0805;stroke-opacity:0.7135;}
	
		.st19{fill-rule:evenodd;clip-rule:evenodd;fill:#B5ACA8;fill-opacity:0.5081;stroke:#505050;stroke-width:1.8453;stroke-miterlimit:3.0805;stroke-opacity:0.7135;}
	
		.st20{fill-rule:evenodd;clip-rule:evenodd;fill:#C0BBB8;fill-opacity:0.2432;stroke:#434343;stroke-width:1.5121;stroke-miterlimit:3.0805;stroke-opacity:0.7135;}
	.st21{fill:none;stroke:#494949;stroke-width:1.4504;stroke-miterlimit:3.0805;stroke-opacity:0.7135;}
	.st22{fill-rule:evenodd;clip-rule:evenodd;fill:#B2AFA8;}
	.st23{fill-rule:evenodd;clip-rule:evenodd;fill:#A7A49E;}
	
		.st24{fill-rule:evenodd;clip-rule:evenodd;fill:#C0BBB8;fill-opacity:0.2432;stroke:#434343;stroke-width:1.9226;stroke-miterlimit:3.0805;stroke-opacity:0.7135;}
	
		.st25{fill-rule:evenodd;clip-rule:evenodd;fill:#C0BBB8;fill-opacity:0.1622;stroke:#434343;stroke-width:1.1754;stroke-miterlimit:3.0805;stroke-opacity:0.7135;}
	
		.st26{opacity:0.5185;fill-rule:evenodd;clip-rule:evenodd;fill:url(#SVGID_13_);stroke:url(#SVGID_14_);stroke-width:0.6008;stroke-miterlimit:3.0805;stroke-opacity:0.6757;enable-background:new    ;}
	
		.st27{fill-rule:evenodd;clip-rule:evenodd;fill:#67594C;fill-opacity:0.7622;stroke:#A79E93;stroke-width:0.9441;stroke-miterlimit:3.0805;stroke-opacity:0.7784;}
	
		.st28{fill-rule:evenodd;clip-rule:evenodd;fill:#67594C;fill-opacity:0.7622;stroke:#A79E93;stroke-width:1.4161;stroke-miterlimit:3.0805;stroke-opacity:0.7784;}
	
		.st29{fill-rule:evenodd;clip-rule:evenodd;fill:#A7A59B;fill-opacity:0.4432;stroke:#A7A59C;stroke-width:1.5449;stroke-miterlimit:3.0805;stroke-opacity:0.2378;}
	.st30{fill:url(#SVGID_15_);stroke:#000000;stroke-width:1.956;stroke-miterlimit:3.5247;}
</style>
<g transform="matrix(.87757 0 0 .87757 -806.73 63.776)">
	<path class="st0" d="M2016.8,502.5c0,271.2-230.3,491.2-514.3,491.2S988.3,773.9,988.3,502.5s230.3-491.2,514.3-491.2
		S2016.8,231.3,2016.8,502.5z"/>
	
		<linearGradient id="SVGID_1_" gradientUnits="userSpaceOnUse" x1="2975.0588" y1="-1250.2664" x2="2974.1624" y2="-1951.7131" gradientTransform="matrix(2.8832 0 0 0.2057 -7070.2559 657.1688)">
		<stop  offset="0" style="stop-color:#B37C58;stop-opacity:0.1137"/>
		<stop  offset="0.5" style="stop-color:#A06C4A;stop-opacity:0.9098"/>
		<stop  offset="1" style="stop-color:#A36B46;stop-opacity:0.1412"/>
	</linearGradient>
	<path class="st1" d="M1971.3,300.6c-3.6,0.6-15.6-0.2-22.8-1.5c-21.9-3-55.6,1.4-61.9,1.4c-13.2-0.5-29.6-5.9-35.2-7
		c-8.7-2.3-25.2,3.3-39.5-2.9c-16.1,0.8-35.7-0.9-40.8-1.4c-9.4-0.9-11.1-5.3-16.5-8c-11.2-5.6-3.8,4.9-8.8,8
		c-8.2,5.2-8.8-3.9-12.8-5.6c-13.1-5.8-3.9,4.7-8.5,9.9c-6.1,7.1-10.2-1.1-14.1-1.4c-3.9-0.5-7.6-2.9-11.2-4.3
		c-3.2-1.2-6.5,1.8-9.9,2.9c-4.4,1.2-8.5-3.8-12.8-5.6c-3.3-1.5,0.8,7.1-7,8.5c-3.2,3.9-10.2-9.4-14.4-12.1
		c-5.5-3.6,5.8,12.8-3.9,13.7c-2.6,4.4-8.5-5.6-12.8-8.5c-5.5-3.6-12.3-7-17.3-9.7c-1.7,3.2,6.2,9.4-1.5,15.3
		c-2.3,4.4-19.7-11.5-19.9-11.7c-10.3-6.8-1.7,5.8-6.2,7.4c-6.8,2.6-11.7-0.3-16.8-1.4c-5.3-1.1-12-3.2-16.8-4.2
		c3.6,5.3-1.1,8.3-1.4,11.2c-0.8,6.1-12.3-1.7-18.4-2.9c-26.7-11.2-61-14.7-73.3-14.1c-4.6-0.5-8.5,3.8-12.8,5.6
		c-7.4,3.3-10-1.8-15.5-2.9c-5.8-1.1-10.3-2-18.4-2.9c-7.6-0.8-13.2-0.8-19.7-1.4c-7-0.8-13.7-0.8-21.1-1.4
		c-7.4,0.9-2.9,1.8-4.3,2.9c-5.2,3.5,12.1,2.3,18.4,2.9c12.3,1.8,26.3,7,31,8.5c5.9,1.8-20.8,4.4-38.1,1.4
		c-30.1-1.2-40.4-17-54.2-18.4c-4.9-2.4-66.9-5.9-71.8-7.4c-3.5-1.1-34.5,0-44.8,0.2c-10.3,0.2-26.1-4.4-27.2-2
		c2.1,5.3,22,6.4,37.8,7.6c14.3,1.1,38.2,2.6,40.7,3c15.9,3,42.8,5.3,54.6,14.1c3,5.3-15,2.3-21.1,2.9c-6.8,0.8-34.9-0.8-40.8-1.4
		c-7.9-0.8-12.4,0.6-19.7,1.4c-6.8,0.8-75-4.3-81.7-4.3c-7.9,0-43.4-0.5-60.6,2.9c-10.8,1.2-42-7.1-55.6-4.3
		c-4.4,9.1-6.8,13.4-11.2,23.1c1.8,2.6,23.8-0.6,26-0.6c13.8,1.7,46.1-2.7,61.9,1.4c4.9,0.5,11.1,4.3,15.5,5.6
		c5.8,1.7,40.2,0.9,59.2-7c4.9-2,80.3-1.4,87.4-1.4c5.6,0,11.1,3,16.8,4.3c6.4,1.2,66.6,1.4,84.5-1.4c6.8-0.8,80.3,0,87.4,0
		c3.3,0,3.8,5.6,5.6,8.5c2,3-5.6,4.7-8.5,7c10,0.2,12.3,0.6,18.4,0c6.2-0.6,20.5-7.9,54.9-8.5c15.6,0,3.9,4.9,5.6,7
		c3.6,4.7-11.2,3.9-16.8,5.6c-6.4,2-27.8,5.2-31,7c26.7-0.9,50.4-2,54.9-2.9c6.5-1.4,11.5-4.1,16.8-7c5.6-3,10-3.9,15.5-5.6
		c5.8-1.7,56.3,0,63.4,0c6.2,0,12.3-3,18.4-4.2c5.3-1.1,12.6-1.4,19.7-1.4c7,0,56.3,0.3,63.4,0.3c7,0,53.3-3.8,60.6-4.4
		c12.3-1.2,6.1,5.3,11.2,9.9c3.5,3-0.9,9.4-1.4,14.1c-0.5,4.1,13.4,3.5,16.8,4.3c9.1,1.8,12.9-3,16.8-4.3c5-1.5,2.3-10.3,2.9-15.5
		c0.2-1.5,15.5-3.9,16.8-4.2c6.4-1.2,12-1.4,19.7-1.4h21.1c10.3,0,5.3,6.1,9.9,11.2c2.3,2.6,7,10.6,8.5,12.8
		c4.3,6.4,11.5,0.5,15.5,0c4.9-0.5,8.2-7.1,11.2-9.9c5.5-4.9,12-3.3,20.9-4.3C1977.6,313.8,1974.9,308.1,1971.3,300.6L1971.3,300.6z
		"/>
	
		<linearGradient id="SVGID_2_" gradientUnits="userSpaceOnUse" x1="3743.4663" y1="-351.5649" x2="3743.4663" y2="53.7734" gradientTransform="matrix(0.7702 0 0 0.7702 -1380.8115 562.4389)">
		<stop  offset="0" style="stop-color:#B37A21;stop-opacity:0"/>
		<stop  offset="0.25" style="stop-color:#D59023;stop-opacity:0.749"/>
		<stop  offset="1" style="stop-color:#BE8327;stop-opacity:0"/>
	</linearGradient>
	<path class="st2" d="M2014.8,449.7c-2.6-30.4-12.4-71.6-21.2-95.6h-34.2c-42-5.6-113.7-14-185.3-14c-11.2,0-111,0.8-181.8,8.7
		c-10.9-1.1-83-1.7-93.2-2.7c-4.4-0.5-8,3.9-12,5.9c-5.9,2.9-5.3,12-8,17.9c-2.6,5.8-19.4,6.7-26,8c-17.3,3.5-5.8-13.1-8-17.9
		c-3.5-7.9,14.7-9.1,21.9-14c9.1-6.1-55.9-10.5-83.8-6.5c-10.3-1.1-109.4-7.1-173.2,14.6c-6.2,3.9-13.4-6.7-19.9-10
		c-6.2-3.2-48.1-6.4-79.7,8c-13.8,5.5-11.1,0.9-23.2-3.9c-17.5-6.4-63-7.6-71.9-7.6c-14.9,43.7-20,67.5-25.5,111.9
		c14.1,6.4,30.5-0.8,41-0.8c73.9,5.6,140.1-10.5,175.3-5.9c20.5,2.1-1.4,8.3-2,12c-1.2,7.3-13.4,6.7-19.9,10
		c-5.9,2.9,14.6,7.3,17.9,8c9.7,2,28.2,0.9,38.6,1.8c14.4-4.7,23.4-1.5,39.5-5.5c11.1-1.2,23.7-1.8,39.3-5
		c15.6-3.3,23.1-15.5,43.4-15.5c12.3-9,27.8,3.5,46.9-5.6c5.9-32.2,33.8-10.8,41.3-10.2c7,0.8,9.3,10.6,14,15.9
		c1.5,15.8-33.5,6.4-35.8,19.9c-3.9,6.4,18.2,7.3,21.9,8c10.3,2.1,38.9-0.8,75.1-15.6c27.9-3.8,117.2-1.2,146,1.7
		c114.8-9.4,127.8-18.1,149.5-19.9c14.1-2.9,37.9-6.7,69.7-5.9C1903,439.7,1919.5,448.3,2014.8,449.7L2014.8,449.7z"/>
	
		<linearGradient id="SVGID_3_" gradientUnits="userSpaceOnUse" x1="3025.9756" y1="-494.5284" x2="3023.7039" y2="-1335.8204" gradientTransform="matrix(2.4382 0 0 0.2433 -5872.2036 650.8591)">
		<stop  offset="0" style="stop-color:#B37C58;stop-opacity:0.1137"/>
		<stop  offset="0.5" style="stop-color:#A06C4A;stop-opacity:0.9098"/>
		<stop  offset="1" style="stop-color:#A36B46;stop-opacity:0.1412"/>
	</linearGradient>
	<path class="st3" d="M2013.3,436.8c-3-23.2-7.3-39-11.2-57.8c-6.5-0.2-19.7-1.7-28.2-2.4c-6.8-0.6-21.9-9-36.6-8.5
		c-13.4-2.7-4.3,6.5-8.5,12.8c-1.8,2.7-14,2.4-18.4,2.9c-11.5-6.7-8.7-15.6-26.1-18.4c-6.7-3.3-8.5,9-10.6,11.2
		c-5.3,6.1-11.2,0.5-15.5,0c-12-8.3-29.9-13.4-35.2-15.5c-10.3-4.1-7.6,8.8-8.5,9.9c-6.8,7.9,0.5,4.7,1.4,12.8
		c1.2,10.8-10.9,7.6-19.7,8.5c-19.9-0.5-41.1-15.9-76-22.6c-6.5-2-15.3,0.8-21.1,1.4c-6.4,0.6-10.3,3-16.8,5.6
		c-6.1,2.4-35.1-3.5-42.2-4.3c-20-2-6.5-9.1-7-9.9l-7-9.9c-2.9-4.1-48,2.7-76,9.9c-8.8,2.6-8.3,6.5-12.8,9.9
		c-3.3,2.6,3.8,7.6,5.6,11.2c1.1,2-18.4,5.3-19.7,5.6c-6.7,1.4-31-4.6-36.6-5.6c-7.1-1.4-35.2-3.5-42.2-4.3
		c-5.2-0.5-34.2-5.5-39.5-7c-6.5-2-39.9,0-48,0c-7.6,0-9,4.4-14.1,7c-5.5,2.7-23.5-0.2-35.2-8.5c-3-1.5,6.7-13.4,7-14.1
		c4.9-9.9-4.3-6.8-7-11.2c-0.5-0.6-5.6,6.7-11.5,7.1c-4.6,0.3-11.5-5.2-18.2-5.2c-6.7,0.2-8.2,7.3-20.5,6.2
		c-6.7-0.6-8.5-8.5-13.1-8.2c-6.4,0.6-9.6,4.9-14.1,7l-14.1,7c-6.4,3.2-9.4,23.7-14.1,28.2c-31.3,2.7-48.7-7.3-54.9-8.5
		c-9.1-1.8-10.3,1.2-15.5,2.9c-7.3,2.1-26.3-3.9-31-5.6c-6.5-2.4-24.7-4.2-39.5,0c-19,1.4-46.8-11.4-53.1-12
		c-7.3,22.9-11.1,40.8-14.7,65.9c12.9,13.5,22.6,7.1,31.4,9.6c6.8,0.8,80.8,2.1,101.4-7c7.1-2.6,14.7,7.7,35.2,8.5
		c6.8,0.8,44-3,63-7.9c2.1,0.3,2.7,2.4,6.8,4.6c3.6,2,5.2,9.4,7.6,11.7c2.9,2.7,9.6,2.4,12.6-2.4c1.2-1.8,0.6-4.4-0.2-12.3
		c6.8,0.6,12-1.2,24.3-0.5c5.2,0,16.5,7.7,35.2,7c7.9,0,26.1-7.4,31-8.5c3.6-0.8,10.2-5,14.1-7c5.3-2.6,33.8,2.7,59.2-4.2
		c19.1-0.8,29.4,7.1,33.8,8.5c7,2.1,29.9,5.6,36.6,5.6c7.9,0,33.7,0.6,39.5,0c5.2-0.5,11.1-3,16.8-4.2c6.4-1.2,25.8-0.5,38.1,5.6
		c6.8,2.1,27.2,2.6,39.5,0c21.1,4.9,61.6,1.8,66.2,1.4c6.8-0.8,14.3,0,21.1,0c4.7,0,83,2.9,94.4-11.2c5.5-2,24-6.1,38.1-1.4
		c6.8,0.8,64.2-3.3,80.3,4.3c4.3,1.2,4.7,12.3,5.6,15.5c1.5,5,22.5-14.3,25.3-16.8c7.3-6.4,12.9,13.7,25.3,16.8
		c2.6,2.6,13.8-5,15.5-5.6C1996.2,438,2005.7,436.8,2013.3,436.8L2013.3,436.8z"/>
	<path class="st4" d="M1267.9,396.7c-8-5.3-8.8-14.4-22.8-24.9c-12.1-9-21.6-1.1-25-0.9c-6.5-1.1-15.2,7.4-9.9,12.4
		c8,0.8,14.3-5.3,22-6.2c1.2-0.3,7.9-0.6,12.9,0.9C1260.6,383.2,1258.2,395.8,1267.9,396.7L1267.9,396.7z"/>
	
		<linearGradient id="SVGID_4_" gradientUnits="userSpaceOnUse" x1="3015.7798" y1="-1435.7831" x2="3016.7461" y2="-831.3519" gradientTransform="matrix(2.5913 0 0 0.2289 -6284.3613 653.2837)">
		<stop  offset="0" style="stop-color:#D3CEC6;stop-opacity:0"/>
		<stop  offset="0.5" style="stop-color:#C8DADB"/>
		<stop  offset="1" style="stop-color:#E5E1D7;stop-opacity:0"/>
	</linearGradient>
	<path class="st5" d="M1995.1,409c-9.6-20-23.2,5.3-38.9-3.6c-16.1-7.7-34.2-10-48.6-19c-22.3-10.9-11.2,19.3,4.7,18.4
		c16.2-5.3,28.5,16.8,47.4,11.2C1973.7,420.8,1982.5,407,1995.1,409L1995.1,409z M1823.9,409.6c0.3,18.7-29.1,9.3-36-2.9
		c-12.3-8.7-5.2,15-20.2,7.9c-14.4-4.3-23.5,4.6-34,10.2c-9.1-5.2-4.6-31.4-17.9-13.7c-14.6,9.3-17.3-27.2-37.6-16.4
		c-13.2,4.4-27.2-9.7-36.7-9.6c13.1-9.1,32.6,7.4,49.2,1.8c14.4-0.9,17.5,25.7,33.2,11.4c7.7,6.7,10.9,15.5,22.9,8.2
		c9.1-1.8,35.8,9.3,22.8-9.9c-8-9.9,19.3,6.4,24.3,9c9.3,5.5,21.9,6.7,22.8-5.8C1820.7,400.8,1823.1,405.8,1823.9,409.6
		L1823.9,409.6z M1699.9,412.5c0.2-16.4-18.8-16.2-26.3-4.2c-18.7,3.5-36.6-11.4-53.9-17.3c-14.1-17.5-31.9-1.1-11.8,12
		c17.2,13.2,41.4,9.7,58.9,22.8c15.2,9.7,7.9-14,21.9-7C1692.3,414,1691.5,408.3,1699.9,412.5L1699.9,412.5z M1604.7,413.9
		c-8.5,1.4-20-1.5-29.1-7c-24.3,11.5-52.1,5.6-77.3-0.2c-17.8-11.2-39.3-7.6-56.5-18.8c-18.2,2.7,14.7,16.4,22.2,15.3
		c18.4,4.9,36.7,14.7,56.3,18.2c18.4-2.7,34.6,4.4,52.1,4.9C1585,422.5,1610,442.1,1604.7,413.9L1604.7,413.9z M1452.6,413.3
		c8.2-5.2,15.8,5,23.7,5.5c6.1-0.5,23.2,1.8,18.1,9.3c-10.3,6.5-17.9-7.1-28.1-6.1c-8.2-1.2-16.5-0.5-24.6-2
		c-5.8-6.1-11.8-11.5-19.9-14.6c-8-5.9-15.8,3.3-24.6,3.5c-7,7.3-14-7.3-21.7,0.5c-4.6-0.8-10.3-9-11.7,0.3
		c-7.6-1.2-15.5-7.1-24.1-5c-7.4,0-19.6,10.2-17,17.5c7.4,1.4,22.8,3.6,21.6-8.2c5.2-9,17.8-1.1,24.6,2.3c8.8,4.1,19.3-3.9,27.2,1.8
		c-4.7,8.8-16.8,2.6-25,4.4c-7.9,2-14-6.7-20.2-5.8c-4.3,7.4-11.4,11.8-20.3,10c-8.8-0.6-20.3-3.5-22.2-13.7
		c0.6-7.9-11.5-21.1-15.3-8.7c-1.4,11.7-11.7,11.4-20.6,9.9c-8.7-0.6-18.2-0.3-25-6.7c-2.7-3-13.4-11.5-13.8-8.7
		c10.5,7.4-5.8,12-10,4.3c-9.4-7.9,1.8-18.7,10.6-20c9.1-3.6,17.3,3.5,19.9,11.8c4.7,8.8,16.1,8.2,24.6,7.6
		c8.8-2.6,11.7-15.8,23.1-11.4c11.5,2.3,20.2,15,32.9,12.3c9.3-1.8,18.8-7.1,27.9-1.2c7.6-5,16.7-5.6,24.3,0.5
		c9.4,0.3,19.4,1.5,28.5-1.8c10.8-4.1,13.7,7.7,21.9,11.2C1441.8,414,1447.4,416,1452.6,413.3L1452.6,413.3z M1260.9,417.4
		c8,3.2-0.2,14.1-7.1,10.3c-4.1,0.6-12.6-2.9-13.4-1.5c4.6,5.3,10,10.9,9.7,18.5c-0.8,8.8-13.1,5.9-14.4-1.1
		c-3-7.6-9.7-12.4-17.5-14.7c-5.6-2.4-16.5-6.5-14.6-13.5c5.6-7,14.4-0.8,18.1,5c6.8,4.7,10.8-0.2,10.8-7.3
		c8.3,0.2,12.6,12.8,21.6,8.2C1257.1,421.2,1258.9,419.3,1260.9,417.4L1260.9,417.4z M1583.6,370.2c-2.7-1.5-38.1-2-18.2,4.4
		c12.4-3,23.1,5,22.5,17.2c4.1-7.7,6.7-19.6,16.5-11.4C1608.5,369.8,1589.4,372.6,1583.6,370.2L1583.6,370.2z M1573.7,380.8
		c-5.2,17-27.6,9.1-41.4,16.7c-14.3,3.9-42.5-17.6-46-5.2c18.1,9,39.5,6.8,59,9.6c10-1.2,42.3,7.7,19.1-7c7,3.2,14.1-20.2,12.1-4.1
		C1581.6,409.8,1587.2,370.9,1573.7,380.8L1573.7,380.8z M1193.4,417.4c-5.5-3.2-15.3,2.6-16.8-7c-2.9-4.2-7.1-8.8-10.5-2.1
		c-7.7,4.4-16.4-2-24.1-3.6c-8.2-2.4-16.8,1.8-24.7-1.1c-8.5-3.5-3.6-14.4-10.5-18.8c-6.1-1.8-13.5,5.9-21.1,3
		c-5.3,0.5-16.5-3.6-17.2,3.6c5.8,5.2,13.5,5,20.6,4.9c6.4-0.6,16.7-5,18.8,4.4c2,7,7.6,12.4,14.9,13.7c9,3.2,19-2.7,27.3,2.7
		c7.4,4.6,15.5-1.2,23.1-0.9c5.3,3,13.4,9,19,5.2C1192.7,420.1,1192.4,418.6,1193.4,417.4L1193.4,417.4z M1884.4,392
		c-11.8-7.4-29-5.9-41.3-16.1c-7.4-5.5-24.3-8.5-9.4,0.6c9,18.5,30.7,12.9,47.2,15.2L1884.4,392L1884.4,392L1884.4,392z M1885,405.5
		c6.8,2.6,35.4,14.1,21.6,20.2C1899.3,419.3,1888.1,415.5,1885,405.5z"/>
	<path class="st4" d="M1303.2,296.8c-5.2-3.2-69.5-2.3-94.1-3.8c-6.5-1.1-25.7-1.1-20.3,3.9c8,0.8,60.6-0.9,92.3,2.3
		C1290,299.6,1300.8,299.7,1303.2,296.8L1303.2,296.8z"/>
	
		<linearGradient id="SVGID_5_" gradientUnits="userSpaceOnUse" x1="3744.0579" y1="212.8577" x2="3744.0579" y2="-192.4808" gradientTransform="matrix(0.7702 0 0 0.7702 -1380.8115 562.4389)">
		<stop  offset="0" style="stop-color:#B37A21;stop-opacity:0"/>
		<stop  offset="0.25" style="stop-color:#D59023;stop-opacity:0.749"/>
		<stop  offset="1" style="stop-color:#BE8327;stop-opacity:0"/>
	</linearGradient>
	<path class="st6" d="M2013.8,561.6c-4.3,38.3-12,69.2-24.3,102.5c-0.9,0-6.4-0.2-9.4,2.1c-8,6.1-10,23.8-19.9,23.2
		c-14.3-0.8,0.5-17.9-4.9-21.9c-3.6-2.7-6.4,0.6-8.8,0.6c-42,5.6-0.8,20.2-45.7,20.2c-7.1-6.7-21.4-11.8-26.3-44.5
		c-9.1-11.5-25-21.4-48.9-22.2c-22.5,2.7-44.3,3.3-56.9,32.6c13.4-14.3,27.9-34.2,81.2-20.5c22.5,5.8,20.5,36.9,19.6,36.9
		c-2.1,25-41.7,41.7-74.5,42.3c-12.3-1.5-34.8-1.7-49.2-18.1c-18.5-5.8-32.5-10.3-68.2-19.9c-14.4,0.3-52.7,7.4-67.4,7.3
		c-14.9-0.2-29.4-8.3-43.6-9.3c-14.1-0.9-24.6,7.1-36.6,5.5c-12-1.7-20-4.6-29-7.3c-10.9,1.1-68.3,16.5-78.3,17.5
		c-4.4,0.5-44.6-1.5-72.7-5.5c-20-11.8-39.3-1.7-56.3-6.4c-14.3-6.1-13.7-15.8-22.3-4.9c-19.6,25-32.2,2.9-35.5,4.4
		c-1.5,0.8-19.9-3.8-27.8-3c-3.9,0.5-10.2,11.2-20.3,8.5c-10.2-2.7-13.5-11.1-19.1-11.1c-11.2,0.2-6.2,8.2-17.5,6.8
		c-11.2-1.4-13.1-4.2-20.9-7.9c-3.5-1.4-6.8,9-13.5,7.7c-4.4-0.6-17-8.5-21.7-8.3s-5,7.1-7.3,9.7c-5.3,2.7-16.1-6.4-19.1-5.2
		c-17.5,6.4-38.4,3.5-47.4,3.5c-12.9-34-23.5-68.2-29.8-112.3c14.1-6.4,53.4-9.4,63.9-9.4c9.3-0.8,84.4,7.1,101.2,7.1s28.5,3,47.7,2
		c19.7-4.6,44.2-5.6,62.4-5c18.2,0.6,32.6,3.3,49.2,4.1c16.7,0.8,39.2-0.5,52.5,0.5c29-1.2,102.6-15.3,138.9-0.5
		c27.9,3.8,88.3-5.9,117.2-8.7c144.3-1.1,169.4,6.1,190.9,7.9c14.1,2.9,66.2-7.4,97.9-8C1924.2,555.2,1918.4,563.1,2013.8,561.6
		L2013.8,561.6z"/>
	
		<linearGradient id="SVGID_6_" gradientUnits="userSpaceOnUse" x1="3081.334" y1="-714.7102" x2="3078.7534" y2="246.2823" gradientTransform="matrix(2.097 0 0 0.2828 -4953.5557 644.2172)">
		<stop  offset="0" style="stop-color:#B37C58;stop-opacity:0.1137"/>
		<stop  offset="0.5" style="stop-color:#A06C4A;stop-opacity:0.9098"/>
		<stop  offset="1" style="stop-color:#A36B46;stop-opacity:0.1412"/>
	</linearGradient>
	<path class="st7" d="M1992.8,652.8c6.5-19.9,10.5-34.5,14.6-52.2c-75.9,15.2-132.5,20-160.6-8.8c-13.2-0.2-2.9-11.5-61.6-7.4
		c-42.8-4.9-37.9-5.8-54.5-7.9c-32.9-4.4-34.9,3-62.8,9.9c-22.2-1.4-45.8-1.4-52.8-5.3c-26,9.9-50.1,1.1-75,3.8
		c-39.8,4.7-39,14.3-74.1,5.8c-12.9,0.8-2.9-5.6-15.6-10.5c2.3-5.3,11.8-10.2,0.2-11.4c-3.5,0-20,5.2-24.3,5.3
		c-8.2-1.2-34.6-0.6-39.3-0.2c-4.7,0.5-8,5.9-12.9,6.5c-4.9,0.5,10.6,7.6,2.6,6.5c-5,0.6-37.9,2.6-43,3.2c-5,0.6-13.7-10.3-18.7-9.9
		c-5.2,0.5-16.2-2-21.1-1.7s-23.1-0.6-27.5-0.6s-20,4.7-23.8,4.4c-3.8-0.5,15.5-5.9,10-9c-1.1-1.8-35.2,6.2-48.9,7.9
		c-4.1-9.1-17.3,2.4-26.9,1.1c-19.9,3.2-28.1,6.4-48.3,8.5s-37.9-0.2-52.4-1.4c-7.9-0.3-13.2,7.7-24.3,8.8
		c-11.5,1.1,14.4-8.8,6.2-17c-2.4-3.9-14.7-3.2-30.2,8.2c-18.5,1.1-24.3,7.9-25.3,11.2c3.2,3.6,16.2,11.8,28.8,11.7
		c76.5,0.2,160.6,2.4,167.6,4.2c5.8-5.2,9.4-17,83.9,4.1c19.1-11.8,65.9,7.9,119.8-12.6c22.9,6.2-36.3,20.8-11.1,20
		c59.8-3.5,10.9,26.9-24.3,17.8c-4.9,2.7,21.9-1.1,49.3,25.8c11.5,5.5,10.2-5.2,12.3-12.8c30.8,9.6,41.3,0.3,77.9,2.3
		c36.4,2,75.9,13.7,92.4,13.5c22.9-0.3,48.4-10.3,72.9-11.2c3.3-0.3,8.2,3.8,14,10.3c5.6,6.4,48.9,11.1,48.7,18.2
		c19.6,12.1,40.5,17.8,68.3,19.7c32.2,1.4,59.3-27.3,56.5-53.6c-2.3,13.7-8.7,33.5-31,43c-13.2,9-73.2-0.8-77.1-9.3
		c-3.9-8.7-41-12.8-42.8-19.3c-1.8-6.5,13.2-4.6,16.7-5c10,16.4,6.1-10.6,26.6-25.3c44-32.3,86.8-56.9,129-4.7
		C1908.3,700,1949.4,640,1992.8,652.8L1992.8,652.8z"/>
	<path class="st8" d="M1791.7,647.5c9.4-0.2,34-5.3,43.9,7.7c5.6,16.1-9.3,14.3-13.2,14.9c-4.4-0.6-4.7-3.2-8.3-6.2
		c-2.9-2.3-7.1-2.6-11.7-4.1c-17.8-2-25,9.3-25.5,14c-0.9,3.8,2.6,8,5,10.6c4.7,4.2,14,8.2,31.3,5.9c4.6-0.8,18.5-2.3,30.2-18.2
		c2.9-3.9,1.1-9.9-0.3-14.6c-2.7-4.6-8.8-9-13.8-10.3C1817.7,644.3,1801,646.1,1791.7,647.5L1791.7,647.5z"/>
	
		<linearGradient id="SVGID_7_" gradientUnits="userSpaceOnUse" x1="3036.5159" y1="-716.3783" x2="3035.3801" y2="154.1537" gradientTransform="matrix(2.3463 0 0 0.2528 -5624.5942 649.2401)">
		<stop  offset="0" style="stop-color:#D3CEC6;stop-opacity:0"/>
		<stop  offset="0.5" style="stop-color:#C8DADB"/>
		<stop  offset="1" style="stop-color:#E5E1D7;stop-opacity:0"/>
	</linearGradient>
	<path class="st9" d="M1991.3,584.5c-16.7-0.2-35.8-3.6-52.5,0.5c-18.7-3.5-36.4,21.7-55.7,5.6c-21.4,1.8-43.7,0-64.4,6.8
		c-17.2,9.4-33.5,10.3-53.7,23.8c-21.3,10.5,3.6,40.1-17.6,28.1c-5.3-9.3,19.1-37.6,25.5-41.6c-10-0.2-39.5,15.5-43.3,35.5
		c-4.9,21.1-27.2,8.5-26.7-7c-20.5-9.1-36.4,14.9-57.2,14.7c-5.6,11.2-34.2,14.4-20.3-0.6c19.3-0.6,28.8-15.9,46.8-21.3
		c7.3-17,26.3,3.8,36.3-12.8c22.2-2,39.9-14,57.5-26.4c13.4-8,7.7,24.6,23.1,10c15.8-17.8,39.8-8.3,59.5-14
		c19,2.9,40.2-9.9,55.4,3.6c7.9-12.3,24.9-10.2,37.2-13.2c12.4,11.5,28.5-16.8,36.1,2.3C1981.9,580.2,1987.3,582,1991.3,584.5
		L1991.3,584.5z M1742.8,581.1c4.4,1.7,9,8.8,2,10.3c-5.9,1.2-11.7-0.6-17.3-2.1c-4.9,0-12.1,0.8-14.1,5.5c0.6,5,5.2,9.3,3.2,14.6
		c-3.6,3.9-11.1,3.5-13.4-1.8c-2.4-5.9-5.3,4.4-7.6,6.4c-3.8,3.5-9.3,4.6-14.3,5.6c-5.2-0.5-9.3,2.6-13.5,5.2
		c-5,3.2-10.9,4.7-16.7,3c-4.6-1.1-9.9-6.4-14.4-3c-4.6,4.4-10.5,7.4-16.7,8.8c-7.3,1.7-8.7-7.7-8.3-13.1
		c-1.4-3.8-10.3-6.1-6.4-11.1c7.3-3.3,15.5-4.6,23.5-3.6c8.3,3.3,16.7,7.6,25.8,8.2c6.7,0.9,12-4.2,18.7-3.5
		c5.9-1.5,10.6-5.8,15.6-9.1c2.4-5.3,5.5-10.5,10-14.4c4.9-3.5,10.6-6.2,16.7-6.8c7.3-1.4,14.9-0.6,22.3-0.6
		C1739.6,579.9,1741.3,580.7,1742.8,581.1L1742.8,581.1z M1631.1,634.1c-4.6,2.1-8.5,5.5-13.2,7.3c-3.3,2-7.3,2.7-10.9,3.9
		c-4.3,0.3-8.5,0.3-12.8-0.5c-3.9-1.2-8-0.3-11.8,0.5c-2.7,1.2-5.2,3-7.6,4.9c-2,2.1-4.6,3.9-7.7,3.3c-3.2,0.3-6.1-0.6-8.8-2
		c-2.3-0.8-8.5-4.4-8,0.5c-0.6,3.9,4.1,4.6,6.5,6.2c3,1.4,6.5,1.2,9.7,1.2c3.6-0.5,7-3.5,10.8-2.1c4.3,0.2,6.4,4.1,9.9,5.8
		c4.4,2,9.1,3.6,13.7,5.2c3.3,0.9,7.1-0.2,10-1.8c2.7-2.4,1.5-5-1.7-5.8c-3.3-1.8-7.3-1.2-10.9-1.5c-3.6,0.8-7.4-0.3-8-4.4
		c-1.8-3.5,4.4-3,6.5-3.8c3.5,0.2,7,0.8,10.3-0.3c4.4-0.8,7.9-4.2,12.4-4.9c4.1-0.8,8,0.8,12.1,0.2c3.5,0.6,6.1-2.1,8.5-4.1
		c2.1-2.3,5.6-6.8,0.8-8.2C1639.5,632,1632.3,633.2,1631.1,634.1L1631.1,634.1z M1698.5,583.1c-13.5,6.7-13.5,15.3-24,14
		c-9.4,0.9-19-2.3-28.1,0c-9.6,1.1-19.9,1.2-29.1-1.5c-9-1.7-20.2,8.7-17.9,17.9c4.6,6.5,2.4,17,11.2,19c5.2,8.5-14.3,13.5-12.6,3.2
		c-0.2-9.9-13.1-6.7-19.6-7.1c-8.2-1.5-16.1,0.8-23.8,3.8c-8.8,3.3-16.1,10-25,12.6c-7.3,1.4-13.8-2.4-20.9-2.7
		c-5.9-0.9-16.2-0.5-12.1,8.2c1.2,9.9-12,7.7-18.4,7.6c-5.8,2.1-20.8-3.2-10.9-9c10.6-0.3,12.9-9.9,14-18.5c7.7-5,15.5,3.3,23.4,4.2
		c9.3,3.6,18.7,0.8,26.7-4.1c8.7-4.6,2.3-17-6.7-12.1c-7.6,4.4-19.1,10.3-26.7,4.4c-4.7-11.1,0.6-21.1,20.2-28.8
		c2.7-2.6,47.8-5.2,57.8-2.9c5.2,0.2-3.5,5.2-15.3,7.6c-11.8,2.4-27,2.3-28.8,6.2c9,4.7,16.5,1.8,26.4,1.2
		c10.6-1.1,20.8-4.4,29.8-10c9.3-2.9,16.8-9.6,26.4-12c4.4,5.8,13.1,6.5,20.5,4.1c8.7-1.2,17.9-4.1,26.4-0.8
		c7.3,9.9,12.9,1.8,21.6,0.9C1685.6,587.8,1693,580.4,1698.5,583.1L1698.5,583.1z M1473.4,635c-2.9-0.3-5.9-0.3-8.8-0.5
		c-2.9,0.9-4.3,3.9-6.4,5.9c-1.8,2.4-1.7,6.2-4.6,7.9c-2.1,1.8-4.6,3.2-7,1.1c-2.6-1.8-5.8-1.2-8.2,0.3c-2.4,0.9-5.3,1.1-7.9,0.6
		c-3.3-1.2-6.4-3.5-10-3.2c-3.3,0-7-0.3-10,1.2c-2.7,1.2-1.1,5.3-1.7,7.7c0,2.6,1.1,5,2.3,7.3c2,1.7,3.9,3.5,6.2,4.6
		c2,0.3,5.8,3.5,6.8,0.8c0-2.6,1.2-4.9,0.9-7.4c-0.5-2.7,0.6-5.8,3.9-5.3c2.6-1.4,5.5-0.9,8.2-0.5c3.5,0.2,6.4,2.3,9.4,3.6
		c2.9,0.8,5.8,1.1,8.8,1.5c2.1-0.3,6.1-0.8,5.9-3.6c0-4.2-0.3-8.5-0.2-12.8c1.1-2.1,4.1-2.1,6.1-3.3c1.8-1.1,6.1-0.8,6.1-3.3
		C1472.8,636.5,1472.9,635.6,1473.4,635L1473.4,635z M1476.4,614.5c-0.3,2.9-0.6,5.8-1.1,8.5c-1.2,2-2.3,4.4-4.4,5.5
		c-2.1,0.6-4.9,3.2-6.8,0.8c-1.5-2.1-4.4-2-6.7-1.8c-2.7,0.5-4.6,2.9-7,3.8c-3,1.2-5.8,3.3-9,3.5c-2.4,0.5-5,0.5-6.8-1.5
		c-2.6-0.6-2.3-3.6-3.3-5.6c-0.8-2.7-0.3-5.6-0.2-8.3c0.8-2.7,1.2-5.6,2.4-8.3c1.4-2.4,2.6-5.5,5.5-6.5c3.5-1.7,7-3.5,10.6-4.9
		c3.6-1.4,7.4-0.5,11.2-0.6c3.5,0.2,6.8,0.5,10.2,1.5c2.9,0.6,5.9,0.3,8.7,1.2c2,0.8,4.4,0.5,5.9,2c1.7,2.9,3.3,5.9,4.1,9.3
		c0.9,2.6-1.8,4.6-3.2,6.2c-2.4-0.9-3.2-3.9-5.6-5.2c-1.8-1.8-3.6-4.2-6.5-4.2c-1.2-0.5-5.2-1.1-2.7,1.1
		C1473.4,612.1,1474,614.1,1476.4,614.5L1476.4,614.5z M1404.2,667.3c-4.7,0.9-9.6,0.2-14.4,0.6c-4.3,0-8.3-1.2-12.1-3
		c-5.5-2.1-11.5-2.3-17.3-1.1c-2.6,0.6-5.3,2.1-6.2,4.7c-0.6,2.7,2.1,3.9,4.1,5c7.3,3.9,16.1,3.8,23.8,1.8
		c6.1-1.5,12.1-3.6,18.4-4.4C1402.2,670.8,1403.9,669.3,1404.2,667.3L1404.2,667.3z M1419.1,592.1c-11.1-2.1-25.3,5.2-37.9,6.1
		c-11.4-0.8-32.8,1.4-28.7,17.8c14.4,4.1,27.3-10.8,42.2-10.9c14.1-6.5,26,19.7,6.5,14.9c-13.8-4.1-26.7,1.1-38.9,7.1
		c-15.6,8.7-21.4-13.8-36.3-10.3c-13.8-8.5-29.3,0-44,2.4c-14.9,2.4-27.8-4.1-41.9-7c-10.3-1.2-28.7-13.4-34.3-0.5
		c-12.4,9.9-28.5-5-43-2c-17.2,5.8-34.8-2.9-52.4-0.5c-15.6,0.6-31.3-4.9-46.1,1.8c-14.9,0.8-30.7,0.2-44.6-3
		c12.8-5.9-28.7-4.4-8.7-11.1c16.2,0.5,26.3-13.2,41-15.3c19.9,7.1-21.9,7.4-8,19.1c12.3,11.1,19.3-13.5,33.4-5.5
		c14.7-6.1,30.2,9.4,44.3,0.9c10.8,6.2,22.2-8.5,34.2-2.1c3-5.2,22.5-8,17.8-3.2c-16.7-2.1-1.8,13.7,5.8,3.2
		c1.4-6.8,23.5-16.2,14.3-5.2c14-5.3,28.5-6.5,42.7-13.2c8.7-3,14.1,3.3,2.7,5.3c-5.5,5.5-17.9,12.8-16.4,17.8
		c6.7,3.9,30.7,13.8,18.5-2c-5.6-20.5,24.3-13.4,35.8-16.2c11.5,3,25.7-3,34.8,6.2c8.8,0.2,15.2-0.6,2.4,1.7
		c-13.8,2.4-28.1-3.3-41.6-1.7c1.5,9.6,20.3-3.6,11.5,10c11.5,10.3,25.7-1.1,38.7-1.1c17-2.3,34.2-2.3,51.3-3.5
		c6.2-0.2,31.1,1.2,23.4-6.2c-8.5-0.8-26-2.7-7.4-5.3c14.7-6.5,30.1,3.2,44.9-2c5.8-1.7,16.1-6.7,4.7,0c-7.1,0.9-15.3,10.8-2.4,7
		c20.6,0.5-9.6,2.3-15.5,5.5L1419.1,592.1L1419.1,592.1z"/>
	<path class="st10" d="M1888.8,440.7c-37.9-5.2-70.1,18.7-106.7,24c-24.9,7-37,11.5-83.3,18.1c34.8,3.6,70.1-6.1,103.2-15.5
		c16.4,5.6-48.9,25.2-11.4,26.1c12-6.2,27.8-25,20.5,2c9.9,23.5,18.8-29.8,32-3.2c0.9-15.5-8.5-44.9,21.7-40.7
		C1843.8,478.8,1891.1,451.5,1888.8,440.7L1888.8,440.7z M1964.6,457.6c-12.9-28.8-49.3,10.8-67.8-0.9c3,14.1,65.3-7.4,26.3,12.6
		C1894.2,481.7,1960.9,471.7,1964.6,457.6L1964.6,457.6z M1946.7,486.6c-19.3,10-47.5-11.1-60.1,5.8
		C1905.5,497.7,1935.1,500.4,1946.7,486.6z M1980.5,552.3c-7.3-13.1-28.8-40.1-47.4-31.9c17.6,2.4,41.7,27.9,8.5,14.1
		c-38.7-16.8-77.7-32.2-119.8-21.6c-40.2-10.9,20.6,14,34.5,2.7c31.9-0.3,64.5,21.4,88.2,38.3c-16.2-31.1,18.2,12.4,26.6-4.7
		C1972.6,553.4,1977.3,554.3,1980.5,552.3L1980.5,552.3z M1835,559.3c-3.9-14.3-61.8-23.2-56.5-18.1c28.4,21.1-32.9-2.4-43.3-2.9
		c-41.9-10.8,27.2,10.5,37.8,17C1801.6,560.3,1805.8,538.3,1835,559.3z M1903.7,549.3c-15.2,16.5-54-19-14.9-1.1
		C1894,550,1899.2,544.9,1903.7,549.3z M1704.6,542.3c-16.5,1.4-53.9-3.2-60.1,2.4c8-1.1,47.2,9.1,64.2,12
		C1719,548.2,1692.6,541.5,1704.6,542.3L1704.6,542.3z M1653.7,489.5c-43.6-3.8-86.8,2.4-130.5-1.1c-17.9-1.4-44.2,12-57.7,1.4
		c42.5-1.2,84.5-9.4,127.3-5.5C1613.5,476.4,1633.5,485.4,1653.7,489.5L1653.7,489.5z M1638.7,554.3c-12.6-10-106.4-16.8-79.5-11.4
		c12.9,2.6,41.7,9.9,10.8,6.5c-43.7-7.1-87-10.9-131-17.3c-14.4-1.8,46,4.9,56.8,17.5c17.5,3.2,50.2-2.3,60,7
		c-11.5-2.6-64.5,6.5-26.6,4.7c18.5,2.4,43.1,4.1,47.5-5.9C1596.7,557.6,1618.2,554.6,1638.7,554.3L1638.7,554.3z M1983.4,451.7
		c-7.1,11.2-13.1,34,12,24c18.2,5.8,15.9-32.5-6.4-22.3L1983.4,451.7L1983.4,451.7z M2002.4,558.2c9.3-8.8-8.3-31.1-10.8-14.9
		C1999.3,546.2,1979.6,568.8,2002.4,558.2z M1473.4,444.7c-41.7,3.8-84.4,2.3-123.6,19.9c-25.2,0.3-57.2,45.8-17,45.8
		c9-9.4-19.9-29.6,9-25.3c10,26.9,14-23.4,31.3,1.8c24.7,10.8-18.8-16.1,7.3-13.5c15.2,0-3.9,21.1,19.4,14.1
		c-12,15.9-20.2,12.9,6.1,11.4c29,4.4-21.7-15.5,14.7-7.4c19.3,18.2,71.3,28.1,79.7,37.6c-46.1,12.3-76.5-32.5-121.4-26.6
		c-21.9,8-15.9-21.3-33.8-1.4c8.3,20.3,54.9,19.4,73.9,22.5c12-14.3,3,20.8-15.2,7.7c-13.2-4.2-51.5-11.4-49.5-4.1
		c24.1-0.8,81.4,5.9,78.5,31c-26.7-15.5-59.8-23.2-92.1-24.4c-19.3-14.1-54.5-3.5-64.4-20c-10.6,24.1-12-5.2-9.9-14.4
		c-11.8-5.8-9.6-16.1-31.1-13.7c0.3-0.5,38.2-12.1,44.6,4.1c19.3,2.4,25.5,11.5,35.1-10.2c27.2-26.7,72.4-33.8,110-37
		C1441.2,442.6,1457.3,442.9,1473.4,444.7L1473.4,444.7z M1744.3,556.2c-11.5-10.5-33.2-17.5-12.3-2.3
		C1727.6,564.3,1753.4,569.1,1744.3,556.2z M1588,508.4c-12.9,18.8-73.6,22.8-69.1,1.7C1544,520.1,1562.5,510.1,1588,508.4z
		 M1321,538.3c28.1-0.3,82,13.5,84.5,17.6c-4.7,3.2-63.6,9.4-21.1-0.2C1362.9,552.1,1342.7,540.8,1321,538.3L1321,538.3z
		 M1295.1,551.2c-25.3-19.6-85.2-21.3-102.9-19.3c34.6,16.2,75,13.4,109,31.1C1299.3,558.8,1299.1,554.3,1295.1,551.2L1295.1,551.2z
		 M1352.6,555.5c-10.3-10.6-31.6-3.6-8,0.8C1346.8,560.5,1353.2,563.4,1352.6,555.5z M1196.8,479.4c-22.2,10-53.1-6.1-73.3-4.2
		c-10.6,9.7-28.5-9.9-40.1,13.1c-9.6-8.3,33.5-31.9,43.1-20.5C1148.3,471.1,1173.5,471.4,1196.8,479.4L1196.8,479.4z M1234.9,558.4
		c-11.8-7.7-21.6,6.8-26.7-4.2c-13.7,20.8-23.5-6.4-27.5,3.5c-19.1,9.7-41-7.1-53.3-9.4c21.1,22,54.2,15.8,82.9,17.2
		C1219,566,1228.6,565.2,1234.9,558.4L1234.9,558.4z M1119.4,540.8c-20-2.1-33.5,3-14.6,19.1c4.2-10.3,30.4-19.9,27.3-17.6
		C1120.2,540.2,1127,544.4,1119.4,540.8L1119.4,540.8z M1078.6,554.1c-15-31.1-57.8,4.1-68.9-16.8c-25.7,2.4,5.9,2.7-16.2,16.7
		c-2.6,15.5,33.8-2.6,41.9-0.6C1036.7,539.2,1069.3,552.1,1078.6,554.1L1078.6,554.1z"/>
	
		<linearGradient id="SVGID_8_" gradientUnits="userSpaceOnUse" x1="3249.26" y1="-1509.1133" x2="3250.2163" y2="-867.7699" gradientTransform="matrix(1.4522 0 0 0.4084 -3217.3198 623.1469)">
		<stop  offset="0" style="stop-color:#5C554F"/>
		<stop  offset="0.5" style="stop-color:#91847C"/>
		<stop  offset="1" style="stop-color:#968881;stop-opacity:0"/>
	</linearGradient>
	<path class="st11" d="M1062.8,248c97.6-155.7,283.7-246.8,466.1-236c164.8,6.7,325.1,95.8,413.3,235.9c-30.2,10.5-61-4.4-92.3,0.5
		c-30.8,3.2-60.1-0.8-89.7-2.4c-19.3,9.6-49.6,13.1-58.7-10.5c-19.1,20-55.4,15.9-80.1,11.8c-23.8-4.3-38.4,24.4-72.7,0.9
		c-25.7-12.8-60.7,2.6-90.3,1.5c-19.4,10.6-43.9-17.6-66.6,2.6c-27.6,16.2-60.7-20.8-85.5,2.6c-27.9,8-55.9-20.3-85.8-5.6
		c-30.1-9.7-58.4,11.8-87.6,0.5C1109,235.1,1082.2,272.7,1062.8,248L1062.8,248z"/>
	
		<linearGradient id="SVGID_9_" gradientUnits="userSpaceOnUse" x1="3752.5325" y1="540.5076" x2="3752.5325" y2="167.2488" gradientTransform="matrix(0.7702 0 0 0.7702 -1380.8115 562.4389)">
		<stop  offset="0" style="stop-color:#544941"/>
		<stop  offset="0.25" style="stop-color:#66554B"/>
		<stop  offset="0.5" style="stop-color:#79716B"/>
		<stop  offset="1" style="stop-color:#7C7570;stop-opacity:0.3918"/>
	</linearGradient>
	<path class="st12" d="M1942.3,757.2c-96.4,153.6-279.3,244.5-459.6,236.2c-159.1-4.7-314.8-85.5-406.5-216.3
		c31.4-8,56.2,12,84.8,6.8c26.4-11.7,56.9-7.3,85.8-5.5c31.4,1.1,157.3-11.1,196-1.1c28.4,1.7,57.8,4.7,84.5-3.6
		c30.2,3,60.6,6.8,90.6-0.5c21.9-8.5,40.8-16.4,64.7-6.5c22.5-17.5,38.4,19.9,58.3,1.4c15.9,20.8,19.6-18.5,38.6,0
		c27.8-4.2,60,8,84.5-7c6.5,14.7,12.8,11.4,24.6,1.2C1906,764.5,1929.4,773.4,1942.3,757.2L1942.3,757.2z"/>
	
		<linearGradient id="SVGID_10_" gradientUnits="userSpaceOnUse" x1="2929.4702" y1="534.3015" x2="3047.8958" y2="175.6477" gradientTransform="matrix(2.5462 0 0 0.2329 -6162.8794 652.616)">
		<stop  offset="0" style="stop-color:#AC9E97"/>
		<stop  offset="1" style="stop-color:#AC9E97;stop-opacity:0"/>
	</linearGradient>
	<path class="st13" d="M1076,778c-15.9-23.1-26.6-40.2-40.2-67.2c19-2,38.7-5.5,58.4-5.8c19.7-0.3,39.6,2.6,58.7,2.1
		c8.2-0.3,16.5-4.1,24.7-4.4c8.2-0.3,16.5,3,24.7,2.9c8.2-0.2,16.5-3.2,24.7-3.3c8.2-0.2,16.5,2.6,24.7,2.6
		c10.9,0.8,24.7-3.2,35.8-3c10.9,0.2,19.1,4.4,30.2,4.4c11.1,0,26.3-3.3,37.2-3c10.9,0.3,17.8,4.6,28.7,5.8
		c34.6,5.6,69.1-1.4,103.7-2.3c18.7,0.9,37.3-0.2,56.2,0.8c18.7,0.9,37.5,3.8,56.2,4.1c36.7-5,68.5-8,105.5-7.6
		c30.2,3.6,64.7,19,95.8,17.5c39,5.5,71.9-27.5,111-18.1c9.1,2.9,46.4,3.5,58.1,4.7c-4.1,8.2-8.2,16.4-12.4,24.1
		c-27.5-15.6-58,12-82,7.7c17.2-25.3-23.1,3.5-35.7-9c-26.4,4.4-54.8,24-81.7,13.8c-21.1-10-48,8.8-70.6-2
		c-18.7,16.7-38.7,22.5-64.1,31c-33.4,11.5-64.1,2.9-94.6,2.7c-31.7,2.3-38.9,8.7-70.9,6.4c-31.1-5.9-77.6-8.3-109.1-6.5
		c-30.8,0-60.4,1.7-90.5,5c-57.4-4.1-72.3-2.9-106.9,5.8C1126.6,785.3,1098.5,774.2,1076,778L1076,778z"/>
	
		<linearGradient id="SVGID_11_" gradientUnits="userSpaceOnUse" x1="3607.1604" y1="228.6481" x2="3861.6052" y2="228.6481" gradientTransform="matrix(0.7702 0 0 0.7702 -1380.8115 562.4389)">
		<stop  offset="0" style="stop-color:#575353"/>
		<stop  offset="1" style="stop-color:#575353;stop-opacity:0.4845"/>
	</linearGradient>
	
		<linearGradient id="SVGID_12_" gradientUnits="userSpaceOnUse" x1="3202.9045" y1="228.6481" x2="3878.2822" y2="228.6481" gradientTransform="matrix(0.7702 0 0 0.7702 -1380.8115 562.4389)">
		<stop  offset="0" style="stop-color:#5A5757"/>
		<stop  offset="1" style="stop-color:#5A5757;stop-opacity:0"/>
	</linearGradient>
	<path class="st14" d="M1090.4,756.9c-2.9-2-2.7-6.5-3.5-10.6c-1.1-5.2,1.2-4.2,2.1-7c0.5-1.7,8.5-1.2,10.6-1.4c5-0.5,5.5,2,7.7,2.9
		c2.7,1.1,3.9,3.2,6.4,4.9c3.2,2.4,4.4,3,7,4.9c3.9,2.7-0.6,6.2-0.8,7c-0.2,1.4-8.7,0.8-9.9,0.8c-2.7,0-6.2-0.8-9.9-0.8
		C1095.8,757.7,1095.1,757.4,1090.4,756.9L1090.4,756.9z M1123.7,742.2c0,0,1.2,8.5,1.4,9.9c0.5,4.1,3.2,3.2,6.4,4.9
		c2.7,1.5,7.3,0.8,10.6,0.8c7,0,3-3.3,5.6-6.4c1.7-1.8-4.7-6.7-4.9-7c-0.6-0.9-8-1.4-9.1-1.4
		C1130.1,742.5,1127.9,742.2,1123.7,742.2L1123.7,742.2z M1151.2,737.9c-0.9-0.2,0.6,8.5,0.8,9.9c0.3,3.6,3.5,4.6,5.6,7
		c2.9,3.3,10.8,2.1,14.7,2.1s5.3-2,7.7-2.9c5.3-2-2.1-5.6-2.1-5.6c-0.8-2.3-6.8-1.8-9.1-2.1c-3.6-0.3-5.9-3.2-7.7-4.2
		C1157.8,740.4,1155.9,739.9,1151.2,737.9L1151.2,737.9z M1187,736.6c-2.7-1.5,5.6,2.3,8.5,3.5c5.9,2.4,1.7-0.9,4.9-2.9
		c2-1.2,0.5-4.7,0.8-7c0.3-2.4,3.3,3.8,4.9,5.6c2.6,2.9,4.3,2.1,7.7,3.5c2.9,1.1,6.2-1.5,8.5-2.1c3-0.9,6.5-0.8,9.9-0.8
		c5.2,0,5.3-2,7.7-2.9c3.5-1.2,1.5,1.2,4.2,3.5c2.6,2.1,5-4.4,5.6-4.9c1.4-1.2,6.5,2.4,7.7,2.9c4.9,1.8,2.7-2.3,4.9-4.2
		c2.3-2,6.1-0.8,9.1-1.4c3.6-0.8,7.1,0.5,9.9,0.8c2.3,0.2,6.1,2.9,7.7,3.5c1.5,0.6,6.4-1.1,9.1-1.4c4.7-0.5,5.8-1.1,9.1-2.1
		c2.4-0.8,4.9-2.4,7-3.5c3.6-1.8,4.6-0.6,7.7,0c3,0.6,4.6,1.8,7.7,2.9c3.2,0.9,6.2,1.1,9.1,1.4c4.7,0.5,5.2-1.8,7.7-2.9
		c2.7-1.1,4.6-2.3,7-3.5c2.9-1.4,4.1-2.7,6.4-4.2c4.7-3.2-0.6-5.2-0.8-5.6c-0.3-2.6-4.7,2.3-7,3.5c-2.4,1.2-4.4,2.9-6.4,4.2
		c-3.2,2.1-4.9,1.7-8.5,2.9c-3.5,1.1-7.7-1.1-9.1-1.4c-2.7-0.6-5.2-1.1-9.1-1.4c-4.3-0.5-6.5-0.3-9.9,0c-2,0.2-5.9,2.6-7.7,3.5
		c-3,1.7-5.2,2.3-7.7,3.5c-3.5,1.5-6.7-1.5-8.5-2.1c-3.2-0.9-4.6-1.4-8.5-2.1c-3.2-0.6-7.3,0-10.6,0c-4.6,0-4.7-0.3-8.5-0.8
		c-4.7-0.5-3.2,1.4-6.4,2.9c-2.9,1.2-3.9,1.7-8.5,2.1c-2.9,0.3-4.7-3.2-7-4.9c-3.2-2.4-7.6,1.8-8.5,2.1c-1.4,0.5-3.8,2.6-7,3.5
		c-2.6,0.8-5.2-1.5-7.7-2.1c-0.9-0.2-5.5,2.7-7,3.5c-2.3,1.2-4.7-2.3-7-3.5c-1.5-0.8-5.9,2.9-7,3.5
		C1188.6,733.2,1190.6,732.9,1187,736.6L1187,736.6z M1389.9,725.9c-2.6,1.2-4.3,3.8-6.4,5.6c-4.7,4.2,0,2.4,0,4.9
		c0,2.7,5.2-1.8,7.7-2.9c1.7-0.6,0.9-3.3,1.4-4.9C1393.1,727.5,1390.8,726.8,1389.9,725.9L1389.9,725.9z M1240.6,766.2
		c0.8-2.9-5.6,1.8-8.5,2.9c-3.3,1.1-5.3-2.7-7-3.5c-1.8-0.9,2-8.2,2.1-8.5c0.6-2.1,3.3,2.9,4.9,4.2
		C1233.6,762.4,1239.2,765.4,1240.6,766.2L1240.6,766.2z M1285.6,757.7c0.9,0.8,6.8,2.6,9.1,3.5c5,2,4.4,3,7,4.9
		c3.2,2.1,7-0.5,8.5-0.8c2-0.5-0.9-3.8-1.4-5.6c-0.8-2.7-5.6-0.2-8.5-0.8c-5.3-1.1-0.6-4.9-0.8-5.6c0-0.5,8.2-2.7,8.5-2.9
		c2-0.6,4.9-2.7,6.4-3.5c4.9-2.7,1.7-1.7,2.9-2.9c1.7-1.7-4.7-0.5-7-0.8c-2.4-0.3-3.8,3.3-5.6,4.9c-2.1,1.8-5.2,1.5-8.5,2.1
		c-4.1,0.8-3.9,2.6-6.4,4.2L1285.6,757.7L1285.6,757.7z M1343.5,747.8c-2.7,1.8,5.2-4.2,7.7-6.4c2.7-2.3,3.2-2.1,6.4-4.2
		c1.8-1.2-0.5,4.2-0.8,6.4c0,0.2-6.2,4.1-6.4,4.2C1347.9,749.6,1346.5,747.8,1343.5,747.8z M1358.2,727.5c-8,5.3,3.2,4.4,4.3,5.6
		c1.4,1.5,4.2,0,6.4,0c2.3,0,4.3,1.8,6.4,2.9c2.3,1.1-1.4-4.7-2.1-7c-0.6-2.1-4.2,0.9-6.4,1.4
		C1363.8,730.8,1361.1,726.8,1358.2,727.5L1358.2,727.5z M1588.6,712.6c-3.2,0.8-5.2,2.3-7.7,3.5c-2,0.9-0.2,8,0,9.1
		c0.3,2.4,3.3-3.8,4.9-5.6C1587.7,717.4,1587.5,715,1588.6,712.6z M1688.6,708.3c2.1-2.4-4.2,4.7-6.4,7c-2.1,2.3-0.8,6.1-1.4,9.1
		c-0.5,2,3.8-1.4,5.6-2.1c2-0.8,2.4-4.9,3.5-7C1691.1,713.2,1688.9,710.2,1688.6,708.3z M1759.8,715.5c1.4-2.7-5.6,1.8-8.5,2.9
		c-3.9,1.4-2,3.9-3.5,7c-2.7,5.6,0.5,0.2,2.9,0.8c5.9,1.5,5-2.4,7-3.5C1760.3,721.1,1758.9,718,1759.8,715.5L1759.8,715.5z
		 M1732.3,715.5c2.6-1.4-5.6,1.4-8.5,2.1c-4.1,1.1-4.3,2.1-7,3.5c-2.3,1.1-3.3,3.8-4.9,5.6c-1.4,1.7,0.9-4.2,1.4-6.4
		c0.3-1.5,4.7-4.1,5.6-4.9c2.7-2.4,3.9-1.7,7.7-2.9C1729.8,711.7,1729.6,714.1,1732.3,715.5L1732.3,715.5z M1269.4,738.7
		c3.3-1.1-7,0.3-10.6,0.8c-4.9,0.5-5.8,2.1-7.7,2.9c-4.2,1.5,5.2,2.7,6.4,2.9c4.1,0.5,6.8-0.9,9.1-1.4
		C1267.6,743.4,1269.4,738.8,1269.4,738.7L1269.4,738.7z M1408.9,725.3c2.1-0.5-1.4,4.2-2.1,6.4c-0.8,2.4,5.2-0.9,7.7-1.4
		c2.4-0.5,2.9-4.2,4.3-6.4c2.6-3.8-6.2,0-6.4,0C1411.2,723.8,1410.1,724.9,1408.9,725.3L1408.9,725.3z M1490.7,717.6
		c-3,0,5.6,5.6,5.6,5.6c3.2,3.2,7.7-2.7,7.7-2.9c0.8-0.3,4.6-5.2,4.9-5.6c1.1-1.1,2.3-1.8,3.5-2.9c2.3-1.8-5.6,1.2-8.5,2.1
		c-3.2,0.9-6.1,0.3-9.9,0.8C1492.7,714.9,1491.8,716.5,1490.7,717.6L1490.7,717.6z M1666,727.5c-1.2,0.2-7.1,0.8-10.6,0.8
		c-3.2,0-5,1.8-7.7,2.9c-2.1,0.8-4.3,3.6-5.6,4.9c-2.1,1.8-2.1,5.3-2.9,7.7c-0.9,3.2-1.2,5.3-2.1,8.5c-2,6.4-6.4-3.5-6.4-3.5
		c-2.1-1.7,2-5.2,2.9-7.7c0.8-2.7,2.3-4.7,3.5-7c1.5-3,3.6-3.2,5.6-4.9c2.3-2,5.9-1.1,9.1-1.4c3.2-0.3,6.1-0.3,9.9-0.8
		C1663.1,726.5,1664.3,727.2,1666,727.5L1666,727.5z"/>
	<path class="st15" d="M1295.5,778.8c2.4,3.8-2.1,6.4-2.9,8.5c-0.6,2-4.4,3.8-5.6,4.9c-1.7,1.5-4.7,3.2-6.4,4.2
		c-2.7,1.8-7.1,0.3-9.9,0c-2.6-0.3-4.9-3.2-6.4-4.2c-3.3-2.1-2.3-2.6-2.9-7.7c-0.3-2.9,4.9-3.2,6.4-4.2c2.3-1.5,8,0.5,9.9,0.8
		c3.9,0.5,5.6,1.7,8.5,2.9c3,1.2,0,7,0,7.7c0,2.6-4.3-2.9-6.4-4.2c-2.1-1.4-5.2-1.8-7.7-2.9c-5.6-2-3.8,3.3-5.6,4.9
		c-1.8,1.7,3.8,3.3,5.6,4.9c1.8,1.5,8,0,9.1,0c3.9,0,3.2-3.6,4.9-5.6l4.9-5.6C1293.1,781,1292.6,781.6,1295.5,778.8L1295.5,778.8z
		 M1368.8,783c1.8-2.1-5.2,2.3-7.7,3.5c-2.6,1.2,1.2,5.6,2.1,8.5c0.9,2.9,3.9,3.3,5.6,4.9c1.2,1.1,6.2-3,7-3.5
		c3.2-1.7,4.4-1.4,8.5-2.1c3.5-0.8,6.8-1.4,9.1-2.1c4.1-1.2-0.6-6.2-0.8-7c-0.3-2.4,0-6.1,0-7.7c0-2.4,4.7,1.4,7,2.1
		c2.9,0.9,0.8,6.1,1.4,9.1c0.9,4.6-1.4,6.1-2.1,8.5c-0.3,0.9-7.7,1.2-9.1,1.4c-2.9,0.3,3.8,2.1,4.9,2.9c5.9,3.5-0.3,1.8-0.8,4.2
		c0,0.3-9.7,0-10.6,0c-3.9,0-5.9-0.3-9.9-0.8c-2.9-0.3-6.5-1.5-8.5-2.1c-2.3-0.6-4.3-3.6-5.6-4.9l-5.6-4.9c-2.6-2.3-1.8-4.2-2.9-7.7
		c-0.8-2.7,4.7-4.1,5.6-4.9c2-1.7,7.3-0.8,9.9-0.8C1370.8,779.5,1366.4,779.1,1368.8,783L1368.8,783z M1609.7,775.3
		c3.3,0-6.5,1.4-9.9,2.1c-3.9,0.9-5.6,1.2-8.5,2.1c-2.9,0.9-4.9,2.4-7,3.5c-6.1,3,0,3.5,0,3.5c0,2.6,4.7-2.3,7-3.5
		c2.3-1.2,6.4-1.5,8.5-2.1c3.5-1.1,6.2-0.3,9.9-0.8c3.3-0.3,5.2-2,7.7-2.9c6.1-1.8,2.7,0.8,2.9,0.8c2.4,0.6-4.7,1.8-7,2.9
		c-2.7,1.1-6.1,1.7-8.5,2.1c-3.5,0.8-5.5,0.6-9.1,1.4c-1.5,0.3-5.3,2.7-7,3.5c-2.9,1.4-3.8,3.3-5.6,4.9c-2,1.7-2.9,4.2-4.3,6.4
		l-4.3,6.4c-0.3,0.6,6.4-2,7-2.1c2.9-0.9,7.4,0,10.6,0c3.5,0,5.8,1.1,9.1,2.1c2.6,0.8,5.2,1.2,7.7,1.4c2.6,0.3-2.9-4.2-4.3-6.4
		c-1.5-2.3,4.9-4.2,5.6-4.9c2.4-2.1,4.4-2.3,7-3.5c2.7-1.4,5.9-1.7,8.5-2.1c3.8-0.8,7.6,0.9,9.9,1.4c1.8,0.3-2.9,2.3-4.3,3.5
		c-1.8,1.5-8.3-0.6-9.9-0.8c-2.6-0.3-5.5,2-7.7,2.9c-4.1,1.5-1.8,3.6-3.5,7c-0.5,0.9,5.9,3.9,6.4,4.2c1.7,1.1-7.4,2-8.5,2.1
		c-3.5,0.3-7.1,0-10.6,0c-2.7,0-7-0.2-9.1,0c-3.8,0.5-6.7,0.5-9.9,0.8c-3.5,0.3-6.1-0.3-9.9-0.8c-3.5-0.3-5.8-1.7-8.5-2.9
		c-3.2-1.2-4.6-2.3-7-3.5c-2.1-1.1-3.6-4.6-4.9-6.4c-2.4-3.2-3.3-2.3-6.4-4.2c-1.8-1.2-3.8,2.3-5.6,3.5c-1.8,1.2,0.9,4.2,1.4,6.4
		c0.6,2.7-5.2-1.8-7.7-2.9c-1.8-0.6-0.5-3.8-0.8-5.6c-0.5-3-6.1,1.1-9.1,1.4c-1.7,0.2,0-8.7,0-9.1c0.2-1.2,5-4.2,5.6-4.9
		c2.1-1.8,5.5-2.3,7.7-3.5c2.6-1.4,6.5-1.2,9.1-1.4c3.5-0.3,7.1,0,10.6,0h10.6c4.3,0,5,1.8,7.7,2.9c4.6,1.7,1.1,5,1.4,6.4
		c0.6,2.7-5.2-1.8-7.7-2.9c-2.4-0.9-8-0.5-9.9-0.8c-3.9-0.5-6.4-0.3-9.9-0.8c-5.3-0.6-5.8,2.1-7.7,2.9c-2.4,0.9,4.7,2.3,7,3.5
		c2.6,1.4,4.7,1.7,7.7,2.9c1.1,0.5,5.9-2.9,7-3.5c1.4-0.6,1.8,2.3,2.9,3.5c1.5,2-3.8,3.3-5.6,4.9c-2.6,2.3,2.6,5.6,3.5,7
		c2.1,3.2,7-1.2,7.7-1.4c3-0.6,3.8-3.3,5.6-4.9c2.1-1.8,1.4-5.9,1.4-9.1c0-2.7,0.8-6.2,0.8-9.9c0-3.6,4.9-2.3,7.7-2.9
		c3.6-0.8,5.9-0.3,9.9-0.8c3.5-0.3,7.1,0,10.6,0C1606.1,774.7,1607.9,775.1,1609.7,775.3L1609.7,775.3z M1739.3,773.1
		c3.2,0-5.6,2.9-8.5,4.2c-3,1.5-4.2,2.9-6.4,4.2c-1.8,1.2-4.1,3.6-5.6,4.9c-2.4,2.1-3.2,3.6-4.9,5.6c-2.1,2.4-3.5,2.4-6.4,4.2
		c-1.1,0.8-2.3-0.9-3.5-1.4c-2.3-0.9,3.8-3.3,5.6-4.9c3.9-3.5-0.6-4.7-0.8-5.6c0-0.2-5.8,3.9-6.4,4.2l-6.4,4.2
		c-4.2,2.7-3.3,0.8-5.6,1.4c-2,0.5,1.4-3.8,2.1-5.6c0.9-2.3,5.6-2.1,7.7-2.9c0.9-0.3-1.8-0.5-2.9-0.8c-1.1-0.3-6.7,1.8-8.5,2.1
		c-2.9,0.6-1.2,6.4-1.4,7.7c-0.2,0.8,7,4.2,7,4.2c2.6,1.4,0,5.2,0,6.4c0,2.6,5.2-0.2,7.7-0.8c3-0.6,5,3.5,7.7,4.9
		c2.3,1.1,3.8-3.3,5.6-4.9c3.8-3.3,5.8,3.8,6.4,4.2c2.7,1.8-4.9,5.6-4.9,5.6c-1.5,1.7-7.6,0.8-9.9,0.8c-1.1,0-5.5-1.7-7-2.1
		c-1.4-0.5-7.7-0.6-8.5-0.8c-2.7-0.6-3.5-4.1-4.9-5.6c-2.6-2.9-2.6-3.9-4.3-7c-1.4-2.4,0.6-8.3,0.8-9.9c0.2-1.7,0.8-6.4,0.8-6.4
		c0.3-2.6-2.9,4.2-4.3,6.4c-1.4,2.1,0.6,8.3,0.8,9.9c0.8,7.6-2.9,2.4-4.9,4.2c-0.8,0.6-1.8-7.3-2.1-8.5c-0.9-4.6,1.5-6.2,2.1-8.5
		c0.9-2.9,3.9-3.5,5.6-4.9c2.1-1.8,6.4-1.1,9.1-1.4c3-0.3,6.1-1.4,8.5-2.1c2.6-0.8,6.4-0.8,9.9-0.8c7.4,0,3.3,3.3,4.2,4.2
		c1.1,1.1,1.8,2.3,2.9,3.5c1.5,2,3.3-3.8,4.9-5.6c2.1-2.4,3.5-3,5.6-4.9c2.1-1.8,4.9-2.4,7-3.5
		C1742.1,767.5,1736,772.4,1739.3,773.1L1739.3,773.1z M1907.1,789.4c2.7-1.4-5.6,2.3-8.5,3.5c-2.9,1.2-4.4,2.3-7,3.5
		c-2.4,1.2-3,4.6-4.2,6.4c-1.5,2.1-2.4,4.7-3.5,7c-1.5,3-2.9,4.2-4.3,6.4l-4.2,6.4c0,0,6.2-4.1,6.4-4.2c2.3-1.5,3.5-3.9,4.9-5.6
		l4.9-5.6l4.9-5.6c1.4-1.7,5-2.6,7-3.5C1905.1,797.1,1906.1,791.5,1907.1,789.4L1907.1,789.4z M1803.5,776.6
		c2.9-1.5-5.6,3.3-8.5,4.9c-2.3,1.4-4.9,2.4-7,3.5c-2.3,1.2-5.9,2.1-7.7,2.9c-3.5,1.2-6.8-0.9-9.1-1.4c-4.1-0.8-6.5,0.9-9.1,1.4
		c-1.7,0.3-0.5,3.3-0.8,4.9c-0.5,3.2,6.5-0.3,9.9-0.8c3.8-0.3,5.6,1.1,7.7,1.4c3.3,0.6,4.9,0,7.7,0c1.8,0,4.1-5.3,4.9-6.4
		c1.1-1.4,6.7-1.2,7.7-1.4C1803.4,785.1,1802.6,781.2,1803.5,776.6L1803.5,776.6z M1837.2,782.4c1.5-0.3,6.2-3.2,8.5-4.2
		c3-1.5,0,5.6,0,6.4c-0.3,2.6,4.7-2.3,7-3.5l4.3-2.1c2.4-1.2-1.8,5.2-2.9,7.7c-0.2,0.3-8.7,1.4-9.1,1.4c-1.8,0.3-3.5,5.2-4.3,6.4
		l-4.3,6.4c-3,4.6-2.7,1.2-6.4,2.9c-2.1,0.9-0.5-4.7-0.8-7c-0.6-6.7-1.1-0.5-4.9-2.1c-2.4-1.1-4.6,2.7-7,3.5c-6.7,2-2.9-1.8-5.6-3.5
		c-4.2-2.7-1.2,0.2-5.6,0.8c-0.8,0.2-6.5,2-7,2.1c-2.7,0.8,0.2-5.6,0.8-8.5c0.5-2.3,6.2-1.8,8.5-2.1c3.8-0.3,6.1,0.3,9.9,0.8
		c3.5,0.3,3.9-3.5,5.6-4.9c1.5-1.4,8,0.5,9.9,0.8C1835,783.2,1836.2,782.6,1837.2,782.4L1837.2,782.4z"/>
	<path class="st16" d="M1188.8,796.7c-0.3,13.1,24.3,20.6,34.2,13.8C1228.9,791.8,1194,784.1,1188.8,796.7z M1305.4,811.2
		c6.4,5.2,34.6,4.7,32-8.7C1328.1,787.1,1294.6,796.8,1305.4,811.2z M1421.9,811.5c14,4.7,39.5-9,15.2-18.7
		C1401.9,784.8,1404.8,810.8,1421.9,811.5z M1628.7,798.5c-8-8.2-25.7,2.3-10.8,9.4C1623.8,807.4,1629.9,805.6,1628.7,798.5z"/>
	<path class="st17" d="M1456.9,759.8c5,7.7,26-1.4,23.2-7C1475.4,742.9,1452.3,752.8,1456.9,759.8z M1543.5,756.3
		c2.9,4.1,19.1,5.5,18.7-7.1C1559,744.6,1542.8,752.2,1543.5,756.3z"/>
	<path class="st18" d="M1293.1,201.5c5,7.7,26-1.4,23.2-7C1311.7,184.5,1288.7,194.4,1293.1,201.5z"/>
	<path class="st19" d="M1426.3,162.7c2.3,9,25,7,24.3,0.8C1449.3,152.5,1424.2,154.6,1426.3,162.7z"/>
	<path class="st20" d="M1450.5,73.9c4.3,6.8,21.6,1.8,19.3-3C1466,62.3,1446.7,67.6,1450.5,73.9z"/>
	<path class="st21" d="M1263.2,177.2c7.7,5.6,25-10.6,20.3-15.2C1275.3,154.2,1256.2,172.1,1263.2,177.2z"/>
	<path class="st22" d="M1556.1,202.6c2.7,11.2,28.1,8,27,0.2C1581.5,189.1,1553.5,192.4,1556.1,202.6z"/>
	<path class="st23" d="M1410.9,117.6c3.8,6.7,19.9,0.6,17.9-4.1C1425.3,105,1407.4,111.5,1410.9,117.6z"/>
	<path class="st24" d="M1346.5,130.9c5.3,7,20.8-2.7,17.8-7.9C1358.8,114.1,1341.6,124.7,1346.5,130.9z"/>
	<path class="st25" d="M1338.9,82.2c4.7,2.4,13.8-5.6,10.9-7.6C1344.8,71.3,1334.7,80.1,1338.9,82.2z"/>
	
		<linearGradient id="SVGID_13_" gradientUnits="userSpaceOnUse" x1="3223.9653" y1="-1574.2305" x2="3222.1323" y2="-1122.1177" gradientTransform="matrix(1.7149 0 0 0.3459 -3924.6975 633.6452)">
		<stop  offset="0" style="stop-color:#9A9595"/>
		<stop  offset="1" style="stop-color:#C3BDBD"/>
	</linearGradient>
	
		<linearGradient id="SVGID_14_" gradientUnits="userSpaceOnUse" x1="3221.5056" y1="-1584.0864" x2="3223.3293" y2="-1117.4852" gradientTransform="matrix(1.7149 0 0 0.3459 -3924.6975 633.6452)">
		<stop  offset="0" style="stop-color:#9A9595"/>
		<stop  offset="1" style="stop-color:#C3BDBD"/>
	</linearGradient>
	<path class="st26" d="M1355.5,206.1c3.8,0,5.5,4.7,7,6.4c2.6,2.3,3.9,2.6,7,4.3c3.3,1.8,4.7,2.3,7.7,3.5c1.2,0.5,5.8,0.2,7.7,0
		c5.9-0.6,0.9-1.1,4.2-4.9c1.5-1.8,3.8-4.9,4.9-6.4c1.5-2,6.8-1.8,9.9-2.1c6.2-0.6,2.1,3.8,2.9,4.9c1.5,2.7-6.2,1.2-9.1,2.1
		c-2.4,0.8-2.6,5.3-3.5,7c-2.7,5.5,0.2,0.2,2.1,4.3c1.7,3.3,6.4-2,7-2.1c5.5-1.7,3.5,1.5,6.4,2.9c1.2,0.5-5,3.2-5.6,3.5
		c-2.7,1.8,6.5-0.3,9.9-0.8c5.5-0.6,3.3-2.3,6.4-4.3c4.1-2.7,0.5,0.2,4.9,1.4c3,0.9,5.3-2.7,7-3.5c2.3-1.1,8,0,10.6,0
		c1.7,0-0.9-3.3-1.4-4.9c-0.2-0.6-5.9-4.6-6.4-4.9c-4.9-3.6-3.5,3-4.9,4.3c-3.6,3-2.9,0.6-6.4,1.4c-2.1,0.5,0.9-4.3,1.4-6.4
		c1.4-5.9-0.5-1.4-1.4-4.9c-0.8-2.6-5.2,1.8-7.7,2.9c-6.1,2.1-2.9-1.1-5.6-2.1c-2.6-0.9,5.2-2,7.7-2.9c3.2-0.9,5.2-1.1,9.1-1.4
		c3.6-0.3,5.3,2,7.7,2.9c4.6,1.7,4.4-1.4,7-2.1c2.1-0.6,2.6-4.9,4.9-4.3c2.3,0.8-2.3,4.7-3.5,7c-1.4,2.9,5.9-2,6.4-2.1
		c2.6-1.5,5.2-1.1,9.1-1.4c1.4-0.2,5.9,3.6,7,4.3c3.5,2,3.3,3.3,5.6,5.6c2.1,2.1,2.7,4.1,4.3,6.4c1.7,2.4,1.1,5.3,1.4,9.1
		c0.3,2.6-5.2-0.6-7.7-1.4s-2.6-5.2-3.5-7l-3.5-7c-1.5-3.2-2.3-6.4-4.3-6.5c-2.4,0.2,1.4,5,2.1,7.3c1.8,6.2-4.9,2.7-4.9,2.9
		c-2.3,1.4-2.3-4.7-3.5-7c-2.4-4.7-4.9,4.3-4.9,4.3c-0.3,0.3,5.5,4.7,5.6,4.9c2,1.8,5.2,2.6,7,3.5c4.2,2.1,2,2.9,4.2,6.4
		c0.3,0.5-6.8,4.1-7,4.3c-3,1.7-7-0.6-8.5-0.8c-0.8-0.2,6.1-4.1,6.4-4.3c2.1-1.5-5.2-1.7-7.7-1.4c-1.8,0.2-5.6,2.7-7,3.5
		c-3,1.5-4.6,1.8-7.7,2.9c-0.6,0.2-7.7-1.4-8.5-1.4c-0.9-0.2-5.9,2.3-7.7,2.9c-3.6,1.1-7.3-1.1-9.1-1.4c-3.3-0.6-5.8-1.5-8.5-2.1
		c-2.1-0.5-5-2.6-7-3.5c-2.9-1.5-4.7-2-7.7-2.9c-3-0.9-5.2-1.8-7.7-2.9c-2.7-0.9-7.7,0-10.6,0c-1.5,0-4.7-4.1-5.6-4.9
		C1356.2,213.7,1355,208.2,1355.5,206.1L1355.5,206.1z M1517,224.4c0.6-3-6.5-5.2-8-6.4c-2.4-2-4.6-2.3-7-3.5
		c-3.6-1.8-6.8,1.7-8.5,2.1c-2.7,0.9-5.3,2-7.7,2.9c-4.4,1.7-2.3,2.7-4.9,5.6c-2.9,3.3,0.3,6.8,1.4,7.7c2,0.5,2.3-2.9,3.5-4.3
		c0.9-1.1,1.4-0.9,4.9-3.5c2-1.4,5.2,4.6,5.6,4.9l5.6,4.9c1.8,1.7,5.5,1.5,8.2,2.1c2.4-0.9-1.7-3.3-2.6-4.9c-1.2-2-3.8-3.8-5.6-5.6
		c-4.4-4.4,1.7-4.4,2.1-5.6c0.6-1.7,7.6,2.7,7.7,2.9C1516.5,225.8,1510.3,223.4,1517,224.4L1517,224.4z M1759.8,204.7
		c2.1,0.8,6.1,5.6,7.7,7c2.3,2,3.8,3.3,5.6,4.9c2.7,2.4-2.6,7.3-2.9,7.7c-0.6,1.7-2.6,6.7-2.9,7.7c-0.2,0.8-8,1.4-9.1,1.4
		c-4.1,0.5-6.5-0.9-9.1-1.4c-3.6-0.8-5.5,0.2-8.5,0.8c-4.3,0.9-5.3-0.5-8.5-1.4c-3-0.9-4.1,0.8-7.7,1.4c-2.9,0.6-6.2-1.5-8.5-2.1
		c-1.8-0.6-7.1,1.1-9.9,1.4c-3.3,0.3-7.6-0.5-9.9-0.8c-2.4-0.3-5.2-1.4-9.1-1.4c-4.1,0-6.4-0.8-9.9-1.4c-4.2-0.9-5.2-1.8-7.7-2.9
		c-3.5-1.2-2.9-3.3-4.9-5.6c-3-3.5,1.7-5.6,2.1-7c1.1-3.5,4.3-3.3,6.4-4.9c2.7-2.1,5.5-0.5,8.5-0.8c2.3-0.3,7.3,0.2,9.1,0
		c2.6-0.3,5.2-2.6,7-3.5c3.8-1.8,4.1,1.2,7,2.1c4.7,1.4,5.3-0.5,8.5-1.4c2.1-0.6,6.4-2,8.5-2.1c3.3-0.3,7.3-0.5,9.9-0.8
		c0.2,0,5.6-3.8,6.4-4.3c2.7-1.8,4.9-2,7.7-2.9c3-0.9,6.5-0.8,9.9-0.8c5.8,0,2.9,2.6,5.6,4.9c0.5,0.3-7.9,1.2-9.1,1.4
		c-3.2,0.3-6.2-0.3-9.9-0.8c-2.3-0.2-4.6,4.1-5.6,4.9c-2.1,1.8-5.2,1.5-8.5,2.1c-3,0.6-6.4,0.8-9.9,0.8c-3.5,0-5,1.8-7.7,2.9
		c-3.3,1.2-6.5,0.3-9.1,0c-3.5-0.3-4.9-0.3-7.7,0c-2.3,0.3-4.7,1.7-8.5,2.1c-2.7,0.3-6.5-0.3-9.9-0.8c-3.5-0.3-2.4,5-3.5,7
		c-0.8,1.7,6.2,3.2,7,3.5c3,1.5,5.3,1.1,9.1,1.4c4.1,0.5,5.6,1.2,8.5,2.1c2.3,0.8,6.1-2.6,7.7-3.5c2.3-1.2,4.2,2.9,6.4,4.3
		c1.7,1.2,8.3,0,10.6,0c3.8,0,5.8-0.8,9.1-1.4c2.4-0.5,5.6,1.2,8.5,2.1c1.8,0.6,6.8-1.2,9.1-1.4c2-0.2,5.6,2.1,7.7,2.9
		c3.5,1.2,6.8-0.9,9.1-1.4c4.1-0.8,2-3.9,3.5-7c0.6-1.4-4.2-4.9-4.9-5.6c-2-2.1-3.8-3.3-5.6-4.9
		C1755.6,207.7,1758.8,207,1759.8,204.7L1759.8,204.7z M1862,209.6c-2.7-2.4,4.3,6.1,6.4,9.1c1.5,2.3,1.8,5.2,2.9,7.7
		c1.1,2.7-0.6,8.2-0.8,9.9c-0.3,2.6-4.7-2.3-7-3.5c-0.3-0.2-5-4.4-5.6-4.9c-1.7-1.5-3.8,2.3-5.6,3.5c-1.5,0.9-4.6-5.2-4.9-5.6
		c-1.7-1.8-3.8,3.3-5.6,4.9c-5,4.4-4.3-4.9-4.9-5.6c-3.8-2.3-5.3,4.7-5.6,4.9c-2.3,2-6.1-0.9-7.7-1.4c-3-0.9-4.7-2.3-7-3.5
		c-2.7-1.4-3.3-3.8-4.9-5.6l-4.9-5.6c-4.3-4.9,3.5-4.1,3.5-4.3c1.1-1.2,4.9,5.5,4.9,5.6c2.1,2.4,2.7,4.1,4.3,6.4
		c1.2,1.8,6.7,1.8,8.5,2.1c2.7,0.6,6.4-1.4,8.7-0.2c1.4,0.2,7.1,1.4,8.2,1.5c3.6,0.3,5.2-1.2,8.5-2.1c2.4-0.8,4.2,2.9,6.4,4.3
		c3.3,2.3,4.7,1.1,6.4,1.4c2.6,0.6-0.9-5.2-1.4-7.7c-0.3-2-3.3-4.9-4.2-6.4c-1.8-2.6-3.2-3.6-4.9-5.6c-4.4-5,1.8-2.3,3.5-4.3
		C1859.7,203.2,1860.8,208,1862,209.6L1862,209.6z M1853.5,197c2.4,2.1-3.3,5.2-4.9,7.7c-0.9,1.4-2.3,2.7-2.9,3.5
		c-1.1,1.4-3.3-0.9-4.9-1.4c-2.3-0.6-4.3,1.8-6.4,2.9c-1.4,0.6-1.4-7.9-1.4-9.1c0-2.1,4.3,0.9,6.4,1.4c6.5,1.4,2.3-1.1,4.3-2.1
		c1.4-0.6,1.8-2.3,2.9-3.5c2.4-2.9,3.6-3.2,4.9-4.3C1852.7,190.9,1853.8,194.5,1853.5,197L1853.5,197z M1828.4,210.6
		c-2.1,2-6.4,1.8-9.4,3.2c-2,0.9-2.3-3.8-3.5-5.6c-1.5-2.4,5.5-3,7-3.5C1828.4,202.9,1826.9,208.2,1828.4,210.6L1828.4,210.6z
		 M1885.2,227.2c2-0.6,3.9,7.4,4.9,9.1c1.2,2.1-4.7-1.4-7-2.1c-4.1-1.2-1.2-5.6-1.4-6.4C1881.4,226.7,1884,227.5,1885.2,227.2
		L1885.2,227.2z M1394.2,154c-0.8-3.5-7-0.3-10.6-0.8c-2.9-0.3-4.3-4.3-5.6-5.6c-1.4-1.4-2.4-6.7-2.9-7.7c-0.3-1.2-7.1-1.2-9.1-1.4
		c-0.6,0-6.2,3-7,3.5c-3,1.5-5-3.3-6.4-4.3c-3.9-2.6-4.9,1.5-7,2.1c-2.7,0.8-5.6,2.1-7.7,2.9c-4.7,1.4-0.6,5.3-0.8,5.6
		c-0.5,3,6.1,0.8,9.1,1.4c2.4,0.5-0.6,7.7-0.8,8.5c-0.5,2.4-1.2,5.3-1.4,7.7c-0.3,2.3,4.7-0.5,7-0.8c2.7-0.3,5.3-1.1,9.1-1.4
		c4.6-0.5,5.2-1.8,7.7-2.9c2.3-0.8,4.1-3.6,5.6-4.9c3.8-3.3-2-6.5-2.1-7c-0.6-2-3.3,2.3-4.9,3.5c-2,1.5-3.8,4.9-6.4,6.4
		c-5,2.7-3.6-2.3-5.6-3.5c-1.1-0.6,1.4-1.8,2.1-2.9c1.4-1.8,4.7,0.5,7,0.8c1.7,0.2-1.8-2.9-2.9-4.3c-1.4-2.1-5.3-1.5-8.5-2.1
		c-0.6-0.2,7.4-1.4,7.7-1.4c3.5-0.3,5.8-1.7,8.5-2.9c2-0.8,4.7,4.1,5.6,4.9c1.5,1.4,2.9,5.8,3.5,7c2,4.1,3,2,6.4,4.3
		c1.7,1.2,8.3,0,10.6,0C1396.6,158.9,1394.5,155.7,1394.2,154L1394.2,154z M1342.1,156.7c1.1,1.7-9.1,3.9-9.9,4.3
		c-2.7,1.2-7.1-0.5-9.9-0.8c-3.2-0.3-7.4-0.6-7.7-2.9c-0.5-1.7,6.8-2,8.5-2.1c0.9-0.2-1.4-0.9-2.1-1.4c-2-1.4-5.8,0.8-7-1.8
		c-0.2-1.4,6.5-4.3,7-4.4c2.9-1.7,5.5-1.2,7.7-1.4c2.6-0.3-2.4,5.5-1.4,7.7c1.4,1.8,5-3.8,6.4-3.5c3.2,0.9-0.9,4.2-1.4,6.4
		C1331.5,159.9,1339.8,154.2,1342.1,156.7L1342.1,156.7z M1609.9,146.3v8c0,1.5-5.8,0.5-5.9,0.5c-1.7,0-3-1.4-4.6-2
		c-1.8-0.8-3.9,1.2-5.9,1.5c-2,0.2-4.1-1.7-5.5-2c-2.4-0.8-3.6-0.5-5.9-0.5c-2.1,0-4.4-0.2-5.9-0.5c-4.6-0.9-1.1-2-1.5-3
		c-1.1-2.1,4.7-0.5,7-0.5c1.2,0-1.4-2-2-3c-0.5-0.6-6.5,0.5-7.4,0.5c-2.6,0.3-5.2-0.3-7-0.5c-1.1-0.2-4.1-1.7-5.5-2
		c-1.8-0.3-4.6,0.5-7,0.5c-2.9,0-4.2-0.3-7-0.5c-1.8-0.2-3,4.1-3.5,5c-1.4,2.6-2.4,1.4-5.5,2c-1.8,0.3-5.2-1.2-7-1.5
		c-2-0.5-3.8-2.3-5-3c-1.7-0.9-3.6-1.5-5.5-2.4c-1.7-0.9-5.5-0.8-7.4-1.1c-2.3-0.3-4.3-0.5-7-0.5c-2.3,0-3.8,1.5-5.5,2
		c-1.8,0.6-3.2,2.1-4.6,3c-1.8,1.2-1.5,3.2-2.4,5c-0.9,1.8,3.6,2.4,4.6,3c1.8,1.2,5.6-0.8,6.5-1.1c2.1-0.5,3.8-1.1,5.9-1.5
		c4.6-0.9,2.6,1.2,4.6,2c0.5,0.2-4.4,3.5-4.6,3.5c-1.5,1.2-4.1,0.8-6.5,1.1c-2.4,0.3-5,0-7.4,0c-3.6,0-3.6-1.4-5.5-2
		c-1.7-0.6-1.2-4.2-1.5-5.9c-0.6-2.9,1.5-3.9,2-5.5c0.9-2.4,2.3-2,3.9-3.5c1.7-1.4,3.8-1.1,5.9-1.5c2.1-0.5,3.6-0.8,6.5-1.1
		c2.4-0.3,5,0,7.4,0c3,0,3.3-2.6,4.6-3.9c0.9-1.1,2-3.8,2.4-5c1.1-2.1,3.2-1.5,5-2.4c4.6-2.3,0.9,2.4,1.1,2.4c0.5,1.1-2.7,4.1-3,4.6
		c-1.5,2.3,1.7,4.7,2,5.5c0.8,2.1,3,2,4.6,3c1.8,1.2,4.4,0.5,5.9,0.5c1.1,0,3.3-2.9,3.9-3.5c1.7-1.5,3.3-1.4,5.5-2
		c2-0.6,3.8,1.8,5,2.4c1.8,0.9,5.2-0.3,7-0.5c1.5-0.2,3.9,1.4,5.5,2c0.8,0.3,0-1.7,0-2.4c0-1.8-2-3-3-4.6c-2.4-3.6,2.9-3.2,3.5-3.9
		c1.1-1.2,4.7,2.3,5,2.4c2,0.9,3.8,1.5,5.5,2.4c2,1.1,3.5,1.4,5.5,2c2.4,0.8,3.6,0.8,6.5,1.1c1.7,0.2-0.3-3.3-0.5-5
		c-0.2-1.4,0.5-3.3,0.5-3.9c0.3-1.8,3,2.3,4.6,3.5l4.6,3.5c2.3,1.7,3.2-1.4,4.6-2c1.7-0.8,2-3,3-4.6c0.6-0.9,3.5,3.5,3.9,3.9
		l3.9,3.9c1.7,1.7,3.3,2,5,3c1.2,0.8,2.4,3.9,3,5c1.8,3.3-0.8,1.8-1.5,3.9c-0.3,0.6-2.7-4.2-3-4.6c-1.1-1.5-2.7-2.4-3.9-3.5
		c-1.2-1.1-4.3-1.2-5.9-1.5c-2.6-0.5-3,2.3-4.6,3.5c-2,1.5-3.2,0.9-5.9,1.5c-1.5,0.3-4.3-1.2-5.9-1.5c-1.1-0.2-0.3,2-0.5,3
		c-0.3,1.8,3,2,4.6,3c1.2,0.8,5-1.2,5.9-1.5c3.3-0.9,3.5-1.8,5-2.4c1.8-0.9,2.4-0.6,4.6-1.1C1608.2,145.1,1609.1,146,1609.9,146.3z
		 M1704,158.3c2.3-0.5-2.7-3.9-3.9-5.9c-1.2-1.8-2.3-2.6-3.5-3.9c-1.4-1.5-3.3-1.7-5-2.4c-2.4-1.2-3.5-0.3-5-0.5
		c-1.4-0.2,0.9,5.5,1.1,5.9c1.1,3.3-2.1,3-3,4.6c-0.9,1.4-4.2,2-5.5,2.4c-2.1,0.9-3.5,1.1-5.9,1.5c-2,0.5-5-1.4-6.5-2
		c-2-0.8-3.9-0.8-6.5-1.1c-3-0.3-4.4-1.2-7-2c-1.7-0.5-3.3-1.7-5-2.4c-2-0.9-3.6-2.3-5-3c-2-1.1-2.1-2.4-3.5-3.9
		c-1.2-1.5-3.2-2.1-4.6-3c-3-2,0-3.5,0-4.6c0-2.3,4.4,0.9,6.5,1.5c0.9,0.3,2,5.2,2,5.5c0.3,1.4,4.4,1.7,5.5,2c4.7,1.4,2.4-1.4,3.5-2
		c0.3-0.2-3.5-3.9-3.5-3.9c-1.1-1.2-3.3-2.3-4.6-3c-2.9-2-0.6-2.6-1.1-4.6c-0.5-2,3.9,0.9,5.9,1.5c2.9,0.9,4.1-0.8,5.5-1.1
		c0.6-0.2,2.3-4.6,2.4-5c0.8-1.4,3.8-2,5-2.4c1.8-0.9,5.9,0.5,7,0.5c4.1,0.5,1.2,3.5,1.5,4.6c0.2,0.3-5.9,0.5-7,0.5
		c-2.4,0-1.7,3.6-2,5.5c0,0.2,2.7,3.9,3,4.6c0.8,1.2-2.7,1.1-3.9,1.5c-1.7,0.6-1.4-3-3.9-3.5c-1.8,1.7,0.3,3.3,0.5,5
		c0.2,1.7-4.9,3.8-2.4,4.6c0.5,0.8,5.3,0.2,6.5,0c3-0.3,3.8-1.1,5.9-2c1.4-0.6,1.1-4.2,1.1-5.5c0-2.1,3.9,0.9,5.9,1.5
		c1.5,0.5-1.7,2.7-2.4,3.9c-1.1,1.7-2.3,3.3-3,4.6c-0.6,0.9-1.4,1.7-2,2.4c-0.2,0.2,5.9,0.5,7,0.5c1.8,0,3.9-1.7,5.5-2.4
		c3.2-1.8,0-2.9,0-5V142c0-2.1-3.9-0.9-5.9-1.5c-2.1-0.6-3.5-4.2-1.5-5c0-0.2,5,2.3,5.5,2.4c0.9,0.5,0.3-2,0.5-3
		c0.3-1.8-1.7-3.3-2.4-5c-0.6-1.4,3,0,4.6,0c1.7,0,2.7,3.2,3.5,4.6c1.1,1.8,2,3,3,4.6c0.3,0.5,5,1.8,5.5,2c2.1,0.8,3.2,1.7,5,2.4
		c1.8,0.9,2.7,2.1,4.6,3.5c2.1,1.7,1.8,2.4,3.5,4.6c1.4,1.7,2,3.2,3,5C1711.1,161.7,1705,157.8,1704,158.3z M1759.4,150.4
		c1.4,2.3-5.6,2.4-7,3c-2.1,0.9-3.8,0.3-5.9,0.5c-1.1,0.2-4.1-2-5-2.4c-2.1-1.1-3-2-4.6-3c-1.5-1.1-4.1-1.1-6.5-1.5
		c-1.2-0.3,0,2.3,0,3.5c0,2,3.5,2.1,5,3.5c1.2,1.1-5.2,1.4-5.9,1.5c-1.7,0.2-2.4-3.5-3-4.6c-1.4-2.1-2.1-2-3.9-3.5
		c-1.7-1.4-3.6-0.8-5.9-1.5c-1.7-0.5,2.3,2.7,3.5,3.9c1.1,1.2,2.9,2.4,3.9,3.5c1.7,1.5,2.7,2.1,4.6,3.5c3.2,2.4-1.4,2.4-2,3.5
		c-1.1,2-4.3-1.4-6.5-2c-1.2-0.5-0.3,2.7-0.5,3.9c-0.5,3-1.2,2.6-2,4.6c-1.1,2.4-3.3-2.9-3.5-3c-2.6-2.1,2.7-5.2,3-5.5
		c1.8-2.4,0.8-2.6,1.5-5c0.6-2-3.3-2.4-5-3.5c-1.5-1.1-2.1-3.2-3-4.6c-1.2-1.8-1.7-3.3-2.4-5c-1.8-3.6,0.6-3,1.1-4.6
		c0.5-2,3.9,1.1,5.9,1.5c3.8,0.8,2-3,2.4-3.9c0.8-1.4-3,0.6-4.6,1.1c-3.5,0.8-2.6-2.6-3.9-3.9c-0.8-0.8,3.3-3.8,3.5-3.9
		c1.7-1.8,3.8,3.3,3.9,3.5c3.6,3.2,1.5-0.6,3.5-1.5c4.3-1.8,5.5,3.9,6.5,5.5c0.9,1.4,3.3-0.3,5-0.5c4.3-0.5,0.8-1.1,3-3.9
		c2-2.6,1.7-1.5,5-1.5c3.2,0,0,4.6,0,5c0,1.7-2,2.7-3,3.9c-1.2,1.5,3.6,1.4,5.5,2c3.3,1.2,2.3,0.5,5.5,0.5c2.6,0,4.3,0.3,6.5,1.1
		c2.9,0.9,1.4,2.7,2.4,5c1.1,2.3-5.2,1.1-5.5,1.1c-1.8,0-2.3-2.7-3.5-3.9c-0.8-0.9-2,1.1-3,1.5c-1.1,0.6,0.9,3.2-2,3
		c-0.2,0.2-3.3-3.8-3.5-3.9c-1.2-1.4-3.8-2.3-5-3c-1.4-0.8-5-0.9-6.5-1.1c-2-0.2-3.6-0.8-5.9-0.5c-3.3,0.3-1.8,3-2.4,3.9
		c0,0,5.9,0.5,7,0.5c2.7,0,4.9,0.3,7,0.5c2,0.2,3.3,1.7,5,2.4l5,2.4c2,0.9,4.6,0.8,6.5,1.1c1.5,0.2,3.6-1.4,5.5-2
		C1756.5,146.7,1757.8,149.3,1759.4,150.4z M1791.7,148.8c-4.2-1.7-2,3.2-2.4,3.9c-2.1,3.5-2,0.5-4.6,1.1c-0.8,0.2-4.1-2-5-2.4
		c-4.3-2.1-2.1,3.3-2.4,3.9c-0.8,1.1-1.4,2.3-2,3.5c-1.1,1.7-2.7-3-3.9-4.6c-1.4-1.5-2-3.6-3-5c-1.2-1.7-2.7-2.3-3.9-3.5
		c-1.7-1.5-2-2.9-3-4.6c-0.2-0.3-4.3-2.7-4.6-3c-2.3-1.5-0.2-4.6,0-5.5c0.2-1.8,2.7,2.3,3.9,3.5c2.4,2.1,2.6,0.3,5,0.5
		c3.5,0.3,2.1,2,3.9,3.5c1.8,1.7,2.4,1.7,4.6,3c2.1,1.4,3.6,2.4,5,3.5c2,1.5,2.9,1.4,4.6,2c1.5,0.8-1.1-3.3-1.5-5
		c-0.2-0.6-3.5-3.5-3.9-3.9c-1.2-1.2-4.1-1.5-5.5-2c-1.7-0.5-2.9-2.6-3.9-3.5c-1.8-1.5-2.7-2.7-3.9-3.9c-2.1-2.1-1.1-2.3-2.4-5
		c-1.8-3.6,3.2-2.1,4.6-3c0.9-0.6,4.9,1.5,5.9,2c2.3,0.9,2.3,2.6,3.5,3.9c2.9,3.3-3.9,1.5-3.9,1.5c-8.2,0.2-0.3,3.9,3.5,5
		c2,0.6,5.6,0.3,7.4,0.5c1.4,0.2,3.8,2.6,5,3.5c1.5,1.2,2.7,2.4,3.9,3.5c1.5,1.4,3.9,0.3,5.9,0.5c0.6,0,0.8,3.9,1.1,5
		C1800.2,152.9,1793.8,149.6,1791.7,148.8z M1809.6,131.8c-9.9-7.6-7,2.3-3,4.6C1811.3,139.3,1815.7,137.5,1809.6,131.8z
		 M1803.7,160.2c-1.7,0,0.3,3.3,0.5,5c0.2,1.8,4.6,2.9,5.5,3.5c2.1,1.2,3.8,1.8,5.9,2.4C1819.8,169,1813.1,159.9,1803.7,160.2z"/>
	<path class="st27" d="M1687.9,174.3c-0.6-7.6-22.3-6.2-22.6-0.8C1665,183.6,1688.6,184.5,1687.9,174.3z"/>
	<path class="st28" d="M1734.3,243.9c-0.6-7.6-16.7-7.6-16.8-2.1C1717,251.8,1735.1,253.9,1734.3,243.9z"/>
	<path class="st28" d="M1788.7,236.9c-4.6,6.1,7.7,16.5,11.5,12.6C1806.9,242.2,1794.7,228.7,1788.7,236.9z"/>
	<path class="st29" d="M1471.4,192.6h-15.9c-5.5,0-7.6-1.7-12-3c-4.6-1.4-6.5-1.8-12-3c-4.7-0.9-9-0.5-12.9,0
		c-4.4,0.5-7.7,1.5-12.9,2c-5.3,0.5-8.5-2-12-3c-4.3-1.2-9.4-1.4-14.9-2c-4.9-0.5-10,0-14.9,0h-14.9c-5.6,0-10.9,0.5-15.9,1.1
		c-6.5,0.6-8.3-2-12-3c-4.9-1.5-6.4-1.8-12-3c-5.8-1.2-9.6,1.4-12.9,2c-3.9,0.8-6.5,2.6-10.9,3.9c-4.1,1.2-10.6,0-14.9,0
		c-3.8,0-8-1.5-12.9-2c-4.9-0.5-10,0-14.9,0c-5,0-9.6-1.5-14-2c-2.9-0.3,2-5.3,3-8c1.4-3.6,7.6-3,10.9-3.9c3.5-1.1,3.3,6.7,5,10
		c0.6,1.2,7.6-6.5,8-7c3.2-2.7,5-6.4,7-9c4.3-5.5-5.5-3.6-9-3.9c-1.4-0.2-2.7-0.6-3.9-1.1c-3.2-0.8,2.7-5.9,3.9-9
		c1.8-4.3-9.3,0.6-14,1.1c-2.4,0.3-9,5.8-10.9,7c-2.7,1.5-3.3-5.3-5-8c-1.1-1.8-12.4,0.9-14,1.1c-5.9,0.6-7.9,1.8-12,3
		c-1.7,0.5-6.7,5.8-8,7c-1.4,1.2-9.4-3.3-10.9-3.9c-6.1-2.3-7.6,1.4-10.9,2c-3,0.6,3.9,4.7,5.9,7c2.6,3,8,0.6,12,1.1
		c3.6,0.3-5.9,3.9-9,5.9c-1.7,1.1-12.9,0.9-14,1.1c-3,0.3-7.4,2.9-10.9,3.9c-4.1,1.2-7.6,2.1-12,3c-3.8,0.8-6.8,4.9-10,7
		c-5.6,3.8-1.4,7.6-1.1,12c0.3,3,14,0,14,0c1.8-0.2-1.4,3.3-2,5c-0.9,2.3-10,3.6-12,3.9c-3.5,0.8,2.7,6.7,3.9,10c1.5,3.8,8-1.8,12-3
		c2.9-0.9,5.3-2.7,8-3.9c2.7-1.4-0.6,5.9-1.1,9c-0.3,3,12.9-5,12.9-5c3.6-2,5.9-4.7,10-7c4.4-2.4,5.8,6.5,7,8c0.6,0.6,2,13.5,2,14
		c0.8,3.8,6.7-3.9,10-5.9c2.3-1.4-4.9-9.7-5-10c-3.2-6.5,2.3-7,3.9-10l5-9c2.3-4.1-9.3,0.6-14,1.1c-2.6,0.3-8.8,2-12,2
		c-2.9,0,3.3-4.7,5-7c2.6-3.5,8.7-0.2,12.9-1.1c2.3-0.5,2.7-10.3,3-12c0.8-3.6,7.3,1.4,10.9,2c2.3,0.5,2.9,10.6,3,12
		c0,0.3,7.1,6.2,8,7c4.4,3.8,8.8-1.4,10.9-2c5.5-1.7,6.5-0.6,10.9-1.1c2-0.2,8.2,2.3,12,3c3.3,0.6,10.8,2.7,12,3
		c1.4,0.3,5.5,3.5,10.9,3.9c3.8,0.5,7.6-4.6,10-5.9c3.3-2,7.3-2.9,10.9-5c3.8-2.1,5.9-3,10-5c3.8-2,9.3-0.6,14-1.1
		c5.3-0.5,6.5,4.4,9,5.9c5,3.3,4.4,3.2,12,3.9c5.3,0.6,8.5-1.1,12.9-2c3.9-0.8,11.4-0.8,14-1.1c3.8-0.5,7-2,12-3
		c4.2-0.9,9.1-1.1,14-1.1c8.8,0-2.1,2.6-3.9,5c-2.6,3.2-8,1.8-12,3c-2.1,0.6,9.3,4.4,10.9,5c4.7,1.4,10.6-2,14-3
		c4.3-1.2,7.1-1.4,12.9-2s11.5,0.9,17,2c6.2,1.2,9-2.1,12-3c4.1-1.2,8-1.5,12.9-2c5.9-0.6,6.7,3.3,10,5c3.9,2,8.2,3.5,12,5
		c7,2.7,3.5-8,3.9-9C1480.2,195.6,1472.6,193.5,1471.4,192.6z"/>
</g>
<radialGradient id="SVGID_15_" cx="863.477" cy="28.6505" r="516.9324" gradientTransform="matrix(0.8812 0 0 0.8812 -249.0534 479.5918)" gradientUnits="userSpaceOnUse">
	<stop  offset="0" style="stop-color:#FFFFFF;stop-opacity:0.5612"/>
	<stop  offset="0.653" style="stop-color:#686868;stop-opacity:0.2235"/>
	<stop  offset="0.8282" style="stop-color:#272727;stop-opacity:0.3765"/>
	<stop  offset="0.9688" style="stop-color:#000000;stop-opacity:0.6735"/>
	<stop  offset="1" style="stop-color:#000000;stop-opacity:0.9381"/>
</radialGradient>
<path class="st30" d="M965,504.8c0,239.1-202.9,432.9-453.1,432.9S58.7,743.9,58.7,504.8S261.6,71.9,511.8,71.9S965,265.8,965,504.8
	z"/>
</svg>
