<?xml version="1.0" encoding="utf-8"?>
<!-- Generator: Adobe Illustrator 25.2.1, SVG Export Plug-In . SVG Version: 6.00 Build 0)  -->
<svg version="1.1" id="Ebene_1" xmlns="http://www.w3.org/2000/svg" xmlns:xlink="http://www.w3.org/1999/xlink" x="0px" y="0px"
	 viewBox="0 0 52 52" style="enable-background:new 0 0 52 52;" xml:space="preserve">
<style type="text/css">
	.st0{fill:#497EDE;}
</style>
<path class="st0" d="M15.1,0C6.8,0,0,6.8,0,15.1v21.8C0,45.2,6.8,52,15.1,52h21.8C45.2,52,52,45.2,52,36.9V15.1
	C52,6.8,45.2,0,36.9,0H15.1z M15.1,4h21.8C43.1,4,48,8.9,48,15.1v21.8C48,43.1,43.1,48,36.9,48H15.1C8.9,48,4,43.1,4,36.9V15.1
	C4,8.9,8.9,4,15.1,4z M41,8c-1.7,0-3,1.3-3,3s1.3,3,3,3s3-1.3,3-3S42.7,8,41,8z M26,12c-7.7,0-14,6.3-14,14s6.3,14,14,14
	s14-6.3,14-14S33.7,12,26,12z M26,16c5.5,0,10,4.5,10,10s-4.5,10-10,10s-10-4.5-10-10S20.5,16,26,16z"/>
</svg>
