<?xml version="1.0" encoding="utf-8"?>
<!-- Generator: Adobe Illustrator 25.2.1, SVG Export Plug-In . SVG Version: 6.00 Build 0)  -->
<svg version="1.1" id="Ebene_1" xmlns="http://www.w3.org/2000/svg" xmlns:xlink="http://www.w3.org/1999/xlink" x="0px" y="0px"
	 viewBox="0 0 48 48" style="enable-background:new 0 0 48 48;" xml:space="preserve">
<style type="text/css">
	.st0{fill:#497EDE;}
</style>
<path class="st0" d="M48,8.6c-1.8,0.8-3.6,1.4-5.6,1.6C44.4,9,46,7,46.8,4.8c-2,1.2-4,2-6.2,2.4c-2-2-4.6-3.2-7.4-3.2
	c-5.4,0-9.8,4.4-9.8,9.8c0,0.8,0,1.6,0.2,2.2C15.4,15.6,8.2,11.8,3.4,5.8C2.4,7.2,2,9,2,10.8c0,3.4,1.8,6.4,4.4,8.2
	c-1.6-0.2-3.2-0.6-4.4-1.2c0,0,0,0,0,0.2c0,4.8,3.4,8.8,7.8,9.6C9,27.8,8.2,28,7.2,28c-0.6,0-1.2,0-1.8-0.2c1.2,4,4.8,6.8,9.2,6.8
	c-3.4,2.6-7.6,4.2-12.2,4.2c-0.8,0-1.6,0-2.4-0.2C4.4,41.4,9.6,43,15,43c18.2,0,28-15,28-28c0-0.4,0-0.8,0-1.2
	C45,12.4,46.6,10.6,48,8.6"/>
</svg>
