<?xml version="1.0" encoding="utf-8"?>
<!-- Generator: Adobe Illustrator 25.2.1, SVG Export Plug-In . SVG Version: 6.00 Build 0)  -->
<svg version="1.1" id="Ebene_1" xmlns="http://www.w3.org/2000/svg" xmlns:xlink="http://www.w3.org/1999/xlink" x="0px" y="0px"
	 viewBox="0 0 52 52" style="enable-background:new 0 0 52 52;" xml:space="preserve">
<style type="text/css">
	.st0{fill:#497EDE;}
</style>
<path class="st0" d="M50.9,11.9c-0.6-2-2.4-3.5-4.6-4C42.2,7,26,7,26,7S9.8,7,5.6,7.9c-2.3,0.5-4,2.1-4.5,4C0,15.5,0,25.1,0,25.1
	s0,9.7,1.1,13.2c0.6,2,2.4,3.5,4.5,4c4.2,1,20.4,1,20.4,1s16.2,0,20.4-0.9c2.3-0.5,4-2.1,4.6-4c1-3.6,1-13.3,1-13.3
	S52,15.5,50.9,11.9z M20.8,31V19.3c0-0.8,1.1-1.5,1.9-0.9l11.7,5.9c0.9,0.4,0.9,1.6,0,2l-11.7,5.9C21.9,32.5,20.8,32,20.8,31z"/>
</svg>
