<?xml version="1.0" encoding="utf-8"?>
<!-- Generator: Adobe Illustrator 25.2.3, SVG Export Plug-In . SVG Version: 6.00 Build 0)  -->
<svg version="1.1" id="Ebene_1" xmlns="http://www.w3.org/2000/svg" xmlns:xlink="http://www.w3.org/1999/xlink" x="0px" y="0px"
	 viewBox="0 0 200 200" style="enable-background:new 0 0 200 200;" xml:space="preserve">
<style type="text/css">
	.st0{display:none;}
	.st1{display:inline;fill:#FFFF00;}
	.st2{display:inline;}
	.st3{fill:#D7DED1;fill-opacity:0.976;}
	.st4{fill-rule:evenodd;clip-rule:evenodd;fill:#EEF0EC;fill-opacity:0.976;}
	.st5{fill-rule:evenodd;clip-rule:evenodd;fill:#C4CCBD;fill-opacity:0.976;}
	.st6{fill:#C4CCBE;}
	.st7{fill:#A2AE98;}
	.st8{fill:#ECECEC;}
	.st9{fill:#808080;}
	.st10{fill:#DADED5;}
	.st11{fill:#E2E4DF;fill-opacity:0.976;}
	.st12{display:inline;fill:#3D3C3C;stroke:#3D3C3C;stroke-width:9.375000e-02;}
	.st13{display:inline;fill:#4A494B;stroke:#4A494B;stroke-width:9.375000e-02;}
	.st14{display:inline;fill:#4D4E50;stroke:#4D4E50;stroke-width:9.375000e-02;}
	.st15{display:inline;fill:#452720;stroke:#452720;stroke-width:9.375000e-02;}
	.st16{display:inline;fill:#3C3C3C;stroke:#3C3C3C;stroke-width:9.375000e-02;}
	.st17{display:inline;fill:#4E3E3B;stroke:#4E3E3B;stroke-width:9.375000e-02;}
	.st18{display:inline;fill:#5B5B5F;stroke:#5B5B5F;stroke-width:9.375000e-02;}
	.st19{display:inline;fill:#535356;stroke:#535356;stroke-width:9.375000e-02;}
	.st20{display:inline;fill:#3E3E3D;stroke:#3E3E3D;stroke-width:9.375000e-02;}
	.st21{display:inline;fill:#545458;stroke:#545458;stroke-width:9.375000e-02;}
	.st22{display:inline;fill:#424240;stroke:#424240;stroke-width:9.375000e-02;}
	.st23{display:inline;fill:#792C18;stroke:#792C18;stroke-width:9.375000e-02;}
	.st24{display:inline;fill:#3E3E3F;stroke:#3E3E3F;stroke-width:9.375000e-02;}
	.st25{display:inline;fill:#363636;stroke:#363636;stroke-width:9.375000e-02;}
	.st26{display:inline;fill:#A63010;stroke:#A63010;stroke-width:9.375000e-02;}
	.st27{display:inline;fill:#2C2C2A;stroke:#2C2C2A;stroke-width:9.375000e-02;}
	.st28{display:inline;fill:#444546;stroke:#444546;stroke-width:9.375000e-02;}
	.st29{display:inline;fill:#666366;stroke:#666366;stroke-width:9.375000e-02;}
	.st30{display:inline;fill:#3D3E3E;stroke:#3D3E3E;stroke-width:9.375000e-02;}
	.st31{display:inline;fill:#6B6669;stroke:#6B6669;stroke-width:9.375000e-02;}
	.st32{display:inline;fill:#383736;stroke:#383736;stroke-width:9.375000e-02;}
	.st33{display:inline;fill:#C88D1B;stroke:#C88D1B;stroke-width:9.375000e-02;}
	.st34{display:inline;fill:#ECC21F;stroke:#ECC21F;stroke-width:9.375000e-02;}
	.st35{display:inline;fill:#404141;stroke:#404141;stroke-width:9.375000e-02;}
	.st36{display:inline;fill:#C18E1D;stroke:#C18E1D;stroke-width:9.375000e-02;}
	.st37{display:inline;fill:#373534;stroke:#373534;stroke-width:9.375000e-02;}
	.st38{display:inline;fill:#2B2B2A;stroke:#2B2B2A;stroke-width:9.375000e-02;}
	.st39{display:inline;fill:#2A2A28;stroke:#2A2A28;stroke-width:9.375000e-02;}
	.st40{display:inline;fill:#D2B123;stroke:#D2B123;stroke-width:9.375000e-02;}
	.st41{display:inline;fill:#2D2B2A;stroke:#2D2B2A;stroke-width:9.375000e-02;}
	.st42{display:inline;fill:#973518;stroke:#973518;stroke-width:9.375000e-02;}
	.st43{display:inline;fill:#4B3028;stroke:#4B3028;stroke-width:9.375000e-02;}
	.st44{display:inline;fill:#BD6516;stroke:#BD6516;stroke-width:9.375000e-02;}
	.st45{display:inline;fill:#7F4F25;stroke:#7F4F25;stroke-width:9.375000e-02;}
	.st46{display:inline;fill:#404041;stroke:#404041;stroke-width:9.375000e-02;}
	.st47{display:inline;fill:#48494B;stroke:#48494B;stroke-width:9.375000e-02;}
	.st48{display:inline;fill:#545355;stroke:#545355;stroke-width:9.375000e-02;}
	.st49{display:inline;fill:#5E5B5F;stroke:#5E5B5F;stroke-width:9.375000e-02;}
	.st50{display:inline;fill:#2E2D2B;stroke:#2E2D2B;stroke-width:9.375000e-02;}
	.st51{display:inline;fill:#3A3B3C;stroke:#3A3B3C;stroke-width:9.375000e-02;}
	.st52{display:inline;fill:#AD360D;stroke:#AD360D;stroke-width:9.375000e-02;}
	.st53{display:inline;fill:#BF4E0D;stroke:#BF4E0D;stroke-width:9.375000e-02;}
	.st54{display:inline;fill:#CC7213;stroke:#CC7213;stroke-width:9.375000e-02;}
	.st55{display:inline;fill:#DD9317;stroke:#DD9317;stroke-width:9.375000e-02;}
	.st56{display:inline;fill:#7F6B2B;stroke:#7F6B2B;stroke-width:9.375000e-02;}
	.st57{display:inline;fill:#EEC11F;stroke:#EEC11F;stroke-width:9.375000e-02;}
	.st58{display:inline;fill:#A18B23;stroke:#A18B23;stroke-width:9.375000e-02;}
	.st59{display:inline;fill:#C36412;stroke:#C36412;stroke-width:9.375000e-02;}
	.st60{display:inline;fill:#A7340E;stroke:#A7340E;stroke-width:9.375000e-02;}
	.st61{display:inline;fill:#6E2916;stroke:#6E2916;stroke-width:9.375000e-02;}
	.st62{display:inline;fill:#45271E;stroke:#45271E;stroke-width:9.375000e-02;}
	.st63{display:inline;fill:#A16723;stroke:#A16723;stroke-width:9.375000e-02;}
	.st64{display:inline;fill:#D4911B;stroke:#D4911B;stroke-width:9.375000e-02;}
	.st65{display:inline;fill:#302F2E;stroke:#302F2E;stroke-width:9.375000e-02;}
	.st66{display:inline;fill:#3B3938;stroke:#3B3938;stroke-width:9.375000e-02;}
	.st67{display:inline;fill:#3A3835;stroke:#3A3835;stroke-width:9.375000e-02;}
	.st68{display:inline;fill:#454447;stroke:#454447;stroke-width:9.375000e-02;}
	.st69{display:inline;fill:#4B4B4D;stroke:#4B4B4D;stroke-width:9.375000e-02;}
	.st70{display:inline;fill:#3E3D3F;stroke:#3E3D3F;stroke-width:9.375000e-02;}
	.st71{display:inline;fill:#5D5B5D;stroke:#5D5B5D;stroke-width:9.375000e-02;}
	.st72{display:inline;fill:#3B3B3C;stroke:#3B3B3C;stroke-width:9.375000e-02;}
	.st73{display:inline;fill:#383734;stroke:#383734;stroke-width:9.375000e-02;}
	.st74{display:inline;fill:#2A2A29;stroke:#2A2A29;stroke-width:9.375000e-02;}
	.st75{display:inline;fill:#39393A;stroke:#39393A;stroke-width:9.375000e-02;}
	.st76{display:inline;fill:#2F2E2C;stroke:#2F2E2C;stroke-width:9.375000e-02;}
	.st77{display:inline;fill:#37322B;stroke:#37322B;stroke-width:9.375000e-02;}
	.st78{display:inline;fill:#4A2D1C;stroke:#4A2D1C;stroke-width:9.375000e-02;}
	.st79{display:inline;fill:#6D531F;stroke:#6D531F;stroke-width:9.375000e-02;}
	.st80{display:inline;fill:#2D2D2C;stroke:#2D2D2C;stroke-width:9.375000e-02;}
	.st81{display:inline;fill:#9E7E1E;stroke:#9E7E1E;stroke-width:9.375000e-02;}
	.st82{display:inline;fill:#C8A61F;stroke:#C8A61F;stroke-width:9.375000e-02;}
	.st83{display:inline;fill:#8D4F1C;stroke:#8D4F1C;stroke-width:9.375000e-02;}
	.st84{display:inline;fill:#2E2D29;stroke:#2E2D29;stroke-width:9.375000e-02;}
	.st85{display:inline;fill:#C98C1A;stroke:#C98C1A;stroke-width:9.375000e-02;}
	.st86{display:inline;fill:#A65B17;stroke:#A65B17;stroke-width:9.375000e-02;}
	.st87{display:inline;fill:#923211;stroke:#923211;stroke-width:9.375000e-02;}
	.st88{display:inline;fill:#373737;stroke:#373737;stroke-width:9.375000e-02;}
	.st89{display:inline;fill:#414243;stroke:#414243;stroke-width:9.375000e-02;}
	.st90{display:inline;fill:#383735;stroke:#383735;stroke-width:9.375000e-02;}
	.st91{display:inline;fill:#2C2C2C;stroke:#2C2C2C;stroke-width:9.375000e-02;}
	.st92{display:inline;fill:#2E2E2A;stroke:#2E2E2A;stroke-width:9.375000e-02;}
	.st93{fill-rule:evenodd;clip-rule:evenodd;fill:#D2C8BA;}
	.st94{fill-rule:evenodd;clip-rule:evenodd;fill:#B3AA9E;}
	.st95{fill-rule:evenodd;clip-rule:evenodd;fill:#9B9286;}
	.st96{fill-rule:evenodd;clip-rule:evenodd;fill:#8C847C;}
	.st97{fill-rule:evenodd;clip-rule:evenodd;fill:#C3B9AC;}
	.st98{fill-rule:evenodd;clip-rule:evenodd;fill:#7C7367;}
	.st99{fill-rule:evenodd;clip-rule:evenodd;fill:#635B52;}
	.st100{fill-rule:evenodd;clip-rule:evenodd;fill:#898074;}
</style>
<g class="st0">
	<circle class="st1" cx="100" cy="100" r="99"/>
</g>
<g class="st0">
	<g class="st2">
		<path class="st3" d="M107.1,8.1C96.3,8.1,86.6-1.9,86.6,6c0,1.4-4.8,1.9-4.3,3.1c-29.4,4.8-52.3,22-65.6,47.6
			c-12.1,1.2-6.1,8.3-6.1,18c0,6.8-10.9,13.6-4.1,17c-0.2,2.6-0.3,5.3-0.3,8c0,51.4,41.8,93.2,93.2,93.2c4.8,0,9.6-0.4,14.3-1.1
			c0,0,0,0.1,0,0.1c0,2.7,3.8-1.6,6.8-1.6s4,4.3,4,1.6c0-0.8-0.2-1.6-0.6-2.3c7.7-2.1,13.3-4.6,20.1-8.5c6.3,1.8,7.2,1.9,9.6,0.3
			c5.8-3.9-2.9-9.1,8.6-5.8c3,0.9-0.9-2.7-3-4.4c2.7-2.3,5.3-4.7,7.8-7.3c1.2,2.1,1-3.5,3.4-3.5c3.7,0,2.6-1.5,2.6-5.6
			c0-2.9,5-0.3,2.8-1.5c8.9-12.7,14.8-27.7,16.5-43.9c3.1-1.5,2.6-8.4-0.2-17.4c-3.1-10.1,2.7-20.5-0.9-20.5c-0.8,0-1.6,0.5-2.4,1.3
			c-9.6-31.6-32.6-54.7-64.9-62.4c0.9-1.7-2.7-2.5-2.7-4.4C121.1-1.9,117.9,8.1,107.1,8.1L107.1,8.1z"/>
		<g>
			<path class="st4" d="M94.5,8.8c-2.3,0.1-3.5,2.7-5.2,4.4c-7.6,0.4-15.4,2.3-22.9,6.6c-18.9,10.8-32,28-40.5,43.4
				c-3.5-0.1-7.1-1-10.6-0.9c-3.9,1.1-2.3,5.5-0.7,7.9c1.7,3.7,0.8,8.4-2.2,11.1c-3.2,1.7-2.1,5.7,1.4,5.7c0.4,0.1,0.7,0.2,1.1,0.2
				c-2,5.4-2.8,8.7-2.8,8.7S112.9,7.2,155,41.1c0,0-15.6-14.4-36.5-22.6c0.3-2.6,1.7-6.6-1.2-8c-2.8,1.4-6,1.3-9,1.5
				C103.8,12.9,100,10,95.8,9C95.4,8.8,94.9,8.8,94.5,8.8L94.5,8.8z"/>
			<path class="st5" d="M182.4,119.9c-51.1,27.7-84,60-136.1,49.4c0,0,32.3,21.1,67,17.7c0.8,0.8,1.6,1.7,2.7,2.1
				c2.1,0.3,4.1-1.3,5.6-2.6c0.3-0.3,0.5-0.7,0.6-1c8.2-1.9,16.5-5.3,24.2-10.9c1.5,1.4,3,2.9,4.7,2.5c1.8-2.3,3.9-4.5,5.5-6.7
				c-0.1-0.9-0.4-2.5-0.8-3.8c2.5-2.6,5-5.4,7.4-8.6c1.9-1.3,3.7-2.7,5.2-4.4c1-1.2,2.5-2.6,1.6-4.3c-0.1-0.2-0.4-0.4-0.6-0.7
				C174.3,140.7,178.7,131.2,182.4,119.9L182.4,119.9z"/>
		</g>
	</g>
	<g class="st2">
		<path class="st6" d="M107.3,102c0,15.7-12.8,28.5-28.5,28.5S50.4,117.7,50.4,102s12.8-28.5,28.5-28.5
			C94.6,73.5,107.3,86.3,107.3,102z"/>
		<path class="st7" d="M75.2,76.4C62,78.3,52.6,89.6,52.6,102.5c3-11.1,12.5-18.5,24.7-20.3c8.9-1.3,17.3,0.1,23.7,5.6
			C95.4,79.6,85.6,74.8,75.2,76.4L75.2,76.4z"/>
		<path class="st8" d="M73.7,71.8c-13.1,1.9-23.4,11.4-23.4,24.3c3-11.1,12.3-20,24.5-21.8c8.9-1.3,17.5,1.5,23.9,7
			C93.1,73.2,84,70.3,73.7,71.8L73.7,71.8z"/>
		<path class="st7" d="M107.4,101.3c-0.1,2.9-0.7,5.7-1.5,8.4c0.7-0.4,1.4-0.7,2.2-1C108.2,106.2,108,103.7,107.4,101.3z
			 M113.2,111.3c-0.1,3.7-2.5,7.2-6.2,8.6c-2.8,0.9-5.3,1.5-5.6-1.9c-0.5,0.6-1,1.2-1.5,1.8c-0.3-0.1-0.7-0.3-0.9-0.4
			c0.2,0.2,0.5,0.4,0.8,0.7c-3,3.4-6.9,6.1-11.4,7.9c-8.4,3.3-17.4,2.4-24.8-1.5c7.2,6.7,18.7,11,28.4,7.2c5-2,9-5.6,11.7-10.1
			c0.4-1.5,1.1-0.8,4.5-1.8C112.3,120.2,114.2,115.4,113.2,111.3L113.2,111.3z"/>
		<path class="st6" d="M95.6,170.4c0,6.8-5.5,12.2-12.2,12.2s-12.2-5.5-12.2-12.2s5.5-12.2,12.2-12.2S95.6,163.6,95.6,170.4z"/>
		<path class="st7" d="M81.8,159.4c-5.6,0.8-9.7,5.7-9.7,11.2c1.3-4.8,5.4-8,10.6-8.7c3.8-0.6,7.5,0,10.2,2.4
			C90.5,160.8,86.3,158.7,81.8,159.4L81.8,159.4z"/>
		<path class="st8" d="M81.2,157.4c-5.6,0.8-10.1,4.9-10.1,10.4c1.3-4.8,5.3-8.6,10.5-9.4c3.8-0.6,7.5,0.7,10.3,3
			C89.5,158,85.7,156.8,81.2,157.4L81.2,157.4z"/>
		<path class="st7" d="M89.1,184.1c5.3-2.1,7.8-8.5,6.6-13.9c-0.2,4.9-3.3,9.6-8.2,11.5c-3.6,1.4-7.5,1-10.7-0.7
			C80.1,183.9,85,185.7,89.1,184.1L89.1,184.1z"/>
		<path class="st8" d="M85.9,181.4c5.5-1.4,9.1-6.6,8.6-12.1c-0.8,4.9-4.1,8.5-9.2,9.8c-3.8,0.9-7.9,0.6-10.9-1.5
			C77.2,180.9,81.6,182.4,85.9,181.4L85.9,181.4z"/>
		<path class="st6" d="M44.1,124.3c0,3.2-2.6,5.8-5.8,5.8c-3.2,0-5.8-2.6-5.8-5.8c0-3.2,2.6-5.8,5.8-5.8
			C41.5,118.5,44.1,121.1,44.1,124.3z"/>
		<path class="st9" d="M37.6,119c-2.7,0.4-4.6,2.7-4.6,5.4c0.6-2.3,2.6-3.8,5.1-4.1c1.8-0.3,3.5,0,4.8,1.2
			C41.7,119.7,39.7,118.7,37.6,119z"/>
		<path class="st8" d="M37.2,118.1c-2.7,0.4-4.8,2.3-4.8,5c0.6-2.3,2.5-4.1,5-4.5c1.8-0.3,3.6,0.3,4.9,1.4
			C41.2,118.4,39.4,117.8,37.2,118.1L37.2,118.1z"/>
		<path class="st9" d="M41.1,130.8c2.5-1,3.7-4.1,3.2-6.6c-0.1,2.4-1.5,4.6-3.9,5.5c-1.7,0.7-3.6,0.5-5.1-0.3
			C36.7,130.7,39,131.6,41.1,130.8L41.1,130.8z"/>
		<path class="st8" d="M39.5,129.5c2.7-0.7,4.3-3.2,4.1-5.8c-0.4,2.3-2,4.1-4.4,4.7c-1.8,0.5-3.8,0.3-5.2-0.7
			C35.3,129.3,37.4,130.1,39.5,129.5L39.5,129.5z"/>
		<path class="st10" d="M69,53.4c0,6.1-4.9,11-11,11s-11-4.9-11-11s4.9-11,11-11S69,47.3,69,53.4z"/>
		<path class="st9" d="M56.6,43.5c-5.1,0.7-8.8,5.1-8.8,10.1c1.2-4.3,4.8-7.2,9.6-7.9c3.4-0.5,6.7,0,9.2,2.1
			C64.4,44.7,60.6,42.9,56.6,43.5L56.6,43.5z"/>
		<path class="st8" d="M56,41.7c-5.1,0.7-9.1,4.4-9.1,9.4c1.2-4.3,4.8-7.7,9.5-8.4c3.4-0.5,6.8,0.6,9.2,2.7
			C63.5,42.3,60,41.1,56,41.7L56,41.7z"/>
		<path class="st9" d="M63.1,65.8c4.8-1.9,7.1-7.6,6-12.5c-0.2,4.5-2.9,8.6-7.4,10.3c-3.3,1.3-6.8,0.9-9.6-0.6
			C54.9,65.6,59.4,67.2,63.1,65.8L63.1,65.8z"/>
		<path class="st8" d="M60.3,63.3c5-1.2,8.2-6,7.7-10.9c-0.7,4.4-3.7,7.7-8.3,8.9c-3.4,0.8-7.1,0.6-9.8-1.4
			C52.3,62.9,56.3,64.3,60.3,63.3L60.3,63.3z"/>
		<path class="st10" d="M129.4,36.7c0,3.2-2.6,5.8-5.8,5.8c-3.2,0-5.8-2.6-5.8-5.8c0-3.2,2.6-5.8,5.8-5.8
			C126.8,30.8,129.4,33.5,129.4,36.7z"/>
		<path class="st9" d="M122.8,31.4c-2.7,0.4-4.6,2.7-4.6,5.4c0.6-2.3,2.6-3.8,5.1-4.1c1.8-0.3,3.5,0,4.8,1.2
			C127,32.1,125,31.1,122.8,31.4z"/>
		<path class="st8" d="M122.5,30.5c-2.7,0.4-4.8,2.3-4.8,5c0.6-2.3,2.5-4.1,5-4.5c1.8-0.3,3.6,0.3,4.9,1.4
			C126.5,30.7,124.7,30.1,122.5,30.5L122.5,30.5z"/>
		<path class="st9" d="M126.3,43.2c2.5-1,3.7-4.1,3.2-6.6c-0.1,2.4-1.5,4.6-3.9,5.5c-1.7,0.7-3.6,0.5-5.1-0.3
			C122,43.1,124.3,44,126.3,43.2L126.3,43.2z"/>
		<path class="st8" d="M124.8,41.9c2.7-0.7,4.3-3.2,4.1-5.8c-0.4,2.3-2,4.1-4.4,4.7c-1.8,0.5-3.8,0.3-5.2-0.7
			C120.6,41.7,122.7,42.4,124.8,41.9L124.8,41.9z"/>
		<path class="st6" d="M175.3,135.1c-1,5.1-5.4,8.6-9.6,7.7c-4.3-0.8-7-5.7-6-10.9s5.4-8.6,9.6-7.7
			C173.7,125.1,176.3,130,175.3,135.1z"/>
		<path class="st7" d="M168.1,124.9c-3.7-0.1-7.1,3.1-7.9,7.3c1.5-3.5,4.7-5.4,8.1-5.3c2.5,0,4.8,1,6.1,3.1
			C173.5,127.1,171.1,125,168.1,124.9L168.1,124.9z"/>
		<path class="st8" d="M168,123.4c-3.7-0.1-7.2,2.4-8,6.7c1.5-3.5,4.7-5.9,8.1-5.8c2.5,0,4.7,1.4,6.1,3.6
			C173.3,124.9,171,123.4,168,123.4L168,123.4z"/>
		<path class="st7" d="M169.1,144.7c3.7-0.9,6.3-5.5,6.3-9.7c-0.9,3.7-3.5,6.9-6.9,7.7c-2.5,0.6-4.9-0.1-6.7-1.9
			C163.3,143.4,166.2,145.4,169.1,144.7L169.1,144.7z"/>
		<path class="st8" d="M167.4,142.2c3.7-0.3,6.8-3.9,7.3-8.1c-1.3,3.6-3.9,6-7.4,6.3c-2.6,0.2-5.1-0.6-6.7-2.5
			C161.9,140.7,164.5,142.5,167.4,142.2L167.4,142.2z"/>
		<path class="st6" d="M113.3,111.7c0,5.1-4.1,9.2-9.2,9.2c-5.1,0-9.2-4.1-9.2-9.2c0-5.1,4.1-9.2,9.2-9.2
			C109.2,102.5,113.3,106.6,113.3,111.7z"/>
		<path class="st8" d="M110.2,113.2c-0.1,3.7-6.3,5.3-10.7,4.7c-5.2,3.6-8.2,4.6-15.3,7.4c-10.1,2-18.4-0.9-25.8-4.9
			c7.2,6.7,18.7,11,28.4,7.2c5-2,9.9-4,12.7-8.4c1.4,0.2,2.4,0.9,4.9,0.8C106.2,120.1,110.2,120.5,110.2,113.2L110.2,113.2z"/>
		<path class="st6" d="M126.9,140c0,6.4-5.2,11.6-11.6,11.6c-6.4,0-11.6-5.2-11.6-11.6c0-6.4,5.2-11.6,11.6-11.6
			C121.7,128.4,126.9,133.6,126.9,140z"/>
		<path class="st7" d="M113.8,129.6c-5.3,0.8-9.2,5.4-9.2,10.6c1.2-4.5,5.1-7.5,10-8.2c3.6-0.5,7,0,9.6,2.3
			C122,130.9,118,128.9,113.8,129.6L113.8,129.6z"/>
		<path class="st8" d="M113.2,127.7c-5.3,0.8-9.5,4.6-9.5,9.8c1.2-4.5,5-8.1,9.9-8.8c3.6-0.5,7.1,0.6,9.7,2.8
			C121.1,128.3,117.4,127.1,113.2,127.7L113.2,127.7z"/>
		<path class="st7" d="M120.8,152.9c5-2,7.4-8,6.2-13.1c-0.2,4.7-3.1,9-7.7,10.8c-3.4,1.3-7.1,1-10.1-0.6
			C112.2,152.7,116.8,154.4,120.8,152.9L120.8,152.9z"/>
		<path class="st8" d="M117.8,150.3c5.2-1.3,8.6-6.2,8.1-11.4c-0.8,4.6-3.9,8.1-8.7,9.2c-3.5,0.9-7.5,0.6-10.3-1.4
			C109.5,149.8,113.6,151.4,117.8,150.3L117.8,150.3z"/>
		<path class="st11" d="M86.6,22.1c0.4,2.3-3.3,4.8-8.3,5.7c-5,0.9-9.4-0.2-9.8-2.5c-0.4-2.3,3.3-4.8,8.3-5.7
			C81.8,18.7,86.2,19.8,86.6,22.1z"/>
		<path class="st9" d="M75.7,20.2c-4.1,1-6.9,3.2-6.5,5.1c0.7-1.8,3.5-3.4,7.3-4.3c2.8-0.7,5.5-1,7.7-0.6
			C82.2,19.6,79,19.4,75.7,20.2L75.7,20.2z"/>
		<path class="st8" d="M75.1,19.7c-4.1,1-7.1,3-6.8,4.8c0.7-1.8,3.4-3.6,7.2-4.6c2.8-0.7,5.6-0.8,7.8-0.4
			C81.3,18.8,78.4,18.9,75.1,19.7L75.1,19.7z"/>
		<path class="st9" d="M82.6,27.6c3.8-1.4,5.3-3.9,4.1-5.5c0.1,1.7-1.8,3.6-5.4,4.9c-2.6,0.9-5.5,1.4-7.9,1.2
			C75.9,28.7,79.6,28.7,82.6,27.6L82.6,27.6z"/>
		<path class="st8" d="M80.1,27.1c4-1.2,6.3-3.4,5.6-5.2c-0.3,1.8-2.5,3.4-6.2,4.5c-2.7,0.8-5.8,1.3-8.1,0.9
			C73.5,28.1,76.9,28,80.1,27.1L80.1,27.1z"/>
		<path class="st6" d="M42.2,160.1c2.3,5.2,2.3,10.3,0,11.3c-2.2,1-6-2.5-8.2-7.7c-2.3-5.2-2.3-10.3,0-11.3
			C36.3,151.4,39.9,154.9,42.2,160.1z"/>
		<path class="st7" d="M33.9,153.6c-1.6,1.4-1.3,5.8,0.6,10.1c-1.2-3.9-0.9-7,0.6-8.3c1.1-1,2.5-1.1,4.2,0.4
			C37.2,153.4,35.1,152.5,33.9,153.6L33.9,153.6z"/>
		<path class="st8" d="M33,152.2c-1.6,1.5-1.7,5.3,0.2,9.6c-1.2-3.9-1.2-7.5,0.3-8.8c1.1-1,2.7-0.6,4.5,0.8
			C36,151.4,34.2,151,33,152.2L33,152.2z"/>
		<path class="st7" d="M44.7,171.7c1.1-2.4-0.3-7.7-2.5-11.7c1.6,3.9,2.1,7.9,1.2,10.1c-0.7,1.6-2.1,1.9-3.8,1.1
			C41.6,172.9,43.8,173.6,44.7,171.7L44.7,171.7z"/>
		<path class="st8" d="M42.7,170.1c1.4-1.9,0.8-6.4-1.3-10.7c1.4,3.9,1.5,7.2,0.2,8.9c-0.9,1.3-2.4,1.6-4.1,0.4
			C39.6,171,41.6,171.6,42.7,170.1L42.7,170.1z"/>
	</g>
	<g class="st2">
		<path class="st6" d="M160.9,63.2c2,7.3-3.3,15-11.8,17.2c-8.4,2.2-16.9-1.8-18.8-9.1s3.3-15,11.8-17.2
			C150.5,51.9,158.9,55.9,160.9,63.2L160.9,63.2z"/>
		<path class="st7" d="M140.5,56c-6.8,2.7-10.5,9.4-8.9,15.3c0.2-5.6,4.4-10.4,10.7-13c4.7-1.9,9.3-2.4,13.4-0.8
			C151.7,54.5,145.8,53.8,140.5,56L140.5,56z"/>
		<path class="st8" d="M139.1,54c-6.8,2.8-11.2,8.6-9.6,14.6c0.2-5.6,4.1-11,10.4-13.6c4.7-1.9,9.6-1.8,13.7-0.2
			C149.7,51.9,144.5,51.9,139.1,54L139.1,54z"/>
		<path class="st7" d="M156.7,80.1c6.1-4,7.4-11.7,4.3-17.1c1.2,5.4-1.3,11.4-6.9,15.1c-4.1,2.7-9,3.6-13.5,2.8
			C145.3,82.9,151.9,83.2,156.7,80.1L156.7,80.1z"/>
		<path class="st8" d="M151.9,78.2c6.5-3.3,9.5-10.2,7.2-15.9c0.4,5.5-2.7,10.5-8.7,13.6c-4.4,2.3-9.7,3.3-14,2.1
			C140.8,80.6,146.7,80.8,151.9,78.2L151.9,78.2z"/>
		<path class="st7" d="M139.2,67.2c-1.4,0.6-2.1,1.8-1.7,3c0-1.1,0.9-2,2.1-2.5c0.9-0.4,1.8-0.5,2.6-0.1
			C141.4,66.9,140.3,66.8,139.2,67.2L139.2,67.2z"/>
		<path class="st8" d="M138.9,66.8c-1.4,0.6-2.2,1.7-1.9,2.8c0-1.1,0.8-2.1,2.1-2.7c0.9-0.4,1.9-0.4,2.7,0
			C141,66.4,140,66.4,138.9,66.8L138.9,66.8z"/>
		<path class="st7" d="M142.4,71.9c1.2-0.8,1.4-2.3,0.8-3.4c0.2,1.1-0.3,2.2-1.4,2.9c-0.8,0.5-1.8,0.7-2.7,0.6
			C140.1,72.5,141.4,72.5,142.4,71.9L142.4,71.9z"/>
		<path class="st8" d="M141.4,71.6c1.3-0.7,1.9-2,1.4-3.1c0.1,1.1-0.5,2.1-1.7,2.7c-0.9,0.4-1.9,0.7-2.7,0.4
			C139.3,72,140.5,72.1,141.4,71.6L141.4,71.6z"/>
		<path class="st7" d="M145.7,60.7c-1,0.4-1.5,1.3-1.3,2.1c0-0.8,0.6-1.4,1.5-1.8c0.7-0.3,1.3-0.3,1.9-0.1
			C147.3,60.5,146.5,60.4,145.7,60.7L145.7,60.7z"/>
		<path class="st8" d="M145.5,60.4c-1,0.4-1.6,1.2-1.4,2.1c0-0.8,0.6-1.5,1.5-1.9c0.7-0.3,1.4-0.2,1.9,0
			C147,60.1,146.3,60.1,145.5,60.4L145.5,60.4z"/>
		<path class="st7" d="M148,64.1c0.8-0.6,1-1.6,0.6-2.4c0.2,0.7-0.2,1.6-1,2.1c-0.6,0.4-1.3,0.5-1.9,0.4
			C146.4,64.5,147.4,64.5,148,64.1L148,64.1z"/>
		<path class="st8" d="M147.4,63.8c0.9-0.5,1.4-1.4,1-2.2c0,0.8-0.4,1.5-1.2,1.9c-0.6,0.3-1.4,0.5-2,0.3
			C145.8,64.2,146.6,64.2,147.4,63.8L147.4,63.8z"/>
	</g>
	<g class="st2">
		<path class="st6" d="M87,91.8c0,3.8-3.3,6.9-7.5,6.9c-4.1,0-7.5-3.1-7.5-6.9c0-3.8,3.3-6.9,7.5-6.9S87,88,87,91.8z"/>
		<path class="st7" d="M78.6,85.6c-3.4,0.5-5.9,3.2-5.9,6.3c0.8-2.7,3.3-4.5,6.4-4.9c2.3-0.3,4.5,0,6.2,1.4
			C83.8,86.4,81.3,85.3,78.6,85.6L78.6,85.6z"/>
		<path class="st8" d="M78.2,84.5c-3.4,0.5-6.1,2.7-6.1,5.9c0.8-2.7,3.2-4.8,6.4-5.3c2.3-0.3,4.6,0.4,6.2,1.7
			C83.2,84.9,80.9,84.2,78.2,84.5L78.2,84.5z"/>
		<path class="st7" d="M83,99.5c3.2-1.2,4.8-4.8,4-7.8c-0.1,2.8-2,5.4-5,6.4c-2.2,0.8-4.6,0.6-6.5-0.4C77.5,99.4,80.5,100.5,83,99.5
			L83,99.5z"/>
		<path class="st8" d="M81.1,98c3.4-0.8,5.5-3.7,5.2-6.8c-0.5,2.7-2.5,4.8-5.6,5.5c-2.3,0.5-4.8,0.3-6.6-0.8
			C75.7,97.7,78.4,98.6,81.1,98L81.1,98z"/>
		<path class="st6" d="M116.2,162.2c0,2.6-2.1,4.8-4.8,4.8c-2.6,0-4.8-2.1-4.8-4.8s2.1-4.8,4.8-4.8
			C114.1,157.5,116.2,159.6,116.2,162.2z"/>
		<path class="st7" d="M110.9,157.9c-2.2,0.3-3.8,2.2-3.8,4.3c0.5-1.9,2.1-3.1,4.1-3.4c1.5-0.2,2.9,0,4,0.9
			C114.2,158.4,112.6,157.6,110.9,157.9L110.9,157.9z"/>
		<path class="st8" d="M110.6,157.2c-2.2,0.3-3.9,1.9-3.9,4.1c0.5-1.9,2.1-3.3,4.1-3.6c1.5-0.2,2.9,0.2,4,1.2
			C113.8,157.4,112.4,156.9,110.6,157.2z"/>
		<path class="st7" d="M113.7,167.5c2.1-0.8,3-3.3,2.6-5.4c-0.1,1.9-1.3,3.7-3.2,4.4c-1.4,0.6-2.9,0.4-4.1-0.2
			C110.2,167.4,112.1,168.1,113.7,167.5L113.7,167.5z"/>
		<path class="st8" d="M112.4,166.5c2.1-0.5,3.5-2.6,3.3-4.7c-0.3,1.9-1.6,3.3-3.6,3.8c-1.4,0.4-3.1,0.2-4.2-0.6
			C109,166.2,110.8,166.9,112.4,166.5L112.4,166.5z"/>
		<path class="st6" d="M83.5,167.3c0,2-1.6,3.6-3.6,3.6c-2,0-3.6-1.6-3.6-3.6s1.6-3.6,3.6-3.6C81.8,163.7,83.5,165.3,83.5,167.3z"/>
		<path class="st7" d="M79.4,164c-1.7,0.2-2.9,1.7-2.9,3.3c0.4-1.4,1.6-2.4,3.1-2.6c1.1-0.2,2.2,0,3,0.7
			C82,164.4,80.7,163.8,79.4,164L79.4,164z"/>
		<path class="st8" d="M79.2,163.5c-1.7,0.2-3,1.4-3,3.1c0.4-1.4,1.6-2.5,3.1-2.7c1.1-0.2,2.2,0.2,3,0.9
			C81.7,163.7,80.5,163.3,79.2,163.5L79.2,163.5z"/>
		<path class="st7" d="M81.5,171.3c1.6-0.6,2.3-2.5,2-4.1c0,1.4-1,2.8-2.4,3.4c-1.1,0.4-2.2,0.3-3.2-0.2
			C78.8,171.3,80.3,171.8,81.5,171.3L81.5,171.3z"/>
		<path class="st8" d="M80.6,170.6c1.6-0.4,2.7-2,2.5-3.6c-0.2,1.4-1.2,2.5-2.7,2.9c-1.1,0.3-2.3,0.2-3.2-0.4
			C78,170.4,79.3,170.8,80.6,170.6L80.6,170.6z"/>
		<path class="st6" d="M102.6,160.8c0,1.5-1.3,2.8-2.8,2.8s-2.8-1.3-2.8-2.8c0-1.5,1.3-2.8,2.8-2.8S102.6,159.3,102.6,160.8z"/>
		<path class="st7" d="M99.4,158.3c-1.3,0.2-2.2,1.3-2.2,2.6c0.3-1.1,1.3-1.8,2.4-2c0.9-0.1,1.7,0,2.3,0.6
			C101.4,158.6,100.5,158.2,99.4,158.3L99.4,158.3z"/>
		<path class="st8" d="M99.3,157.8c-1.3,0.2-2.3,1.1-2.3,2.4c0.3-1.1,1.2-2,2.4-2.1c0.9-0.1,1.7,0.1,2.3,0.7
			C101.2,158,100.3,157.7,99.3,157.8L99.3,157.8z"/>
		<path class="st7" d="M101.1,164c1.2-0.5,1.8-2,1.5-3.2c0,1.1-0.7,2.2-1.9,2.6c-0.8,0.3-1.7,0.2-2.4-0.1
			C99,163.9,100.2,164.4,101.1,164L101.1,164z"/>
		<path class="st8" d="M100.4,163.3c1.3-0.3,2.1-1.5,2-2.8c-0.2,1.1-0.9,2-2.1,2.2c-0.9,0.2-1.8,0.1-2.5-0.3
			C98.4,163.2,99.4,163.6,100.4,163.3L100.4,163.3z"/>
		<path class="st6" d="M151.9,166.7c0.7,2.6-1.2,5.5-4.5,6.4c-3.2,1-6.5-0.3-7.3-2.9c-0.7-2.6,1.2-5.5,4.5-6.4
			S151.2,164.2,151.9,166.7L151.9,166.7z"/>
		<path class="st7" d="M144,164.5c-2.6,1.1-4,3.5-3.4,5.7c0.1-2,1.7-3.8,4.1-4.8c1.8-0.7,3.6-1.1,5.1-0.6
			C148.4,163.8,146.1,163.7,144,164.5L144,164.5z"/>
		<path class="st8" d="M143.5,163.9c-2.6,1.1-4.2,3.3-3.6,5.4c0.1-2,1.5-4,4-5.1c1.8-0.7,3.7-0.8,5.3-0.3
			C147.6,162.9,145.6,163,143.5,163.9L143.5,163.9z"/>
		<path class="st7" d="M150.4,172.9c2.3-1.5,2.8-4.3,1.6-6.2c0.5,1.9-0.5,4.1-2.6,5.5c-1.6,1.1-3.4,1.5-5.2,1.3
			C146,174.1,148.6,174.1,150.4,172.9L150.4,172.9z"/>
		<path class="st8" d="M148.6,172.3c2.5-1.3,3.6-3.8,2.7-5.8c0.2,2-1,3.8-3.3,5c-1.7,0.9-3.7,1.4-5.4,1
			C144.3,173.4,146.6,173.3,148.6,172.3L148.6,172.3z"/>
		<path class="st6" d="M181.2,93.3c0,4.1-2.7,7.5-5.9,7.5c-3.3,0-5.9-3.4-5.9-7.5c0-4.2,2.7-7.5,5.9-7.5
			C178.6,85.8,181.2,89.2,181.2,93.3z"/>
		<path class="st7" d="M174.6,86.6c-2.7,0.5-4.7,3.5-4.7,6.9c0.6-2.9,2.6-4.9,5.1-5.4c1.9-0.3,3.6,0,4.9,1.5
			C178.8,87.4,176.7,86.2,174.6,86.6L174.6,86.6z"/>
		<path class="st8" d="M174.2,85.4c-2.7,0.5-4.8,3-4.8,6.4c0.6-2.9,2.6-5.3,5.1-5.8c1.9-0.3,3.6,0.4,4.9,1.9
			C178.3,85.7,176.4,84.9,174.2,85.4L174.2,85.4z"/>
		<path class="st7" d="M178.1,101.8c2.6-1.3,3.8-5.2,3.2-8.5c-0.1,3-1.6,5.9-4,7c-1.8,0.9-3.6,0.7-5.2-0.4
			C173.7,101.6,176.1,102.8,178.1,101.8L178.1,101.8z"/>
		<path class="st8" d="M176.6,100.1c2.7-0.8,4.4-4.1,4.1-7.5c-0.4,3-2,5.3-4.5,6c-1.8,0.6-3.8,0.4-5.3-0.9
			C172.3,99.8,174.4,100.8,176.6,100.1L176.6,100.1z"/>
		<path class="st7" d="M99.4,106.4c-2.8,2-3.8,5.5-2.4,8.3c-0.5-2.7,0.9-5.5,3.5-7.3c2-1.4,4.1-2.1,6.1-1.6
			C104.5,104.8,101.7,104.9,99.4,106.4L99.4,106.4z"/>
		<path class="st8" d="M99.8,104.8c-3.2,1.4-5.2,4.2-4.4,7.3c0-2.8,1.9-5.5,4.8-6.7c2.2-0.9,4.5-0.8,6.5,0
			C104.8,103.7,102.3,103.7,99.8,104.8L99.8,104.8z"/>
	</g>
</g>
<g id="g1483" transform="translate(28.168895,-118.73048)" class="st0">
	<path id="path8363" class="st12" d="M80.9,123.5c-3.5,0-8,1.2-9.4,4.8c1.1,6.5,0,13.4,3.1,19.5c1.8,0.4,3.6,0.8,5.3,1.2
		c-1.3-2-4.6-4.7-2.1-7.2c5-6.4,13.7-7.5,19.5-13c1.3-1.2,5.4-2.6,1.5-2.9C93,124.5,87,123.4,80.9,123.5z"/>
	<path id="path8366" class="st13" d="M98,126.1c-3.8,2.8-7.6,5.8-12.1,7.6c-4.2,2.2-9.2,4.8-10.9,9.6c-0.2,2.1,1.2,4.9,3.2,5.3
		c1.4,0.3,4-0.5,4.8,0.3c-1.4,3.9,1.8,7.1,2.7,10.6c1.8,4.6,2.9,10.2,7.6,12.8c2,0.8,0.1,3.3,1.2,4.9c2,3.8,7.2,2.9,10.2,0.9
		c2.7-2,1.4-7,5.2-7.8c4.5-2.5,10.1-2.2,14.3-5.1c1.1-0.8,2-2.1,2.1-3.5c2.7,0.3,4-0.3,2.5-3c1.8-0.6,2-2,1.7-3.6
		c0.2-3.7,0.9-7.7-1.3-11.1c-1.4-3.1-5.1-3.8-7.5-5.8c-1.6,0.2-3.4-1.8-5.3-1.1c-4.6,1.1-9.6,0.6-14.2,1.3c1.9-2.5,4.9-3.4,7.2-5.4
		c0.4-2.2-0.9-3.3-2.8-3.9C104.2,127.7,101,126.1,98,126.1z M98.2,138.4c-0.1,1.8,0.3,3.5,0.8,5.2c4.5,0.3,8.6-4.6,13-1.9
		c3.8,1.7,8.1-0.7,11.8,1.3c3.3,1.1,3.1,4.9,2.7,7.8c0.7,2.6-2.3,4.7-1.1,7.4c0.6,1.3-1.7,1.3-2.1,2.4c-1.7,2.3-3.6,4.6-6.6,4.7
		c-5.6,1-12,3.1-14.5,8.7c-0.5,1.9-2.9,3.5-4.3,1.8c0.6-2.5,0-5.4-2-7.2c-1.3,1.5-1.8-1-3.1-1.4c-2.8-2-2.9-6.1-4.6-8.9
		c-0.9-2.4-2.6-5.1-1.6-7.7c2.3-0.5,3.8-2.8,3.4-5.1c-3.8-1.1-8.4,1.4-11.6-1.4c-1.3-1,1.4-0.9,1.9-1.5c1.9-0.5,3.2-3.3,5.2-1.9
		c1.9,1.2,3.7-1.1,5.8-0.5C93.8,140.3,96.5,140.1,98.2,138.4z"/>
	<path id="path8369" class="st14" d="M55.1,127c-6.3-0.2-9.1,6.5-14.1,8.8c-1.8,1.2-4.6,0.5-5.2,3c-3.1,4.7-9.1,6.6-14.5,5.3
		c-2.8-0.9-4.8,2-7,3.5c-2.3,1.9-4.3,4.7-3.4,7.8c0.2,2.6,2.9,5.6,0.5,7.8C7.9,168,2.8,172,1.6,178c-0.2,2.9,0.5,5.8,0.9,8.6
		c4.5,0,7.7,3.7,11.8,4.5c3.3,0,6.5-1.4,9.6-1.5c1.4,1.1,3.1,2,4.9,1.9c-0.9,3.7,2.4-0.1,3.1,0.5c0,1.6,2.7,1,4.1,1.1
		c7.3-0.7,12.6-6.3,18.6-9.8c4.4-3.3,9.2-5.9,14.1-8c2.2-2,1.8-5.6,4.6-7.2c2-2,4.1-3.9,5.9-6.2c-0.3-2.2-1-4.1-3.1-5.2
		c-2.7-2-5.3-4.6-8.7-5.1c1.8,4,7.2,5.6,8.2,10.1c-4.1,4.8-8.9,9.1-13.8,13.1c-7.1,4.9-14.2,10.8-22.7,12.7
		c-5.6,0.5-11.1-1.1-16.7-1.3c-2.4,0.4-5.1,1.5-7.1-0.5c-2-1.5-5.1-1.5-6.7-3.4c-1.1-4.5,1.7-9.1,3.8-12.9c2-2.9,3.3-6.2,5-9.1
		c2.7-2.5,7-3.1,8.9-6.6c2.4-4.1,5.7-7.7,10.1-9.8c2.7-1.3,4-5,7.5-4.6c2-0.2,4.1,0.4,5.7,1.7c3.2-2.6,6.3-5.3,10.5-5.7
		c1.9,0,4.3-1.5,5.5,0.5c3.2,3.3,1.8-0.7,0.7-2.8C64.7,128.6,59.4,127,55.1,127z"/>
	<path id="path8372" class="st15" d="M72.3,127.2c-3.6,0.8-7.1,1.9-10.7,2.7c2.2,2.2,4.6,4.5,5.4,7.5c0.7,1.6,3.8,1.9,2.3,4
		c-2.2,4,2.3,1.2,4.5,0.8c1.6-1,0.1-4.1,0.3-6c-0.2-3.2-0.5-6.3-0.9-9.4C73,127.1,72.6,127.2,72.3,127.2z"/>
	<path id="path8375" class="st16" d="M107.6,131c0.5,2-2.5,2.1-3.5,3.3c-2.4,1.4-4.2,3.8-4.8,6.6c6-1.8,12.4-0.9,18.5-2.1
		c2,0.5,3.8,2.6,5.8,0.6c-4.5-3.5-10.1-6.8-15.4-9.7C106.7,128.5,107.9,130.4,107.6,131z"/>
	<path id="path8377" class="st16" d="M145.9,201c-1.4,0.3-2.7,0.8-4,1.3c1.3,0.9,2.7,1.9,4,2.8C146,203.6,149.4,199.3,145.9,201
		L145.9,201z"/>
	<path id="path8380" class="st17" d="M63.7,132.1c1.2,3.1,3.3,5.8,4.2,8.9c-3,4.3-8.4,5.4-12.8,7.8c3.1,1,6.2,2,9.3,2.9
		c-0.5-1.3-3-3.3-0.6-3.9c2.2-1.7,6.2-1.3,6.9-4.6c0.4-1.8,2-4.3-0.4-5.2c-2.5-1.2-2.2-4.4-4.3-6C64.5,130.7,61.9,127.3,63.7,132.1
		L63.7,132.1z"/>
	<path id="path8383" class="st18" d="M64.5,132.8c-4.9,0.7-10.4,1.3-14,5.2c-1.2,1.6-2.8-0.6-4.4-0.4c-2.3-0.3-4.6,0.2-6.8,0.7
		c0.9,1,2.4,1.9,1.2,3.2c-0.5,0.9,0,2.5-1.4,1.9c-5.8-0.3-10.9,4.4-12.4,9.8c2.6,2.8,6.7,0.8,9.5-0.7c1.1-1.1,2.8,1,1.2,1.6
		c-5,4.9-11.3,8.3-15.9,13.6c-4.2,3.5-9.5,7.5-9.3,13.6c0.8,0.6,3-0.6,4.3-1.3c4.5-3,7.8-7.4,12.1-10.8c1.9-1.8,3.8-3.6,5.8-5.3
		c2.8,1.8,6.4,2.1,9.6,1.9c0.2,2.4-2.2,3.9-3.9,5.2c-2.3,1.5-4.8,2.7-7.7,2.4c-4.3,0.4-7.3,4-11.3,5.2c-2.3,0.7-2.9,4-0.8,5.4
		c2,2.4,5.3,2.6,8.1,1.5c2.5-1.3,4.9,1.1,7.4,0.1c1.3-0.1,2.8-1.6,3.4,0.2c1,1.8,2.9,2,4.7,1.2c5.4-2.1,10.2-5.8,15-8.9
		c4.7-3.4,9.8-6.2,13.7-10.6c1.6-2,5.2-3.7,4.7-6.7c-1.5-4.1-5.3-6.8-8.7-9.2c-2.6-1.4-5.6-2-8.5-3c3.6-1.7,8.2-3.6,9.6-7.5
		c-0.8-3.1-2.4-6.2-4.9-8.3L64.5,132.8L64.5,132.8z M66.4,161.3c1.7-0.1,3.4,0.7,4.3,2.2c2.6-1.8,2.8-0.6,0.7,1.2
		c-3.3,3.6-7.2,7.1-12.1,8.1c-2.5,4.6-8.7,4.7-11.7,8.9c-1.3,1.3-3.3,2.9-5.2,2.6c-0.6-2.2,1.3-4.6-0.2-6.6
		c-0.4-1.8,2.1-2.9,2.9-4.4c3-3.3,5.9-7.3,10.4-8.6c3.4-0.9,6.8-2.7,10.3-3.4C66.1,161.3,66.3,161.3,66.4,161.3L66.4,161.3z"/>
	<path id="path8385" class="st18" d="M82.7,141.5c0.1,2,1.7,3.5,3.7,3.8c1.6,0.6,3.3,1.5,4.2,2.9c-1.6,2.2-5.5,3.7-4.6,7
		c1.7,4.6,3.6,9.8,7.7,12.8c2.9,1.8,7.3,1.3,9.2,4.6c2.9-1,3.8-4.6,7.1-4.8c3.7-1.4,8-2,11.1-4.4c1.2-1.9,3.1-3,5.2-3.4
		c-0.9-2-1.5-5.2-4.4-5c-1.4-0.1-2.9,0-4.3,0.3c0.6-2.6-2.6-2.2-4-3.3c-3-1.5-4.9-4.8-8.5-5.2c-1.2-0.4-3.3,0.4-2.5-1.4
		c0.2-1.7-1.2-2.9-2.7-1.7c-1.8,0.5-4.1,1.9-5-0.5c-0.7-2-2.5,0.7-3.9-0.7c-1.6-1.1-3.6-1.3-5.4-1.4
		C84.1,140.8,81.3,138.2,82.7,141.5L82.7,141.5z M88.8,153.6c1.6,0.4,2.8,2.3,4.2,2.3c4.3-2.4,8.7,1.4,13.2,0.9
		c2.4,0.4,4.9,1.6,7.1,2c0,2-2.4,3.1-2.5,4.6c0.8,1.4-2.3,1.2-3.3,1.9c-2.5,0.8-5,2.7-7.6,1.2c-2.9-1.3-6.3-2.2-7.8-5.3
		c-1.3-2.4-3.4-4.7-3.5-7.6L88.8,153.6z"/>
	<path id="path8388" class="st19" d="M101,134.2c-3.2-0.8-3.1,3.6-5.9,3.9c-2.7,0.6-5.7-0.5-8.2,1c-1.7-1.2-4-1.1-5.4,0.6
		c-1.9,1.3-4.1,2.1-6.4,2.6c1.3,2.9,4.1,5.3,7.5,5c1.8,0.1,4-0.5,5.5,0c-0.7,2-4.1,1.1-3.4,3.6c-0.7,4.7,2.7,8.7,3.9,13
		c0.5,2.7,2.6,4.3,4.5,6c0.4,2.4,1.7,0.8,2.6,1.6c0.8,1.8,0.4,3.8-0.1,5.5c2.2,1.3,5.7,2.1,7.2-0.6c1.6-3.1,3.6-6,7.1-7.3
		c4.3-2.2,10.5-1.2,13.5-5.8c1.1-1.5,2.5-3,4.5-3c-0.5-2.1-1.5-4.3,0.1-6.1c0.9-2.3,0.2-4.9,0.6-7.3c0-4.1-4.3-6.3-7.8-6.5
		c-3-0.4-6.3,1-9.1-0.8c-3.9-1.8-7.8,1.7-11.2,2c-0.8-2.6-0.1-5.7,2.7-6.6C106.5,133.1,101.7,134.5,101,134.2L101,134.2z
		 M85.4,142.9c1.8,0.1,3.6,0.3,5.2,1.3c1.4,1,3.4-0.6,4.1,1.4c1.3,1.6,3.9,0.1,5.7-0.3c1.1-0.5-0.3,1.7,0,2.4c1,1.1,3.8,0.2,5.5,1.1
		c3.2,1,4.8,4.5,8.2,5.3c2.4,0,1.3,2.7,2.3,3.3c2.2-0.2,5.1-1.5,6.9,0c1.2,1.3,0,1.8-1.2,2.4c-1.8,1.3-2.7,3.4-5.1,3.7
		c-3.6,1.6-7.9,2-11.2,4.1c-0.9,0.8-2,3.5-3.2,1.8c-3.1-2.5-8-1.5-10.2-5.3c-1.9-3.2-4.2-6.6-4.6-10.3c1.4-2,3.7-3.4,5.2-5.5
		C91.5,145.4,88.4,143.9,85.4,142.9L85.4,142.9z"/>
	<path id="path8391" class="st20" d="M37.1,137c-7.2,0.9-14.3,3.6-19.9,8.3c5.4,1.1,11.7,2,16.3-1.8c2.5-1.6,4.2-4.1,5.2-6.8
		C38.3,136.9,37.7,137,37.1,137z"/>
	<path id="path8394" class="st21" d="M40.5,138.1c-2.6,1.8-4.4,4.5-7.4,5.6c-4.6,2.3-6.9,7-10,10.8c-2.8,2.3-7.6,3.1-8.7,7.1
		c-2.9,6.5-8.4,12.4-8,20c0.2,3.6,4.5,3.9,7.1,5.3c2,1.6,4.5,2.5,7,1.6c4.3-1.2,8.6,0.8,12.9,0.7c4.6,0.7,9.2-0.3,13.3-2.5
		c7.5-4.1,14.8-8.9,21.1-14.7c2.9-3.2-1.3-1.7-2.9-0.4c-6.9,4.6-13.5,9.8-21,13.3c-1.4,0.7-3,0.9-3.7-0.8c-0.8-1.5-1.8-2.1-3.3-1
		c-2.1,1.3-4.4,0.3-6.5-0.1c-2.9,0-6.2,2.5-8.7-0.2c-1.7-0.7-1.3-2.7,0.5-3c4.3-1.2,7.5-5.5,12.3-4.8c3.2-0.3,5.9-2.3,8.4-4.1
		c1.6-1.5,3.3-3.4,2.7-5.9c0.7-2.6-2.3-0.9-3.7-1.2c-2.8,0-5.7-0.7-7.9-2.5c-5.9,5.3-11.6,10.9-17.5,16.2c-0.7,0.5-3.1,2.3-2,0.3
		c2.3-5.3,7.8-7.9,11.4-12.2c4.4-4.2,10.2-7,13.9-11.8c0.7-2.3-2.3-4.7-4.3-3.2c-2.1,0.7-4.3,2.6-6.6,1.7c1.9-5.2,8.2-9.1,13.5-6.4
		c-0.7-2-0.5-4.4,1.1-6C42.5,139.6,41.6,137,40.5,138.1z"/>
	<path id="path8397" class="st22" d="M123,140.9c1.2,1.2,5.9,2.6,3.3-0.1C125.2,139.7,119.9,137.6,123,140.9z"/>
	<path id="path8403" class="st23" d="M73.3,140.6c-2,0.6-4.3,0.8-4.9,3.2c-2.9,1.1-5.9,2.2-8.3,4.4c0.7,2.4,2.6,3.4,4.9,3.8
		c1.7,1,2.5,0.5,2.3-1.4c-0.6-2.7,3-3,4.8-3.1c1.3-0.6,5.1,2,4.3,0.1c-1-2.3-1.9-4.7-2.2-7.2C74,140.4,73.6,140.5,73.3,140.6
		L73.3,140.6z"/>
	<path id="path8406" class="st24" d="M126.7,143.1c2.7,3,2.7,7.1,2.2,10.8c0,1.5,0.5,3.1-1.4,3.5c0.3,2.3-0.7,2.4-2.6,2.9
		c0.2,4.3-4.8,4.9-7.9,5.6c-3.6,1.1-7.7,2-10.4,4.5c-1.6,2.4-1.1,6.6-4.8,7c-2.2,1.1-6.2,0.1-5.5-3c0.4-1.5,0.4-2.9-1.3-3.5
		c-4.9-2.6-5.8-8.4-7.7-13c-0.8-3.1-3.7-5.8-2.2-9.1c1.8-3.3-2.4-1.8-4.3-2.1c-2.1-1.1-4.3,1.9-1.6,2.3c1.5,0.1,2.9,0.8,3,2.6
		c2,5.4,4,10.7,5.6,16.2c1.5,2.9,6.1,4.5,4.9,8.4c0.1,3.8,4.4,6.5,7.9,5.3c3.7-0.7,8.3-2.2,9-6.5c0.2-3.3,3.8-3.8,6.1-5
		c5.1-2.6,12.1-1.4,16.1-6.1c2-2.3,6.3-3,6.2-6.6c0.6-3.4-3.3-5.1-4-8.2c-1.4-3-3-6.2-6.4-7.4C125.3,140.8,124.5,139.4,126.7,143.1
		L126.7,143.1z"/>
	<path id="path8409" class="st25" d="M129.5,144.8c2.4,3.3,3.3,7.4,6.3,10.3c0.8,1.7,0.1,3.9-1.8,4.6c-3,1.7-4.8,5-8.4,5.6
		c-4.2,1.2-8.6,1.4-12.5,3.6c-2.1,0.9-4.6,1.9-5,4.4c-0.4,2.6-2.1,4.6-4.6,5.2c-2.7,1.1-6.9,2.1-8.6-1.1c-0.9-1.9,0.5-4.4-1.3-6.1
		c-1.8-2.2-4.8-3.8-5-7c-1.6-5.4-3.7-10.6-5.7-15.8c-1.2-1.4-3.3-1.3-4.8-2c-0.5,2.3-0.8,4.6-1.1,6.9c1.8-0.4,4.1-2,4.6,0.6
		c2.4,4.5,1,10.4,4.6,14.3c1.7,2.1,4.7,3.9,4,7c0.4,2.1-0.6,2.8-2.4,1.3c-1.2-1.1-4.9-3.7-3.2-0.5c1,1.6,2.5,3,3.7,4.5
		c-3.3-0.3-6.6,0.2-9.7,1.2c1.9-4-1-1.2-2.6,0.3c-4.9,3.6-11.3,4.4-15.7,8.6c-4.2,3.4-6.9,8.2-9.9,12.6c-1.3,1-2.8,1.4-4.1,2.4
		c1.5,0.6,4-0.4,4,1.8c0.8,2.2,2.7,3.9,5,4.5c-2.3,5.5-2.6,11.4-2.5,17.3c-0.2,1.9,0.4,7,1.8,2.8c0.8-2-0.4-5.2,2.4-5.4
		c-1.2,2.6,2.6,0.3,4.1,0.6c2.7,1.8,4,5.2,6.4,7.4c2.3-0.9,2.6-2.6,1.8-4.8c0-1.3,2.4,0.7,2.6,1.6c1,1.7-0.2,4.4,1.1,4.3
		c-0.7,1.2-1.3,2.5-1.9,3.7c2.9-0.7,1,1.5,2.8,3.1c1.5,3.2,4.8,5.7,8.1,6c2-2,3.6,1,5.5,1.7c2.6,2.2-0.9-3.4,0.9-2.9
		c3.4,0.7,6.6-1,9.8-1.9c0.7,2,2.1,5.1,4.8,3.9c1.5-0.5,2.9-1.3,4.4-1.8c0.8,2.6,3.2,4.4,5.5,5.7c3.9,0.7,7.2-3.7,11.1-1.6
		c1.6,0.4,0.1,2.8-0.1,3.8c-0.8,1.3-3.6,5.3-0.5,3.3c3.6-2.6,7.2-5.5,11.5-6.9c0.8-9.3,1.9-18.9,1.1-28.2c-1-3.3-1.9,1.3-1.9,2.8
		c0.3,0.9-0.4,2.9-1.5,1.9c-2.2-1.1-0.8-4.4-2.1-5.6c-1.3,0-2.6-0.5-2.5-2c0-1.8-1.2-2.2-2.7-2.4c-2.8-0.5-1.1-3.6-0.6-5.3
		c-2.4-3.8-4.5-7.8-7.2-11.3c-2.5,3.3-1.2,7.8-3.1,11.4c-1.2,4.5,0.9,9,2.8,12.9c3.4-1.3,0.2,2-0.2,3.3c-1.9,3.8-6.8,5-8.3,9.1
		c-0.9,2.6-3.4,4.2-5.6,5.2c-1.2-3.3,2.6-4.7,4.3-6.9c2.8-3.1,6.5-5.8,7.4-10.2c-3.9,1.4-6.6,4.5-10.1,6.5c-2.6,2.7-6.6,3.4-9.8,5.6
		c1.2,2.9-2.6,0.8-4.1,1c0.7,1.6,1.2,3.1-1.1,2.4c0.3-1.9-2-3.3-3.2-4.8c0.2-2,1.3-4.6-1.9-3.9c-1.7-0.1-4.1-0.7-2.9,1.9
		c-0.1,1,1.3,4.5-0.2,3.6c-5-2.4-6.5-8.2-7.1-13.3c-2.9-2.9-5.8-6-9.6-7.6c-1.5-1.5-0.7-4.4-0.3-6.3c1.5-5.4,7.2-7.8,11.3-10.9
		c5.2-3.1,11.1-5,16.6-7.4c4.6-2,9.6-2.9,14.3-4.3c2.2-1.2-1.9-1.2,2.1-1.5c7.1-1.7,14.3-0.4,21.4-0.2c3.4-0.7-1.3-1.8-2.6-2.5
		c-1.4-0.5-1-1,0.3-1.3c3.7-0.9,7.2-2.4,9.8-5.2c3.1-2.9,5.3-6.6,8.5-9.4c1,1.7,2.3,6.5,2.5,2.1c1-5.3,2.3-11.8-2-16.2
		c-4.4-4.7-10.8-6.9-15.7-11.1C128.9,142.8,127.1,140.7,129.5,144.8L129.5,144.8z M93.3,185.9c1.8,0.9,3.8,1.4,5.8,1.7
		c-1.7-0.1-4.3,0.8-5.5,0C93.4,187.1,93.3,186.4,93.3,185.9L93.3,185.9z M87.9,187.6c1.2,0,3.1,1.1,2.9,2
		c-7.2,4.2-15.1,7.2-21.6,12.7c-4.2,2.6-7.6,6.9-12.4,8.4c0.5-4.6,2.6-9.5,7.2-11.5c4.8-3,9.9-5.5,15.1-7.8c0.3-1.8,3-3.2,5.2-3.3
		C85.5,187.9,86.7,187.6,87.9,187.6L87.9,187.6z M128.1,223.8C126.8,222.3,129.2,222.3,128.1,223.8z M128.4,228.5
		C128.2,228.3,129,228.2,128.4,228.5z M126.5,229.5c-0.3,1.9-0.3,4.1-0.9,5.8c-0.5-1.9-0.7-4.8,1-6L126.5,229.5z M128.3,230.9
		C129.2,232.3,126.6,231.5,128.3,230.9z M123.9,236.3c0.8,4.5-2,8.8-4.6,12.2c-1.6,0.7-4.1,2.3-5.3,0.1c-2.4-1.1,0.3-2.8,1-4
		c2-2.7,5.4-4.1,7.4-6.7C122.8,237.1,123.1,234.6,123.9,236.3z"/>
	<path id="path8412" class="st26" d="M71.7,145.6c-2.6,0.1-6.5,1.1-6.1,4.4c-0.5,1.9,0.7,2.6,2.3,3.1c3.9,2.1,7.2,5,10.6,7.7
		c0.2-4.7,0.6-9.5,1.7-14.1C77.2,146.9,74.5,145.4,71.7,145.6z"/>
	<path id="path8421" class="st27" d="M80.9,150.5c-1.9,0.6-4.5,0.7-3.9,3.3c-0.5,3.3-0.7,6.8,1.2,9.8c2.1,5.8,4.1,12.9,10.3,15.6
		c1.3,0.4,4.2,1.6,3.6-0.7c0.3-3.2,0.5-6.9-2.3-9c-3.3-2.6-4.6-6.7-4.7-10.7c-0.6-3-1.7-5.9-3.4-8.5l-0.5,0.1L80.9,150.5z"/>
	<path id="path8424" class="st28" d="M11.2,151.3c-1.3,2.3-2.6,4.6-3.9,6.8c1.7,2.3,2.3,5.8-0.2,7.8c-4,5.6-9.1,11.6-9.1,18.9
		c0.1,3.6,4.6,4.1,6.8,6.2c0,1.8-0.7,2.6,2.3,1.9c4,0.3,8.1,0,12-1.2c2.3-0.3,5.9-1.6,6.9,1.3c0.7,2.3,3.4,1.3,5.2,2.1
		c2.5,0.9,5.2,1.3,7.7-0.1c7.2-3.4,12.4-10,19.8-13.3c3.7-2.2,7.5-4.1,11.9-4.5c1.7-0.4,3.9-0.6,3.4-2.7c0.3-1.7,0.4-3.7-0.9-5
		c1.9-2.8,6.5-4.4,6.2-8.5c0.7-4.1-1.6,0-2.9,1.3c-2.7,3.3-7,5.6-7.8,10.1c-1.1,2.3-4.2,2.2-6.1,3.6c-7.4,3.9-13.7,9.4-20.9,13.5
		c-2.3,1-5.2,2-7.6,1.4c0.9-3.5-1.3-2-3.2-0.7c0.4-2.3-2.1,0.2-3.4-0.8c-1.9-0.7-3.3-2.9-5.5-1.5c-3.5,0.6-7.3,2.5-10.5,0
		c-2.3-1.3-4.6-2.6-7.2-2.9c-0.7-3.7-1.4-7.8,1.2-11c2.6-4.3,6.9-7.6,9.1-12c-0.3-3.6-2.6-7-1.4-10.7
		C13.7,147.9,12.2,150.7,11.2,151.3L11.2,151.3z"/>
	<path id="path8427" class="st29" d="M87,152c-1,4.3,2.4,8,4.6,11.5c2.1,3,5.9,3.7,9,5.1c3.6,1.2,6.7-2,10.2-2.5
		c3.1-0.3,2.8-1.3,2.5-3.3c1.6-1.6,2.4-3.9,1.8-6.1c-3.8,0.5-7-2.4-10.9-1.9c-3.7-0.6-7.7-2.6-11.3-1c-1.6-1.3-3.5-2.2-5.6-2.7
		C87.1,151.4,87,151.8,87,152z"/>
	<path id="path8430" class="st30" d="M7.6,157.7c-1.8,3-5,5.1-6.5,8.3c2-0.9,3-0.9,2.4,1.3c-0.3,4-3.8,6.8-5.3,10.4
		c-1.4,3.1-3.9,5.9-4.1,9.4c0.3,3.3,3.9,4.5,6.2,6c1.5,1.9,3.3,3.6,5.9,3.3c3.9-0.6,7.8-1.2,11.8-1.2c1.5,0.1,2.9-1.1,4.3-0.7
		c-3.4,1.6-7.5,3-8.8,7c-1.4,2.7-2.9,5.5,0.8,2.3c6.3-4.5,14.4-3.7,21.5-5.8c10-4.2,16.9-13.6,27.3-16.9c4.6-1.3,10.8-1.4,13.5-6.1
		c2-3.6,1.6-7.8,3.5-11.5c-0.7-1.7-2-2.4-3.5-3.7c-0.2,2.1,1.2,3.6-1,5c-1.9,1.6-4.2,3-4.8,5.6c1.9,1,1.4,3.3,1.1,4.9
		c-4.2,0.9-8.6,1.4-12.2,4c-6.7,3.1-12.3,7.9-18.1,12.3c-2.7,1.8-6.1,3.8-9.4,2.1c-1.4-0.4-3-0.7-4.4-0.9c-0.8-2.1-2.9-3.8-5.3-3.3
		c-4.8,0.3-9.4,2.5-14.3,1.7c-1.5-0.7-3.5-2.6-5.5-3.5c-1.8-0.7-3.5-2.1-2.8-4.1c1-7.3,6.5-12.7,10.3-18.6c1.2-2.8-0.3-5.9-1.8-8.3
		C8.2,156.8,7.8,157.2,7.6,157.7L7.6,157.7z"/>
	<path id="path990" class="st31" d="M66.4,159.1c-0.7,1.9-0.8-0.1-1.9,0.2c-4.5,1.8-9.2,2.8-13.5,5.2c-4,2.6-6.6,6.8-9.8,10.2
		c-1.8,1.4-1.1,3.7-0.5,5.4c-0.6,2-1.2,5.2,0.8,6.6c4.5,0.5,7.4-3.5,10.5-6c3.2-1.7,6.8-3.2,8.9-6.1c6.3-1.9,11-7.1,15-12
		c0.2-1.6-1.9-2.4-3.2-2.6c-1,0.3-1.8,1.1-2.7,0C69,159.4,67.7,159.1,66.4,159.1L66.4,159.1z"/>
	<path id="path8433" class="st31" d="M66.1,159.5c-3.7,0.4-7,2.6-10.6,3.4c-4.3,1.2-7.6,4.2-10.2,7.7c-1.6,2.2-4.3,3.9-4.9,6.5
		c0.1,1.6,1.3,3,0.4,4.6c-0.3,1.7-0.4,5.1,1.9,4.8c5.2-0.4,7.6-6,12.2-7.5c2.3-1,4.5-2.6,6-4.6c6.6-1.8,11.1-7.4,15.5-12.3
		c-1.7-0.9-3.3-2.7-5.1-0.9C69.8,159.9,67.9,159.4,66.1,159.5z"/>
	<path id="path8436" class="st32" d="M78.2,162.9c-2.2,4.2-1,10.1-5.2,13.1c-5.2,2.8-11.7,2.3-16.6,5.9c-7.8,4.6-14,11.7-22.6,14.7
		c-5.9,1.1-12.1,1.3-17.6,3.9c2.3-3.4,7.1-3.9,10.3-6.3c-2.1-1.1-4.6-2.7-7-1.3c-4.2,0.6-8.5,0.5-12.7,1.4c-3.4,0.8-4.6-3.4-7.5-4.2
		c-2.4-0.7-4.5-3.6-2.5-5.9c2.2-4.9,5.3-9.2,7.9-13.8c1-2.8,0.7-5.8,1-8.7c-7.2,4.2-13.3,10.1-18.9,16.3c-2.6,3-4.3,6.5-5.2,10.3
		c-1.5,4.6-0.8,9.5-1.6,14.2c1.2-0.7,2.1-5.2,3.5-2.9c1.8,3,2.6,7.6,6.6,8.2c2.5,0.2,5,1.1,7.5,0.6c2.4,0.6,4.8,1.6,7.3,1.2
		c3.3,0.1,7.5-1.8,10,0.9c-2.3,2-5.9,1.8-8.7,2.9c-2.4,0.7-5.1,0.9-7.1,2.6c5.2,1.1,10.4-0.5,15.6-1c9.2-1.1,18.5-2.1,27.1-5.7
		c3-1.1,6-2.4,9-3.5c-2.4-0.9-5.7-2.6-4.5-5.7c1.3-3.9,4.8-6.4,7.1-9.6c6-6.4,14.9-9.6,23.6-9.6c1.3,3.5,2,0,2.9-1.8
		c1-2.3,1.6-4.8,1.7-7.2c2,1.7,0.4-3.1-0.2-4.2c-0.8-2.2-1.6-4.5-2.5-6.7C78.8,161.5,78.5,162.2,78.2,162.9L78.2,162.9z"/>
	<path id="path8451" class="st33" d="M80.3,169.2c-0.3,2.6-0.8,5.1-0.4,7.7c1.3-0.8,1.5-4.6,3.3-2.5c3.5,2.8,2,0.2,0.5-2.2
		c-1-2-2-4-3.1-5.9C80.6,167.3,80.4,168.2,80.3,169.2L80.3,169.2z"/>
	<path id="path8454" class="st34" d="M80.8,172c-1.8,3.3-3.3,8.2,0,11c2,0.5,4.4-0.7,6.5-0.3c2.1,0,4.2,0.7,6.3,1.2
		c-3.6-3.7-6.7-7.8-10.3-11.5C82.4,172.1,81,170.1,80.8,172z"/>
	<path id="path8457" class="st35" d="M149.3,176c-2.7-0.2-3.6,3.3-5.3,4.9c-2.2,3.5-5.3,6.4-7.1,10.2c-0.5,3.4,3.6,5.2,5.4,7.6
		c0.7,1.6,2.3,4.4,3.4,2c0.3-3.7,0.1-7.8,3.1-10.6c2.4-2.6,3.9-6.1,6.5-8.5c1.6-0.6,2.9-3.7,1.2-4.4
		C154.3,176.1,151.8,175.9,149.3,176z"/>
	<path id="path8460" class="st36" d="M78.9,177c-1,2.7-2.3,5.2-3.3,7.9c2.6-0.7,5.2-1.6,7.8-2.2c-2.7-1.5-2.9-4.4-2.9-7.1
		C80.7,173.7,79.2,177.1,78.9,177z"/>
	<path id="path8463" class="st37" d="M155.5,177.9c0,2.2-2.8,2.6-3.5,4.6c-2.6,4.6-7.8,8.3-7.8,14.1c0.3,2.5-0.9-0.1-1.8-0.6
		c-1.2-1.4-3.9-2.6-3.6-4.7c1.3-2.8,4.1-4.7,4.8-7.9c-2.4,1.7-5.1,2.6-8,2.7c-5.5,1.4,2.6,1.2,0.5,2.9c-0.7,1.5-4.6,3.4-1.9,4.5
		c3.9,2.1,5.2,6.5,7.1,10.2c-1.2,1.7-3.7,4.4,0,2.8c-2.1,2.6-2.1,3.6,1.6,1.8c1.5-0.8,2.4,3.5,3.5,0.7c3.7-4.7,0.6-11.1,2.6-16.3
		c1.7-1.4,2.5-3.6,3.8-5.3c1.2-0.9,2.7-1.3,3.7-2.5c-0.7,2.9,2.8-2.5,3.5-0.9c2.2,3.1,1.6,6.9,2.4,10.3c0.7,3.1,1.8-1.5,1.8-2.7
		c0.5-3,1.4-6.5-1.1-8.9c-2-2.6-3.6-3.5-6.4-5.2C156.9,177.9,155.6,177.4,155.5,177.9L155.5,177.9z"/>
	<path id="path8466" class="st38" d="M75.8,178.9c-10.4,0.3-20.6,5.3-26.6,13.8c-2.8,2.7-6,6.9-4.1,11c1.3,2.1,4.1,3.6,6.1,1.6
		c2.8-2.7,4.1-6.7,6.9-9.5c3.8-4.8,9.4-7.5,15-9.6c2.5-1.3,5.4-2.6,6.3-5.6C78.8,178.7,77.5,178.7,75.8,178.9z"/>
	<path id="path8468" class="st38" d="M87.6,185.7c-3,0.6-6.5,0.4-8.7,2.8c-2.5-1.8-0.5,2.7-3.4,2.5c-5.9,2.8-11.9,5.6-16.8,9.8
		c-2.5,3.3-3.7,7.3-3.8,11.3c4.4,1.4,7.8-3,11.1-5.1c6.4-5.1,13.1-9.8,20.6-13c2.5-1.3,4.9-2.6,7.2-4.2
		C92.4,187.7,90.3,185.6,87.6,185.7z"/>
	<path id="path8471" class="st39" d="M157.7,179.6c-1.3,2.3-2.5,4.9-5.1,5.8c-2.5,1.3-2.7,4.6-5,6.2c-2.6,4.8,0.5,10.8-2.1,15.6
		c-3.2-1.3,3-5-1.8-3.2c-1-2-2.5-5.3-3.8-7.8c-1.3-2.2-3.5-3.6-5.6-5.1c-1.7,1.9-3.3,3.9-4.9,5.8c-3.8-2.1-0.7,3.1-0.6,5
		c2.8,10.1,6.1,20.4,5.3,31.2c-0.2,5.8-0.6,11.8-1.3,17.6c-3.6,0.7-0.1,1.7,0.7,3.5c0.7,1.7,0.8,6.7,2,2.5c1.5,1.1,1.3,2.1-0.2,3.2
		c-2.1,2,2.4,0.1,3.9,0c2.2-1.2,2.6,2.4,4,3.4c2.1,3.9-0.5-4.5,1.2-2.4c0.6,1.6,2.9,2.8,3.8,0.8c1.3-1.4,0-3.8,0.2-5.1
		c3.6-0.4,4.8-4.6,7.8-6.1c4.3-2.9,3.6-8.9,6.8-12.5c4.4-7.3,2.6-16.2,2.3-24.2c-1.7-8.5-0.5-17.2-1.5-25.8
		c-0.4-2.6-2.1-4.8-2.9-7.3c-3.3,4.1,0.3-4.5-2.6-0.3l-0.2-1.1L157.7,179.6z"/>
	<path id="path8474" class="st40" d="M91.2,184.2c0.5,1.8,0.1,4.7,1.3,5.8c3.9-0.3,7.8-0.5,11.7-0.8c-1-1.7-1.8-3.6-4-3.2
		c-3.4-0.3-6.6-1.6-9.2-3.8C91,182.8,91.1,183.5,91.2,184.2L91.2,184.2z"/>
	<path id="path8448" class="st41" d="M146,166.9c-5.9,4.3-8.8,12.4-16.3,14.3c-2.2,0.6-4.4,1.3-6.4,2.6c2.4,2.9,6.1,4.2,9.8,3.9
		c3.1,0.2,6.9,0.3,9.4-1.9c2-3.1,4.9-5.9,6.6-9.1c-0.5-3.4,0.1-7.1-2-10C147,165.6,146.6,166.5,146,166.9z"/>
	<path id="path8480" class="st42" d="M116.9,184.9c-3.2,0-6.4,0.4-9.5,1.1c-0.7,2.1-3.7,0.8-5.5,1.4c-3.3,0-3.5,2.1-0.1,2
		c6,0,12.4-0.1,17.9,2.8c3.3,1.5,6.1,3.9,8.6,6.4c2.5,1.5,3.3-2.3,5-3.5c2.4-2.8,4.9-5.7,7.2-8.7C132.7,186,124.8,185,116.9,184.9z"
		/>
	<path id="path8483" class="st43" d="M128.8,185.9c1.7,1.5,6.4,1.7,6.8,0.2C133.8,184.8,130.8,184.8,128.8,185.9z"/>
	<path id="path8486" class="st44" d="M108.1,185.8c-2.6,0.1-5.3,0.2-8,0.2c1,2.3,2.4,4,5.2,3c2.4,1,4.9-1.9,3.9-3.3
		C108.8,185.8,108.4,185.8,108.1,185.8L108.1,185.8z"/>
	<path id="path8489" class="st45" d="M105,186c-1.3-0.2-6.1,0.7-3.3,1.6c2.5,0.4,5.6,0.7,7.8-0.9C108.1,185.8,106.7,185.8,105,186z"
		/>
	<path id="path8495" class="st46" d="M106.5,187.6c-10.1,1.4-19.4,6-28.7,9.9c-4.7,2.6-9.4,5.6-13.1,9.5c-2.4,3.3-3.5,8.1-1.9,11.8
		c2.4,2,5.6,2.8,7.5,5.4c2.3,1.8,4,4.1,4.2,7.1c0.7,2.7,2.1,5.2,3.9,7.3c4.2-1.8,3.8-7.5,7.7-9.6c0.6,2,1.3,4.6,3.9,4.4
		c3.1,0.3,6-1.7,7.7-4.2c-0.4,3.2,1.3,1.3,2.6,0c2.2-2.3,4.2-5.2,7.5-6.1c-0.7-1.3,2.1-0.9,2.7-2.3c2.7-3.4,2.2-8.2,4.5-11.9
		c1.2-2.6,0.7-6.7,4.2-7.2c1.7-0.9,1.1,2.3,1.7,3.2c0.9,5,2.6,10.7,7.5,13c2-4.4,5-9.4,2.7-14.3c-0.9-3.2-1.2-6.9-4.2-8.8
		C121.4,189.9,113.9,187.3,106.5,187.6L106.5,187.6z M106.3,191.7c2.9,0.3,7.4-0.5,8.5,3.2c1.1,2-1.6,0.4-1.2,2.7
		c0,3.6-2.2,6.5-2.4,10.1c0.1,1.6-1.4,3.1-2.6,1.5c-0.1-1.7,1-4,0.1-5.1c-4.5-1.3-3.6,5.7-7.3,6.1c-3.6-0.9-7.8-3.6-11.1-0.8
		c-2.7,2-5.3,4.4-7.8,6.6c-2.1,3.5-2.6,7.6-3.9,11.4c-0.2,1.2,0,2.4,0,3.6c-1.8-2.8-3.7-5.9-2.5-9.4c0.2-1.9,2.3-5-0.3-6
		c-0.3-1.8,0.3-2.7-2.4-1.1c-1.1-2.2-2.2,0-3.3,1c-1.1,1.5-1.3,0.7-1.2-0.8c-0.7-3.9,1.2-8,4.9-9.5c5.9-2.5,10.4-7.6,16.9-8.6
		c4-0.8,7.8-2.6,11.4-4.5C103.5,191.8,104.9,191.7,106.3,191.7L106.3,191.7z"/>
	<path id="path8504" class="st47" d="M105.9,189.8c-5-0.3-8.8,3.7-13.6,4.5c-4.8,1.1-9.5,2.9-13.3,6c-3.9,2.9-10,4-11.5,9.4
		c-0.9,3.4,0.1,7-0.6,10.5c2-1.1,3.8-2.4,5.3-4.1c0.6,1.1,2.2,0.6,3,1.5c-1.3,4-2.4,8.9,0.6,12.4c1.3,2.1,2.4,4.4,3.3,6.7
		c1.8-3,0.9-6.4,1.4-9.7c1.7-3.6,1.3-8.3,4.5-11c2.9-2,5.1-5.5,8.7-6.1c3.1,0,5.9,2.7,8.9,1.8c2.3-1.1,3.4-3.4,4.3-5.6
		c-0.3,2-0.9,4.7,1.6,5.3c1.8,0.8,3.7-0.1,3.9-2.1c0.6-2.6,1-5.2,2.2-7.7c0.3-1.2,0.4-2.4,0.5-3.6c2.2,1.3,1.9-0.8,1.6-2.4
		c-0.4-3.3-3.4-6.1-6.9-5.7C108.7,189.9,107.3,189.8,105.9,189.8z M105.7,194.6c2.2,0.1,4.9,0.2,6.8,1c-0.2,2.2-0.6,5.2-2.6,6.5
		c-3.6,0.1-6.5,2.5-9.8,3.6c-4.6,0.7-9.3,1.5-13,4.5c-2.8,1.8-4.9,4.5-6.4,7.5c-2.6-1.2-1.5-4.7-1.1-7c-1.3-0.9-3.1-2-1.7-3.7
		c3.5-5.3,9.3-8.3,15.4-9.7C97.2,196.1,101.3,194.4,105.7,194.6z"/>
	<path id="path8507" class="st48" d="M105.1,192.8c-5.8,0-11.1,2.5-16.6,3.9c-5.2,1.7-10.1,5.2-12.8,10.1c-0.9,1.8-0.3,3.7,1.6,4.5
		c-0.3,2.2-0.9,5.1,0.6,6.7c1.5,0.8,3.6,3.8,4.1,0.7c2.7-6,9-10.1,15.5-10.8c3.9,0,6.8-2.6,10.3-3.7c2.1-0.1,4.5-0.8,5.1-3.1
		c1.2-2.2,1.6-4.7,1.3-7.2C111.3,193.2,108.2,192.7,105.1,192.8L105.1,192.8z M105.1,196.9c2-0.3,3.9,0.7,3.9,3
		c0.2,1.5-2.9,1.3-4.1,2.1c-5.3,1.8-10.8,5.3-16.5,3.3c-2.7-0.3-5.4,2-5.2,4.7c-0.3-1.3-1-2.8-2.1-3.5c3.2-4.6,8.5-7.3,14-8.2
		C98.4,197.4,101.7,197,105.1,196.9L105.1,196.9z"/>
	<path id="path8510" class="st49" d="M104.7,195.1c-5.5,0-10.9,1.5-16.1,3.2c-4.6,1.9-8.1,5.5-10.6,9.7c2.1-0.5,3.5,1.1,3.7,3.1
		c0,2.3,1.6,1.3,2.9,0.5c1.7-0.6-0.1-3.3,2.1-3.9c2.3-0.9,4.6,0.9,7.1,0.2c6.3-1,11.9-4.3,18-6c-0.9-2.4-1-6-4.1-6.4
		C106.6,195.1,105.6,195.1,104.7,195.1z"/>
	<path id="path8513" class="st50" d="M-18.2,196.7c-2.5,3.2-3.6,7.2-4.8,11c2.6,5,6.6,10.7,12.9,11c5.2,0,9.9-2.3,14.9-3.1
		c3.7-1.3,8.1-1.4,11.4-3.7c1.7-1.5,0.1-3.9-1.8-4.4c-5-1.7-10.6,1.6-15.4-1.1c-2.2-0.4-4.6,0.4-6.7-0.5c-3.2,0.4-5.2-2.4-6-5.2
		c-0.7-2-2-3.8-4-4.6l-0.3,0.4L-18.2,196.7z"/>
	<path id="path8516" class="st51" d="M120.4,199.3c-2.4,0.7-5.4,1.5-5.8,4.4c-0.9,4.3-3.3,8-3.9,12.3c-0.4,2.4-2,4.7-4.7,4.5
		c-2-0.2,0.2,1.8-1.7,2c-1.9,1.3-3.3,3.1-4.9,4.8c0.3-2.4-3-0.7-3.3,0.8c-1.4,2.3-4.7,4.2-7.2,2.8c-0.7-1.6-1.2-3.3-1.9-5
		c-2.7,1.6-5.2,3.9-6.2,7c-0.5,1.1-1,2.3-2,3c-2.6-2.9-2.2-7.1-4.3-10.2c-2-2.7-3-2.9-2,0.7c0.7,5.8,3.1,12.1,8.9,14.4
		c2.2,1.5,3.3,1.2,2.5-1.6c-0.1-1.4-0.3-2.8-0.5-4.3c2.6-0.2-0.2,3.9,2.8,4.7c2.6,0.7-0.2,4.7,2.6,4c1.8,0,3.5,0.2,5.3,0.4
		c-1.7-2.6-0.1-2.5,2.2-1.9c1.9,0.3-1-3.4,1.6-3.4c3-1.3,6-2.7,8.4-4.9c0.8-0.3,3.3-2.3,1.6-0.7c-1.9,2.6-4.9,4.2-6.6,6.8
		c-0.9,2.1,0,4.5,0,6.6c3.6-2.1,7.8-4,9.1-8.2c2-3.8,6.9-5,8.3-9.1c1.1-2,2.2-4.1,3.4-6.1c-1.8,0-4.6,1.8-5-1
		c-1.8-3.6-2.2-7.8-0.4-11.4c0.4-1.8,0.3-3.7,0.7-5.4c1.7,2.6,3.3,5.3,4.8,8c-1.1,2-1.4,5.3,1.2,6.4c1,0.7,2.8,0.1,2.5,1.9
		c0.1,1.6,1.3,2.8,2.9,2.8c-0.2,2.6,1.2,5.8,3.9,6.1c2.2,0.1,2.9-2.4,2.8-4.3c0.4-4.6-1.3-9.1-2.1-13.6c-0.7-2.9-1.3-5.9-2.8-8.5
		c-0.7,3.7-1.2,7.8-3.2,10.9c-4.7-4-4.2-10.8-6.4-16.2C121,199.1,120.7,199.2,120.4,199.3L120.4,199.3z"/>
	<path id="path8519" class="st52" d="M49.1,204.5c-8.1,3-16.2,6.4-24.8,7.3c-3.9,0.5,2,1.1,2.9,2.6c1.3,1.6-0.3,3.4-2,3.4
		c-4,0.9-0.8,1.5,1.5,1.8c2,0,3.9,1.7,5.6,1.4c1.7-2.1,3.9-3.9,6.8-3.6c2.4-0.2,7.2,0.2,2.6-1.8c-0.9-0.4-2-0.7-1.2-2
		c1.6-3.9,5.5-6.1,9.6-6.5c2.8,0.7,1.8-3.3-0.3-2.8C49.6,204.5,49.4,204.5,49.1,204.5L49.1,204.5z"/>
	<path id="path8522" class="st53" d="M50.5,205.3c-3.5,0.7-7.3,1.4-9.6,4.5c-1.5,1.7-3.5,4.5-2,6.6c1.9,1.2,4.1,1.9,6,3
		c-0.6-1.9-3-3.8-1.1-5.7c1.8-3,5.2-4.9,8.6-5.2C51.8,207.7,52.1,204.5,50.5,205.3z"/>
	<path id="path8528" class="st54" d="M51.2,206.9c-4.5,0.7-9.1,4.1-9.9,8.7c0.6,3.2,4.4,4.1,6.1,6.7c3,2.9,2-0.6,0.7-2.5
		c-0.7-1.7-3.5-2.7-2.1-4.8c0.8-2.7,3.7-6.3,6.6-4.1c3.2,2,1.8-0.2,0.4-2C52.4,208.3,52.2,206.4,51.2,206.9z"/>
	<path id="path8531" class="st55" d="M50.6,208.3c-4,0.3-6.4,4.7-6.9,8.4c0.4,2.3,3,3.3,3.7,5.5c0.9-3.4,1.1-7.3,2.8-10.3
		c1.7-0.7,3.5-0.7,5.2-1.3C53.9,209.6,52.5,208.3,50.6,208.3z"/>
	<path id="path8591" class="st56" d="M53.8,220.7c-0.5,3.3-1.5,6.9,0.7,9.8c1.1-3.3,1.2-7.1,0.9-10.4
		C54.9,217.6,54.7,219.8,53.8,220.7z"/>
	<path id="path8534" class="st57" d="M52.9,209.3c-2.1,0.4-5,0.8-5.2,3.5c-0.7,2.4-1.6,5-1.6,7.5c0.7,2.6,4.5-1.6,5,1.5
		c0.9,2.2,1.6,4.6,2.6,6.8c0.8-5.2,1.3-10.5,3.3-15.5C55.8,211.7,55,209.3,52.9,209.3z"/>
	<path id="path8537" class="st58" d="M53.5,211.4c0.9,1,2.2,3.7,2.9,3.3c0.6-2,2.1-4.6-1.1-4.5C53,209.7,50.4,207.5,53.5,211.4z"/>
	<path id="path8543" class="st59" d="M25.6,211.5c-2.6,0.5-5.8,0-7.3,2.7c-0.8,1.2-3.3,3-2.9,3.8c3.7,0.6,7.5,1.5,11.1,1.3
		c3.5-0.6,3.8-5.7,0.8-7.2C26.9,211.9,26.2,211.5,25.6,211.5L25.6,211.5z"/>
	<path id="path8546" class="st60" d="M20.5,212.2c-4.2,0.5-8.5,0.7-12.3,2.8c0.9,1.6,0.6,5.6,3.3,4.2c3.1-0.7,6.5-0.1,9.5-1.4
		c-3.8-0.6-1.3-2.4,0.3-4C23.3,211.8,23.6,211.8,20.5,212.2z"/>
	<path id="path8558" class="st61" d="M11.2,213.5c-1.7,0.7-5.8-0.5-5.2,2.1c0.2,1.5,0.5,4,1.9,4.5c1-0.7,4.2-0.2,3.3-2
		c-1.2-1.8-0.4-2.7,1.5-3C17.2,213.3,13.5,213.1,11.2,213.5z"/>
	<path id="path8564" class="st62" d="M-17.6,214.8c-1.3,6.1-0.3,12.3-0.1,18.5c4-4.3,7.1-9.4,11.6-13.1c2-0.6,4,0.7,6,0.8
		c3.2,1.3,6.3-0.1,9.2-1.2c-0.7-1.6-1.4-3.8-1.3-5.8c-4.9,0.1-9.7,1-14.3,2.4c-4,1.3-8.1-0.4-10.9-3.3
		C-17.5,213.7-17.5,214.3-17.6,214.8L-17.6,214.8z"/>
	<path id="path8600" class="st63" d="M48.2,224c0.7,3.4,0.4,7.3,2,10.4c1.9,1.5,3.7,2.9,3.9-0.3c1-2.6,0.4-5.5,0.5-8.2
		c-1.1,1.1-2.9,1.4-3.4-0.3c-0.8-1.7-2-3.2-3.3-4.6C48,222,48.1,222.9,48.2,224z"/>
	<path id="path8585" class="st64" d="M50.2,218.7c-1.5,0-2.8,0.8-4.4,0.9c2,2.8,2.7,6.6,5.5,8.8c1.5,0.9,4.1-0.1,3.2-2.1
		c-0.7-2.6-1.2-5.8-3.3-7.4C50.9,218.7,50.5,218.7,50.2,218.7L50.2,218.7z"/>
	<path id="path8570" class="st65" d="M163.5,216c0.3,7.6,1.8,16.3-3.3,22.7c-2.2,3.6-1.9,8.7-6,11c-2.4,1.3-3.3,4.8-6.2,5.1
		c-3.3-2-2,0.8-1.4,3.2c0.1,0.8,0.7,2.5-0.1,2.7c-0.8-2-2.6-2.5-4.7-2.7c-1.1-1.1-3.3,1-4-1.5c-0.9-1.2-2-2.2-3.1-3.3
		c-1.2,3.3-0.5,7.5-3.8,9.7c-1.8,2.2-4.7,3.2-7.4,2c-1.3-0.4-3.3-0.4-4.2-0.8c2.7-3.9,7.8-7.2,7-12.6c-0.4-1.5-2.7-1.5-4.2-2
		c-3.3-0.5-6.1,2.9-9.3,2c-2.2-1.4-3.9-3.3-4.5-5.9c-2.5,0.5-4.6,2.4-7,2.4c-1.5-1.2-1.3-5.1-3.8-3.9c-3.8,1.2-8.5,3.5-11.9,0.2
		c-2.4-2.2,1.7,5-1.3,2c-1.4-0.9-3,1.9-4.6,0.2c-2.6-0.9-3.9-3.4-5.2-5.6c2.8-2.4,1.6-2.8-0.5-3.1c0.8-1.4,1.7-2.9,2.6-4.4
		c-1.1,0-2.9,1-2.6-0.8c-0.6-3.2-3.9-5.5-7.1-4.7c-0.1,1,1.5,5.9,0.1,3.8c-1.9-2-3.3-6.1-6.6-5.9c-2.5,1.1,1.3-3.2-1.6-1.3
		c-1.7,0.9-4.4,1-5.3,2.5c0.3,1.7-2.1,5.9,0.8,5.2c2.2,0,4.4-2.7,6.2-0.3c3.7,3,7.1,6.5,8.5,11.1c1.5,4,3.5,8.4,3.1,12.8
		c-1.2,3.1-2.1,7.2,0.9,9.7c0,0.4-2-0.6-2.6-1.1c-2.6-2-5.3-4-7.5-6.5c-2.1-2.9-2.2-6.8-4.6-9.5c-0.4,2.3,0.4,4.6-2.1,5.8
		c-3.9,3.7-8.5,6.6-11,11.5c-1.8,3.4-5,5.6-7.1,8.7c-3.4-2.1-2,0.4-0.9,2.6c-1.6,1.4-4.6-2.2-4.4-0.2c0.3,1.7,0.9,3.6-1.3,3.9
		c-1.7,1.4-3.7,0.5-5.3-0.5c-1.3,2.8-5.1,2.1-7.5,3.3c-1.7,0.6-4.1-0.1-4.2,2.3c-1.7,2.4,0.3,3.3,2.4,4.1c4.5,2.8,9.8,4,15,4.8
		c2.6,0,5.3-0.2,7.9-0.4c-1.5,1.6-3.1,4.2-1.2,6.1c2.3,3.7,4.8,7.3,7,11.1c3.4-0.7,6.5-2.2,9.1-4.4c-2.9-0.9-5.9,0.8-8.8,0
		c-2.2-2.4-3.9-5.6-2.9-8.8c0.3-2.2,0.6-4.4,0.7-6.6c-4.5-0.1-9,0.1-13.4,0.1c-0.9-1.9-3-2.3-4.8-2.5c-0.9-0.3-2.7-1.1-0.8-1.4
		c3.2-1,6.6-0.4,9.5-2.4c2.5-2,6.5-1.2,8.4-4.1c1.8-2.4,3.4-5.3,2.5-8.4c-0.1-3.2,3.4-5,5.1-7.4c2-3,5.2-7.1,9.3-5.3
		c2.9,2,1,5.4,1.5,8.2c0.8,4.2-2.2,8.4-0.3,12.4c1.5,3,5.3,2,7.8,1.6c-0.5,2.1-1.9,3.7-4.1,3.9c-3.4,1.3-7.9,2.7-9.1,6.6
		c-0.3,1,0.3,2.3-1.1,2.3c-1,0.5-3,1.5-2.6,2.3c1.4,2,2.5,1.8,4.2,1.2c5.9,0.9,11.7-1.3,17.6-2.2c1.7-0.4,3.4-1.1,4.4-2.7
		c3.2,3.4,8.1,1.9,12,2.8c1.3,2.9-2.6,4.6-4.6,5.5c2.4,0.9,4.8,0.6,7.3,0.7c2.7-3.8,6.7-7,11.6-6.8c5.9-0.8,11.5-2.8,16.8-5.2
		c3.5-0.5,7.5-0.2,10.4-2.9c2.7-1.8,3.5-5,3.3-8.1c0.1-2.8,2.8-4.5,3.2-7.2c3.5-0.3,7.1-0.4,10.5-1.1c0.4-1.5,0.2-3.1-0.4-4.5
		c3.5-1.1,4.7-5.2,7-7.7c2.2-2.8,3.6-6.1,5.2-9.2c2.7-1.7,4.1-4.8,4.2-7.9c0.9-2.7,3.2-5.2,2.1-8.2c-0.7-3.3,0.9-6.5,0.1-9.7
		c-0.6-3.4-0.1-7.2-2.1-10.1C164,214.6,163.8,215.3,163.5,216z M101.6,253.8c-0.3,2.3,4.6-0.6,4,2.3c0.3,1.4-0.2,3.7,2,2.7
		c3.5,0.2,6.3-1.9,9.1-3.6c1-0.7,3.4,1.9,3.1,2.7c-2.2,3.2-4.9,5.9-7.3,8.9c1.6,0.3,0.6,0.4-0.1,1.6c1.2,0.4,5-0.2,4.6,1.3
		c-3.5,3.2-6.8,6.8-11.4,8.5c-1.9,0.7-3.9,2-5.7,2.3c-3.3-1.7-7-0.3-10.3,0.6c1.5,2-1.8,1.7-3,2.5c-1.9,0.3-4.4,1.2-6.2,0.2
		c-3.1-2.9-5.6-6.4-6.3-10.7c-3.4,0.5-6.4,2.5-8.6,5c1.6-4.3-3.3-1.2-2.4-3.6c1.8-3.8,1-8.1,1.3-12.1c3.8,3.6,7.8,7.1,12.8,8.7
		c-3.4,1.9-2,2.2,1.1,1.7c2.6-0.4,5.4-1,7.6-2.7c-3.9-0.5-8.2-0.5-11.2-3.3c-1.6-0.6-1.1-3.9,0.6-3.6c3.5,0.1,5.5-3.3,8.8-3.9
		c2.1-1.1,5.5-1.4,6.3-3.8c1.3,0,2.2-2.4,4.1-1.8c2.4,0.3,4.8,0.1,7.2-0.3L101.6,253.8z M145.1,262.1
		C146.2,263.7,143.5,262.5,145.1,262.1z M68.9,281C68.9,281.4,68.6,280.9,68.9,281z M69.2,284.3C69.9,284.7,68.7,284.3,69.2,284.3z
		 M68.8,286.3C70.1,287.3,67.2,287.1,68.8,286.3z M66.9,286.5c0.5,0.8-0.8,1.1-0.2,0.1C66.7,286.6,66.8,286.5,66.9,286.5z"/>
	<path id="path8573" class="st66" d="M41,215.5c-3.3,0-7,0.3-9.1,3.2c-2.6,1.7-1,2.6,1.4,3.3c1.8,0.4,4.1,2.7,5.5,1.5
		c0.8-1.4,1.7-3.5,3.7-2.4c3.2,0.9,4.9,2.6,7.4,4.7c-0.3-5.3-4.1-8.4-8.6-10.4L41,215.5z"/>
	<path id="path8576" class="st67" d="M18.4,216.7c-4.9,0-9.7,0.9-14.2,2.8c-3.4,0.5-6.7-1.6-10.2-1.4c-3.8,1.4-5.7,5.6-8.4,8.4
		c-2.7,3.5-6.4,6.8-7,11.4c2.1-0.7,3.5-3.9,4.7-4.6c0.2,2.9-2,6.5,0.7,8.9c1.8,1.5,3.7,4,1.9,6.3c-1.3,1.8,1.9,2.8,2.6,4.3
		c5,6.2,8.8,13.3,13.6,19.7c3,4.6,2.8,11.2,7.7,14.3c4.4,2.3,8.8,5.8,14,5.3c-2.2-2.3-5.2-3.4-7.9-4.9c0.1-2.4,3.1-1.5,4.7-2.4
		c2-0.7,4.7-0.6,6.2-2.3c2.8,2,5.8-0.5,8.3-1.6c-0.1-1.2-0.6-2.4,1-1.9c1.4-0.2,4.4-0.6,2.9-2.4c2.2-4.1,6.4-6.8,8.5-11.1
		c3-5.1,8.4-7.8,12.3-12.1c0.8-1.8-0.5-4.1-0.9-6c-2.2,5.4-7.2,8.8-11.2,12.7c-3.4,4.6-6,11.1-12.2,12.3c-0.7,1.1-2.2,0-3.3,0.7
		c-2.8,1.9-5.5,4.3-9.1,4.6c-1.6-1.4-1.3,2.8-3.5,1.5c-1.9-0.4-3.7,0-4.7,1.7c-0.6,0.6-2.1,2.8-2.4,1.1c-1.2-3.1-2.2-6.7-0.3-9.7
		c1-2.1,1.5-4.7,1.3-6.9c2,2,3.1,1.3,3.7-1.2c2.3-2.9,1.1-6.7,2.1-9.9c2.2-4.2,3.2-9,2.5-13.7c-0.2-2.4-0.1-4.7-0.2-7.1
		c-2.7,4.4-5.8,8.6-8,13.3c-2.9-2.1-6-4.2-8.4-6.9c-0.9-3.1,1.3-6.3,3.1-8.7c3.8-4.3,9.1-6.9,14.1-9.6c2.2-0.7,3.8-2.2,5.5-3.7
		C24.6,217.5,21.5,217.1,18.4,216.7L18.4,216.7z"/>
	<path id="path8579" class="st68" d="M24.9,217.8c-5.1,4.6-11.5,7.6-16.4,12.3c-2.7,3.3-2.6,8-0.2,11.4c0.9,1.7,1.9,3.3,2.7,5
		c1.9-2.7,3.9-5.5,7-6.9c1.3-0.7,1.6-2.6,2.7-3.2c0,1.9-0.4,4.1,2.1,3.2c1.7-0.4,4.2-0.1,3.9,2.2c0.4,4.1-3.1,7.3-3.3,11.3
		c-1,4-3.9,7.1-6.2,10.4c1.2,2.7,0.8,5.7,0.9,8.6c1.5,0.5,3.9,3.1,4.6,0.6c0.9-2.1,1.9-4.3,4.5-4.6c3.6-0.6,3.8-4.8,5.4-7.3
		c2.5-5.1,6.7-9.7,6.9-15.6c0.3-1-0.5-3.8,1.3-2.4c2.9,1.8,5.2,6.2,2.3,9.1c-3.2,5.8-6.4,12.4-4.9,19.3c5.3-4.2,8.9-10,13.5-14.9
		c2.2-2.4,5.6-4.5,6.3-7.9c-0.7-4.7-3.1-8.9-4.8-13.3c-1.3-3.6-1.4,0.9-1.3,2.5c0.4,3.1,0.4,6.3-1.4,8.9c-0.7,1.6-2.1-1.3-2.5-2.1
		c-0.9-1.7-0.8-4.2-2.1-5.4c-3.5-1-7.1-4.6-10.9-3c-2.1,1.2-2.1,4-3.7,5.5c-0.7-3.4-0.9-6.9-1.5-10.3c-2.7,1.1-2.2-1.7-4.2-1.1
		c-3,0.3-5.4,2.3-7.6,4.2c-1.9-0.3-4.6-2.1-5.9,0.2c-0.6,1-0.2,2.5-0.8,3.3c-0.9-1.6-2.3-5.1,0.7-5.5c3.9-0.6,5.4-4.8,8.4-7
		c2.7-2.6,5.6-5,8.4-7.5C27.4,218,26,217.3,24.9,217.8L24.9,217.8z"/>
	<path id="path8582" class="st69" d="M25.9,218c-4.4,3.8-8.7,7.7-12.6,12c-2,0.7-5,1.1-5,3.9c-0.2,2.5,1.3,4.6,2.2,6.8
		c1.7-0.9,3.3-2,3.1-4.1c-0.2-2.3,2.2-0.8,3.3-0.5c3,0.9,4.2-3,6.8-3.5c2.1-1.4,1.7,1.3,4,0.5c1.3,0.6,0.7,3.5,1.2,5
		c0.2,2,0.6,3.9,1,5.8c3,0.1,4.2-3,5.2-5.3c1.6-2.5,4.8-0.1,6.7,0.7c1.5,0.9,3.8,1,3.7,3.4c0.7,3,2.4,6.1,5.5,7.2
		c1.8-3.3,3.9-6.8,3-10.7c-0.7-2,1.1-5-1.6-5.8c-2.9-2.3-4.4-2.8-2.1,1.1c1.1,1.3-1.4,1.3-1.8,0.3c-1.2-2-2.9-1.6-4.6-0.6
		c-1.6-1-4.4-2.1-4.6-4.4c0.6-2.1,0.5-6.2,3.5-6.2c2.8,1,4.5,4.4,7.9,4.2c-0.3-2.1,0-4.6-2.3-5.7c-2.5-1.7-5.8-3.9-8.7-2.8
		c-1.3,0.7-1.4,3.4-3.2,2C33,220.2,29.4,217.4,25.9,218L25.9,218z"/>
	<path id="path8588" class="st70" d="M23.7,218.9c-5.4,2.4-10.7,5.4-15.3,9.2c-3,3-5.7,7.1-5.4,11.5c1,3.4,4.9,4.8,7.3,7.2
		c1.3,1,2.6,1.9,4,2.7c1.4-3.5,3.3-6.7,5.4-9.8c0.7,4.6,0.2,9.3-2,13.4c-1.7,3.3,0.1,7.3-2.3,10.4c-0.7,1.7-2.6-1.1-3.9-1.3
		c-0.7,0.4,0.1,3.1,0.1,4.6c0.2,4.2-3.8,7.8-2,12.1c0.6,2.1,1.3,4.1,1.9,6.2c2.8,0.1,4.4-2.6,6.1-4.1c1.7-0.3,4.5,1.2,5.2-0.7
		c2.3,2.5,3.1,2.4,2-0.9c3.3-0.5,5.7-3,8.4-4.6c1.3-0.3,2.4,1.3,3.2-0.7c6.7-1.6,9.3-8.7,13.3-13.5c3.6-3.2,7.6-6.2,9.8-10.6
		c-1.8-6-4.8-11.8-5.2-18.2c-0.2-4.2-1.6,0.9-2.1,2.5c-1,3.5,2,6.6,2.8,9.9c0.8,2,2.1,4.6,0,6.4c-3.4,3.7-7.3,6.9-10.1,11.1
		c-1.6,2-3.4,4.2-5.2,5.7c0.1-6.3,3.8-11.7,6.5-17.1c0.7-4.8-3.5-9.8-8.5-10c0.4,5.4-0.8,10.9-4.1,15.1c-2.1,3.3-3.7,7.2-5.6,10.5
		c-2.4,0.9-5.4,1.6-6.2,4.5c-0.1,2.1-2.6,0.8-1.9-0.7c0-1.9-0.1-3.9-0.7-5.7c2.9-3.7,5.9-7.8,6.5-12.6c1.4-3.8,4.4-7.9,2.1-12
		c-1.1-1.9-3.5-1.7-5.3-1.5c0.5-2.7-0.6-3.8-3.3-3.2c-0.9,2.1-2.4,3.9-4.6,4.8c-1.4,0.9-2.5,2.6-3.5,3.6c-2-3.2-4.2-7.2-1.9-10.9
		c2.8-3.8,7.4-5.7,11.1-8.5c2.1-1.5,4.4-3,5.9-5.2C25.4,218.6,24.6,218.8,23.7,218.9L23.7,218.9z"/>
	<path id="path8594" class="st71" d="M42.3,221.7c-3.8,0.3-4.5,5-5,7.9c-0.2,3.6,3.9,4.5,5.8,6.8c1.4-0.4,3.1-2,4.1-0.2
		c1.3,1.8,3.6,1.2,5.3,0.3c1.1-0.9-1.4-3.2-1.3-4.8c-0.7-1.9-0.1-4.6-1.3-5.9C46.9,225.5,45.5,221.6,42.3,221.7L42.3,221.7z"/>
	<path id="path8603" class="st72" d="M128.9,226.2c-2.2,1-5.1,1.8-5.2,4.6c-0.7,1.2,0.6,3.5-1.3,3.3c-1.7,0.5-0.8,3.5-2.9,4.1
		c-3.5,2.6-6.8,5.7-8.8,9.6c1.8,1,2.9,4.4,5.1,3.9c2.8-0.5,5.9-1.6,6.9-4.6c1.8-3,3.7-6.3,3.4-9.9c2.5,0.8,1.4-3.1,2-4.6
		c-0.8-2.6,4.3-2.8,2.4-5.3C129.8,226.6,130.2,225.1,128.9,226.2z"/>
	<path id="path8606" class="st73" d="M164.8,227.5c-1.3,3,0,6.4-0.4,9.4c-1.4,2.4-2.4,4.9-2.6,7.6c-0.8,2.8-4.2,3.8-4.8,6.8
		c-2.1,4.8-5.5,8.9-8.7,13c-1.3,1-4.5,0.6-2.6,2.6c0.9,1.5,2.8,2.6,2.3,4.2c4.7-1.9,7.2-3.9,11.2-7c4.6-4.8,9.8-10.8,8.8-18
		c-0.7-7.2-1-14.4-2.1-21.6C165.6,225.5,165.2,226.5,164.8,227.5L164.8,227.5z"/>
	<path id="path8609" class="st74" d="M58.3,228.8c-1.8,0.5-3.3,1.7-5.2,1.5c-1,5.9,1.6,11.7,3.7,17.1c1.9,5.2,2.8,11.6,8,14.7
		c2.3,2,4.6,4.2,7.6,5.2c3.9,3.7,9.7,5.5,14.8,3.4c8.9-2.5,17.9-2.4,27.1-2c1.5-0.6,4.6-0.9,3.3-3.1c-0.9-2.2,2-3.5,2.8-5.4
		c0.8-1.4,3.3-2.7,1.1-4c-1.3-1.1-2.5-3.3-4-3.4c-3.3,1.3-6.1,4.5-9.8,4c-0.5-1.6,0.4-4.5-2.2-3.9c-2.8,0.8-1.2-3-4-1.5
		c-3.1,0.9-6.3-0.2-9.3,0.7c-1.2,0.3-1.8,2-3.2,0.8c0.3,3.4-3.6,3.6-5.9,4.7c-2.6,0.6-4.4,2.7-6.8,3.6c-1.1,0-2.8,0.6-3.3,0
		c0-3.2,2.3-6,1-9.2c-1.3-5.8-3.2-11.7-6.8-16.5c-2.6-2.6-5-5.6-8.5-6.8L58.3,228.8z"/>
	<path id="path8612" class="st75" d="M128,229.9c-2.3,0.2-1.1,3.8,0.9,2.8C130.3,231.9,129.6,229.7,128,229.9z"/>
	<path id="path8615" class="st76" d="M-17.1,230.7c-3.3,4-6.7,8.2-7.5,13.5c4.1,1.6,8.1,3.7,11.5,6.6c1.4-2.2,2.5-5.1,0.7-7.4
		c-1.4-1.9-4.1-3.5-2.8-6.3c0.5-1.4,0.4-3.1,0.5-4.4C-10.4,232-16.7,229.7-17.1,230.7z"/>
	<path id="path8621" class="st77" d="M52.9,231.4c-0.6,2.1,0,4.3,1.1,6.1c1.4-2.7,1-5.9,0-8.6C53.6,229.8,53.3,230.6,52.9,231.4
		L52.9,231.4z"/>
	<path id="path8627" class="st78" d="M132.3,251c-2.5,1.1-4.9,2.5-7.2,3.9c3.5-0.3,6.8,1.5,8.7,4.5c1.7,3.3,1.6-0.6,2-2.3
		C136.2,254.7,134.7,251.3,132.3,251L132.3,251z"/>
	<path id="path8630" class="st79" d="M127.4,253.5c-4.6,3.2-8.5,7.3-11.4,12.2c3.9,0.1,7.6,1.7,11.4,1.3c-1.6-1.8-4.1-2.4-5.9-3.7
		c1.3-2.7,3.9-6,7.2-5.6c2.4,1.1,3.5,3.7,5.2,5.5c0.7-2,2.4-4.6,0.2-6.3C132.5,255,130,252.9,127.4,253.5z"/>
	<path id="path8633" class="st80" d="M118.6,253.9c-3.3,0.3-3.6,1.4-0.9,3.1c1.9,1.7,4.5,4.4,2.7,0.1
		C119.7,256.3,120.3,252.9,118.6,253.9z"/>
	<path id="path8635" class="st80" d="M68.7,285.2c-2.6,0-1.2,4.2,0.9,2.6C70.8,287.1,70.1,285.2,68.7,285.2z"/>
	<path id="path8637" class="st80" d="M66.5,285.5c-2.4,0.1-1.3,3.6,0.7,2.8C69.1,287.8,68.3,285.3,66.5,285.5z"/>
	<path id="path8640" class="st81" d="M127.7,255.6c-4.2,0.7-7.2,4.6-8.5,8.5c3.1,1.6,6.7,4.6,10.3,2.4c2.2-1.3,3.7-3.4,5.5-5.1
		C133,259.1,131.2,255.5,127.7,255.6z M127.1,259.9c2.1-0.4,4.3,2.6,2,3.9c-1.4,0.8-4.3,0.2-4.7-1.2
		C124.6,261.3,125.6,259.8,127.1,259.9z"/>
	<path id="path8646" class="st39" d="M57.5,257.5c-4.3,0-7,3.9-9.3,6.9c-2.2,2.6-6,5.2-5,9.2c0.6,2.8-1.5,5.5-3.4,7.4
		c-2.6,0.8-5.3,1.5-7.7,3.1c-3.4,1.5-7.6,0.6-10.8,3c-2.3,0.8,0.8,2.1,1.9,2.9c1.6,1.4,4.4,0.4,5.4,2.5c1.1,1.9,3.9,0.4,5.7,0.8
		c2.3,0,5.2-0.3,7.2,0c-0.2,3.9-2.1,8.5,0.7,12c1,2.2,3,4.2,5.6,3.6c2.7-0.2,5.3-0.7,7.7-2.2c6-3.2,13-2.3,19.5-3.5
		c4.4-0.9,9-0.5,13.3-1.3c2.8-1.2,4.8-5.8,1.7-7.7c-3.4-1-7.7,0.5-10.4-1.8c0.2-1.3,2.7-5.3,0.1-3.8c-3.3,0.7-3.5,5.2-7,5.5
		c-5.2,0.9-10.4,2.6-15.8,2.3c-0.5-2.3-0.3-5.1,2.1-6.3c2.7-2.2,6.6-2.4,9.3-4.3c1.4-2,2-4.5,3.1-6.7c-1.9-0.1-3.8-0.2-5.7-0.3
		c1.8,2-1.7,1.9-2.9,1.3c-2.4-2.4-0.3-5.9-0.2-8.9c0.1-3-0.1-6.1,0.2-9.1C62.5,259.9,60.3,257.3,57.5,257.5z M51.7,296.8
		c0.5,0.7-1.3,0.8-0.2,0C51.5,296.8,51.6,296.8,51.7,296.8z"/>
	<path id="path8652" class="st82" d="M126.9,258.1c-3.1,0-5.3,4.2-3.8,6.5c2.6,1.6,6.8,2.5,8.5-0.7
		C133.1,260.7,130.1,257.7,126.9,258.1z"/>
	<path id="path8655" class="st83" d="M62.6,260.7c0.2,4.1-0.9,8.4,0.5,12.3c2-2.2,0.9-5.8,2.3-7.9c2,0.4,3.8,2,6,2
		c-2.4-3.3-5.6-5.8-8.8-8.2C62.6,259.4,62.6,260,62.6,260.7L62.6,260.7z"/>
	<path id="path8658" class="st84" d="M144.8,261.1c-2.2,0.3-1.2,3.8,0.8,2.7C147.1,263.1,146.5,260.8,144.8,261.1z"/>
	<path id="path8661" class="st85" d="M65.5,263.2c-2.8,0.1-2.4,3.9-2.8,5.9c-0.4,2.2-0.2,4.4-0.2,6.5c2.8-0.4,6.5,0,7.8-3.2
		c1-2.1,1.3-4.9,0.4-7C69.1,264.5,67.3,263.2,65.5,263.2z"/>
	<path id="path8664" class="st86" d="M69,266.3c0.4,2.5,0.3,6.6-2.9,7.1c-2,0.8-2.1-0.6-1.9-2.2c0-4.7-2-0.2-2.6,2
		c-0.1,1.6-3.4,6.5,0,4.6c3.7-1.3,7.3-2.7,11.1-3.9c0.9-2.3,0.7-5.5-0.7-7.3c-1.2-0.6-3.8-3.9-3-1.1l0,0.5L69,266.3z"/>
	<path id="path8667" class="st87" d="M70.9,267.8c0.6,2.2,0.8,4.6-0.4,6.7c3.6-1.3,7.8-0.9,10.8-3.7c-3.7-1.4-7.5-2.8-10.8-5.1
		C70.6,266.4,70.8,267.1,70.9,267.8z"/>
	<path id="path8670" class="st88" d="M102.8,266.6c-2.5,0.1-5.2-0.2-7.3,1.3c3.8,1.7,8.5,0.4,12.3,1.1c-0.3,2.9-1.2,6.2-4.3,7.2
		c-2.3,1.2-4.7,2.5-7.2,1.1c-3-0.7-6,0.3-9,0.4c-1.6,0.4-2.5,2.5-4,2.6c-0.6-1.5,0.8-4.4-1.6-4.1c-0.9-0.2-2.8-0.7-2.7-1.4
		c2-1.7,4.1-3.2,5.9-5.1c-6.2,1.2-12.5,1.8-18.4,4.3c-2.5,1.3-6.4,1.1-6.6,4.6c2.2-0.7,4.6-1.8,3.9,1.3c-0.5,3.8,0.8,2.6,2.4,0.3
		c1.8-2.1,3.9-4.1,6.6-4.9c1.3,4.1,3.9,8.1,7.5,10.5c4.3,1.1,8.3-1.3,12.4-2c-1.5-1.8,0.5-1.8,1.8-2.1c1.9-0.4,3.9-0.3,5.4,1
		c5.8-2.6,12.1-4.9,16.3-9.9c0.8-1.4,4.4-2.3,3.2-3.8c-2.4-3.6-7.2-1.8-10.7-2.4C106.8,266.6,104.8,266.6,102.8,266.6z"/>
	<path id="path8673" class="st89" d="M97.6,266.9c-5.5,0.7-11,1.7-16.2,3.5c-2,1.5-4,3.2-6,4.8c1.6,1.4,4.1,2.2,5.8,3
		c0,1.7,0.1,4.7,2.6,3.9c2.3-0.6,3.4-3.5,6-2.8c2.7-0.3,5.5-0.8,8.1,0.3c3,0.6,5.6-1.6,8.2-2.8c3.4-2,3.1-6.4,4-9.8
		C105.9,267.1,101.7,266.9,97.6,266.9z"/>
	<path id="path8676" class="st90" d="M137.5,270.5c-2.3-0.3-1.6,2.8-2.8,4.1c-2.4,2.3-2.1,5.7-2.4,8.6c-1.6,4-6.3,5.4-10.3,5.2
		c-4.3,0.6-7.9,3.4-12.2,4.1c-4.8,1.8-10.5,0.7-14.6,4.2c-1.7,1-2.7,3.3-4.5,3.9c-3.9,0-8-0.3-11.7,0.7c-2.6,1.3,2.8,1.7,4.2,1.5
		c6.5,0.1,12.9,1.5,19.4,1c6.9,0,13.2-3.2,19.7-5.3c7.2-2.7,14-6.4,19.8-11.6c0.2-3.9,1-8.1-1.3-11.7
		C140,273.9,139.1,270.9,137.5,270.5L137.5,270.5z"/>
	<path id="path8682" class="st91" d="M69,282.7c-2.3,0.7-0.7,4.9,1.2,2.9C71.3,284.7,70.8,282.2,69,282.7z"/>
	<path id="path8684" class="st91" d="M72.7,285.1c-2.3,0.5-4.4,1.4-6.5,2.3c3.3,0.5,6.6,0.9,9.2,3.1C74.4,289,74.5,284.8,72.7,285.1
		z"/>
	<path id="path8699" class="st92" d="M51.2,295.6c-2.6,0.3-0.6,4.3,1.3,2.7C53.7,297.3,52.6,295.4,51.2,295.6z"/>
</g>
<g>
	<path class="st93" d="M163.1,90.1c1.8-0.4,2.8-0.6,3.1-0.6c0.3-0.1,0.8-0.6,1.5-1.5l11.9,0.3c-0.4,0.4-1.9,0.8-4.6,1.3
		c-3,0.6-5.2,0.9-6.6,0.6l-0.4-1.5c-0.4,0.4-1.2,0.9-2.5,1.7h-2.5V90.1z M151.1,86c-0.5-1.3-1.4-2.3-2.5-3.2c-1.4-1-2.5-1.8-3.4-2.3
		c-1.4-1-2.5-1.9-3.1-2.5c0.9,0,1.9,0,3.1-0.1c1.3,0.1,3.1,1.2,5.4,3.2c2.2,1.9,3.7,3.6,4.4,5.2c-0.3,0.3-0.5,0.5-0.5,0.6
		c-0.1,0.1-0.3,0.5-0.3,1c0,0.6,0.3,1.3,0.8,1.7c-0.8-0.4-1.8-0.9-3.2-1.7C151.7,87.7,151.4,87,151.1,86z M33.2,65.2l-6.5-5.2
		c-0.3-0.6-0.6-1.4-1.4-2.3c-0.9-1.2-1.4-1.8-1.5-2.1l-1.2-1.3c0-0.4-0.1-0.6-0.5-1c-0.4-0.3-0.9-0.5-1.4-0.5c0.3-1.4,1.3-3.7,3-7.2
		c1.3-2.8,1.8-5,1.7-6.6l4.4-3.9l-0.9,2.1c-0.6,2.8-1.9,8.1-4,15.9c0,1.9,0.6,3.6,1.9,5C30.2,61.7,32.4,64.2,33.2,65.2
		C33.2,65.4,33.2,65.2,33.2,65.2z M46.3,84.7h-0.4l-2.2-1.3c0,0-1.2-1-3.2-3c-1.3-1.2-2.2-2.6-2.6-4c-0.6-0.8-1.3-2.1-1.7-4
		c-1.3-2.1-1.8-3.1-1.3-3.1l2.6,0.3l0,0c0,3.7,1.7,7,4.9,9.8c2.8,2.3,6.2,3.7,10.1,4c0.5,0,1,0,1.5,0c-0.3,0.3-1.2,0.5-2.6,0.6
		c-0.3,0-0.4,0.1-0.6,0.1C48.8,84.6,47.2,84.7,46.3,84.7z M99.4,100.9c-0.6,0.5-1.5,0.8-2.8,0.8c-1.8,0.1-3.5,0.5-5,0.9
		c-1.4,0.3-3.1,0.5-5.2,0.6c-1.5,0-3.7-0.4-6.6-1.2c-2.8-0.5-6.5-0.9-11-1h-2.1c-3.4-1.5-5.3-2.5-5.9-2.8c-1.5-1-3.9-3-7-5.9
		L53.7,92l-0.1-0.4c3.5,0.9,6.6,2.3,9.3,4c2.5,1.4,4.1,2.3,5.2,2.3c2.8,0.4,11.1,0.6,24.7,0.8h5.9c0-0.9,0-1.5-0.1-1.7
		s-0.4-0.8-0.9-1.8s-0.8-1.8-0.9-2.2l0.5,1.3c0.4,0.9,0.8,1.8,1,2.7C99.4,98.7,99.8,100,99.4,100.9z M109,98.3
		c-4.4-2.3-7-4.4-7.9-6.2l0.9-0.9c0.1,0,1.2,0.5,3.2,1.4c2.2,0.9,3.9,1.5,5,1.9c2.3,0.5,5.3,0.8,8.9,0.8c1.5,0,5-0.9,10.5-2.8
		c4.9-1.7,7.9-2.8,8.9-3.6c-1,2.3-2.3,3.7-3.7,4.5c-2.3,0.8-4.6,1.5-6.7,2.6c-0.9,0.3-2.1,0.5-3.7,0.6c-1.7,0.3-3.1,0.4-4.3,0.4
		c-1.5,0-3,0-4.4,0C113,97.1,110.8,97.5,109,98.3z"/>
	<path class="st94" d="M96.6,54.6l-1,1.2c0.3,0.1,0.4,0.3,0.4,0.4l3.5,0.3c0.8,0,1.3-0.1,1.4-0.5c0.1-0.3,0.4-0.6,0.8-1.3
		c-0.6-0.9-1.4-1.5-2.2-2.1v-2.7C92,50.2,87.1,51,84.7,51.9c-1.4,0.6-2.2,1.4-2.2,2.6c0,0.5,0.1,0.8,0.3,1c0.3,0.1,0.3,0.1,0.3,0.1
		l3.4,0.3C86.7,56.1,90.1,55.5,96.6,54.6z M158.7,90.4l4.4-0.3h2.3l-0.4,0.3H158.7L158.7,90.4z M155.2,86.1
		c-0.6-1.4-2.2-3.1-4.4-5.2c-2.3-2.1-4.1-3.1-5.4-3.2l0.5-0.1c1.3,0.3,2.5,0,3.5-0.9c1-0.8,1.5-1.8,1.8-3l-2.6-0.6
		c-1-1.5-2.6-2.8-4.5-4c-2.6-1.4-5.3-2.2-8.4-2.2c-1.2,0-2.2,0.5-2.8,1.4c-0.5,0.6-0.8,1.2-0.8,1.5c0,1.4,0.8,2.7,2.5,3.9
		c0.3,0.1,1.8,1.2,5,3.1c0.6,4,0.4,7.7-0.5,11.5c-0.8,2.7-1.8,4.8-3,6.3c-2.5,0.6-5.2,1-8,1.3c2.2-0.9,4.4-1.8,6.7-2.6
		c1.4-0.8,2.7-2.2,3.7-4.5c-1,0.6-4,1.8-8.9,3.6c-5.3,1.8-8.8,2.8-10.5,2.8c-3.7,0-6.7-0.3-8.9-0.8c-1.3-0.3-3-0.9-5-1.9
		c-2.1-0.9-3.1-1.4-3.2-1.4c0-1-0.4-1.9-1.2-2.8c-0.8-0.8-1.7-1.2-2.8-1.2c0.1-0.3-0.3-0.4-1.2-0.3s-1.3,0.4-1.3,0.9
		c0.1,0.3,0.3,0.4,0.5,0.6l0.8-0.3l-1,0.9h-0.1c-0.4,0.3-0.6,0.1-0.9-0.4l0.3,1l-0.6,1.4c0.5,0.6,0.9,1,1.2,1.3
		c0.5,0.4,1.2,0.5,2.1,0.6c0.9,0.6,2.6,3,4.9,7.1l-3,0.6c0.3-0.9,0-2.2-1-4c-0.3-0.9-0.6-1.8-1-2.7l-0.5-1.3c0.1,0.4,0.4,1,0.9,2.2
		c0.5,1.2,0.8,1.7,0.9,1.8c0,0.3,0.1,0.9,0.1,1.7h-5.9c-13.6-0.1-21.8-0.4-24.7-0.8c-1-0.1-2.7-0.9-5.2-2.3c-2.7-1.7-5.8-3.1-9.3-4
		l-1.2-1.2c0.6-0.5,1.8-1.7,3.4-3.6c1.5-1.9,2.5-3.2,2.6-3.9H58l-0.1-0.6l1.9-1v0.8c2.1,0,3.4,0,3.9-0.3c1-0.4,1.4-1.5,1.3-3.2h-0.6
		c-0.4,0-1.2,0.4-2.3,1c-1,0.6-1.8,1-2.1,1.3L56.7,82l-2.6,1h0.5c-0.5,0-1,0-1.5,0c-3.9-0.3-7.4-1.7-10.2-4
		c-3.2-2.7-4.9-5.9-4.9-9.7l0,0l-2.6-0.3c-0.8-1.2-1.4-2.6-1.8-4l0,0c-0.9-1.2-3.1-3.6-6.6-7.2c-1.3-1.3-1.9-3-1.9-5
		c2.1-7.7,3.4-13,4-16c0.4-0.4,0.9-1,1.4-1.9c0.4-0.5,0.8-0.8,1.2-1l0.1-0.1l0,0h0.1l0.1-0.3c9-1.4,14.6-2.5,16.5-2.7
		c7-1,13.7-1.5,20.4-1.5c7,0,15.1,0.5,24.4,1.7c4.8,0.6,10.6,1.3,17.4,2.3c0.8,0.3,0.4,0.4-0.9,0.5c-1.9,0.1-3,0.8-3,2.3
		c0,0.5,0.1,0.9,0.4,1c0.1,0.1,0.3,0.1,0.4,0.1l2.1,0.1c1.7,0,3-0.1,4-0.5c0.6-0.3,1.3-0.6,1.9-1.2l-0.6-1l-3.7-1.5
		c4.5,0.3,9.7,2.3,15.6,6.2c3.7,2.5,11.1,7.4,22.1,14.7c7.4,4.4,15,9.9,22.9,16.5c2.2,1.4,4.6,4.4,7.5,8.8c3.1,4.8,5,7.5,6.1,8.4
		c-2.7,1-4.6,1.5-5.7,1.7c-3,0.1-6.7,0.5-11.5,0.9l-0.1-0.3c1.4,0.1,3.7-0.1,6.6-0.6c2.7-0.5,4.4-1,4.6-1.3l-11.9-0.3l0.5-0.5
		l-9.4-3L155.2,86.1L155.2,86.1z M158.2,90.4l-4.6-0.1l0.5,1.2c-0.8-1.3-1.3-2.3-1.7-3l-0.5-0.6c1.4,0.8,2.5,1.3,3.2,1.7
		c0.3,0.1,0.4,0.1,0.5,0.3C156.6,90.1,157.4,90.4,158.2,90.4L158.2,90.4z M153.9,79.8v-2.6h-2.5v2.6H153.9z M145.2,80.5
		c0.8,0.5,1.8,1.3,3.4,2.3c1.2,0.9,1.9,2.1,2.5,3.2c-0.3-0.5-1.2-1.4-2.5-2.7C147.4,82.1,146.3,81.2,145.2,80.5z M142.8,80.5
		l0.8,0.4l0.8,0.6L142.8,80.5L142.8,80.5z M187.2,89.5l-0.1-0.3l1,1L187.2,89.5L187.2,89.5z M118.4,52.1c-0.5,0.5-0.9,0.9-1.4,1
		c0,0.4,0.1,0.8,0.4,1.2c0.3,0.4,0.3,0.5,0.3,0.6c1.8,0,3-0.3,3.7-0.6C119.9,52.4,118.9,51.8,118.4,52.1z M114.9,61.7v-2.6h-5.4
		c0.9-0.3,1.4-0.5,1.7-0.6l-1.3-2.1c-1.8,0.4-3.2,0.9-4,1.4c-0.4,0.3-0.8,0.8-1.2,1.4l2.5,0.3c0.4,0,0.8,0,1.3-0.1v2.7h6.6
		L114.9,61.7l0.8,0.5c0.6,0.1,1.3,0,2.1,0c0.8-0.1,1.2-0.3,1.4-0.4v-2.1l-1.4,0.4c-0.8,0.1-1.5,0.5-2.3,1
		C115.3,61.4,115,61.6,114.9,61.7z M120.7,63c0.5,0,1,0,1.5,0l-2.1-0.8c-0.1,0.3-0.3,0.4-0.5,0.5C119.7,62.9,120.1,63,120.7,63z
		 M107.3,75.3c0-0.4-0.1-1.3-0.5-2.6c-3.1,1-4.9,1.8-5.2,2.3c0.1,0.4,0.1,0.6-0.1,1c0.4,0.1,0.5,0.3,0.5,0.4l1.2,0.3
		c0.9,0.1,1.7,0.3,2.2,0.3c0.6,0,1.3-0.3,1.7-0.6c0.1,1.2,0.5,1.7,1.2,1.8c0.3-0.1,0.5-0.4,0.6-1c0-0.4-0.4-0.6-0.9-1
		C108.1,75.8,107.3,75.3,107.3,75.3z M145.5,139.1c0.5,0.1,1.3,0.1,2.2,0.1s1.7-0.1,2.3-0.3c-0.4,0.1-1.2,0.3-2.1,0.4
		c-0.9,0-1.8,0-2.5-0.1V139.1z M143.8,122.6l-0.8-4c-0.1-1.7-0.1-2.8,0.1-3.4l0.8-0.1h0.1c0.4,0.5,0.8,1.3,1.2,2.3
		c0.4,1,0.5,1.8,0.5,2.3C146,120.7,145.2,121.8,143.8,122.6z M119.9,97.2c-1.9,0.8-3.4,1.3-4,1.4c-0.8,0.1-2.3,0.3-4.8,0.3
		c-1,0-1.8-0.3-2.2-0.6c1.7-0.9,3.9-1.3,6.6-1.3C117,97.1,118.4,97.1,119.9,97.2z M160.1,128.9l0.1-0.9v0.6
		C160.2,128.6,160.1,129,160.1,128.9z M76.5,33.8c-0.3-0.3-0.4-0.4-0.4-0.6c-0.8,0-1.4,0-1.9,0.1c-0.9,0.3-2.2,0.6-3.9,1.4l4,0.4
		c0.6,0,1.2-0.1,1.4-0.4C75.9,34.6,76.2,34.2,76.5,33.8z M65.1,40.4L63,39.5c-0.1,0-0.9,0.3-2.3,1c-1.3,0.5-2.2,0.9-2.6,1.2L60,42
		C62,41.7,63.6,41.3,65.1,40.4z M60.8,33.5c-0.6-0.4-1.3-0.5-1.9-0.5c-1.8,0.3-3.6,0.6-5.4,1.3c-3.6,1.2-5.4,2.7-5.4,4.3
		c0,2.8,2.7,3.5,8,1.9s8-3.1,8.1-4.9C62.2,34.4,61.1,33.6,60.8,33.5z M82.7,70.3c0.4,0.8,0.6,1.3,0.8,1.3c0.3,0.4,0.6,0.6,1,0.6
		c1.2,0,1.8-0.3,2.1-0.8c0.3-0.5-1-1.8-3.9-3.6v-1.3c-1.2-0.3-2.2-0.5-3-0.5c-1.5,0-3.2,0.4-4.9,1.2c-2.2,0.9-3.2,2.2-3.2,3.6
		c0,0.6,0.3,1.4,0.6,2.1c0.6,1.2,1.8,1.8,3.2,1.8s2.8-0.4,4.5-1.3C81.5,72.6,82.5,71.6,82.7,70.3z M77.8,86.3c-1.9,0.6-3,1.3-3,2.2
		c0,0.9,1,1.5,3,2.2s4.3,0.9,7.1,0.9s5.2-0.3,7.1-0.9s2.8-1.3,2.8-2.2c0-0.9-1-1.5-2.8-2.2c-1.9-0.6-4.4-0.9-7.1-0.9
		C82.2,85.4,79.8,85.8,77.8,86.3z M44.8,61.9c-0.5,0.4-0.9,0.6-1,0.6c-0.4,0.3-0.5,0.6-0.5,1.3c0,0.9,0.6,1,1.8,0.4
		c2.7-0.3,4.8-0.8,6.1-1.5c0.9-0.6,1.3-1.3,1.3-2.1c0-0.5,0-1-0.3-1.3c-0.1-0.4-0.3-0.8-0.4-1.2h-1.4c0-1.7-0.8-3.4-2.2-5.2
		c-1.8-2.1-4-3.1-6.6-3.1c-2.3,0-4,0.3-5,0.8c-0.9,0.5-1.4,1.3-1.4,2.3c0,0.1,0.3,1.3,0.9,3.7c0.5,2.6,0.8,4.6,0.8,5.9
		C40.4,62.5,43.1,62.3,44.8,61.9z M18.6,107.1l-6.1-14.2c0.9,1.7,2.1,4.1,3.5,7.5C17.3,103.3,18.1,105.5,18.6,107.1z M60.9,153.9
		l0.5,0.1l3.9,1.4l2.8,1c-3.7-1.3-7-2.5-9.4-3.5c-2.5-0.9-4.6-2.1-6.6-3.1c2.1,1,4.1,2.1,6.2,2.8C58.2,152.9,60.9,154.1,60.9,153.9z
		 M65.4,150.8c0.1-2.8,0.6-6.3,1.3-10.7c0.8-4,1.2-6.3,1.2-7c0.1-0.6,0.6-1.7,1.3-3c0.6-1.3,1-2.3,1.2-2.7c0.6-1,2.1-2.7,4.3-5.3
		c2.6-3.1,4.5-5.2,5.9-6.2l-0.6,1.7c-0.4,1.3-0.6,2.2-0.6,2.7c0,0.4,0.1,3.2,0.4,8.8c-0.1,5.3-1,8-2.8,8c-2.1,0-4.3,1.5-6.7,4.8
		c-2.3,3.1-3.6,5.7-3.6,8c0,0.5,0.1,0.8,0.3,0.9c0.1,0,0.3,0,0.4-0.1C67.4,150.4,66.9,150.6,65.4,150.8L65.4,150.8z M47.8,95.4
		c1.3-2.8,3.2-4,5.9-3.6l0.1,0.3c-0.5,6.2-1,10.2-1.3,12c-0.6,2.6-1.5,3.9-3,3.9c-0.9,0-1.7-0.5-2.3-1.5c-0.5-1-0.9-2.3-0.9-4.1
		c0-0.5,0-0.9,0-1.4c0.1-1.8,0.4-3.4,1-4.8C47.6,95.8,47.6,95.7,47.8,95.4z M46.3,84.7l-0.3,0.1l-0.3-0.1H46.3z M28,86.7
		c-1.2-1.3-1.8-4.1-1.8-8.4c0-4,2.5-7,7.4-8.9v10.7c0,2.6,0,4.3-0.3,5.2c-0.4,1.4-1.4,2.2-2.8,2.2C29.3,87.4,28.5,87.2,28,86.7z
		 M55.5,99.7c1.2,0,1.7,0.3,1.9,0.6l-0.3,1c-0.6,0.8-1.3,1-2.1,1L55.5,99.7z M79.6,101.9c-2.6-0.3-6.2-0.6-10.8-1
		c4.5,0.1,8.3,0.4,11,1C79.8,101.9,79.6,101.9,79.6,101.9z M86.6,103.2l-0.3-0.1c2.1-0.1,3.7-0.4,5.2-0.6c1.7-0.4,3.4-0.6,5-0.9
		c-0.4,0.4-1,0.9-2.2,1.5c-1,0.6-1.7,0.9-1.8,0.9C92,104.1,90.1,103.8,86.6,103.2z M87.8,147.7c-0.9,1.2-2.3,4.9-4.1,11.4l-1,0.8
		c1-3.9,1.8-6.5,2.2-7.6C85.6,150.3,86.6,148.9,87.8,147.7L87.8,147.7z M85.6,110l-0.3,2.1c-0.1,0.6-0.4,1.3-0.9,1.7
		c-0.4,0.3-0.6,0.4-0.8,0.4c-0.3,0-0.4-0.1-0.6-0.4l-0.1-0.3c0-0.4,0.4-1,1.3-1.9C84.8,110.9,85.2,110.4,85.6,110z"/>
	<path class="st95" d="M168.2,90.4c4.8-0.4,8.5-0.8,11.5-0.9c1-0.1,3-0.6,5.7-1.7l1.7,1.5c-2.3,0.8-4.3,1.4-6.1,2.1
		c-3.4,1-6.2,1.8-8.4,2.1c-1.7,0.3-4.3,0.4-7.5,0.6c-2.7,0.1-4.5,0.3-5.4,0.3c-4.4,0-7.1-1.3-8.3-3.9c-1.9-4.1-4.3-7.1-7-9l-0.8-0.6
		c-0.3-0.3-0.5-0.6-0.8-1.2l-0.1,0.6c-0.6-0.5-1.3-0.9-1.7-1.3l-0.3-1.4l1.5,0.3c0.5,0.5,1.5,1.4,3.1,2.5c1,0.8,2.1,1.8,3.4,2.8
		c1.4,1.3,2.3,2.2,2.5,2.7c0.3,1,0.5,1.7,0.8,1.9l0.5,0.6c0.4,0.6,1,1.7,1.7,3l-0.5-1.2l4.6,0.1h0.5h6.2c-0.6,0.4-1.4,0.9-2.3,1.5
		l0.5,0.6c0.3,0.1,0.4,0.3,0.5,0.3c0.1,0.1,0.4,0.1,1,0.1C166,93,167.2,92.2,168.2,90.4z M29.5,35.1l1.7-1c-0.4,0.3-0.6,0.5-1.2,1
		c-0.6,0.9-1.2,1.5-1.4,1.9L29.5,35.1z M26.7,60.1l6.3,5.2c0.4,1.5,1,2.8,1.8,4c-0.5,0,0,1,1.3,3c0.4,1.9,1,3.2,1.7,4
		c0.4,1.4,1.2,2.8,2.6,4c2.1,1.9,3.2,3,3.2,3c-1-0.5-2.5-1.5-4.1-3.4c-1.8-1.9-3-3.5-3.4-4.8l-0.5-1c0,1,0.6,6.1,1.9,15.2
		c0,2.2-0.5,3.7-1.4,4.8c-0.5,0.5-1.2,0.9-1.8,0.9c-1.2,0-2.7-1.3-4.5-3.6c-0.3-0.4-1.8-2.6-4.5-6.8l-0.5-1.7l0.3,6.7
		c0,3.4-0.4,5.8-1.2,7.1c-1.3,2.5-2.3,4.6-2.8,6.7l-0.3,0.4c-0.5-0.5-0.9-1.4-1.2-2.7c-0.3-1.3-1.2-2.7-2.7-4.3l3.5-4.3
		c-0.8-0.8-1.2-1.3-1.4-1.5c-0.6-0.8-0.9-1.7-0.9-2.6s0.4-2.7,1.2-5.4c1.4-4.6,2.5-7.7,2.7-9.3c-1.7,0.8-3.1,1.3-4.1,1.7
		c-2.1,0.8-3.5,1.3-4.1,1.3c-1.5-3.9,0.9-6.8,7.5-8.9c3.4-1,7.1-1.7,11.1-2.1c-0.3-0.4-1-1.2-2.5-2.3c-1.5-1.3-2.6-2.3-3.1-2.8
		C27,60.4,26.7,60.1,26.7,60.1z M53.7,92c-2.7-0.5-4.6,0.6-5.9,3.6c0.4-1.4,0.6-2.3,0.8-2.8c1.8-1.8,3.2-3,4.1-3.6
		c0.5-0.5,2.2-2.6,5-6.1h0.5c-0.1,0.5-0.9,1.8-2.6,3.9c-1.4,1.7-2.6,3-3.2,3.5l1.2,1.2C53.6,91.6,53.7,92,53.7,92z M70.2,127.6
		c0.9-6.7,4.1-11.5,9.8-14.6c3.4-1.8,5.2-2.8,5.4-3.1c1.7-1.3,2.5-3,2.5-4.9c0-0.5-0.1-0.9-0.4-1.2c-0.4-0.1-0.6-0.4-1-0.6
		c3.4,0.5,5.4,0.9,6.1,0.9c0.1,0,0.8-0.3,1.8-0.9c1.2-0.6,1.8-1.2,2.2-1.5c1.2,0,2.1-0.3,2.8-0.8l3-0.9l0.1,1
		c-0.6,1.4-1.9,2.3-4.1,2.8c-2.1,0.1-3.2,0.3-3.5,0.3c0.3,0.4,1.9,1.7,5,4.1c3,2.8,4.5,5.9,4.5,9.3c0,1.3-1,2.5-3.1,3.6
		c-2.6,1.3-4.3,2.8-5,4.4c-0.4,0.8-0.8,3.7-1,8.7c-0.4,4.8-0.6,7.5-1,8.1c-0.6,1.2-2.5,1.7-5.2,1.5l-4.8-0.3
		c-1.2,1.2-1.9,3.9-2.3,8.1c-0.3,2.3-0.5,5.6-0.9,9.9l-0.4,0.9l-5.3-2.7l-0.1-0.1l-0.9-0.6c-1.8-1.2-3.5-2.5-5.2-4
		c-1.8-1.5-3.1-3-3.9-4.1c1.4-0.3,1.9-0.4,1.5-0.4c-0.3,0-0.4,0.1-0.4,0.1c-0.1,0-0.3-0.3-0.3-0.9c0-2.3,1.2-4.9,3.6-8
		c2.5-3.1,4.6-4.8,6.7-4.8c1.8,0,2.8-2.7,2.8-8c-0.3-5.4-0.4-8.4-0.4-8.8c0-0.5,0.3-1.4,0.6-2.7l0.6-1.7c-1.4,1.2-3.4,3.2-5.9,6.2
		C72.4,124.7,71,126.6,70.2,127.6L70.2,127.6z M67.9,133.3c0,0.5-0.4,2.8-1.2,7c-0.6,4.4-1.2,7.9-1.3,10.7c-0.3-0.6-0.4-2.5-0.6-5.4
		c-0.1-2.5-0.3-4.1-0.3-5.3C64.5,140,65.7,137.7,67.9,133.3z M60.9,154.1l-2.7-1c0.5-5.2,0.1-8.7-1-10.5c-0.8-1.3-2.3-1.9-4.5-2.1
		c-2.6-0.1-4.1-0.4-4.9-0.8c-1.5-0.9-2.3-3.2-2.3-6.7c0-0.8,0.3-1.3,1-1.7c1.2-0.8,3.4-1.2,6.7-1.2l0.3-4.4c0-0.9-0.1-3.4-0.3-7.5
		c-0.3-4.6-0.4-8.3-0.6-10.8l-0.4-1c-0.3,4.5-0.4,7.1-0.4,8c0,2.3-0.8,4.4-2.2,6.2c-1.4,1.4-2.1,2.2-2.1,2.2c0,0.5,0,0.8-0.3,0.9
		c-0.1,0-0.4,0-0.5,0.1c-1.5-0.4-3.4-1.7-5.6-3.9c-3.4-3.2-5-7.1-5-11.6c0-2.5,0.6-4.3,1.9-5.7c1.2-1.3,3-2.3,5.4-3.2
		c0.1,0.8,0.1,1.8,0.1,2.8c0.1,0.8,0.5,1.8,1.3,2.8c0.6-0.5,1.2-1.9,1.7-4.3c0,0.5,0,0.9,0,1.4c0,1.8,0.3,3.2,0.9,4.1
		c0.5,1,1.3,1.5,2.3,1.5c1.3,0,2.3-1.3,2.8-3.7c0.4-1.9,0.9-5.9,1.3-12c3.1,3,5.4,4.9,7,5.9c0.6,0.4,2.6,1.4,5.9,2.8l0.3,0.6
		l-1.5-0.3c0,0.1,0.3,1.5,0.6,4.4c0.5,2.6,0.6,4.5,0.6,5.6c0,3.4-0.9,6.6-2.6,9.9c-1.8,3.4-2.6,5.8-2.6,7.2c0,0.4,0.3,2.1,0.6,5
		c0.4,2.8,0.5,4.5,0.5,5c0,1.9-0.6,5.3-1.9,10.1C60.7,149.9,60.8,151.7,60.9,154.1L60.9,154.1z M134.5,143.6c-0.1,3.9-1.4,5.9-4,5.9
		c-1.3,0-2.3-0.3-3.1-1c-0.5-0.5-1-1.3-1.4-2.3c0.1-1,1.2-3.2,3.4-6.5c2.2-3.4,4-5.7,5.4-6.8l0.1,5.3
		C134.8,140.2,134.7,142.1,134.5,143.6z M160.1,129.5l0.1-0.4l0.1-0.1l-0.1-0.4c0.1-0.4,0.4-1,0.9-1.8c0.5-0.5,0.8-3.9,0.8-10.1
		c0,0,0.8,1.9,2.3,5.7c0.8,1.9,1,6.6,1,13.9c0,2.1-0.3,3.6-1,4.6c-0.6,1-1.4,1.5-2.3,1.5l-0.9-0.3c-0.3-1-0.5-2.2-0.8-3.5
		C160.3,138.7,160.1,129.5,160.1,129.5z M145.9,111.6c0.3-0.4,0.5-0.9,0.9-1.3c1.5-1.9,2.5-3.2,2.7-3.7c0.1,0.6,0.5,2.3,1.4,4.8
		c0.8,2.5,1,3.7,1,3.9l0.1,0.3c-0.4,4-1.2,7.6-2.3,10.8c-1,3.1-2.1,4.9-3.2,5.7c-0.6-0.5-1.2-2.1-1.7-4.9c-0.5-2.8-0.8-4.3-0.8-4.4
		c1.4-0.8,2.2-1.8,2.2-2.8c0-0.4-0.3-1.2-0.5-2.3c-0.4-1-0.8-1.8-1.2-2.3c0-0.1,0.1-0.3,0.1-0.4
		C144.7,113.5,145.2,112.5,145.9,111.6L145.9,111.6z M159.2,105.5c-0.3-0.3-0.4-0.5-0.4-0.8c0-0.3,0.1-0.5,0.4-0.8
		c0.3-0.3,0.5-0.4,0.8-0.4s0.5,0.1,0.9,0.4c0.3,0.3,0.3,0.5,0.3,0.8c0,0.3-0.1,0.5-0.3,0.8c-0.3,0.3-0.5,0.3-0.9,0.3
		S159.4,105.6,159.2,105.5z M20.4,54.5c-0.4,0.8-0.8,2.3-1.2,4.5c-0.6,1.9-2.1,2.8-4.3,2.8c-0.1,0-0.8-0.5-2.1-1.7
		c-3.4,3-5.2,4.4-5.6,4.4c-0.5,0-0.8,0-0.9,0v-0.1c-0.8-1.3-1.2-3.7-1.2-7.2c1.8-2.2,4.3-4.5,7.7-6.7c3.9-2.6,8-6.3,12.3-11.5
		c0.1,1.5-0.4,3.7-1.7,6.6c-1.7,3.5-2.6,5.9-2.8,7.2h-0.3C20.4,53,20.4,54.5,20.4,54.5z M46.1,84.9l0.3-0.1c0.9,0,2.5-0.1,4.8-0.4
		c0.1,0,0.4-0.1,0.6-0.1c-0.4,0.1-0.6,0.3-1,0.4c-1.2,0.5-2.3,1-3.6,1.7C46.7,85.8,46.5,85.4,46.1,84.9z M9.4,86.9L9,86.4l0.1,0.3
		L9.4,86.9z M28,86.7c0.5,0.5,1.3,0.8,2.6,0.8c1.4,0,2.5-0.8,2.8-2.2c0.3-0.9,0.3-2.6,0.3-5.2V69.4c-4.9,1.9-7.4,4.9-7.4,8.8
		C26.3,82.5,26.8,85.4,28,86.7z M79.6,102c-3.9,0.3-7.5,0.3-10.6,0l-1-0.9h0.8C73.4,101.4,77.1,101.6,79.6,102z M55.6,99.7l-0.4,2.6
		c0.8,0.1,1.4-0.3,2.1-1l0.3-1C57.3,100,56.7,99.7,55.6,99.7z M85.6,110c-0.4,0.4-0.9,0.9-1.3,1.4c-0.9,1-1.3,1.7-1.3,1.9l0.1,0.3
		c0.1,0.3,0.3,0.4,0.6,0.4c0.1,0,0.4-0.1,0.8-0.4c0.5-0.4,0.8-1,0.9-1.7C85.5,112.1,85.6,110,85.6,110z"/>
	<path class="st96" d="M168.1,90.1l0.1,0.3c-1,1.8-2.2,2.6-3.5,2.6c-0.5,0-0.9,0-1-0.1c-0.1-0.1-0.3-0.3-0.5-0.3l-0.5-0.6
		c0.9-0.6,1.7-1.2,2.3-1.5l0.4-0.3c1.3-0.8,2.2-1.3,2.5-1.7L168.1,90.1L168.1,90.1z M101.1,92.2c-0.6,0.4-1.8,0.6-3.6,0.6
		c-0.8,0-1.5-0.3-2.1-0.6c-0.4-0.3-0.8-0.6-1.2-1.3l1-1.3l0.5-0.5c0,0,0,0,0.1,0l1-0.9c0.5-0.3,0.9-0.6,1.2-1c1,0,2.1,0.4,2.8,1.2
		c0.8,0.8,1.2,1.7,1.2,2.8L101.1,92.2L101.1,92.2z M145.9,77.6c0.1-0.4,0.4-0.9,0.8-1.5c0.3-0.5,0.6-1.5,0.9-3.1l0.9,0.3l2.6,0.6
		c-0.1,1.2-0.8,2.2-1.8,3C148.3,77.6,147.2,77.9,145.9,77.6L145.9,77.6z M114.9,61.7L114.9,61.7L114.9,61.7V62h-6.6v-3h6.6V61.7
		L114.9,61.7z M120.7,63c-0.6-0.1-1-0.1-1-0.3c0.3-0.1,0.4-0.3,0.5-0.5l2.1,0.8C121.7,63.2,121.2,63.2,120.7,63z M107.2,75.9
		l0.1-0.8l0.8,0.5c0.5,0.4,0.9,0.8,0.9,1c-0.1,0.5-0.4,0.9-0.6,1C107.7,77.7,107.3,77.1,107.2,75.9z M96.6,54.6l1.2-0.5l0.4-0.3
		v-1.5l1.3,0.1c0.8,0.5,1.5,1.3,2.2,2.1c-0.3,0.6-0.5,1.2-0.8,1.3c-0.3,0.4-0.8,0.5-1.4,0.5l-3.5-0.3c0-0.1-0.1-0.3-0.4-0.4
		C95.5,55.8,96.6,54.6,96.6,54.6z M65.1,40.4c-1.4,0.9-3.1,1.4-4.9,1.4l-1.9-0.1c0.4-0.1,1.3-0.5,2.6-1.2c1.4-0.6,2.2-1,2.3-1
		C63,39.7,65.2,40.4,65.1,40.4z M82.7,67.9c3,1.8,4.3,3.1,4,3.6c-0.3,0.5-1,0.8-2.2,0.8c-0.4,0-0.8-0.3-1-0.6
		c-0.1-0.1-0.4-0.6-0.8-1.3V67.9C82.7,67.8,82.7,67.8,82.7,67.9z M44.8,61.9c1-0.4,2.1-1.2,3.1-2.1s1.8-1.4,2.5-1.7h1.4
		c0.1,0.3,0.3,0.6,0.4,1.2c0.1,0.4,0.3,0.8,0.3,1.3c0,0.8-0.4,1.4-1.3,2.1c-1.3,0.9-3.2,1.4-6.1,1.5c-1.3,0.6-1.9,0.5-1.9-0.4
		c0-0.5,0.1-0.9,0.5-1.3C43.9,62.5,44.3,62.3,44.8,61.9z"/>
	<path class="st97" d="M154,79.8h-2.5v-2.6h2.5V79.8z M158.3,90.4c-0.8,0-1.5-0.3-2.5-0.6c-0.1-0.1-0.4-0.1-0.5-0.3
		c-0.5-0.5-0.8-1-0.8-1.7c0-0.5,0.1-0.9,0.3-1s0.3-0.4,0.5-0.6l3.2-1.9l9.4,3.1l-0.3,0.6c-0.8,0.9-1.3,1.4-1.5,1.5
		c-0.3,0.1-1.3,0.4-3.1,0.6l-4.4,0.3H158.3z M96.6,54.6c-6.5,0.9-9.8,1.3-9.9,1.3l-3.5-0.3c0,0-0.1-0.1-0.3-0.1
		c-0.3-0.1-0.3-0.5-0.3-1c0-1.2,0.8-1.9,2.2-2.6c2.5-1,7.4-1.8,14.7-2.1v2.7l-1.3-0.1V54l-0.4,0.3C97.7,54.2,96.6,54.6,96.6,54.6z
		 M140.7,77.6l-1.2-0.5c-3.1-1.9-4.8-3-5-3.1c-1.7-1.3-2.5-2.6-2.5-3.9c0-0.4,0.3-1,0.8-1.5c0.6-1,1.7-1.4,2.8-1.4
		c3.1,0,5.8,0.8,8.4,2.2c1.9,1.2,3.5,2.5,4.5,4l-0.9-0.3c-0.3,1.5-0.6,2.6-0.9,3.1c-0.4,0.6-0.8,1.2-0.8,1.5l-0.5,0.1
		c-1,0.1-2.1,0.1-3.1,0.1L140.7,77.6L140.7,77.6z M110.8,33.1h0.4l3.9,1.5l0.6,0.9c-0.6,0.5-1.3,0.9-1.9,1.2c-1,0.4-2.3,0.5-4,0.5
		l-2.1-0.1c-0.1,0-0.3,0-0.4-0.1c-0.3-0.1-0.4-0.5-0.4-1c0-1.4,1-2.2,3-2.3C111.3,33.6,111.5,33.5,110.8,33.1z M59.5,81.2V81
		c0.3-0.3,1-0.6,2.1-1.3c1.2-0.6,1.9-1,2.3-1h0.6c0.1,1.7-0.3,2.7-1.3,3.2c-0.5,0.3-1.9,0.3-3.9,0.3C59.5,82,59.5,81.2,59.5,81.2z
		 M98.1,87.3c-0.3,0.4-0.6,0.8-1.2,1l-0.8,0.3c-0.3-0.1-0.4-0.3-0.5-0.6c0-0.4,0.4-0.6,1.3-0.9S98.1,87,98.1,87.3z M118.4,51.9
		c0.5-0.3,1.5,0.5,3.1,2.1c-0.6,0.5-1.9,0.6-3.7,0.6c0-0.1-0.1-0.3-0.3-0.6c-0.3-0.4-0.4-0.8-0.4-1.2
		C117.5,52.8,117.9,52.6,118.4,51.9z M108.4,59.3c-0.5,0.1-0.9,0.1-1.3,0.1l-2.5-0.3c0.4-0.6,0.8-1.2,1.2-1.4c0.8-0.5,2.2-1,4-1.4
		l1.3,2.1c-0.3,0.3-0.8,0.5-1.7,0.6h-1C108.3,59,108.3,59.3,108.4,59.3z M114.9,61.7L114.9,61.7L114.9,61.7c0.1-0.1,0.4-0.4,0.8-0.8
		c0.6-0.5,1.4-0.8,2.3-1l1.4-0.4v2.1c-0.3,0.1-0.6,0.3-1.4,0.4c-0.8,0.1-1.4,0.1-2.1,0C115.7,62.3,114.9,61.7,114.9,61.7z
		 M107.4,75.3l-0.1,0.6c-0.4,0.4-1,0.6-1.7,0.6c-0.5,0-1.3,0-2.2-0.3l-1.3-0.1c0-0.1-0.3-0.3-0.5-0.4c0.3-0.3,0.3-0.6,0.1-1
		c0.3-0.4,2.1-1.2,5.2-2.3C107.2,74,107.4,74.8,107.4,75.3z M76.5,33.8c-0.4,0.4-0.6,0.8-0.9,0.9c-0.3,0.3-0.8,0.4-1.4,0.4l-4-0.4
		c1.7-0.8,3-1.2,3.9-1.4c0.5-0.1,1.2-0.1,1.9-0.1C76.2,33.5,76.3,33.6,76.5,33.8z M60.8,33.6c0.3,0.1,1.4,0.9,3.5,2.2
		c-0.1,1.7-2.8,3.4-8.1,4.9s-8,0.9-8-1.9c0-1.7,1.8-3.1,5.4-4.3c1.8-0.6,3.6-1,5.4-1.3C59.5,33.1,60.2,33.2,60.8,33.6z M82.7,67.9
		L82.7,67.9v2.5c-0.3,1.2-1.3,2.3-3,3.2c-1.5,0.8-3,1.3-4.5,1.3s-2.6-0.6-3.2-1.8c-0.4-0.6-0.6-1.4-0.6-2.1c0-1.4,1-2.7,3.2-3.6
		c1.7-0.8,3.4-1.2,4.9-1.2c0.9,0,1.9,0.1,3,0.5C82.7,66.6,82.7,67.9,82.7,67.9z M77.8,86.4c1.9-0.6,4.3-0.9,7.1-0.9s5.2,0.3,7.1,0.9
		c1.9,0.6,2.8,1.3,2.8,2.2c0,0.9-1,1.5-2.8,2.2c-1.9,0.6-4.4,0.9-7.1,0.9c-2.7,0-5.2-0.3-7.1-0.9s-3-1.3-3-2.2
		C74.9,87.7,75.9,86.9,77.8,86.4z M50.3,58.1c-0.6,0.3-1.4,0.8-2.5,1.7c-1,1-2.1,1.7-3.1,2.1c-1.7,0.4-4.4,0.6-8,0.6
		c0-1.3-0.3-3.4-0.8-5.9c-0.6-2.3-0.9-3.6-0.9-3.7c0-1,0.5-1.8,1.4-2.3c1-0.5,2.7-0.8,5-0.8c2.7,0,4.9,1,6.6,3.2
		C49.6,54.6,50.3,56.4,50.3,58.1z"/>
	<path class="st98" d="M144.3,81.5c1.5,2.8,3.1,5.4,4.6,7.5c0.6,1.2,1,3,1,5.6c0,0.8-0.1,1.4-0.4,1.9c-0.4,0.6-1.2,1.2-2.3,1.5
		c-0.1,0.1-0.3,2.5-0.3,7c-0.1,2.6-0.5,4.9-1.2,6.7c-0.6,1-1.2,2.1-1.4,3.1c-0.1,0.1-0.3,0.3-0.3,0.4l-0.8,0.1
		c-0.3,0.5-0.3,1.7-0.1,3.4l-0.3,2.7c0,0.8,0.1,1.8,0.5,3.1c0.5,2.3,1.3,6.8,2.1,13.7l-1.2,0.5l1.3,0.4v0.1c0.6,0.1,1.5,0.1,2.5,0.1
		c0.9-0.1,1.7-0.3,2.1-0.4c2.7,0,5-0.8,6.8-2.5c1.9-1.7,2.8-3.6,2.8-5.9l0.1-1l0.3,9.3l-1.8,11.1l0.4,0.5c0,0,0.1,0,0.1,0.1h0.8
		c0.1,0,0.8-0.4,1.8-1.2c1.4-1,2.7-2.2,3.7-3.6l0.3-0.3c-1.2,2.2-1.8,3.2-1.8,3.4l-0.3,0.5c3.6-0.4,6.1-0.3,7.1,0.1
		c1,0.4,1.7,1.5,1.7,3.1c0,1.8-2.2,3.4-6.6,4.5c-3.4,0.9-6.5,1.4-9.3,1.4c-1.4,0-3.1-1.7-4.8-5c-1.4-3.5-2.3-5.4-2.3-5.7l-0.3-0.3
		l-0.6,5.9l-0.8-1.4l0.5,3.1c0,1.8-0.4,3.4-1.2,4.6c-0.6,0.9-1.3,1.5-2.1,1.8c-0.3,0-0.5,0.1-0.8,0.1l-5.8,0.8c0.9-1.2,1.8-3.5,3-7
		c1.3-4,2.1-7.6,2.2-10.7l-0.3-1.3c-2.8,4.8-5.7,8.7-8.5,11.6c-0.8,0.9-2.1,1.7-3.7,2.5c-0.9,0.5-1.4,1.3-1.4,2.3
		c0,0.8,0.1,2.1,0.5,3.7c-0.9-0.8-1.7-1.7-2.3-2.7c-0.5-0.8-0.8-1.2-0.8-1.4c0-0.9,1.4-2.5,4.3-4.6c2.8-2.2,4.3-4.5,4.3-7.2
		c0-1-0.4-2.3-1.2-4.1c0.3-1.4,0.4-3.2,0.4-5.4l-0.1-5.3c-1.4,1.2-3.2,3.5-5.4,6.8c-2.1,3.2-3.1,5.4-3.4,6.5
		c-1.8,4.9-2.8,7.9-3.1,8.9c-0.3,0.9-0.3,2.7-0.3,5.2l0.3,4.5l-4.5,0.9c-0.8-4.8-1.4-9.3-1.8-13.4l-0.4-1.2c-0.3,0.5-1,3-2.5,7.5
		c-1,3-1.8,4.9-2.7,5.9c-1.3,1.5-3.4,2.8-5.9,3.7c-2.6,0.8-4.1,1.3-4.8,1.7l-6.3-1.4c8.8-1.7,14.5-3.5,16.7-5.3c1.9-1.5,3-4.4,3-8.7
		c0-2.6-0.9-3.7-2.7-3.7c-1.5,0.1-2.6,0.3-3.1,0.3c-0.9,0.1-1.4-0.1-1.8-0.5c-0.8-1-1.2-5.2-1.2-12.3c0-2.2,0.3-4.3,1-6.3
		c0.5-1.7,1-2.7,1.5-3.1v1c0.1,2.2,0.4,4.4,0.9,6.6c0.6,3.1,1.5,5,2.7,5.8c1.9-1.4,3.4-4.5,4.3-9.2c0.5-4.6,0.9-7.2,1-7.6
		c0.4-1.8,1.9-4,4.5-6.8c2.8-3.1,4.3-4.9,4.5-5.4c-0.1,0.6-0.8,2.3-1.8,5.3c-1,2.8-1.8,4.4-2.1,4.8c1.9-2.5,3.6-5.3,5.3-8.8
		c1.5-3.7,2.7-6.3,3.6-7.7c2.6-5,6.2-7.2,11-6.5c0.1,1.5,0.1,5.3,0.1,11.1c1.3-2.6,2.6-8.4,3.7-17.4c0-1.9-0.3-3.7-0.8-5.4
		c-0.3-0.6-1.3-3.7-3.4-9.4c0.5,0.4,1,0.9,1.7,1.3L144.3,81.5L144.3,81.5z M187.2,89.5c-4.5,1.7-8,2.8-10.5,3.6l-1,0.1
		c4.6,0.1,7.6,2.5,9,6.8c0.1,0.4,0.6,4.3,1.7,11.6c0.4,3,1,5.8,1.8,8.4c0.5,1.5,0.8,4.3,0.8,7.9c0,0.4-0.1,1.8-0.5,4.5
		c-0.4,3.2-0.8,5.7-1.2,7.4l-0.5,1.7c0.1-1,0-3-0.5-5.8c-0.4-2.6-0.6-4.4-1-5.4l-0.8-1.5c-0.3,1.3-0.4,3-0.4,5.3c0,1.2,0,2.5,0.1,4
		c0,1.7-1,3.1-2.8,4.3c-1.9,1.2-5,2.3-9.3,3.1l-1.2,0.3c0.4-0.6,0.9-3,1.5-7c0.6-3.6,1-5.7,1-6.6v-1.5c-1.4,2.7-2.7,5.2-3.9,7.2
		c0.6-2.3,1-4.8,1-7.4c-0.8-9.8-1.2-15.1-1.2-15.9c0-0.5,0.1-3.9,0.4-10.2c0.1-2.5-0.1-4.1-0.8-4.9c-0.6-0.9-2.3-1.5-4.8-1.9
		c-0.1,0-4-0.5-11.5-1.3l0.5-0.3c0.1,0,0.5-0.3,1.2-0.4c0.5-0.1,0.8-0.3,0.8-0.4c4.8-0.1,8.1-0.4,10.2-0.6c2.3-0.3,4.6-0.6,7-1.2
		c2.2-0.3,5-1,8.4-2.1c1.8-0.6,3.7-1.3,6.1-2.1L187.2,89.5L187.2,89.5z M57.7,82.8c-2.8,3.5-4.5,5.6-5,6.1c-0.9,0.6-2.3,1.9-4.1,3.6
		l-0.3,0.3c1.3-2.2,2.3-3.6,2.8-4.3c1.4-1.9,3.2-3.7,5.2-5.6l-8.1,5.2c-0.1,0.3-0.5,1.2-1.2,2.8c-0.6,1.4-0.9,2.3-1,2.6
		c0-3.1,1.2-5.8,3.5-8c0.4-0.4,0.8-0.8,1.2-1c0.4-0.1,0.6-0.3,1-0.4c1.4-0.1,2.2-0.4,2.6-0.6h-0.5l2.6-1c0.4,0,0.8,0,1.3,0
		C57.6,82.3,57.7,82.9,57.7,82.8z M151.8,115.2c2.2,0.1,4.1-0.5,5.4-2.1c2.3-2.2,4.8-4,7.5-5.3c-0.5,4.5-2.1,7.5-4.6,9.2l-0.1-5.7
		c-1.5,2.2-2.6,4-3,5.6c-0.4,0-1.3-0.3-2.8-0.8c-1.5-0.4-2.3-0.6-2.5-0.8C151.8,115.5,151.8,115.2,151.8,115.2z M125,107.8
		c-0.4-0.1-2.2-0.6-5.4-1.4c-3-0.8-4.6-1.2-5.3-1.4c-2.2-1-5-3-8.5-6.1c-3.2-2.8-4.9-4.3-5-4.5c5.8,2.8,9.2,4.8,9.9,5.4
		c0.3,0.3,0.8,0.1,1.5-0.3c2.3,0,6.1-0.6,11.4-1.9c5.3-1.3,9-1.9,11.4-1.9c-2.3,2.1-4.9,3.1-7.6,3.2c-4.9,0.4-8.3,0.6-9.8,1
		l-2.1,0.3c1.5,0.1,4.5,0.3,8.8,0.1C124.7,101.2,125,103.7,125,107.8z M120.5,128.1c-2.6,6.3-4.3,10.5-5.3,12.5
		c-1.5,3.2-3.7,4.8-6.7,4.6h-1c0.5,0.8,1.2,1.3,1.8,1.8c0.5,0.4,0.9,0.5,1,0.5c2.3,0,4.6-1.4,7-4.4c1.8-2.3,3-4.3,3.2-5.9
		L120.5,128.1L120.5,128.1z M160.2,128.5l0.1-0.5l0.1-1.8l0.5-1l0.1,1.5C160.7,127.5,160.3,128.1,160.2,128.5L160.2,128.5z
		 M20.6,52.8c0.5,0,1,0.1,1.4,0.5c0.4,0.3,0.5,0.6,0.5,1c0.3,1.2,0.5,2.2,0.9,3.2c0,0.8-0.3,2.1-1,3.9c-0.5,1.7-1.2,2.8-1.5,3.7
		c-7.5,4-11.9,6.2-13,6.7l0.8-0.8c7.9-6.1,11.8-11,11.8-14.8l-0.1-1.8V53C20.4,53,20.6,53,20.6,52.8z M27.1,61.2
		c0,0.9-0.4,1.5-1.2,2.3c-0.8,0.6-1.8,0.9-2.8,0.9c0.4-0.3,1.2-0.6,2.1-1.3C26.1,62.5,26.7,61.9,27.1,61.2z M8.9,86.4l-2.7-2.8
		c1.2,0,4.5-1.2,9.8-3.7c-0.3,2.3-0.9,4.4-1.7,6.2c-0.1,0.3-1.2,1.8-2.8,4.8l-0.1-0.3c1.3-2.7,2.1-4.4,2.5-5.3
		c-0.6,0.1-1.5,0.3-2.6,0.6c-1,0.4-1.8,0.6-2.1,0.6C9.1,86.5,8.9,86.4,8.9,86.4z M29.5,127.1c-0.1-0.3-3.2-5.4-9.2-15.5h0.1
		c1.3-0.5,3.1-1.2,5.3-1.8c1.4-0.4,2.5-0.9,2.8-1.3c0.6-0.8,1-4.6,1-11.5c0,0.1,0.4,2.1,1.2,5.7c0.3,0.8,0.3,4.6,0.3,11.8
		c0,1.4-0.3,3.1-0.9,4.9c-0.4,0.9-0.6,1.8-1,2.6c0,0.8,0.1,2.3,0.3,4.6C29.5,126.7,29.5,127.1,29.5,127.1z M39.9,139.9l-3.6-4.1
		c0-2.6,0.1-4.4,0.5-5.3c0.6-1.2,1.2-2.3,1.7-3.4c0.1,1.2,0.5,3.4,0.9,6.7C39.7,137.5,40,139.5,39.9,139.9z M52,150.1
		c-1-0.6-2.1-1.3-3.1-1.9l1-5.9c0,0,0.3,0.4,0.8,1c0.3,0.4,0.4,0.5,0.5,0.5C51.4,145.2,51.6,147.2,52,150.1z M4.8,60.6l-0.4,1.7l0,0
		c0-0.3,0-0.5,0-0.8C4.5,61,4.6,60.6,4.8,60.6z M66.9,101.6l-0.3-0.6h1.3l1,0.9c1.7,1.4,2.8,3.6,3.5,6.8c0.4,1.8,0.6,3.5,0.6,5.3
		c0,2.2-0.6,4.3-1.9,6.6c-2.8,4.6-5,8.7-6.5,11.8c-0.1-1.9-0.3-3.2-0.3-4.1c0-3.7,0.8-6.7,2.3-8.8c1.5-2.1,2.3-3.7,2.3-5.3
		C69.1,109.8,68.3,105.6,66.9,101.6L66.9,101.6z M80.9,162.3l0.4-0.9l1.4-1.5c-0.3,0.6-0.6,1.5-1.2,2.8
		C81.6,162.7,80.9,162.3,80.9,162.3z M83.8,159.1c1.8-6.5,3.2-10.2,4-11.4l0.4-0.1l0.1,2.7c0,2.1-0.3,3.6-0.9,4.6
		C87,156,85.7,157.4,83.8,159.1z M65.3,155.6l-3.9-1.4c0.3-0.9,0.3-2.7,0-5.7l0.9,1C63.2,151.1,64.3,153,65.3,155.6z"/>
	<path class="st99" d="M125.1,113.3c0.1-1.5,0.1-3.2-0.1-5.3c-0.1-4.1-0.3-6.6-0.5-7.2c-4.3,0.1-7.2,0-8.8-0.1l2.1-0.3
		c1.5-0.4,4.9-0.8,9.8-1c2.7-0.1,5.3-1.3,7.6-3.2l0.9-1c1.2-1.5,2.2-3.6,3-6.3c1-3.6,1.2-7.5,0.5-11.4l1.2,0.5l0.3,1.4
		c1.9,5.7,3.1,8.8,3.4,9.4c0.5,1.7,0.8,3.5,0.8,5.4c-1.3,9-2.5,14.8-3.7,17.4c0-5.8,0-9.6-0.1-11.1c-4.8-0.8-8.4,1.4-11,6.5
		c-0.8,1.5-1.9,4.1-3.6,7.9c-1.7,3.5-3.4,6.5-5.3,8.8c0.3-0.4,0.9-1.9,2.1-4.8C124.5,115.6,125.1,113.8,125.1,113.3L125.1,113.3z
		 M169.6,137.9c1.2-2.1,2.5-4.5,3.9-7.2v1.5c0,0.8-0.4,3-1,6.6c-0.6,4-1.2,6.3-1.5,7l1.2-0.3c4.3-0.9,7.4-1.9,9.3-3.1
		c1.9-1.2,2.8-2.7,2.8-4.3c-0.1-1.4-0.1-2.8-0.1-4c0-2.2,0.1-4,0.4-5.3l0.8,1.5c0.4,1,0.6,2.8,1,5.4c0.4,2.8,0.5,4.8,0.5,5.8
		l0.5-1.7c0.4-1.7,0.8-4.1,1.2-7.4c0.4-2.7,0.5-4.1,0.5-4.5c0-3.7-0.3-6.3-0.8-7.9c-0.8-2.6-1.4-5.4-1.8-8.4
		c-1-7.4-1.5-11.2-1.7-11.6c-1.4-4.4-4.4-6.7-9-6.8l1-0.1c2.5-0.8,5.9-1.9,10.5-3.6l0.8,0.9c2.1,2.2,4,4.9,5.7,7.7
		c1.9,3.4,2.8,5.8,2.8,7.5c0,0.9-0.4,6.3-1,16.4c0,0.9,0.4,5.4,1.3,13.6c0,1.9-1.8,4.9-5.3,8.8c-3.4,3.6-7,6.8-10.8,9.6
		c-2.2,1.7-3.5,2.7-4,3.1c-0.6,0.5-1.5,0.8-2.8,0.9c-6.5,0.4-16.1,1.5-29.2,3.4c0.8-0.3,1.4-0.9,2.1-1.8c0.8-1.3,1.2-2.8,1.2-4.6
		l0.3-1.5l0.6-5.9l0.3,0.3c0.1,0.3,0.9,2.2,2.3,5.7c1.7,3.4,3.4,5,4.8,5c2.8,0,5.9-0.4,9.3-1.4c4.4-1.2,6.6-2.7,6.6-4.5
		c0-1.7-0.5-2.7-1.7-3.1s-3.5-0.5-7.2-0.1l0.3-0.5c0,0,0.6-1.2,1.8-3.4C166.4,143.7,167.8,141.3,169.6,137.9L169.6,137.9z
		 M145.5,138c0,0,1.7-1.3,4.9-3.7c1.9-1.4,3.5-2.8,4.4-4c2.8-3.5,3.6-8,2.5-13.3c0.4-1.5,1.4-3.4,3-5.6l0.1,5.7
		c0.3,3.6,0.3,6.7,0.1,9.2l-0.1,1.8l-0.1,0.9l-0.1,0.1l-0.1,0.5l-0.3,1c0,2.3-0.9,4.3-2.8,5.9c-1.9,1.5-4.1,2.5-6.8,2.5
		c-0.6,0.1-1.4,0.3-2.3,0.3c-0.9,0-1.7,0-2.2-0.1l-1.3-0.4L145.5,138L145.5,138z M118.3,165.7c-2.8,0.5-5.9,1.7-9.4,3.6
		c-1.9,1-4.9,1.2-8.7,0.5c0.6-0.4,2.2-0.9,4.8-1.7c2.6-0.9,4.5-2.2,5.9-3.7c0.8-0.9,1.7-2.8,2.7-5.9c1.4-4.4,2.2-7,2.5-7.5l0.4,1.2
		C116.8,156.4,117.5,160.9,118.3,165.7L118.3,165.7z M138.3,162.3l-8.3,1.3v-0.1c-0.4-1.7-0.5-3-0.5-3.7c0-1,0.5-1.8,1.4-2.3
		c1.7-0.8,3-1.7,3.7-2.5c3-3,5.8-6.8,8.5-11.6l0.3,1.3c-0.1,3.1-0.9,6.7-2.2,10.7C140.1,158.8,139.2,161.2,138.3,162.3z
		 M120.5,128.1v9.2c-0.3,1.7-1.4,3.6-3.2,5.9c-2.3,3-4.6,4.4-7,4.4c-0.1,0-0.5-0.1-1-0.5c-0.6-0.5-1.3-1-1.8-1.8h1.2
		c3,0.1,5.2-1.4,6.7-4.6C116.2,138.6,118,134.4,120.5,128.1z M26.8,60.1l0.1,0.5l0.1,0.6c-0.4,0.6-1,1.3-1.9,1.9
		c-1,0.6-1.8,1-2.1,1.3c-0.5,0.4-1.2,0.8-1.8,1.2l-0.8,0.3l0.5-0.6c0.5-0.9,1-2.1,1.5-3.7c0.6-1.8,1-3.1,1-3.9l0.1-1.9
		c0.1,0.3,0.6,0.9,1.5,2.1C26.1,58.6,26.6,59.4,26.8,60.1z M46.1,93.5c0.1-0.4,0.4-1.3,1-2.6c0.6-1.7,1-2.6,1.2-2.8l8.1-5.2
		c-2.1,1.8-3.9,3.6-5.2,5.6c-0.5,0.8-1.5,2.2-2.8,4.3c-0.1,0.8-0.4,1.7-0.9,2.7c-0.5,1.2-1,1.9-1.3,1.9
		C46.2,97.5,46.1,93.5,46.1,93.5z M9.4,86.9l-0.3-0.3c0.3,0,1-0.3,2.1-0.6c1-0.4,1.9-0.6,2.6-0.6c-0.3,0.9-1,2.6-2.3,5.3
		C10.8,89,10.1,87.8,9.4,86.9z"/>
	<path class="st100" d="M143.6,80.8l-0.8-0.4l0.1-0.6C143,80.2,143.3,80.6,143.6,80.8z M160.2,116.9c2.6-1.5,4.1-4.6,4.6-9
		c-2.7,1.3-5.3,3.1-7.5,5.3c-1.4,1.4-3.2,2.1-5.4,2.1c0-0.1-0.4-1.4-1-3.9c-0.8-2.5-1.2-4.1-1.4-4.8c-0.3,0.5-1.2,1.8-2.7,3.7
		c-0.3,0.4-0.5,0.8-0.9,1.3c0.5-1.8,0.9-4,1.2-6.7c0.1-4.5,0.1-6.8,0.3-7c1.2-0.3,1.8-0.8,2.3-1.5c0.3-0.5,0.4-1.2,0.4-1.9
		c0-2.6-0.3-4.5-1-5.6c-1.4-2.1-3-4.5-4.6-7.5c2.7,1.9,5,4.9,7,9c1.2,2.6,4,3.9,8.3,3.9c1,0,2.8,0,5.4-0.3c3.2-0.3,5.8-0.4,7.5-0.6
		c-2.3,0.5-4.6,0.9-7,1.2c-2.1,0.3-5.6,0.4-10.2,0.6c0,0.1-0.3,0.3-0.8,0.4c-0.6,0.3-1,0.4-1.2,0.4l-0.5,0.3
		c7.5,0.9,11.4,1.3,11.5,1.3c2.5,0.4,4,1,4.6,1.9c0.5,0.8,0.8,2.3,0.8,4.9c-0.3,6.3-0.4,9.7-0.4,10.2c0,0.9,0.4,6.2,1.2,15.9
		c0,2.6-0.4,5-1,7.4c-1.8,3.4-3.2,5.9-4.1,7.6l-0.3,0.3c-1.2,1.4-2.5,2.6-3.7,3.6c-1,0.8-1.7,1.2-1.8,1.2h-0.6c0-0.1,0-0.1-0.1-0.1
		l-0.4-0.5l1.8-11.1c0.1,1.3,0.4,2.5,0.8,3.5l0.9,0.3c1,0,1.8-0.4,2.3-1.5c0.6-1.2,1-2.7,1-4.6c0-7.4-0.4-12-1-13.9
		c-1.5-3.7-2.3-5.7-2.3-5.7c0,6.2-0.3,9.6-0.8,10.1l-0.1-1.5l-0.5,1C160.6,123.7,160.5,120.6,160.2,116.9L160.2,116.9z M57.6,82.3
		c-0.5,0-0.9,0-1.3,0l3.2-1.3v0.3L57.6,82.3z M93.9,168.4l-6.3-2.7c-1.4-0.6-3.5-1.5-5.8-2.8c0.5-1.3,0.9-2.2,1.2-2.8l1-0.8
		c1.9-1.8,3.2-3.1,3.7-4.1c0.5-1,0.9-2.6,0.9-4.6l-0.1-2.7l-0.4,0.1c-1.3,1-2.2,2.6-2.8,4.4c-0.4,1.3-1.2,3.7-2.2,7.6l-1.4,1.5
		c0.4-4.3,0.6-7.6,0.9-9.9c0.4-4.3,1.2-7,2.3-8.1l4.8,0.3c2.7,0.1,4.5-0.4,5.2-1.5c0.4-0.6,0.6-3.4,1-8.1c0.3-4.9,0.6-7.7,1-8.7
		c0.8-1.7,2.5-3.1,5-4.4c2.1-1,3.1-2.3,3.1-3.6c0-3.4-1.5-6.5-4.5-9.3c-3.1-2.3-4.8-3.7-5-4.1c0.1,0,1.3-0.1,3.5-0.3
		c2.1-0.5,3.5-1.4,4.1-2.8l-0.1-1c-2.5-4.1-4.1-6.5-4.9-7.1c1.8-0.1,3-0.4,3.6-0.6c0.9,1.8,3.6,3.9,7.9,6.2c0.4,0.4,1.2,0.6,2.2,0.6
		c2.3,0,4-0.1,4.8-0.3c0.6-0.1,1.9-0.6,4-1.4c1.2,0,2.6-0.1,4.3-0.4c1.7-0.3,3-0.4,3.7-0.6c2.8-0.1,5.4-0.5,8-1.3l-0.9,1
		c-2.3,0-6.1,0.6-11.4,1.9c-5.3,1.3-9,1.9-11.4,1.9c-0.9,0.4-1.4,0.5-1.5,0.3c-0.8-0.8-4.1-2.6-9.9-5.4c0.1,0.1,1.8,1.5,5,4.5
		c3.5,3,6.3,5,8.5,6.1c0.5,0.3,2.3,0.8,5.3,1.4c3.2,0.8,5,1.3,5.4,1.4c0.3,2.1,0.3,3.9,0.1,5.3c-0.3,0.5-1.7,2.3-4.5,5.4
		c-2.6,2.8-4.1,5.2-4.5,6.8c-0.1,0.5-0.4,3.1-1,7.6c-0.9,4.6-2.3,7.7-4.3,9.2c-1.2-0.8-2.1-2.7-2.7-5.8c-0.5-2.2-0.8-4.4-0.9-6.6
		l-0.1-1.2c-0.5,0.4-1,1.4-1.5,3.1c-0.6,2.1-1,4.1-1,6.3c0,7.2,0.4,11.2,1.2,12.1c0.4,0.5,1,0.6,1.8,0.5c0.5-0.1,1.5-0.1,3.1-0.3
		c1.8,0,2.7,1.3,2.7,3.7c0,4.3-1,7.1-3,8.7C108.2,164.9,102.6,166.7,93.9,168.4L93.9,168.4z M95.8,89.4l-0.5,0.5l-0.3-1
		C95.1,89.5,95.4,89.6,95.8,89.4z M130,163.5L130,163.5l-7.2,1.3l-0.3-4.6c0-2.5,0.1-4.3,0.3-5.2c0.3-1,1.3-4,3.1-8.9
		c0.4,1,0.9,1.8,1.4,2.3c0.8,0.6,1.8,1,3.1,1c2.6,0,4-1.9,4-5.9c0.8,1.8,1.2,3.1,1.2,4.1c0,2.6-1.4,5-4.3,7.2
		c-2.8,2.2-4.3,3.7-4.3,4.6c0,0.3,0.3,0.6,0.8,1.4C128.3,161.8,129.1,162.7,130,163.5L130,163.5z M145.4,137.9
		c-0.8-6.8-1.5-11.4-2.1-13.7c-0.4-1.3-0.5-2.3-0.5-3.1l0.3-2.7l0.8,4c0,0.1,0.3,1.7,0.8,4.4c0.5,2.8,1,4.5,1.7,4.9
		c1.2-0.8,2.2-2.7,3.2-5.7c1.2-3.2,1.9-6.7,2.3-10.8c0.1,0.1,0.9,0.3,2.5,0.8c1.5,0.4,2.5,0.6,2.8,0.8c1.2,5.4,0.4,9.8-2.5,13.3
		c-1,1.2-2.5,2.6-4.4,4C147,136.6,145.5,137.9,145.4,137.9L145.4,137.9z M148.2,153.4L148,155l-0.5-3L148.2,153.4z M144.3,114.7
		c0,0.1-0.1,0.3-0.1,0.4h-0.1C144.1,114.9,144.2,114.8,144.3,114.7z M159.2,105.4c0.3,0.3,0.5,0.3,0.8,0.3s0.5-0.1,0.9-0.3
		c0.3-0.3,0.3-0.5,0.3-0.8c0-0.3-0.1-0.5-0.3-0.8c-0.3-0.3-0.5-0.4-0.9-0.4s-0.5,0.1-0.8,0.4s-0.4,0.5-0.4,0.8
		C158.8,104.9,158.9,105.1,159.2,105.4z M4.2,62.3L4.2,62.3l0.4-1.7l0.6-3.4c0,3.5,0.4,5.9,1.2,7.2v0.1c0,0,0.3,0,0.8,0
		c0.4,0,2.3-1.4,5.6-4.4c1.3,1.2,1.9,1.7,2.1,1.7c2.2,0,3.6-0.9,4.3-2.8c0.4-2.2,0.8-3.7,1.2-4.5l0.1,1.8c0,3.9-4,8.8-11.8,14.8
		l-0.8,0.8c1.2-0.5,5.4-2.7,13-6.7l-0.5,0.6l0.8-0.3c0.6-0.4,1.3-0.6,1.8-1.2c1.2,0,2.1-0.3,2.8-0.9c0.8-0.6,1.2-1.4,1.2-2.3
		l-0.1-0.6c0.5,0.5,1.5,1.5,3.1,2.8c1.3,1.2,2.1,1.9,2.5,2.3c-4,0.4-7.7,1.2-11.1,2.1c-6.6,2.1-9,4.9-7.5,8.8c0.6,0,2.1-0.5,4.1-1.3
		c1.2-0.4,2.5-1,4.1-1.7c-0.4,1.5-1.3,4.6-2.7,9.3c-0.8,2.7-1.2,4.5-1.2,5.4c0,0.9,0.3,1.8,0.9,2.6c0.1,0.3,0.6,0.8,1.4,1.5
		l-3.6,4.1c1.5,1.7,2.5,3.1,2.7,4.3c0.3,1.3,0.6,2.2,1.2,2.7l0.6-0.3c0.5-2.1,1.5-4.3,2.8-6.7c0.8-1.3,1.2-3.7,1.2-7.1l-0.3-6.7
		l0.5,1.7c2.7,4.3,4.1,6.5,4.5,6.8c1.8,2.5,3.4,3.6,4.5,3.6c0.6,0,1.2-0.3,1.8-0.9c0.9-0.9,1.4-2.6,1.4-4.8C36.6,80.1,36,75,36,74
		l0.5,1c0.4,1.3,1.5,2.8,3.4,4.8c1.7,1.8,3.1,2.8,4.1,3.4l2.2,1.3l0.1,0.1c0.4,0.5,0.8,0.9,0.9,1.4c1.3-0.6,2.6-1.3,3.6-1.7
		c-0.4,0.3-0.8,0.6-1.2,1c-2.3,2.2-3.5,4.9-3.5,8l0.1,4c0.4-0.1,0.9-0.8,1.3-1.9c0.4-1,0.6-1.9,0.9-2.7l0.3-0.3
		C48.7,93,48.4,94,48,95.3c-0.1,0.1-0.1,0.4-0.3,0.5c-0.5,1.4-0.9,3-1,4.8c-0.5,2.3-1,3.7-1.7,4.3c-0.6-1-1.2-1.9-1.3-2.8
		c0-1-0.1-2.1-0.1-2.8c-2.6,0.9-4.4,1.9-5.4,3.2c-1.3,1.4-1.9,3.4-1.9,5.7c0,4.5,1.7,8.4,5,11.6c2.2,2.2,4,3.5,5.6,3.9
		c0.1-0.1,0.4-0.1,0.5-0.1c0.1-0.1,0.3-0.4,0.3-0.9c0,0,0.6-0.8,2.1-2.2c1.4-1.8,2.2-3.9,2.2-6.2c0-0.9,0.3-3.5,0.5-8l0.4,1
		c0.3,2.6,0.4,6.2,0.6,10.8c0.1,4.1,0.3,6.6,0.3,7.5l-0.3,4.4c-3.4,0-5.6,0.4-6.7,1.2c-0.6,0.4-1,0.9-1,1.7c0,3.6,0.8,5.8,2.3,6.7
		c0.6,0.4,2.3,0.6,4.9,0.8c2.2,0,3.6,0.8,4.5,2.1c1.2,1.8,1.5,5.3,1,10.5c-2.1-0.9-4.1-1.8-6.2-2.8c-0.4-2.8-0.6-4.9-0.8-6.3
		c-0.1,0-0.3-0.1-0.5-0.5c-0.5-0.6-0.8-1-0.8-1l-1,5.9c-0.8-0.5-1.4-1-2.1-1.5c-0.4-0.3-1.4-1.4-3.2-3.1c-1.9-1.9-3.2-3.1-3.7-3.6
		c0-0.3-0.1-2.3-0.6-6.1c-0.4-3.4-0.8-5.7-0.9-6.7c-0.5,1.2-1,2.3-1.7,3.4c-0.3,0.9-0.5,2.7-0.5,5.3c-1.3-1.5-3-3.7-5.2-6.6
		l-1.5-2.2v-0.4c-0.1-2.3-0.3-3.9-0.3-4.6c0.3-0.8,0.6-1.7,1-2.6c0.6-1.8,0.9-3.5,0.9-4.9c0-7.1-0.1-11.1-0.3-11.9
		c-0.8-3.6-1.2-5.6-1.2-5.7c0,6.8-0.3,10.7-1,11.5c-0.4,0.5-1.4,0.9-2.8,1.3c-2.3,0.6-4,1.2-5.3,1.8c-0.1,0-0.1,0-0.1,0l-1.8-4.4
		c-0.5-1.5-1.4-3.9-2.6-6.7c-1.4-3.4-2.5-5.8-3.5-7.5c-0.4-0.6-0.8-1.3-1-1.9c1.7-3,2.6-4.5,2.7-4.8c0.8-1.8,1.4-3.9,1.8-6.2
		c-5.3,2.6-8.7,3.7-9.8,3.7C5.9,83,5.3,81.2,4.5,78c-1.3-3.9-1.8-7.2-1.8-10.1c0-1.3,0.3-2.6,0.8-3.9C4,63,4.2,62.4,4.2,62.3z
		 M22.6,54.2l1.2,1.3l-0.1,2.1C23.2,56.6,22.8,55.4,22.6,54.2z M70.2,127.5c-0.1,0.4-0.5,1.3-1.2,2.7c-0.6,1.4-1,2.3-1.3,3
		c-2.2,4.5-3.2,6.8-3.2,7c0,1.2,0.1,2.8,0.3,5.3c0.1,3,0.4,4.8,0.6,5.4v0.1c0.8,1.2,2.2,2.5,3.9,4.1c1.7,1.5,3.5,2.8,5.2,4l0.9,0.6
		l0.1,0.1c-1.3-0.6-3.9-1.7-7.5-3l-2.8-1c-1.2-2.6-2.2-4.5-3-6.1l-0.9-1c0.1,3,0.1,4.8,0,5.7l-0.5-0.1c-0.1-2.2-0.3-4-0.3-5.3
		c1.3-4.8,1.9-8.1,1.9-10.1c0-0.4-0.1-2.1-0.5-5c-0.4-3-0.6-4.6-0.6-5c0-1.4,0.9-3.9,2.6-7.2c1.8-3.4,2.6-6.7,2.6-10.1
		c0-1-0.3-3-0.6-5.6c-0.5-2.8-0.6-4.3-0.6-4.4l1.5,0.3c1.4,4,2.2,8.1,2.2,12.4c0,1.4-0.8,3.1-2.3,5.3c-1.5,2.1-2.3,5-2.3,8.8
		c0,0.9,0.1,2.2,0.3,4.1c1.4-3.1,3.6-7,6.5-11.8c1.3-2.2,1.9-4.4,1.9-6.6c0-1.8-0.3-3.5-0.6-5.3c-0.6-3.2-1.8-5.4-3.5-6.8
		c3.2,0.3,6.7,0.3,10.6,0h0.3c2.8,0.8,5,1.2,6.6,1.2l0.3,0.1c0.3,0.3,0.6,0.4,1,0.6c0.3,0.1,0.4,0.5,0.4,1.2c0,1.9-0.8,3.6-2.5,4.9
		c-0.3,0.3-2.2,1.3-5.4,3.1C74.5,116,71.1,120.9,70.2,127.5L70.2,127.5z"/>
</g>
</svg>
