<?xml version="1.0" encoding="utf-8"?>
<!-- Generator: Adobe Illustrator 25.2.3, SVG Export Plug-In . SVG Version: 6.00 Build 0)  -->
<svg version="1.1" id="Ebene_1" xmlns="http://www.w3.org/2000/svg" xmlns:xlink="http://www.w3.org/1999/xlink" x="0px" y="0px"
	 viewBox="0 0 200 200" style="enable-background:new 0 0 200 200;" xml:space="preserve">
<style type="text/css">
	.st0{display:none;}
	.st1{display:inline;fill:#FFFF00;}
	.st2{fill:#D7DED1;fill-opacity:0.976;}
	.st3{fill-rule:evenodd;clip-rule:evenodd;fill:#EEF0EC;fill-opacity:0.976;}
	.st4{fill-rule:evenodd;clip-rule:evenodd;fill:#C4CCBD;fill-opacity:0.976;}
	.st5{fill:#C4CCBE;}
	.st6{fill:#A2AE98;}
	.st7{fill:#ECECEC;}
	.st8{fill:#808080;}
	.st9{fill:#DADED5;}
	.st10{fill:#E2E4DF;fill-opacity:0.976;}
</style>
<g class="st0">
	<circle class="st1" cx="100" cy="100" r="99"/>
</g>
<g>
	<g>
		<path class="st2" d="M107.1,8.1C96.3,8.1,86.6-1.9,86.6,6c0,1.4-4.8,1.9-4.3,3.1c-29.4,4.8-52.3,22-65.6,47.6
			c-12.1,1.2-6.1,8.3-6.1,18c0,6.8-10.9,13.6-4.1,17c-0.2,2.6-0.3,5.3-0.3,8c0,51.4,41.8,93.2,93.2,93.2c4.8,0,9.6-0.4,14.3-1.1
			c0,0,0,0.1,0,0.1c0,2.7,3.8-1.6,6.8-1.6s4,4.3,4,1.6c0-0.8-0.2-1.6-0.6-2.3c7.7-2.1,13.3-4.6,20.1-8.5c6.3,1.8,7.2,1.9,9.6,0.3
			c5.8-3.9-2.9-9.1,8.6-5.8c3,0.9-0.9-2.7-3-4.4c2.7-2.3,5.3-4.7,7.8-7.3c1.2,2.1,1-3.5,3.4-3.5c3.7,0,2.6-1.5,2.6-5.6
			c0-2.9,5-0.3,2.8-1.5c8.9-12.7,14.8-27.7,16.5-43.9c3.1-1.5,2.6-8.4-0.2-17.4c-3.1-10.1,2.7-20.5-0.9-20.5c-0.8,0-1.6,0.5-2.4,1.3
			c-9.6-31.6-32.6-54.7-64.9-62.4c0.9-1.7-2.7-2.5-2.7-4.4C121.1-1.9,117.9,8.1,107.1,8.1L107.1,8.1z"/>
		<g>
			<path class="st3" d="M94.5,8.8c-2.3,0.1-3.5,2.7-5.2,4.4c-7.6,0.4-15.4,2.3-22.9,6.6c-18.9,10.8-32,28-40.5,43.4
				c-3.5-0.1-7.1-1-10.6-0.9c-3.9,1.1-2.3,5.5-0.7,7.9c1.7,3.7,0.8,8.4-2.2,11.1c-3.2,1.7-2.1,5.7,1.4,5.7c0.4,0.1,0.7,0.2,1.1,0.2
				c-2,5.4-2.8,8.7-2.8,8.7S112.9,7.2,155,41.1c0,0-15.6-14.4-36.5-22.6c0.3-2.6,1.7-6.6-1.2-8c-2.8,1.4-6,1.3-9,1.5
				C103.8,12.9,100,10,95.8,9C95.4,8.8,94.9,8.8,94.5,8.8L94.5,8.8z"/>
			<path class="st4" d="M182.4,119.9c-51.1,27.7-84,60-136.1,49.4c0,0,32.3,21.1,67,17.7c0.8,0.8,1.6,1.7,2.7,2.1
				c2.1,0.3,4.1-1.3,5.6-2.6c0.3-0.3,0.5-0.7,0.6-1c8.2-1.9,16.5-5.3,24.2-10.9c1.5,1.4,3,2.9,4.7,2.5c1.8-2.3,3.9-4.5,5.5-6.7
				c-0.1-0.9-0.4-2.5-0.8-3.8c2.5-2.6,5-5.4,7.4-8.6c1.9-1.3,3.7-2.7,5.2-4.4c1-1.2,2.5-2.6,1.6-4.3c-0.1-0.2-0.4-0.4-0.6-0.7
				C174.3,140.7,178.7,131.2,182.4,119.9L182.4,119.9z"/>
		</g>
	</g>
	<g>
		<path class="st5" d="M107.3,102c0,15.7-12.8,28.5-28.5,28.5S50.4,117.7,50.4,102s12.8-28.5,28.5-28.5
			C94.6,73.5,107.3,86.3,107.3,102z"/>
		<path class="st6" d="M75.2,76.4C62,78.3,52.6,89.6,52.6,102.5c3-11.1,12.5-18.5,24.7-20.3c8.9-1.3,17.3,0.1,23.7,5.6
			C95.4,79.6,85.6,74.8,75.2,76.4L75.2,76.4z"/>
		<path class="st7" d="M73.7,71.8c-13.1,1.9-23.4,11.4-23.4,24.3c3-11.1,12.3-20,24.5-21.8c8.9-1.3,17.5,1.5,23.9,7
			C93.1,73.2,84,70.3,73.7,71.8L73.7,71.8z"/>
		<path class="st6" d="M107.4,101.3c-0.1,2.9-0.7,5.7-1.5,8.4c0.7-0.4,1.4-0.7,2.2-1C108.2,106.2,108,103.7,107.4,101.3z
			 M113.2,111.3c-0.1,3.7-2.5,7.2-6.2,8.6c-2.8,0.9-5.3,1.5-5.6-1.9c-0.5,0.6-1,1.2-1.5,1.8c-0.3-0.1-0.7-0.3-0.9-0.4
			c0.2,0.2,0.5,0.4,0.8,0.7c-3,3.4-6.9,6.1-11.4,7.9c-8.4,3.3-17.4,2.4-24.8-1.5c7.2,6.7,18.7,11,28.4,7.2c5-2,9-5.6,11.7-10.1
			c0.4-1.5,1.1-0.8,4.5-1.8C112.3,120.2,114.2,115.4,113.2,111.3L113.2,111.3z"/>
		<path class="st5" d="M95.6,170.4c0,6.8-5.5,12.2-12.2,12.2s-12.2-5.5-12.2-12.2s5.5-12.2,12.2-12.2S95.6,163.6,95.6,170.4z"/>
		<path class="st6" d="M81.8,159.4c-5.6,0.8-9.7,5.7-9.7,11.2c1.3-4.8,5.4-8,10.6-8.7c3.8-0.6,7.5,0,10.2,2.4
			C90.5,160.8,86.3,158.7,81.8,159.4L81.8,159.4z"/>
		<path class="st7" d="M81.2,157.4c-5.6,0.8-10.1,4.9-10.1,10.4c1.3-4.8,5.3-8.6,10.5-9.4c3.8-0.6,7.5,0.7,10.3,3
			C89.5,158,85.7,156.8,81.2,157.4L81.2,157.4z"/>
		<path class="st6" d="M89.1,184.1c5.3-2.1,7.8-8.5,6.6-13.9c-0.2,4.9-3.3,9.6-8.2,11.5c-3.6,1.4-7.5,1-10.7-0.7
			C80.1,183.9,85,185.7,89.1,184.1L89.1,184.1z"/>
		<path class="st7" d="M85.9,181.4c5.5-1.4,9.1-6.6,8.6-12.1c-0.8,4.9-4.1,8.5-9.2,9.8c-3.8,0.9-7.9,0.6-10.9-1.5
			C77.2,180.9,81.6,182.4,85.9,181.4L85.9,181.4z"/>
		<path class="st5" d="M44.1,124.3c0,3.2-2.6,5.8-5.8,5.8c-3.2,0-5.8-2.6-5.8-5.8c0-3.2,2.6-5.8,5.8-5.8
			C41.5,118.5,44.1,121.1,44.1,124.3z"/>
		<path class="st8" d="M37.6,119c-2.7,0.4-4.6,2.7-4.6,5.4c0.6-2.3,2.6-3.8,5.1-4.1c1.8-0.3,3.5,0,4.8,1.2
			C41.7,119.7,39.7,118.7,37.6,119z"/>
		<path class="st7" d="M37.2,118.1c-2.7,0.4-4.8,2.3-4.8,5c0.6-2.3,2.5-4.1,5-4.5c1.8-0.3,3.6,0.3,4.9,1.4
			C41.2,118.4,39.4,117.8,37.2,118.1L37.2,118.1z"/>
		<path class="st8" d="M41.1,130.8c2.5-1,3.7-4.1,3.2-6.6c-0.1,2.4-1.5,4.6-3.9,5.5c-1.7,0.7-3.6,0.5-5.1-0.3
			C36.7,130.7,39,131.6,41.1,130.8L41.1,130.8z"/>
		<path class="st7" d="M39.5,129.5c2.7-0.7,4.3-3.2,4.1-5.8c-0.4,2.3-2,4.1-4.4,4.7c-1.8,0.5-3.8,0.3-5.2-0.7
			C35.3,129.3,37.4,130.1,39.5,129.5L39.5,129.5z"/>
		<path class="st9" d="M69,53.4c0,6.1-4.9,11-11,11s-11-4.9-11-11s4.9-11,11-11S69,47.3,69,53.4z"/>
		<path class="st8" d="M56.6,43.5c-5.1,0.7-8.8,5.1-8.8,10.1c1.2-4.3,4.8-7.2,9.6-7.9c3.4-0.5,6.7,0,9.2,2.1
			C64.4,44.7,60.6,42.9,56.6,43.5L56.6,43.5z"/>
		<path class="st7" d="M56,41.7c-5.1,0.7-9.1,4.4-9.1,9.4c1.2-4.3,4.8-7.7,9.5-8.4c3.4-0.5,6.8,0.6,9.2,2.7
			C63.5,42.3,60,41.1,56,41.7L56,41.7z"/>
		<path class="st8" d="M63.1,65.8c4.8-1.9,7.1-7.6,6-12.5c-0.2,4.5-2.9,8.6-7.4,10.3c-3.3,1.3-6.8,0.9-9.6-0.6
			C54.9,65.6,59.4,67.2,63.1,65.8L63.1,65.8z"/>
		<path class="st7" d="M60.3,63.3c5-1.2,8.2-6,7.7-10.9c-0.7,4.4-3.7,7.7-8.3,8.9c-3.4,0.8-7.1,0.6-9.8-1.4
			C52.3,62.9,56.3,64.3,60.3,63.3L60.3,63.3z"/>
		<path class="st9" d="M129.4,36.7c0,3.2-2.6,5.8-5.8,5.8c-3.2,0-5.8-2.6-5.8-5.8c0-3.2,2.6-5.8,5.8-5.8
			C126.8,30.8,129.4,33.5,129.4,36.7z"/>
		<path class="st8" d="M122.8,31.4c-2.7,0.4-4.6,2.7-4.6,5.4c0.6-2.3,2.6-3.8,5.1-4.1c1.8-0.3,3.5,0,4.8,1.2
			C127,32.1,125,31.1,122.8,31.4z"/>
		<path class="st7" d="M122.5,30.5c-2.7,0.4-4.8,2.3-4.8,5c0.6-2.3,2.5-4.1,5-4.5c1.8-0.3,3.6,0.3,4.9,1.4
			C126.5,30.7,124.7,30.1,122.5,30.5L122.5,30.5z"/>
		<path class="st8" d="M126.3,43.2c2.5-1,3.7-4.1,3.2-6.6c-0.1,2.4-1.5,4.6-3.9,5.5c-1.7,0.7-3.6,0.5-5.1-0.3
			C122,43.1,124.3,44,126.3,43.2L126.3,43.2z"/>
		<path class="st7" d="M124.8,41.9c2.7-0.7,4.3-3.2,4.1-5.8c-0.4,2.3-2,4.1-4.4,4.7c-1.8,0.5-3.8,0.3-5.2-0.7
			C120.6,41.7,122.7,42.4,124.8,41.9L124.8,41.9z"/>
		<path class="st5" d="M175.3,135.1c-1,5.1-5.4,8.6-9.6,7.7c-4.3-0.8-7-5.7-6-10.9s5.4-8.6,9.6-7.7
			C173.7,125.1,176.3,130,175.3,135.1z"/>
		<path class="st6" d="M168.1,124.9c-3.7-0.1-7.1,3.1-7.9,7.3c1.5-3.5,4.7-5.4,8.1-5.3c2.5,0,4.8,1,6.1,3.1
			C173.5,127.1,171.1,125,168.1,124.9L168.1,124.9z"/>
		<path class="st7" d="M168,123.4c-3.7-0.1-7.2,2.4-8,6.7c1.5-3.5,4.7-5.9,8.1-5.8c2.5,0,4.7,1.4,6.1,3.6
			C173.3,124.9,171,123.4,168,123.4L168,123.4z"/>
		<path class="st6" d="M169.1,144.7c3.7-0.9,6.3-5.5,6.3-9.7c-0.9,3.7-3.5,6.9-6.9,7.7c-2.5,0.6-4.9-0.1-6.7-1.9
			C163.3,143.4,166.2,145.4,169.1,144.7L169.1,144.7z"/>
		<path class="st7" d="M167.4,142.2c3.7-0.3,6.8-3.9,7.3-8.1c-1.3,3.6-3.9,6-7.4,6.3c-2.6,0.2-5.1-0.6-6.7-2.5
			C161.9,140.7,164.5,142.5,167.4,142.2L167.4,142.2z"/>
		<path class="st5" d="M113.3,111.7c0,5.1-4.1,9.2-9.2,9.2c-5.1,0-9.2-4.1-9.2-9.2c0-5.1,4.1-9.2,9.2-9.2
			C109.2,102.5,113.3,106.6,113.3,111.7z"/>
		<path class="st7" d="M110.2,113.2c-0.1,3.7-6.3,5.3-10.7,4.7c-5.2,3.6-8.2,4.6-15.3,7.4c-10.1,2-18.4-0.9-25.8-4.9
			c7.2,6.7,18.7,11,28.4,7.2c5-2,9.9-4,12.7-8.4c1.4,0.2,2.4,0.9,4.9,0.8C106.2,120.1,110.2,120.5,110.2,113.2L110.2,113.2z"/>
		<path class="st5" d="M126.9,140c0,6.4-5.2,11.6-11.6,11.6c-6.4,0-11.6-5.2-11.6-11.6c0-6.4,5.2-11.6,11.6-11.6
			C121.7,128.4,126.9,133.6,126.9,140z"/>
		<path class="st6" d="M113.8,129.6c-5.3,0.8-9.2,5.4-9.2,10.6c1.2-4.5,5.1-7.5,10-8.2c3.6-0.5,7,0,9.6,2.3
			C122,130.9,118,128.9,113.8,129.6L113.8,129.6z"/>
		<path class="st7" d="M113.2,127.7c-5.3,0.8-9.5,4.6-9.5,9.8c1.2-4.5,5-8.1,9.9-8.8c3.6-0.5,7.1,0.6,9.7,2.8
			C121.1,128.3,117.4,127.1,113.2,127.7L113.2,127.7z"/>
		<path class="st6" d="M120.8,152.9c5-2,7.4-8,6.2-13.1c-0.2,4.7-3.1,9-7.7,10.8c-3.4,1.3-7.1,1-10.1-0.6
			C112.2,152.7,116.8,154.4,120.8,152.9L120.8,152.9z"/>
		<path class="st7" d="M117.8,150.3c5.2-1.3,8.6-6.2,8.1-11.4c-0.8,4.6-3.9,8.1-8.7,9.2c-3.5,0.9-7.5,0.6-10.3-1.4
			C109.5,149.8,113.6,151.4,117.8,150.3L117.8,150.3z"/>
		<path class="st10" d="M86.6,22.1c0.4,2.3-3.3,4.8-8.3,5.7c-5,0.9-9.4-0.2-9.8-2.5c-0.4-2.3,3.3-4.8,8.3-5.7
			C81.8,18.7,86.2,19.8,86.6,22.1z"/>
		<path class="st8" d="M75.7,20.2c-4.1,1-6.9,3.2-6.5,5.1c0.7-1.8,3.5-3.4,7.3-4.3c2.8-0.7,5.5-1,7.7-0.6
			C82.2,19.6,79,19.4,75.7,20.2L75.7,20.2z"/>
		<path class="st7" d="M75.1,19.7c-4.1,1-7.1,3-6.8,4.8c0.7-1.8,3.4-3.6,7.2-4.6c2.8-0.7,5.6-0.8,7.8-0.4
			C81.3,18.8,78.4,18.9,75.1,19.7L75.1,19.7z"/>
		<path class="st8" d="M82.6,27.6c3.8-1.4,5.3-3.9,4.1-5.5c0.1,1.7-1.8,3.6-5.4,4.9c-2.6,0.9-5.5,1.4-7.9,1.2
			C75.9,28.7,79.6,28.7,82.6,27.6L82.6,27.6z"/>
		<path class="st7" d="M80.1,27.1c4-1.2,6.3-3.4,5.6-5.2c-0.3,1.8-2.5,3.4-6.2,4.5c-2.7,0.8-5.8,1.3-8.1,0.9
			C73.5,28.1,76.9,28,80.1,27.1L80.1,27.1z"/>
		<path class="st5" d="M42.2,160.1c2.3,5.2,2.3,10.3,0,11.3c-2.2,1-6-2.5-8.2-7.7c-2.3-5.2-2.3-10.3,0-11.3
			C36.3,151.4,39.9,154.9,42.2,160.1z"/>
		<path class="st6" d="M33.9,153.6c-1.6,1.4-1.3,5.8,0.6,10.1c-1.2-3.9-0.9-7,0.6-8.3c1.1-1,2.5-1.1,4.2,0.4
			C37.2,153.4,35.1,152.5,33.9,153.6L33.9,153.6z"/>
		<path class="st7" d="M33,152.2c-1.6,1.5-1.7,5.3,0.2,9.6c-1.2-3.9-1.2-7.5,0.3-8.8c1.1-1,2.7-0.6,4.5,0.8
			C36,151.4,34.2,151,33,152.2L33,152.2z"/>
		<path class="st6" d="M44.7,171.7c1.1-2.4-0.3-7.7-2.5-11.7c1.6,3.9,2.1,7.9,1.2,10.1c-0.7,1.6-2.1,1.9-3.8,1.1
			C41.6,172.9,43.8,173.6,44.7,171.7L44.7,171.7z"/>
		<path class="st7" d="M42.7,170.1c1.4-1.9,0.8-6.4-1.3-10.7c1.4,3.9,1.5,7.2,0.2,8.9c-0.9,1.3-2.4,1.6-4.1,0.4
			C39.6,171,41.6,171.6,42.7,170.1L42.7,170.1z"/>
	</g>
	<g>
		<path class="st5" d="M160.9,63.2c2,7.3-3.3,15-11.8,17.2c-8.4,2.2-16.9-1.8-18.8-9.1s3.3-15,11.8-17.2
			C150.5,51.9,158.9,55.9,160.9,63.2L160.9,63.2z"/>
		<path class="st6" d="M140.5,56c-6.8,2.7-10.5,9.4-8.9,15.3c0.2-5.6,4.4-10.4,10.7-13c4.7-1.9,9.3-2.4,13.4-0.8
			C151.7,54.5,145.8,53.8,140.5,56L140.5,56z"/>
		<path class="st7" d="M139.1,54c-6.8,2.8-11.2,8.6-9.6,14.6c0.2-5.6,4.1-11,10.4-13.6c4.7-1.9,9.6-1.8,13.7-0.2
			C149.7,51.9,144.5,51.9,139.1,54L139.1,54z"/>
		<path class="st6" d="M156.7,80.1c6.1-4,7.4-11.7,4.3-17.1c1.2,5.4-1.3,11.4-6.9,15.1c-4.1,2.7-9,3.6-13.5,2.8
			C145.3,82.9,151.9,83.2,156.7,80.1L156.7,80.1z"/>
		<path class="st7" d="M151.9,78.2c6.5-3.3,9.5-10.2,7.2-15.9c0.4,5.5-2.7,10.5-8.7,13.6c-4.4,2.3-9.7,3.3-14,2.1
			C140.8,80.6,146.7,80.8,151.9,78.2L151.9,78.2z"/>
		<path class="st6" d="M139.2,67.2c-1.4,0.6-2.1,1.8-1.7,3c0-1.1,0.9-2,2.1-2.5c0.9-0.4,1.8-0.5,2.6-0.1
			C141.4,66.9,140.3,66.8,139.2,67.2L139.2,67.2z"/>
		<path class="st7" d="M138.9,66.8c-1.4,0.6-2.2,1.7-1.9,2.8c0-1.1,0.8-2.1,2.1-2.7c0.9-0.4,1.9-0.4,2.7,0
			C141,66.4,140,66.4,138.9,66.8L138.9,66.8z"/>
		<path class="st6" d="M142.4,71.9c1.2-0.8,1.4-2.3,0.8-3.4c0.2,1.1-0.3,2.2-1.4,2.9c-0.8,0.5-1.8,0.7-2.7,0.6
			C140.1,72.5,141.4,72.5,142.4,71.9L142.4,71.9z"/>
		<path class="st7" d="M141.4,71.6c1.3-0.7,1.9-2,1.4-3.1c0.1,1.1-0.5,2.1-1.7,2.7c-0.9,0.4-1.9,0.7-2.7,0.4
			C139.3,72,140.5,72.1,141.4,71.6L141.4,71.6z"/>
		<path class="st6" d="M145.7,60.7c-1,0.4-1.5,1.3-1.3,2.1c0-0.8,0.6-1.4,1.5-1.8c0.7-0.3,1.3-0.3,1.9-0.1
			C147.3,60.5,146.5,60.4,145.7,60.7L145.7,60.7z"/>
		<path class="st7" d="M145.5,60.4c-1,0.4-1.6,1.2-1.4,2.1c0-0.8,0.6-1.5,1.5-1.9c0.7-0.3,1.4-0.2,1.9,0
			C147,60.1,146.3,60.1,145.5,60.4L145.5,60.4z"/>
		<path class="st6" d="M148,64.1c0.8-0.6,1-1.6,0.6-2.4c0.2,0.7-0.2,1.6-1,2.1c-0.6,0.4-1.3,0.5-1.9,0.4
			C146.4,64.5,147.4,64.5,148,64.1L148,64.1z"/>
		<path class="st7" d="M147.4,63.8c0.9-0.5,1.4-1.4,1-2.2c0,0.8-0.4,1.5-1.2,1.9c-0.6,0.3-1.4,0.5-2,0.3
			C145.8,64.2,146.6,64.2,147.4,63.8L147.4,63.8z"/>
	</g>
	<g>
		<path class="st5" d="M87,91.8c0,3.8-3.3,6.9-7.5,6.9c-4.1,0-7.5-3.1-7.5-6.9c0-3.8,3.3-6.9,7.5-6.9S87,88,87,91.8z"/>
		<path class="st6" d="M78.6,85.6c-3.4,0.5-5.9,3.2-5.9,6.3c0.8-2.7,3.3-4.5,6.4-4.9c2.3-0.3,4.5,0,6.2,1.4
			C83.8,86.4,81.3,85.3,78.6,85.6L78.6,85.6z"/>
		<path class="st7" d="M78.2,84.5c-3.4,0.5-6.1,2.7-6.1,5.9c0.8-2.7,3.2-4.8,6.4-5.3c2.3-0.3,4.6,0.4,6.2,1.7
			C83.2,84.9,80.9,84.2,78.2,84.5L78.2,84.5z"/>
		<path class="st6" d="M83,99.5c3.2-1.2,4.8-4.8,4-7.8c-0.1,2.8-2,5.4-5,6.4c-2.2,0.8-4.6,0.6-6.5-0.4C77.5,99.4,80.5,100.5,83,99.5
			L83,99.5z"/>
		<path class="st7" d="M81.1,98c3.4-0.8,5.5-3.7,5.2-6.8c-0.5,2.7-2.5,4.8-5.6,5.5c-2.3,0.5-4.8,0.3-6.6-0.8
			C75.7,97.7,78.4,98.6,81.1,98L81.1,98z"/>
		<path class="st5" d="M116.2,162.2c0,2.6-2.1,4.8-4.8,4.8c-2.6,0-4.8-2.1-4.8-4.8s2.1-4.8,4.8-4.8
			C114.1,157.5,116.2,159.6,116.2,162.2z"/>
		<path class="st6" d="M110.9,157.9c-2.2,0.3-3.8,2.2-3.8,4.3c0.5-1.9,2.1-3.1,4.1-3.4c1.5-0.2,2.9,0,4,0.9
			C114.2,158.4,112.6,157.6,110.9,157.9L110.9,157.9z"/>
		<path class="st7" d="M110.6,157.2c-2.2,0.3-3.9,1.9-3.9,4.1c0.5-1.9,2.1-3.3,4.1-3.6c1.5-0.2,2.9,0.2,4,1.2
			C113.8,157.4,112.4,156.9,110.6,157.2z"/>
		<path class="st6" d="M113.7,167.5c2.1-0.8,3-3.3,2.6-5.4c-0.1,1.9-1.3,3.7-3.2,4.4c-1.4,0.6-2.9,0.4-4.1-0.2
			C110.2,167.4,112.1,168.1,113.7,167.5L113.7,167.5z"/>
		<path class="st7" d="M112.4,166.5c2.1-0.5,3.5-2.6,3.3-4.7c-0.3,1.9-1.6,3.3-3.6,3.8c-1.4,0.4-3.1,0.2-4.2-0.6
			C109,166.2,110.8,166.9,112.4,166.5L112.4,166.5z"/>
		<path class="st5" d="M83.5,167.3c0,2-1.6,3.6-3.6,3.6c-2,0-3.6-1.6-3.6-3.6s1.6-3.6,3.6-3.6C81.8,163.7,83.5,165.3,83.5,167.3z"/>
		<path class="st6" d="M79.4,164c-1.7,0.2-2.9,1.7-2.9,3.3c0.4-1.4,1.6-2.4,3.1-2.6c1.1-0.2,2.2,0,3,0.7
			C82,164.4,80.7,163.8,79.4,164L79.4,164z"/>
		<path class="st7" d="M79.2,163.5c-1.7,0.2-3,1.4-3,3.1c0.4-1.4,1.6-2.5,3.1-2.7c1.1-0.2,2.2,0.2,3,0.9
			C81.7,163.7,80.5,163.3,79.2,163.5L79.2,163.5z"/>
		<path class="st6" d="M81.5,171.3c1.6-0.6,2.3-2.5,2-4.1c0,1.4-1,2.8-2.4,3.4c-1.1,0.4-2.2,0.3-3.2-0.2
			C78.8,171.3,80.3,171.8,81.5,171.3L81.5,171.3z"/>
		<path class="st7" d="M80.6,170.6c1.6-0.4,2.7-2,2.5-3.6c-0.2,1.4-1.2,2.5-2.7,2.9c-1.1,0.3-2.3,0.2-3.2-0.4
			C78,170.4,79.3,170.8,80.6,170.6L80.6,170.6z"/>
		<path class="st5" d="M102.6,160.8c0,1.5-1.3,2.8-2.8,2.8s-2.8-1.3-2.8-2.8c0-1.5,1.3-2.8,2.8-2.8S102.6,159.3,102.6,160.8z"/>
		<path class="st6" d="M99.4,158.3c-1.3,0.2-2.2,1.3-2.2,2.6c0.3-1.1,1.3-1.8,2.4-2c0.9-0.1,1.7,0,2.3,0.6
			C101.4,158.6,100.5,158.2,99.4,158.3L99.4,158.3z"/>
		<path class="st7" d="M99.3,157.8c-1.3,0.2-2.3,1.1-2.3,2.4c0.3-1.1,1.2-2,2.4-2.1c0.9-0.1,1.7,0.1,2.3,0.7
			C101.2,158,100.3,157.7,99.3,157.8L99.3,157.8z"/>
		<path class="st6" d="M101.1,164c1.2-0.5,1.8-2,1.5-3.2c0,1.1-0.7,2.2-1.9,2.6c-0.8,0.3-1.7,0.2-2.4-0.1
			C99,163.9,100.2,164.4,101.1,164L101.1,164z"/>
		<path class="st7" d="M100.4,163.3c1.3-0.3,2.1-1.5,2-2.8c-0.2,1.1-0.9,2-2.1,2.2c-0.9,0.2-1.8,0.1-2.5-0.3
			C98.4,163.2,99.4,163.6,100.4,163.3L100.4,163.3z"/>
		<path class="st5" d="M151.9,166.7c0.7,2.6-1.2,5.5-4.5,6.4c-3.2,1-6.5-0.3-7.3-2.9c-0.7-2.6,1.2-5.5,4.5-6.4
			S151.2,164.2,151.9,166.7L151.9,166.7z"/>
		<path class="st6" d="M144,164.5c-2.6,1.1-4,3.5-3.4,5.7c0.1-2,1.7-3.8,4.1-4.8c1.8-0.7,3.6-1.1,5.1-0.6
			C148.4,163.8,146.1,163.7,144,164.5L144,164.5z"/>
		<path class="st7" d="M143.5,163.9c-2.6,1.1-4.2,3.3-3.6,5.4c0.1-2,1.5-4,4-5.1c1.8-0.7,3.7-0.8,5.3-0.3
			C147.6,162.9,145.6,163,143.5,163.9L143.5,163.9z"/>
		<path class="st6" d="M150.4,172.9c2.3-1.5,2.8-4.3,1.6-6.2c0.5,1.9-0.5,4.1-2.6,5.5c-1.6,1.1-3.4,1.5-5.2,1.3
			C146,174.1,148.6,174.1,150.4,172.9L150.4,172.9z"/>
		<path class="st7" d="M148.6,172.3c2.5-1.3,3.6-3.8,2.7-5.8c0.2,2-1,3.8-3.3,5c-1.7,0.9-3.7,1.4-5.4,1
			C144.3,173.4,146.6,173.3,148.6,172.3L148.6,172.3z"/>
		<path class="st5" d="M181.2,93.3c0,4.1-2.7,7.5-5.9,7.5c-3.3,0-5.9-3.4-5.9-7.5c0-4.2,2.7-7.5,5.9-7.5
			C178.6,85.8,181.2,89.2,181.2,93.3z"/>
		<path class="st6" d="M174.6,86.6c-2.7,0.5-4.7,3.5-4.7,6.9c0.6-2.9,2.6-4.9,5.1-5.4c1.9-0.3,3.6,0,4.9,1.5
			C178.8,87.4,176.7,86.2,174.6,86.6L174.6,86.6z"/>
		<path class="st7" d="M174.2,85.4c-2.7,0.5-4.8,3-4.8,6.4c0.6-2.9,2.6-5.3,5.1-5.8c1.9-0.3,3.6,0.4,4.9,1.9
			C178.3,85.7,176.4,84.9,174.2,85.4L174.2,85.4z"/>
		<path class="st6" d="M178.1,101.8c2.6-1.3,3.8-5.2,3.2-8.5c-0.1,3-1.6,5.9-4,7c-1.8,0.9-3.6,0.7-5.2-0.4
			C173.7,101.6,176.1,102.8,178.1,101.8L178.1,101.8z"/>
		<path class="st7" d="M176.6,100.1c2.7-0.8,4.4-4.1,4.1-7.5c-0.4,3-2,5.3-4.5,6c-1.8,0.6-3.8,0.4-5.3-0.9
			C172.3,99.8,174.4,100.8,176.6,100.1L176.6,100.1z"/>
		<path class="st6" d="M99.4,106.4c-2.8,2-3.8,5.5-2.4,8.3c-0.5-2.7,0.9-5.5,3.5-7.3c2-1.4,4.1-2.1,6.1-1.6
			C104.5,104.8,101.7,104.9,99.4,106.4L99.4,106.4z"/>
		<path class="st7" d="M99.8,104.8c-3.2,1.4-5.2,4.2-4.4,7.3c0-2.8,1.9-5.5,4.8-6.7c2.2-0.9,4.5-0.8,6.5,0
			C104.8,103.7,102.3,103.7,99.8,104.8L99.8,104.8z"/>
	</g>
</g>
</svg>
