<?xml version="1.0" encoding="utf-8"?>
<!-- Generator: Adobe Illustrator 25.2.3, SVG Export Plug-In . SVG Version: 6.00 Build 0)  -->
<svg version="1.1" id="Ebene_1" xmlns="http://www.w3.org/2000/svg" xmlns:xlink="http://www.w3.org/1999/xlink" x="0px" y="0px"
	 viewBox="0 0 400 400" style="enable-background:new 0 0 400 400;" xml:space="preserve">
<style type="text/css">
	.st0{fill:#002334;}
</style>
<g>
	<path class="st0" d="M200,20c48.1,0,93.3,18.7,127.3,52.7S380,151.9,380,200s-18.7,93.3-52.7,127.3S248.1,380,200,380
		s-93.3-18.7-127.3-52.7S20,248.1,20,200s18.7-93.3,52.7-127.3S151.9,20,200,20 M200,0C89.5,0,0,89.5,0,200s89.5,200,200,200
		s200-89.5,200-200S310.5,0,200,0L200,0z"/>
</g>
<g>
	
		<rect x="188.3" y="4.2" transform="matrix(0.7071 0.7071 -0.7071 0.7071 199.9999 -82.8427)" class="st0" width="23.4" height="391.5"/>
	
		<rect x="188.3" y="4.2" transform="matrix(0.7071 -0.7071 0.7071 0.7071 -82.8427 200.0001)" class="st0" width="23.4" height="391.5"/>
</g>
</svg>
