<?xml version="1.0" encoding="utf-8"?>
<!-- Generator: Adobe Illustrator 25.2.3, SVG Export Plug-In . SVG Version: 6.00 Build 0)  -->
<svg version="1.1"
	 id="svg2" xmlns:cc="http://creativecommons.org/ns#" xmlns:dc="http://purl.org/dc/elements/1.1/" xmlns:inkscape="http://www.inkscape.org/namespaces/inkscape" xmlns:rdf="http://www.w3.org/1999/02/22-rdf-syntax-ns#" xmlns:sodipodi="http://sodipodi.sourceforge.net/DTD/sodipodi-0.dtd" xmlns:svg="http://www.w3.org/2000/svg"
	 xmlns="http://www.w3.org/2000/svg" xmlns:xlink="http://www.w3.org/1999/xlink" x="0px" y="0px" viewBox="0 0 613 611.4"
	 style="enable-background:new 0 0 613 611.4;" xml:space="preserve">
<style type="text/css">
	.st0{display:none;}
	.st1{display:inline;}
	.st2{fill-rule:evenodd;clip-rule:evenodd;fill:#E8D794;}
	.st3{fill-rule:evenodd;clip-rule:evenodd;fill:url(#path2836_1_);}
	.st4{fill-rule:evenodd;clip-rule:evenodd;fill:url(#path2851_1_);}
	.st5{fill-rule:evenodd;clip-rule:evenodd;fill:url(#path4361_1_);}
	.st6{fill-rule:evenodd;clip-rule:evenodd;fill:url(#path2856_1_);}
	.st7{fill-rule:evenodd;clip-rule:evenodd;fill:url(#path2858_1_);}
	.st8{fill-rule:evenodd;clip-rule:evenodd;fill:url(#path2860_1_);}
	.st9{fill-rule:evenodd;clip-rule:evenodd;fill:url(#path2864_1_);}
	.st10{fill-rule:evenodd;clip-rule:evenodd;fill:url(#path2866_1_);}
	.st11{fill-rule:evenodd;clip-rule:evenodd;fill:url(#path2868_1_);}
	.st12{fill-rule:evenodd;clip-rule:evenodd;fill:url(#path4357_1_);}
	.st13{fill-rule:evenodd;clip-rule:evenodd;fill:url(#path4359_1_);}
	.st14{fill-rule:evenodd;clip-rule:evenodd;fill:url(#path5910_1_);}
	.st15{fill-rule:evenodd;clip-rule:evenodd;fill:url(#path4363_1_);}
	.st16{fill-rule:evenodd;clip-rule:evenodd;fill:url(#path4365_1_);}
	.st17{fill-rule:evenodd;clip-rule:evenodd;fill:url(#path4390_1_);}
	.st18{fill-rule:evenodd;clip-rule:evenodd;fill:url(#path6029_1_);}
	.st19{fill-rule:evenodd;clip-rule:evenodd;fill:url(#path4393_1_);}
	.st20{fill-rule:evenodd;clip-rule:evenodd;fill:url(#path4395_1_);}
	.st21{fill-rule:evenodd;clip-rule:evenodd;fill:url(#path4397_1_);}
	.st22{fill-rule:evenodd;clip-rule:evenodd;fill:url(#path4399_1_);}
	.st23{fill-rule:evenodd;clip-rule:evenodd;fill:url(#path4401_1_);}
	.st24{fill-rule:evenodd;clip-rule:evenodd;fill:url(#path4403_1_);}
	.st25{fill-rule:evenodd;clip-rule:evenodd;fill:url(#path4405_1_);}
	.st26{fill-rule:evenodd;clip-rule:evenodd;fill:url(#path4407_1_);}
	.st27{fill-rule:evenodd;clip-rule:evenodd;fill:url(#path5904_1_);}
	.st28{fill-rule:evenodd;clip-rule:evenodd;fill:url(#path6010_1_);}
	.st29{fill-rule:evenodd;clip-rule:evenodd;fill:url(#path6014_1_);}
	.st30{display:inline;fill-rule:evenodd;clip-rule:evenodd;fill:url(#path7041_1_);}
	.st31{fill-rule:evenodd;clip-rule:evenodd;fill:#BE7539;}
	.st32{fill-rule:evenodd;clip-rule:evenodd;fill:url(#SVGID_1_);}
	.st33{fill-rule:evenodd;clip-rule:evenodd;fill:#9F673A;}
	.st34{fill-rule:evenodd;clip-rule:evenodd;fill:#CC8044;}
	.st35{fill-rule:evenodd;clip-rule:evenodd;fill:url(#SVGID_2_);}
	.st36{fill-rule:evenodd;clip-rule:evenodd;fill:url(#SVGID_3_);}
	.st37{fill-rule:evenodd;clip-rule:evenodd;fill:#5C4533;}
	.st38{fill-rule:evenodd;clip-rule:evenodd;fill:#DEAC9D;}
	.st39{fill-rule:evenodd;clip-rule:evenodd;fill:#FDF5F5;}
	.st40{fill-rule:evenodd;clip-rule:evenodd;fill:#FDDAE0;}
	.st41{fill-rule:evenodd;clip-rule:evenodd;fill:#1A260E;}
	.st42{fill-rule:evenodd;clip-rule:evenodd;fill:url(#SVGID_4_);}
	.st43{opacity:0.8;fill-rule:evenodd;clip-rule:evenodd;fill:#553C2C;enable-background:new    ;}
	.st44{fill-rule:evenodd;clip-rule:evenodd;fill:#5F4433;}
	.st45{fill-rule:evenodd;clip-rule:evenodd;fill:url(#SVGID_5_);}
	.st46{opacity:0.8;fill-rule:evenodd;clip-rule:evenodd;fill:#3C2C22;enable-background:new    ;}
	.st47{fill-rule:evenodd;clip-rule:evenodd;fill:#A36734;}
	.st48{fill-rule:evenodd;clip-rule:evenodd;fill:#6E4F35;}
	.st49{fill-rule:evenodd;clip-rule:evenodd;fill:url(#SVGID_6_);}
	.st50{fill-rule:evenodd;clip-rule:evenodd;fill:url(#SVGID_7_);}
	.st51{fill-rule:evenodd;clip-rule:evenodd;fill:url(#SVGID_8_);}
</style>
<sodipodi:namedview  bordercolor="#666666" borderopacity="1.0" fit-margin-bottom="0" fit-margin-left="0" fit-margin-right="0" fit-margin-top="0" id="base" inkscape:current-layer="layer1" inkscape:cx="339.23621" inkscape:cy="312.49521" inkscape:document-units="px" inkscape:pageopacity="0.0" inkscape:pageshadow="2" inkscape:window-height="852" inkscape:window-maximized="0" inkscape:window-width="1440" inkscape:window-x="0" inkscape:window-y="0" inkscape:zoom="0.49497475" pagecolor="#ffffff" showborder="false" showgrid="false">
	</sodipodi:namedview>
<g id="layer1" transform="translate(-61.43568,-52.366841)" inkscape:groupmode="layer" inkscape:label="Layer 1" class="st0">
	<g id="g6033" class="st1">
		
			<path id="path1379" sodipodi:cx="365.71429" sodipodi:cy="359.50504" sodipodi:rx="304.28571" sodipodi:ry="304.28571" sodipodi:type="arc" class="st2" d="
			M674.3,357.3c0,168.4-137.2,304.9-306.4,304.9S61.4,525.7,61.4,357.3S198.6,52.4,367.9,52.4C537.1,52.4,674.3,188.9,674.3,357.3z"
			/>
		
			<radialGradient id="path2836_1_" cx="459.0877" cy="1170.5632" r="207.656" gradientTransform="matrix(1.7671 0.3791 -0.1438 0.6669 -448.7625 -461.7625)" gradientUnits="userSpaceOnUse">
			<stop  offset="0" style="stop-color:#FFFFFF"/>
			<stop  offset="1" style="stop-color:#F8F1DC;stop-opacity:0"/>
		</radialGradient>
		
			<path id="path2836" inkscape:connector-curvature="0" sodipodi:nodetypes="ccsssssssssssssssssssssssssssssssssssssssssssssssssssssssssssssssssssssssssssssssssssssssssssssssssssssssssssssssssssssc" class="st3" d="
			M522.1,620.8c5.3-2.9,7.7-4.5,11.2-6.7c-4.6-2.1-11.1-9.3-16.1-11.8c-6-3-7-6.5-8.6-12.8c-1.2-4.8,12.5-4.3,17.1-4.3
			c10.3,0-0.5-10.5-1.4-11.4c-2.3-2.3-15.8-3.2-20-4.3c-7.5-1.9-11.8-2.8-20-2.8c-8.9,0-11.5,1.5-14.3,7.1
			c-2.3,4.6-2.3,13.2-4.3,17.1c-2.3,4.5-18.6,0.3-20,0c-5.2-1.3-13.6-7.3-17.1-10c-6-4.5-11.3-7.1-17.1-8.5c-7-1.8-14-6.5-18.6-10
			c-3.4-2.5-13.5-4.8-17.1-5.7c-6.7-1.7-12.3-1.4-20-1.4c-5.5,0-15.1-1.3-21.4-2.8c-10.1-2.5-20.1-1.8-30-4.3
			c-7.6-1.9-16.2-4.3-24.3-4.3c-7.8,0-18.3-5.3-25.7-7.1c-6-1.5-14.5-6.9-18.6-10s-11.7-5.1-15.7-7.1c-4.8-2.4-13.2-1.4-20-1.4
			c-7.3,0-13-1.5-18.6-2.8c-5.7-1.4-9.8-5.5-12.9-8.5c-4-4,1.3-13.6,1.4-14.2c0.3-1.2,12.5-2.8,14.3-10c2.2-8.7,11.9,1,12.9,2.8
			c2.8,5.6,12.5,1.3,18.6,2.8c5.5,1.4,7,8.4,10,11.4c5.9,5.8,2.4-2.3,4.3-10c0.9-3.5,14.8-2.8,18.6-2.8c5.2,0,14.5,1.8,18.6,2.8
			c10.2,2.5,10.6-5.2,25.7-1.4c6.7,1.7,10.4,6.9,17.1,8.5c9.8,2.4,11.7-1.2,17.1,4.3c5.2,5.1,2,10.9,10,2.8c6.4-6.4,3.3-2.4,5.7,7.1
			c2,8,10.6-2,12.9-4.3c4.3-4.2-5.7,11.1-5.7,17.1c0,2.4,14.2,4.9,15.7,5.7c3.7,1.9,3.8,12,2.9,15.7c-2.6,10.2,2,8.3,7.1,5.7
			c6-3,4.1-10.8,2.9-15.7c-1.6-6.3-3-10.7-1.4-17.1c0.7-2.7,5.3,10.1,4.3,14.2c-2.8,11.2,5.9,8.5,11.4,7.1c0.7-0.2,0-19.4,0-21.4
			c0-2.4,5.7,1.9,5.7,4.3c0,1.4,16.4-7.8,5.7,2.8c-8,8,3.9,4.5,7.1,2.8c5.5-2.8,5.6,1.3,10,5.7c2.2,2.2,0.6-20,0-21.4
			c-0.9-2.1-11.3-7-12.9-8.5c-3.9-3.9-8.2-5.4-12.9-10c-7.3-7.3-7.8-2.1-10,0c-3.8,3.8,9,6.1,12.9,10c2.9,2.9,13.6,8.5,1.4,8.5
			c-3.7,0-11.7-5.8-14.3-7.1c-5.1-2.5-4.5-10.7-5.7-15.7c-1.8-7-1.7-13.8-2.9-18.5c-2.3-9,2.8-15.7-4.3-8.5
			c-1.3,1.3,3.5,15.3,4.3,18.5c1.6,6.2,0,14.9,0,21.4c0,10.6-6.4-6.9-7.1-10c-1.7-6.8-2.9-11.1-2.9-18.5c0-7-3.5-11.3-5.7-15.7
			c-2.9-5.8-3-10.1-7.1-14.2c-0.5-0.5,2.4,15.3,2.9,17.1c1.5,6.1,4.1,10.6,5.7,17.1c1.4,5.7,2.9,10,2.9,18.5c0,12.4-4.7,4.8-7.1,0
			c-2.5-4.9-5.4-9.7-8.6-12.8c-6.1-6.1,3.8-11.5-7.1-14.2c-7.6-1.9-5.8-5-14.3-7.1c-4.4-1.1,6.4-10.7,7.1-11.4
			c7.3-7.2-18.2-5.9-4.3-12.8c7.5-3.7-7.4-9.4-8.6-10c-0.9-0.5-8.6-19.4-8.6-4.3c0,8.3-0.3,7.3-8.6,11.4c-3.9,1.9,1.4,12.6,1.4,17.1
			c0,8.2,3.2,10.3,7.1,14.2c6.1,6,6,13.2-1.4,11.4c-5.7-1.4-9.4-4.3-18.6-4.3c-8.7,0-2.5-8.5-12.9-8.5c-8.6,0-11.2,1.5-17.1-1.4
			c-7.5-3.7-5.8-9.8-4.3-15.7c2.2-9-5.5-8.5-11.4-10c-7.6-1.9-12.7,1.4-20,1.4c-6.3,0-6.1,9.3-8.6,14.2c-0.9,1.7-11.9,6.5-14.3,7.1
			c-4.4,1.1-11.4-5.7-14.3-7.1c-5.4-2.7-13.6-1.4-20-1.4c-4.7,0-12.4-6-17.1-7.1c-8.5-2.1-13.6,2.8-15.7,7.1
			c-3.8,7.5-2.1,9.6-8.6,12.8c-4.8,2.4-17.1-0.7-20-1.4c-5.7-1.4-9.8-5.5-12.9-8.5c-4.4-4.4-7-7.1-12.9-8.5
			c-10.4-2.6-9.1,0.8-7.3,6.4c9.5,30.5,27.2,61.7,43.2,83.5c2.3,3.1,33.1-2.2,35.5-1.6c6.5,1.6,12.9,2.2,20,5.7
			c6,3,14.1,3.5,18.6,5.7c7.6,3.8,12.4,7.7,21.4,10c7.6,1.9,12.7,1.3,18.6,5.7c3.9,2.9,16.9,5.6,22.9,7.1c7.1,1.8,14.2,4.2,20,5.7
			c8.3,2.1,19.2,10.3,24.3,12.8c6.9,3.4,16,5.5,24.3,7.1c8.9,1.8,15.9,4.3,25.7,4.3c7.8,0,18.1,5.2,25.7,7.1c2.8,0.7,2,6.5,0,8.5
			c-1.4,1.4,14.7,5.5,15.7,5.7c7,1.7,14.6,1.1,21.4,2.8c6.2,1.6,15,0,21.4,0c7.1,0,14.3,0,21.4,0c9.5,0,19,0,28.6,0
			c8.6,0,12.7-1.4,18.6-2.8C510.5,619.3,515.6,620.8,522.1,620.8L522.1,620.8z"/>
		
			<radialGradient id="path2851_1_" cx="284.6474" cy="1404.2837" r="207.656" gradientTransform="matrix(0.3217 0.6005 -0.5163 0.2751 1200.0343 -191.9139)" gradientUnits="userSpaceOnUse">
			<stop  offset="0" style="stop-color:#FFFFFF"/>
			<stop  offset="1" style="stop-color:#F8F1DC;stop-opacity:0"/>
		</radialGradient>
		<path id="path2851" inkscape:connector-curvature="0" class="st4" d="M649.3,381.5c3.5,10.4,3.6,22.6-1.5,32.4
			c-4.2,2.1-8,3.5-6.6,9.6c-4.6,6.9,1.5,13.6,4.1,20c3.4,4.6,7.4,18.3-2.8,14.8c-2.6-5.4-7.6-9.5-11.8-2.5
			c-3.4,7.7-1.9,16.9,6.2,20.6c3.8,7.8-12.8,5.2-9,14.8c2.3,8-7.3,15.3-12.7,7.8c-1.1-6.6-6.8-7.4-8.7-0.7
			c-0.8,12.2-11.7,1.3-12.5-5.2c-2.2-7.8-12.4-7.6-15-14.9c-0.9-7.1-3.9-16.7-12.9-15.5c-9.3,3.9-4.2,15.7,0.8,21.1
			c4.1,7.1,10.2,12.2,16.9,16.7c4.1,4,16.1,13.2,8.7,18.4c-9.5-1.5-16.6-9.9-22.3-17.2c-5.8-8.6-15.1-14.4-20.8-23.1
			c-3.7-9.1,1.1-17.8,0.6-26.9c-2.6-7.2,1.7-15.8,10.1-11.3c5.4,0.6,11.2-7.6,14.6,1.2c1.9,7.1,15.2,11.9,9.3,19.5
			c-5.8,7.4,3.2,7.6,8.2,5.2c6.6-0.5,16,2.2,20.4-3.7c-0.2-7.3,2-15.4,8.8-19.2c5.2-4.6,4.2-15.2-0.7-19.9
			c-7.7-5.3-2.2-15.1-5.3-22.2c-2-5.8,10.7-12.5,1.5-16.7c-9.4,3.4-8.5-10.4-14.7-10.8c-3.9,6.2-13.8,3-15.6,12
			c-7.6,5-18.5,3.4-21.9-5.8c-5-11.1-9.6,4.2-6.6,9.7c3.7,9.5-8,8.4-12.2,10.9c0.3,6.3-1,13.8-9.3,10.3c-9.7-3.4-0.2-15.9-2.1-20.3
			c-7.7-0.7-21.3,0.8-21.9-10.1c4.6-8.3,15.1-8.9,23.5-9.6c3.1-3.7,4.9-7.9,10.2-5.2c7.5-4.2,7-12.5,0.7-17.4
			c-0.2-4.5-1.1-14.1,1.8-15.8c4.8,1.3,6,14.8,10.1,10.8c-2.2-6.3-2.4-17.6,7-11.1c0.9,5.4-0.7,16.8,8.6,12.5
			c6.7-5.3,19.6-3.1,14.6,7.3c-5.7,4.1-8,18.8,2.8,16c8.3,0.7,13.3-11.6,22.2-7.4c5.5,7.1,11.6,14.4,21.8,12.8
			C640.8,374.8,644.6,379,649.3,381.5L649.3,381.5z"/>
		
			<radialGradient id="path4361_1_" cx="-2655.6196" cy="1893.8234" r="207.656" gradientTransform="matrix(2.381204e-02 0.1224 -0.7221 0.1398 1754.384 319.2207)" gradientUnits="userSpaceOnUse">
			<stop  offset="0" style="stop-color:#E2C05B"/>
			<stop  offset="1" style="stop-color:#E4C873;stop-opacity:0.6531"/>
		</radialGradient>
		<path id="path4361" inkscape:connector-curvature="0" class="st5" d="M238.6,266.1c9.2,1.5,17.7-3.9,26.7-5
			c12-1.6,24.5,0.7,36.2-3.2c7.4-1.5,12.9-7.3,20.4-8.4c6.6-3.2,14.1-2.4,20.9-4.8c6.6-3.6,14-5.2,21.2-7.1
			c6.7-2.3,13.1-5.6,20.3-6.2c7.9-2.3,16.6-1.7,24.2,0.7c-5.9,6-13.5,9.9-20.5,14.5c-7.9,6-12.7,15.2-15,24.7
			c-2.6,5.4-7.4,10.5-13.3,12c-14.3,3-29.2-0.2-43.5,3.3c-11.2,1.7-22.6,0.5-33.8,1.5c-7.8,0.5-13.1-6.1-20-8.5
			c-6.7-0.8-14.7-0.3-19.1-6.6C241.5,270.8,240,268.4,238.6,266.1L238.6,266.1z"/>
		
			<radialGradient id="path2856_1_" cx="608.7841" cy="137.804" r="207.656" gradientTransform="matrix(1.3105 -0.2873 0.159 0.7215 -512.6785 366.912)" gradientUnits="userSpaceOnUse">
			<stop  offset="0" style="stop-color:#FFFFFF"/>
			<stop  offset="1" style="stop-color:#F8F1DC;stop-opacity:0"/>
		</radialGradient>
		<path id="path2856" inkscape:connector-curvature="0" class="st6" d="M437.1,231.9c2.8,0,16.3,1.6,21.4,2.8
			c9,2.2-9.5,8.5-12.9,8.5c-6.6,0-13.3,1.4-21.4,1.4c-8.6,0-12.7,1-20,2.8c-7.6,1.9-14,4.8-18.6,7.1c-7.2,3.6-12.1,6-17.1,8.5
			c-5.2,2.6-8.1,6.7-11.4,10c-7.9,7.9-0.1,7.8,2.9,7.1c5.8-1.4,9.2-4.9,12.9-8.5c3.9-3.9,10.3-5.1,14.3-7.1
			c6.3-3.1,11.7-4.3,17.1-5.7c6.4-1.6,10.4-2.6,17.1-4.3c6-1.5,10.4-2.8,18.6-2.8s11.5-0.7,18.6,2.8c7,3.5,16.1,1,2.9,4.3
			c-7.4,1.8-14.2,0.7-18.6,2.8c-5.3,2.6-0.1,12.9-4.3,17.1c-5.5,5.5-6.2,7.1-15.7,7.1c-6.9,0-9.7-4.2-15.7-5.7
			c-3.3-0.8-9.9,7.1-12.9,8.5c-6.3,3.1-9.9,2.7-14.3,7.1c-3.4,3.4-5.5,11-7.1,14.2c-3.3,6.6-5.9,10.4-8.6,15.7
			c-2.8,5.6-12.9,4.4-12.9-2.8c0-7.1,4.3-10.5,4.3-18.5c0-6.4,4.6-11.7-2.9-4.3c-3.8,3.8-1.9,13.3-5.7,17.1
			c-5.3,5.2-13-8.1-17.1-14.2c-1.9-2.8-3.8,7.1-7.1,7.1c-9.2,0-1-16.1-11.4-5.7c-2.6,2.6,4.3,12.6,4.3,17.1c0,9.1-0.9,10.9-8.6,12.8
			c-7,1.7-8.1,1.7-14.3-1.4c-4.8-2.4-10-6.4-14.3-8.5c-6.3-3.1-12.8-3.5-17.1-5.7c-5.6-2.8-13.4-1.6-18.6-2.8
			c-8.7-2.2-13.8,0.9-18.6,5.7c-6,6-5.9,4.9,1.4,8.5c8.6,4.3,1.6,9.2-2.9,11.4c-6.5,3.3-14.5,4.3-20,5.7c-6.2,1.6-15,0-21.4,0
			c-5.6,0-13.5,6.7-17.1,8.5c-8.7,4.3,1.8,11.8,4.3,14.2c5.1,5.1,6.9,5.2,10,11.4c2.3,4.6,0.5,16.1,1.4,19.9c2,8,9.7,8.8,11.4,15.7
			c1.8,7.2-11.8,5.7-17.1,5.7c-5.6,0-12.6-9.7-14.3-11.4c-3.6-3.6-5-9.3-8.6-12.8c-3.4-3.4-15-0.9-18.6,0
			c-9.5,2.4-9.9-5.3-11.4-11.4c-1.2-4.7,4.1-12.4,5.7-15.7c3.4-6.7,4.6-12.8,2.9-19.9c-2.2-8.9,0.9-13.3,5.7-15.7
			c5.9-2.9,12.9-2.2,17.1-4.3c6.9-3.4,7.8-6.6,15.7-8.5c9.6-2.4,13.5-2.6,11.4,5.7c-1.5,5.8-9.5,10,2.9,10c8.9,0,10.2-2.8,18.6-2.8
			c5.8,0,5.7-11.7,5.7-12.8c0-5.6-7.1-5.4-7.1-14.2c0-5,9.4-8.5,14.3-8.5c8.6,0,10.5-2.3,15.7,2.8c3.7,3.7,7.1,11.3,4.3,0
			c-2.5-10.2,3.6-9.8,10-11.4c10-2.5,4.2-6.4-4.3-4.3c-11.3,2.8-3-8.5,0-10c5-2.5,17.1,0,22.9,0c6.2,0,10,4.3,15.7,5.7
			c8.1,2,10.7-2.8,18.6-2.8c6.7,0,9.4-5.9,11.4-10c0.6-1.2,18.3-2.4,20-2.8c5.3-1.3,10-5.7,12.9-8.5c2.9-2.9,11.9-5.7,17.1-5.7
			c5.9,0,10.5-5.8,15.7-7.1c4.3-1.1,9.9-4.3,15.7-5.7c7.6-1.9,11-5.6,17.1-7.1c6.8-1.7,13.8-1.2,18.6,0
			C428.7,234.1,435.2,232.3,437.1,231.9L437.1,231.9z"/>
		
			<radialGradient id="path2858_1_" cx="-1078.9147" cy="-2263.2708" r="207.656" gradientTransform="matrix(0.244 3.259879e-02 -1.365773e-02 0.1017 505.7684 646.4702)" gradientUnits="userSpaceOnUse">
			<stop  offset="0" style="stop-color:#FFFFFF"/>
			<stop  offset="1" style="stop-color:#F8F1DC;stop-opacity:0"/>
		</radialGradient>
		<path id="path2858" inkscape:connector-curvature="0" class="st7" d="M264.3,374.4c6.6,1.6-13.2-4.3-20-4.3
			c-7.3,0-14.6,0.1-20,1.4c-8.2,2.1-11.4,7-12.9,12.8c-2.6,10.6,9.9,3.6,12.9,2.8c7.5-1.9,10.2-5.4,17.1-7.1
			c6.9-1.7,11.6,3.6,15.7,5.7c6,3,9.4,4.4,15.7,2.8c6.3-1.6,10.7-3,17.1-1.4c6.2,1.5,15.9-0.4,20-1.4c9.5-2.4-8.8-8.2-10-8.5
			c-9.3-2.3-10.1-1.1-15.7-8.5c-1.8-2.4-10.9-6.9-14.3-8.5c-6.9-3.5-11.3-6.8-7.1,1.4C266.7,369.2,269.5,361.3,264.3,374.4z"/>
		
			<radialGradient id="path2860_1_" cx="-67.4399" cy="910.1465" r="207.656" gradientTransform="matrix(0.4386 4.086361e-02 -3.858412e-02 0.412 503.1007 164.9732)" gradientUnits="userSpaceOnUse">
			<stop  offset="0" style="stop-color:#F7EED4"/>
			<stop  offset="1" style="stop-color:#F8F1DC;stop-opacity:0"/>
		</radialGradient>
		<path id="path2860" inkscape:connector-curvature="0" class="st8" d="M428.6,486.9c3,6.1-13.4-5.9-20-4.3
			c-4.5,1.1,1.5,10.7,5.7,12.8c6.4,3.2,11.1,4.8,15.7,7.1c5.3,2.6,9.8,4.9,14.3,7.1c8.7,4.3-0.8,11.4-7.1,11.4
			c-4.5,0-2.9,8.5-4.3,14.2c-1.9,7.4-6.2,7.1-14.3,7.1c-7.5,0-6.7-5.2-14.3-1.4c-5.4,2.7-8,6.6-11.4,10c-3.7,3.7,14.8,4.3,17.1,4.3
			c13.1,0,26.2,1.4,37.1,1.4c9.6,0,12.6,0.2,17.1-4.3c7.6-7.6-7.5-10-11.4-10c-6.4,0-10.3-6.7-11.4-11.4c-1-4,12.5-6.2,14.3-7.1
			c0.9-0.4-5.4-15-5.7-15.7c-2.6-5.2-9.8-11.2-12.9-14.2C433.6,490.5,436.2,493,428.6,486.9L428.6,486.9z"/>
		
			<radialGradient id="path2864_1_" cx="269.9651" cy="-527.9768" r="207.656" gradientTransform="matrix(0.8394 -0.2535 7.350131e-02 0.2421 -74.3959 467.0115)" gradientUnits="userSpaceOnUse">
			<stop  offset="0" style="stop-color:#F7EED4"/>
			<stop  offset="1" style="stop-color:#F8F1DC;stop-opacity:0"/>
		</radialGradient>
		<path id="path2864" inkscape:connector-curvature="0" sodipodi:nodetypes="ccsssssssssssssssssssssc" class="st9" d="M65.7,305.6
			c5.5-32.1,17.5-65.7,28.6-85.8c-1.8-8,13.9,6,18.6,10.7c5.8,5.8-3.1,11.5-5.7,12.8c-5.7,2.8,13,2.8,15.7,2.8c8.1,0,16.2,0,24.3,0
			c8.8,0,16.5-1.4,25.7-1.4c7,0,15.1-0.2,20-1.4c6.6-1.6,11.2-4.2,17.1-5.7c6-1.5,11.5-4.3,17.1-5.7c8.5-2.1,17.5-2.2,25.7-4.3
			s18.8-2.5,25.7-4.3c7-1.7,16.8-1.4,22.9-1.4c8.3,0-12.6,9.4-15.7,10c-11.7,2.3-23.1,3.5-34.3,5.7c-10.9,2.2-18,9.1-27.1,11.4
			c-9.4,2.3-14.8,6.2-24.3,8.5c-8,2-17.2,8.6-24.3,12.8c-7.1,4.2-14.7,6.2-20,11.4c-4.7,4.7-15.4,4.2-21.4,5.7
			c-9,2.2-17.2,2.9-25.7,7.1c-7.8,3.9-14.6,4.4-20,7.1c-5.5,2.7-11.1,2.8-17.1,4.3C70,306.3,67.1,305.6,65.7,305.6L65.7,305.6z"/>
		
			<radialGradient id="path2866_1_" cx="666.5658" cy="-1826.4435" r="207.656" gradientTransform="matrix(1.5052 -0.3227 5.287274e-02 0.2453 -570.4774 785.6618)" gradientUnits="userSpaceOnUse">
			<stop  offset="0" style="stop-color:#FFFFFF"/>
			<stop  offset="1" style="stop-color:#F8F1DC;stop-opacity:0"/>
		</radialGradient>
		<path id="path2866" inkscape:connector-curvature="0" sodipodi:nodetypes="ccsssssssssscsssssssssssssc" class="st10" d="
			M543.9,107.6c-22.5-15.8-53.6-31-68.8-36c-5.1,1.3-28.8,9.6-36.6,13.5c-5.7,2.8-17,3.9-24.3,5.7c-9.9,2.5-20.1,3.7-30,5.7
			c-10,2-18.4,3.7-28.6,5.7c-10.1,2-20.9,1.4-31.4,1.4c-10,0-20,0-30,0c-8.1,0-16.2,0-24.3,0c-7.6,0-15.2,0-22.9,0
			c-7.6,0-14.1,0-20-1.4c-16.2-4-26-1.3-32.9,3.6c-30.2,21.4-51.2,43-64.8,60c-6.1,6.7,22.9,6.2,32,6.2c10.4,0,20.7,1.4,31.4,1.4
			c9.4,0,18.8-1.4,28.6-1.4c9,0,18.1,0,27.1,0c14.8,0,28.5-2.8,42.9-2.8c11.5,0,22.5-2.8,34.3-2.8c8.7,0,18.7-6.4,27.1-8.5
			c13.2-3.3,24.6-6.8,37.1-10c9.1-2.3,19.6-4.3,28.6-4.3c9.4,0,22.4-3.4,31.4-5.7c12-3,26.3-3.9,35.7-8.5c6.5-3.2,15.5-6.5,24.3-10
			c6.9-2.8,12.2-2.3,20-4.3C535.4,113.7,540.8,109.1,543.9,107.6z"/>
		
			<radialGradient id="path2868_1_" cx="311.251" cy="833.7559" r="207.656" gradientTransform="matrix(1.0089 0.2783 -6.590188e-02 0.2377 -2.8049 293.7388)" gradientUnits="userSpaceOnUse">
			<stop  offset="0" style="stop-color:#F7EED4"/>
			<stop  offset="1" style="stop-color:#F8F1DC;stop-opacity:0"/>
		</radialGradient>
		<path id="path2868" inkscape:connector-curvature="0" sodipodi:nodetypes="cssssssssssssssssssssssssc" class="st11" d="
			M234.3,478.4c-3.3,5.8-1.1,13.5,2.9,21.4c3.3,6.5,6.3,9.1,11.4,14.2c4.4,4.4,105.9,34.1,110,42.7c3.6,7.5-13,5.7-17.1,5.7
			c-9,0-193-31.3-200-31.3c-7.1,0-24.3,1.7-21.2,5.7c118,156.5,306.5,144.3,404.7,82.4c2.1-1.3-14-7.9-15-8.4
			c-5.4-2.7-7.6-9.5-10-14.2c-2.3-4.6-4.5-13.5-5.7-18.5c-1.5-6.1-6.2-10.1-11.4-11.4c-6.3-1.6-10.2-3.2-17.1-1.4
			c-7,1.7-10.6,2.8-18.6,2.8c-4.8,0-13.1,1.4-20,1.4c-7.1,0-14.3,0-21.4,0c-8.1,0-12.7-1-20-2.8c-6-1.5-10.8-4.7-15.7-7.1
			c-7.9-3.9-5.5-5,2.9-7.1c7.4-1.8,15,1.1,18.6,2.8c5.1,2.5,11.7,2.9,17.1,4.3c6.2,1.6,15,0,21.4,0c13.5,0-0.5-17.6-4.3-21.4
			c-4-4-5.6-22.3-38.6-25.6c-6.7-0.7-11.5-1.6-17.1-4.3C338.9,493.5,243.4,474.5,234.3,478.4L234.3,478.4z"/>
		
			<radialGradient id="path4357_1_" cx="-2881.4688" cy="1906.6631" r="207.656" gradientTransform="matrix(1.092406e-02 0.1242 -0.7496 6.559962e-02 1809.89 424.4578)" gradientUnits="userSpaceOnUse">
			<stop  offset="0" style="stop-color:#E2C05B"/>
			<stop  offset="1" style="stop-color:#E4C873;stop-opacity:0.6531"/>
		</radialGradient>
		<path id="path4357" inkscape:connector-curvature="0" class="st12" d="M487.1,149.2c-17,0.6-30.4,13.1-45.9,18.6
			c-11.7,3.9-23.9,6.4-36.3,5.6c-16.9-0.2-33.9,0.7-50.7-1.4c-12.5-0.4-25-2.1-37.6-1.5c-17.6,0.7-36.4-2.7-52.8,5.7
			c-13.1,4.4-27,6.2-39.2,13.1c-5.8,1.4-9.9,8.3-0.7,6.6c6.3,0.1,16.6-1.2,20.3,3.7c-4.3,1.6-17.4,4.3-6.2,7.4
			c15.1,5.5,31.2,1.5,46.8,1.7c15.1-1.1,30.2-1.6,45.2-2.5c14.3,0.5,27.9-3.8,41.9-5.6c17-1.1,35.3,2.8,50.8-6.2
			c9.2-2.8,17.1-8.3,25.5-12.6c11.8-5,23.7-9.7,35.3-15.1C492,162.5,497.2,155.6,487.1,149.2L487.1,149.2z"/>
		
			<radialGradient id="path4359_1_" cx="368.003" cy="1485.9445" r="207.656" gradientTransform="matrix(0.8439 0.6504 -0.939 1.2119 1535.329 -1664.3081)" gradientUnits="userSpaceOnUse">
			<stop  offset="0" style="stop-color:#DFBA49"/>
			<stop  offset="1" style="stop-color:#E4C873;stop-opacity:0.6531"/>
		</radialGradient>
		
			<path id="path4359" inkscape:connector-curvature="0" sodipodi:nodetypes="cccccccccccccccccccccccccccccccccccccccccccccccccccccccccccc" class="st13" d="
			M656.4,459.8c27.7-76.8,24.7-166.7-17.9-245.2c-11.8,0-39.9,10.2-35.7,28.7c-7,1.1-14.1-16.4-21.6-2.8c-9.8,12.8-31,1.9-15.6-10.2
			c20.1-1.9,2.3-49.3-5.7-19.7c-0.6,21.9-30.3,9.9-34.4,27.7c-5.3,20.1-35.1-8.4-33.8,15.6c-3.6,15.9-28,10.3-29,29.3
			c-16.9,6.5-37.7-0.7-52.6,9.7c-12.5,10.5-29.5,18-30.5,36.9c-8.4,10.9,10.6,28.6-12.8,21.1c-16-6.9-27-5.9-44.3-9.8
			c-19.2,10,11.1,17.3,20.7,16.8c9.3,4.2-7.4,12.3-27,7.8c-6.9-1.6-33.2-22.4-24.8-5.5c16.7,12.6,47.9,16.2,57.8,23.8
			c10,14.1,0.4-3.3-17.8,6.1c-12.7,13.8,5.6,31.1,18.2,37.2c14.3,8.9,21.4,26,38.4,30.9c14.1,12.1,34.1,22.8,49.1,4.5
			c20.2-9.6,26.3,19.9,43.5,24.6c16.8,3.4,28.5,16.7,43.6,23.8c22.9,7.6,0.9,27.2-13.5,26.6c-16.1,2.7-31.6-6.4-45.8-12.8
			c-18,0.8-28.7-15.6-43.3-23.4c-17.1-13.1,4.6,9.5,9.5,13c12.1,11.5,32.4,11.6,39.9,26.7c9.2,16.5,30.5,6.3,45,7.3
			c12.7-9.8,49,8.1,64,19.1c15.6-8.8,18.8-37.2,7.3-45.3c-0.6-10.6-49.5-55.5-57.5-36c-6.6,16.9-22.5-6.9-18-15.5
			c-15-3-18.1-14.6-7-25c5.9-4.6,7.9-25-0.7-9c-5.2,11.1-24.6,10.4-10-1.4c7-6.5,20.4-24.9,19.9-5.8c7.5,0.8,22.8-1.2,15.1,10.3
			c7.6,7.2,27.7-10.3,7.8-10.2c-3.7-6.6,7.5-21.9-10-18.2c-7.5-3-9.8-15-17-1.8c-4.5,6-24,16.3-23,14.3c10.4-1.6,6.9-33,15.1-22.4
			c4.3,24.1,13.7-23.5,0.6-20.4c-16.7,11.9-27.2-26.5-4.3-21.4c1.7-14,17.1,0,24.3-12.8c8.5,0.5-2,31.1,11,14.8
			c8.5-11.7-0.4-21.6-1-34.8c14.1-6,13.2-22.1,18.7-32.9c-0.1,9.8,2.8,28.6,13.2,11.7c10.7-15.9,11.9,16.3,10.1,23.3
			c6,7.9,21.2-3.1,24.9,11.4c22.7,9.7-3.9-19.7,3.2-30.5c3.6-13.9,26.8-10.9,20-29.7c-6.5-17.7,18.4-33.6,28.6-17.3
			c4.4,14.4,5.3,32.5-2.6,45.8c-8.8,15.1-18.4,30.6-22.8,47.6c-0.5,16.3,31.4,14.6,26.7,35.5c-0.3,15.7-13.7,29.5-7.7,46.5
			C648.4,446.2,649.9,454.3,656.4,459.8L656.4,459.8z"/>
		
			<radialGradient id="path5910_1_" cx="3078.1506" cy="655.2592" r="207.656" gradientTransform="matrix(0.642 0.2225 -3.392673e-02 9.739333e-02 -1505.2441 -297.5727)" gradientUnits="userSpaceOnUse">
			<stop  offset="0" style="stop-color:#DAA02F;stop-opacity:0.4471"/>
			<stop  offset="1" style="stop-color:#BC9624;stop-opacity:0.2959"/>
		</radialGradient>
		<path id="path5910" inkscape:connector-curvature="0" class="st14" d="M521.4,498.3c-9.8-7.4-18.9-15.6-28.1-23.8
			c-3.8-9.1-13.6-11.6-19.2-19.1c-6.4-7.3-16.9-7.6-25.3-11.3c-8.3-1.5-16.7,2.2-25.1,0.2c-9.8-0.3-20.5,0.4-28.9-5.9
			c-7.8-4.6-13.2-12.5-22-15.7c-4.9-2.9-14.1-6-18-3.3c9.4,6.5,21.1,9.6,28.9,18.3c8.1,5.1,12.9,14.2,21.6,18.2
			c9,4.8,20.7-0.9,28.6,6.5c6.4,4.3,8.9,13.8,17.4,14.7c8.8,1.4,17.8,1.5,26.4,3.8c14.2,1.1,23.9,12.8,32.3,23
			c5.6,6.8,17,5.7,20.6,14.5c2.4,8.5,10.8,11.3,18,14.7c5.7,5.1,19.3,4.9,14.9-5.8c-3.7-6.8-11.9-9.7-15.7-16.6
			C542.5,500.8,529.3,504.9,521.4,498.3L521.4,498.3L521.4,498.3z"/>
		
			<radialGradient id="path4363_1_" cx="-1690.2777" cy="-1158.9965" r="207.656" gradientTransform="matrix(0.1228 2.320197e-02 -2.093068e-02 0.1102 374.2793 606.8126)" gradientUnits="userSpaceOnUse">
			<stop  offset="0" style="stop-color:#E2C05B"/>
			<stop  offset="1" style="stop-color:#E4C873;stop-opacity:0.6531"/>
		</radialGradient>
		<path id="path4363" inkscape:connector-curvature="0" class="st15" d="M188.6,431.3c-6.9,0-12.9-7.8-12.9,7.1
			c0,2.3,11.6,7.3,12.9,8.5c3.7,3.7,11.3,4,15.7,2.8c5.4-1.3-1.8-11.7-5.7-15.7C196.1,431.7,192.1,432.1,188.6,431.3L188.6,431.3z"
			/>
		
			<radialGradient id="path4365_1_" cx="-1362.8384" cy="-1333.8446" r="207.656" gradientTransform="matrix(0.1228 2.320197e-02 -2.093068e-02 0.1102 374.2793 606.8126)" gradientUnits="userSpaceOnUse">
			<stop  offset="0" style="stop-color:#E2C05B"/>
			<stop  offset="1" style="stop-color:#E4C873;stop-opacity:0.6531"/>
		</radialGradient>
		<path id="path4365" inkscape:connector-curvature="0" class="st16" d="M224.3,425.7c-5.9-5.9-12.9,2.9-14.3,8.5
			c-1.7,6.9,8.5,7.1,14.3,7.1c5.7,0,9.3-4.3,17.1-4.3c9.1,0,11.4,1.4,15.7,5.7c3.4,3.4,6.8,11,7.1,11.4c2.6,2.6,4.3-14.2,4.3-17.1
			c0-6.2-5.7-9.3-10-11.4c-5.5-2.8-10.4-4.4-15.7-5.7c-6.2-1.5-7.8-6.9-10-11.4c-2.8-5.7,5.9-5.3-7.1-8.5c-5.4-1.3-8.9-7.2-14.3-8.5
			c-4.9-1.2,6.4,7.8,10,11.4C225.4,406.8,224.3,418,224.3,425.7L224.3,425.7z"/>
		
			<radialGradient id="path4390_1_" cx="6928.0552" cy="-4146.0322" r="207.656" gradientTransform="matrix(1.306962e-02 -0.3508 9.258122e-02 3.430709e-03 957.9769 2835.0525)" gradientUnits="userSpaceOnUse">
			<stop  offset="0" style="stop-color:#CC9223;stop-opacity:0.7765"/>
			<stop  offset="1" style="stop-color:#C29E33;stop-opacity:0.5294"/>
		</radialGradient>
		<path id="path4390" inkscape:connector-curvature="0" class="st17" d="M665.7,428.5c5.8-25,9.2-50.6,8.6-76.3
			c-0.4-3.8,0.2-9.6-1.3-12.2c-1.2,0.7-3.4,0.5-1.1-0.5c-3,0.2-4.1,7.1-6.5,2.4c-1.5-3.8-7.1-3.6-7,1c-0.2,3.5,1.8,6.7-0.7,9.9
			c-2,3.9,1.6,6.3,3.5,9c1.6,4.4-6.4,6.3-2.6,10.8c2.5,3.8,7.9,3.8,10.5,7.6c1.8,3.4-1,7-0.6,10.5c0.7,5.7-2.7,11.1-1.5,16.8
			c-0.3,4.9-6.5,4-9.3,6.6c-3,2.6-4,8.2-1.1,11.1C659.5,426.8,662.9,426.4,665.7,428.5L665.7,428.5z"/>
		
			<radialGradient id="path6029_1_" cx="3628.0947" cy="782.2751" r="207.656" gradientTransform="matrix(-0.1063 -0.1943 0.5449 -0.2965 593.7314 1156.5809)" gradientUnits="userSpaceOnUse">
			<stop  offset="0" style="stop-color:#E2C05B"/>
			<stop  offset="1" style="stop-color:#E4C873;stop-opacity:0.6531"/>
		</radialGradient>
		<path id="path6029" inkscape:connector-curvature="0" sodipodi:nodetypes="csssssssssssssssssssssc" class="st18" d="M609.4,169.5
			c-6-0.8-4.1,6.7-12,10.6c-7.3,3.7-10.9,7.6-18.6,11.4c-7.6,3.8-13.9,10.5-21.4,14.2c-6.7,3.3-11.9,7.3-17.1,10
			c-7.2,3.6-10.5,3.4-15.7,8.5c-4.3,4.3-14.8,7.6-18.6,8.5c-3.5,0.9-8.2,10.4-10,12.8c-3.7,4.9-6.1,7.9-8.6,12.8
			c-2.6,5.3-6.3,8.2-8.6,12.8c-2.9,5.9-8.2,9,1.4,11.4c6.2,1.6,15,0,21.4,0c4.3,0,11.4-7.1,17.1-8.5c4.6-1.1,10.5-4.4,15.7-5.7
			c6.5-1.6,13.4-1.6,18.6-2.8c6.2-1.6,15,0,21.4,0c7.1,0,14.3,0,21.4,0c6.5,0,11,2.8,18.6,2.8c7.1,0,14.3,0,21.4,0
			c5.2,0,14.5,10.5,16.6,14.8c3,6,4.9,10.5,8.6,14.2c3.7,3.7,9.1,11.1,8.6,7.4C662.4,253.5,632,197.5,609.4,169.5L609.4,169.5z"/>
		
			<radialGradient id="path4393_1_" cx="3164.4353" cy="-9656.8623" r="207.656" gradientTransform="matrix(0.3977 -9.312138e-02 1.165638e-02 4.952371e-02 -705.8508 1067.2335)" gradientUnits="userSpaceOnUse">
			<stop  offset="0" style="stop-color:#CC9223;stop-opacity:0.7765"/>
			<stop  offset="1" style="stop-color:#C29E33;stop-opacity:0.5294"/>
		</radialGradient>
		<path id="path4393" inkscape:connector-curvature="0" class="st19" d="M481.4,302.4c7.2,0.4,15-1.4,21.7,2.3
			c5,1.6,5.9,7.7,10.8,9.4c2.7,1.8,6.9,7.2,0.7,6.9c-5.1,1.2-7.2-4.2-9.8-7.4c-4.9-3.9-10.8,1.1-16.3,0.2
			c-4.5-0.4-10.4,0.8-13.3-3.5c-2.9-4.2,0.8-10.5-4-13.6c-7.8-4.1-16.9-2.1-25.4-2.1c-4.4,0.5-9.9,0-13.3,3.4
			c-2.7,4.4-6.8,7.4-11.8,8.8c-6.5,2.6-10.3,8.9-16.2,12.5c-3.2,3.2-5.6,6.7-10.2,7.6c-1.8,2.2-0.5,9.4-5,5.3
			c-4.7-2.5-6.5-7.6-5.9-12.7c0.2-7.1,8.9,2.1,10.7-2.8c1.7-4-0.1-9.1,2.7-12.6c4.1-3.3,8.1,2,11.3,2.9c2.2-5.7,6.8-10.1,8.9-16
			c3.2-3.6,8.6-1.6,12.8-2.1c4.2-4.6,11.9-5.7,15.6,0.3c3.9,2.2,8.9,2,13,0.7c3.1-3.8,9.9-9.5,13.5-3.2c-1,4.6-0.9,9.3,4.3,11.5
			C478,299.8,479.7,301.1,481.4,302.4L481.4,302.4z"/>
		
			<radialGradient id="path4395_1_" cx="3917.6616" cy="-5492.9517" r="207.656" gradientTransform="matrix(0.1538 -6.046933e-02 4.125068e-02 0.1043 254.5327 1048.6891)" gradientUnits="userSpaceOnUse">
			<stop  offset="0" style="stop-color:#CC9223;stop-opacity:0.7765"/>
			<stop  offset="1" style="stop-color:#C29E33;stop-opacity:0.5294"/>
		</radialGradient>
		<path id="path4395" inkscape:connector-curvature="0" class="st20" d="M636.4,226.2c1.1,1.1,2.4,6,4.3,7.8c3,3,2.9,3.5,0.7,5.7
			c-2,2-7.8,0.4-9.3,0c-4-1-5-3.5-5,5.7c0,2.1-4,4.7-5,5.7c-1.5,1.5-4-6.9-4.3-7.8c-1.2-4.6,1.1-5.7,5-5.7c5,0,6.4,1,6.4-4.3
			C629.3,228,631,227.3,636.4,226.2L636.4,226.2z"/>
		
			<radialGradient id="path4397_1_" cx="264.7168" cy="-3138.3997" r="207.656" gradientTransform="matrix(0.105 1.447768e-02 -1.036425e-02 7.226114e-02 436.2996 708.2426)" gradientUnits="userSpaceOnUse">
			<stop  offset="0" style="stop-color:#CC9223;stop-opacity:0.7765"/>
			<stop  offset="1" style="stop-color:#C29E33;stop-opacity:0.5294"/>
		</radialGradient>
		<path id="path4397" inkscape:connector-curvature="0" class="st21" d="M485.1,463.6c0-3.7-1.4,9.4,2,11c3.8,1.9,3.1,7.4,3.1,12
			c0,5.5,2.9,7,7.2,8c6,1.5,7.9-2.7,10.2-5c3.9-3.8-5.1-9-7.2-10c-4.4-2.2-6.3-3.3-8.2-7C489.9,468.1,490.5,466.8,485.1,463.6
			L485.1,463.6z"/>
		
			<radialGradient id="path4399_1_" cx="385.912" cy="-927.9067" r="207.656" gradientTransform="matrix(0.1613 3.053710e-02 -2.748589e-02 0.145 255.0043 537.7748)" gradientUnits="userSpaceOnUse">
			<stop  offset="0" style="stop-color:#CC9223;stop-opacity:0.7765"/>
			<stop  offset="1" style="stop-color:#C29E33;stop-opacity:0.5294"/>
		</radialGradient>
		<path id="path4399" inkscape:connector-curvature="0" class="st22" d="M347.2,402.2c-2.2-4.4,6.2-7.8,8.4-12.2
			c3.2-6.4-4.2-6.2-6.6-5.6c-3.9,1-6,3-9.4,4.7c-2.1,1-5.9,4.3-8.4,5.6c-4.3,2.1-0.9,8.6,0,10.3c2.5,5.1-1.5,0.5,0,6.6
			c0.1,0.5,8,4.8,9.4,7.5c3,6-2.2,7.3,3.8,10.3c3.8,1.9,5.4-3.8,10.3-3.8c3.6,0,5.7,4.5,10.3,5.6c5.7,1.4,8.1-2.5,10.3-4.7
			c3.8-3.8,0.3-6.8-0.9-9.4c-0.5-0.9-8.9-4.9-10.3-5.6c-1.1-0.6-4.7,5.9-7.5,6.6c-1.2,0.3-4.4-8.7-4.7-9.4
			C351,407.1,347.8,403.2,347.2,402.2z"/>
		
			<radialGradient id="path4401_1_" cx="1600.6498" cy="-1356.7024" r="207.656" gradientTransform="matrix(0.1711 -8.898077e-03 8.027020e-03 0.1535 144.5042 668.2125)" gradientUnits="userSpaceOnUse">
			<stop  offset="0" style="stop-color:#CC9223;stop-opacity:0.7765"/>
			<stop  offset="1" style="stop-color:#C29E33;stop-opacity:0.5294"/>
		</radialGradient>
		<path id="path4401" inkscape:connector-curvature="0" class="st23" d="M398.1,429.2c-0.8-7.2-15-14.5-12-2.2
			c-0.5,9.1-15.8,2.4-13.3,13.5c0.9,12.9,15.2,10,24,12c10.4,2.3,11.1,13.8,15.6,21.2c8.7,4,14.9-8.5,21.1-13.3
			c8.2-2.9,10.2-18.4-1.6-12.7c-8.7,3.4-15.7-5.7-5.5-9.7c-1.8-4.6-11.3-0.5-14.1-7C408.3,427,402.9,430.3,398.1,429.2L398.1,429.2z
			"/>
		
			<radialGradient id="path4403_1_" cx="-127.9277" cy="-2444.2163" r="207.656" gradientTransform="matrix(0.2992 -5.570325e-02 2.367693e-02 0.1265 618.8523 569.257)" gradientUnits="userSpaceOnUse">
			<stop  offset="0" style="stop-color:#F7EED4"/>
			<stop  offset="1" style="stop-color:#F8F1DC;stop-opacity:0"/>
		</radialGradient>
		<path id="path4403" inkscape:connector-curvature="0" class="st24" d="M529.3,250.4c-0.5-8.3,15.4-11.4,19.7-4.2
			c2.3,9.3,7.9,17.5,9.6,26.6c2.3,11.4-13.1,6.7-16.4,0.4c-5.1-5.8-12-6.8-17.7-1.8c-5.4-1.1-14.7,3.7-10.1,8.6
			c8.5-0.5,16.4,4.4,17.7,13.1c-0.5,6.9-13.7,10.1-18.6,4.1c-9.7-1.5-2.9-15.6-12.7-18.2c-5.9-5.8-0.3-14.2,7.5-12.5
			c5.9-5.2,16.8-2.3,19-11.4C527.8,253.4,528.4,251.8,529.3,250.4L529.3,250.4z"/>
		
			<radialGradient id="path4405_1_" cx="-1992.7474" cy="866.1132" r="207.656" gradientTransform="matrix(0.1542 1.538883e-02 -5.388742e-02 0.537 808.0585 -40.4539)" gradientUnits="userSpaceOnUse">
			<stop  offset="0" style="stop-color:#F7EED4"/>
			<stop  offset="1" style="stop-color:#F8F1DC;stop-opacity:0"/>
		</radialGradient>
		<path id="path4405" inkscape:connector-curvature="0" class="st25" d="M447.9,335.2c-3.9-3.8-13.1-7.9-15,0.7
			c-0.7,5.7,10.8,0.6,7.7,8.5c-0.9,6.7,0.3,13.1,8.3,10.1c4.9,6.6-0.8,17.1,8.3,21.3c0.2,8.7,6.9,12.4,12.7,17.6
			c7,4.5,1.4,18.2-7,15.8c-5.9-2.5-18.2-0.4-17.9-8.8c0-5.3,1.5-18.2-6.6-15.8c-8,7.3,4.6,16-1.4,23.2c-6,7,6.6,13.5,5.4,21.2
			c-4.2,6.4,0.5,12.7,7.8,9.7c6.1-0.3,7.1-8.7,10.3-9.7c7.9,6.4,3.6-12.4,12.7-11.2c6.5-3.7,1.5-14.9,9.7-18.7
			c4.9-5.7,4.2-15.9-2.7-19.7c-6.5-3.3-7.4-12.6-14.7-13.3c-9.7-2.1-7.3-15.6-16.3-18.8C445,343.5,452,339.1,447.9,335.2
			L447.9,335.2z"/>
		
			<radialGradient id="path4407_1_" cx="-11571.3359" cy="1549.7574" r="207.656" gradientTransform="matrix(3.094837e-02 3.306000e-02 -0.152 0.1415 1111.3745 509.2766)" gradientUnits="userSpaceOnUse">
			<stop  offset="0" style="stop-color:#F7EED4"/>
			<stop  offset="1" style="stop-color:#F8F1DC;stop-opacity:0"/>
		</radialGradient>
		<path id="path4407" inkscape:connector-curvature="0" class="st26" d="M538.6,325.9c-8.3-1.5-16.7,2.7-19.4,10.9
			c-2.7,7.4-12.8,9.2-13.8,17.5c-3.5,6.8,8.1,17.6,11.7,9.1c0.8-7.2,2.2-14.7,7.2-20.4c5.3-4.6,17.1,0.9,19.1-7.9
			C544.1,330.8,543.8,327,538.6,325.9z"/>
		
			<radialGradient id="path5904_1_" cx="584.3657" cy="1977.8954" r="207.656" gradientTransform="matrix(-1.174024e-02 0.1242 -0.9348 -8.789454e-02 2199.3833 653.6926)" gradientUnits="userSpaceOnUse">
			<stop  offset="0" style="stop-color:#E2C05B"/>
			<stop  offset="1" style="stop-color:#E4C873;stop-opacity:0.6531"/>
		</radialGradient>
		<path id="path5904" inkscape:connector-curvature="0" class="st27" d="M250,518.3c16.2,7.8,32.3,16.9,50.1,20.7
			c7.9,1.2,16,2.5,23.4,5.5c8.4,1,16.7,2.6,24.7,5.4c14.8,2.7,30,0.5,44.9,1.2c20.3,0.2,40.6,0.5,60.8-1.6c5.3,0.9,16.1-3.5,18.6,0
			c-11.7,4-24.3,5.1-36.5,6.6c-10,0.1-19.9,1.9-29.8,1.5c-9.2,1-18.3,3-27.6,2.1c-20.4-0.1-41.6,2.2-61-5.5
			c-6.6-4.8-13.5-9.1-21.2-12c-9.4-4.4-19.8-6-29.3-10.1c-10.3-0.9-14.3-15.4-25.8-12.3"/>
		
			<radialGradient id="path6010_1_" cx="-2906.1116" cy="601.6843" r="207.656" gradientTransform="matrix(0.1265 5.555968e-02 -9.438445e-02 0.2137 1012.079 452.1586)" gradientUnits="userSpaceOnUse">
			<stop  offset="0" style="stop-color:#E2C05B"/>
			<stop  offset="1" style="stop-color:#E4C873;stop-opacity:0.6531"/>
		</radialGradient>
		<path id="path6010" inkscape:connector-curvature="0" sodipodi:nodetypes="cssssssssssss" class="st28" d="M580,394.3
			c6.2-1.5,9.9-4,11.4-10c1.8-7.2,9.6-4.5,12.9-2.8c5.9,2.9,5.6,9.1,4.3,14.2c-1.9,7.5-3.9,8.9,1.4,14.2c4.1,4.1,5.7,11,5.7,17.1
			c0,4.7-6.9,9.4-8.6,12.8c-3.2,6.5-5.3,8.5-14.3,8.5c-5.2,0-10-5.7-12.9-8.5c-3.9-3.9-10.3-5.1-14.3-7.1c-7.5-3.7-9.5-1.8-12.9-8.5
			c-1.9-3.8,5.2-8.9,7.1-12.8C563.1,405.2,573.8,395.9,580,394.3L580,394.3z"/>
		
			<radialGradient id="path6014_1_" cx="3569.8186" cy="-2624.6001" r="207.656" gradientTransform="matrix(0.3495 -0.1982 7.381132e-02 0.1295 -472.3787 1333.1589)" gradientUnits="userSpaceOnUse">
			<stop  offset="0" style="stop-color:#DAA02F;stop-opacity:0.4471"/>
			<stop  offset="1" style="stop-color:#BC9624;stop-opacity:0.2959"/>
		</radialGradient>
		<path id="path6014" inkscape:connector-curvature="0" class="st29" d="M621.4,231.9c-10.5,6.7-14.4,19-21.4,28.6
			c-2.2,6.7-8.7,10.8-15.8,9.8c-8.1-0.6-14.2,5.5-21.2,8.6c-5.3,5.7-9.8,11.9-18.7,11.8c-6.8,0.2-11.3,5.3-16.4,9
			c-6.8,1.5-16.1,5.3-11.4,14.2c6.1,0.6,13-2.9,17.9-6.9c7.2-6.8,17.3-8.6,26.8-8.4c7.2-0.3,11.5-10,19-6.8
			c5.9,3.3,15.7,9,11.9,17.1c-3,4.3-9.2,16.3,1.4,12.6c8.2-1.6,9.1-11.2,9.1-18c1.4-6.9,3.1-14.1,0.1-20.9c-2.6-8.4,4.1-15.5,8-22.3
			c3.8-5.9,8.8-11,13.4-16.3C627.3,240,623.3,235.5,621.4,231.9L621.4,231.9z"/>
	</g>
	
		<radialGradient id="path7041_1_" cx="491.4684" cy="-51.0955" r="304.3056" gradientTransform="matrix(1.007 0 0 1.002 -127.0586 408.4976)" gradientUnits="userSpaceOnUse">
		<stop  offset="0" style="stop-color:#FFFFFF;stop-opacity:0.4639"/>
		<stop  offset="0.5" style="stop-color:#91918F;stop-opacity:0"/>
		<stop  offset="0.6897" style="stop-color:#5A5A57;stop-opacity:0.1959"/>
		<stop  offset="0.8654" style="stop-color:#3F3E3B;stop-opacity:0.4536"/>
		<stop  offset="1" style="stop-color:#171715;stop-opacity:0.7423"/>
	</radialGradient>
	
		<path id="path7041" sodipodi:cx="365.71429" sodipodi:cy="359.50504" sodipodi:rx="304.28571" sodipodi:ry="304.28571" sodipodi:type="arc" class="st30" d="
		M674.3,357.3c0,168.4-137.2,304.9-306.4,304.9S61.4,525.7,61.4,357.3S198.6,52.4,367.9,52.4C537.1,52.4,674.3,188.9,674.3,357.3z"
		/>
</g>
<path class="st31" d="M604,305.4C605,469.9,472.4,604,307.9,605S9.2,473.4,8.2,308.9c0-1.2,0-2.3,0-3.5
	C7.3,140.9,139.8,6.7,304.4,5.7S603,137.4,604,301.9C604,303,604,304.2,604,305.4z"/>
<linearGradient id="SVGID_1_" gradientUnits="userSpaceOnUse" x1="354.6627" y1="39.975" x2="257.0862" y2="504.1798" gradientTransform="matrix(1 0 0 -1 0 612)">
	<stop  offset="0" style="stop-color:#9F673A"/>
	<stop  offset="1" style="stop-color:#9F673A;stop-opacity:0.3674"/>
</linearGradient>
<path class="st32" d="M597.3,368.7C533.2,646.3,169.1,687,41.5,441.1c15.3-1.9,35,19.9,42.1-3.8c13.6-5.4,20.3,38.5,31.3,9.2
	c14-11.6,20.8-27.4,26.4-44.3c23.9-4,57.6,4.4,66.5-26.6c22.1-15.1,21.8-45.5,25.2-69.6c1.2-26.2,2.6-56.5,20.8-76.4
	c19.1-9.4,47.1-43.6,19-58c-22.8-16.5-52.4-6.6-77.4-17.3c-28.5-8.4-64.9-13.3-88.1,9.9c-13,12-15.5-6.3-5.1-29.7
	c14.4-19,19.8-65.7,52.4-53.1c25.2-7.1,54.4-6.8,79.1-6.8c2.9,29.8,51.2,22.6,47.9-7c7.9-20.2,39,4.7,56.8,0
	c31,6.8,41.8-35.2,65.6-37.4C426,43,452.5,50,470.9,68.1c18.1,8.1,19.3,31.9-4.4,31c-32.5,11.5,19.6,52.4,33.6,27
	c10.4-11.9,22-22.6,31.7-3.8c22.1,18.2,17.7,49.9,16.9,75.4c-7.4,30-6,62.4,8.8,90c14.1,21.2,20.7,43.8,20.9,69
	C586,360.7,596.8,356.4,597.3,368.7L597.3,368.7z"/>
<path class="st33" d="M314.2,228.5h-9.8c-14.5,4.1-33.2,6.4-41.7,20.7c-3.4,16.7-24.9,21.7-20.5,40.7c3.8,6.8,7.6,11.6-1.1,16.9
	c-6.2,13.9-9.4,29.1-8.9,44.5c1.3,13.9,12.4,24.5,17.6,37.1c6.7,13.3,11,29.4,23.4,38.6c16.3,4.2,28.1-10.3,44-9
	c9-8.7,39.5-13.8,54-18.1c16.1,5.3,36.5,4.5,48-9.6c19.1-7,151.1-60.2,166.5-56.3c18.3,0.4-5.5-36.4-7.3-49.4
	c-7.5-12.1,0.8,20.3-4.9,2.9c-1.5-17.7-7,18.1-7.4-0.2c3.9-17.1-7.1-30.6-12-46c-1-8.5,6.7-32.5-1.8-34.4
	c-4.9,3.6-5.1,26.6-8.8,12.1c-6.2-10.4,40.6-90.9-34.3-103.9c-34.2,37-3.9,28.3-13.6,54.6c-4.9,13.2-14.2,3.8-21.8,6.5
	c10.9,4.9-1.7,55.7,0.2,60.6c17.3,5.8,13.4,23.3,19.5,37c8.9,2.2,9.7,6.8,0.7,10c2,8.6-10.1,7.1-6.2,16.8c-9,5.5-2.6-18-8.2-23.3
	c-4.3-10.9-7.5,10.7-2.2,14c7.5,15.5-18.3,7.7-12,21c10.7,10.4-8.9,20.9-13.8,7c-4.8-12.1-12.2-1.3-13,5c-5-8.1-28-17.2-18.6,0.4
	c4.2,9.7-13.4,10.5-6.8-1c-10.7-9.1-7.5,0.4-6,7.3c-10.6-3.3-19.1-23.7-29.4-18.5c5.4,18.8-19.8,24.4-29.2,11
	c-9.5-6.3-18.2-20.2-4.1-26.8c6.2-10.8,7.6-24.5,3.8-35.1c17.6-7.5-12.4-10.4-4.8-23.4c0.7-9.4-11.9-7.3-13.3-15.5
	C323,220.4,320.3,229.6,314.2,228.5L314.2,228.5z M483.5,265.5c0-3.5,3.6,6.2,4.4,9.6c0.5,2,1.5,3.9,1.5,5.9c0,2.6-4.1-3.3-5.9-5.2
	C480.9,273.2,480.6,270.3,483.5,265.5z M303.9,476.9c-4.3,3.3-11.3,2-14.4,6.6c1.7,7.7-9.3,5.8-9.2,13.1c-2,5.9,1.8,14.7-6,15.5
	c-5.9,3.4-17.2,1.6-21.5-3.3c-4.7-3.1-11.2-3-14.8,1.8c-5.9,3.1-12.3-1.7-17.5-4.4c-3.7-3.3-7.6-6.4-11.6-9.5
	c-4.6-5.7-12.6-5.9-18.9-8.7c-7.5-1-7.7-9.9-10.9-15.1c-3.3-6.2-6.2-12.5-9.7-18.6c-4-6.4-1.4-16,5.8-18.8c4.8-3,11.2-5.9,16.5-2.4
	c5.8,2.5,100.2,38.9,106.9,41.6C300.4,475.5,302.1,476.2,303.9,476.9L303.9,476.9z M139.8,58.5C155.1,48,171.9,38.7,191,30.8
	c2.6,3.6,13.3-1.1,18.1-1.2c6.8-4.1,14.3-5.6,22.1-5.3c8.6,0.8-4.6,3.6-7.2,3.7c-7.5,1-15.2,4.3-20.6,9.6c-0.8,9.1,10,3.1,14.5,1.9
	c4.2-1.4,13.4-4.1,9.6,4c-3.7,8.2-14.6,8.3-21.8,11.7c-11.1,3.7-22.2,7.9-32.1,14.1c-6.9,5.8,1.4,9.4,7.1,7.6
	c9.5-0.9,19-0.6,28.5-0.9c5.8-1.3,15.4-11.3,19.4-2.8c-3.6,9.5,8.9,0.8,9.9,5.1c-3.6,6-3.6,13.3,4.2,15.6c6.4,3.7,13.7,5.3,21.1,4.4
	c10.7-0.1-1,10.4,2.2,15.3c3.3,3,11.6,8.9,3.4,11.7c-6.7,2.2-16-1.4-20.3,5.9c5.3,7-7.5,7.1-11.9,9.2c-8.5,2.3-16.5-2.6-23-7.6
	c-8.9-4.7-19.3-5.4-29.2-4.9c-8.3,0.1-16.4,2.6-24.7,2.2c-8.6,1.2-17.5,2.5-24.8,7.4c-8,2.6-15.1,8.6-24,7.4
	c-6.2-2.2,2.3-12.4,3.8-16.6c3.3-8.1,9.4-14.6,12.6-22.6c1.7-6.6,8.9-9.7,12-15.6c1.7-6.8,5.2-13.2,6-20.2
	C146.4,66,142.5,61.1,139.8,58.5L139.8,58.5z M210,95.5c2.5,1.5,2.6,4.9,4.7,6.9c1.8,1.4,1.7,3.7-0.9,3.3
	c-5.6,0.8-11.6,0.8-16.8,3.5c-4,1.8-8.2,3.6-12.5,4.4c-5.7,1.5-11.6,2.5-17.5,1.6c-2.1,0.7-6.2-0.8-4.1-3.4c2.4-3.7,7-5.1,11.2-5.1
	c3.8-0.1,7.7,0,11.2-1.6c3.3-0.9,7-0.9,9.9-3C199.8,99.3,204.6,96.5,210,95.5L210,95.5z M357.1,11.9c41.5,7.5,77.6,21.4,116.5,47
	c-3.9-3.5-13.5,7.2-5.4,8.2c6.3,1.5,11.6,5.3,17.6,7.6c5.9,0.9,6.4,10-0.8,8.1c-6.9,1.6-3.6,9.9-2.6,13.5
	c-4.4,4.7-10.7-3.8-15.9,0.1c-4.8,2.1-12.4,1.8-12.1,9c0,4.8-1.5,9.6-7.2,7.4c-6.3-0.6-12.9-2.9-17.8-7.2
	c-4.4-4.2-8.7-8.8-14.1-11.3c-4.1-3.7-7.9-8-13.5-9.5c-5.7-3.4-12.6-4.4-17.7-8.8c-4.3-2.3-13.4-8.5-5.8-12.6c6-2.1,13.6-9,5.2-13.9
	c-2.6-5.3,10.6-3.1,9.2-7.3c-4.8-3.8-12-4.9-14.1-11.6c-3.5-5.8-9.7-9.4-16-11.6C360.5,17.3,357.4,14.8,357.1,11.9L357.1,11.9z"/>
<path class="st34" d="M519,290.6c-12.3-2.2-18.8,15.6-8.9,23.4c-5.7,8.7-7.6-17.1-11.1-1.2c8.4,6,4.8,13.8-2.2,5.1
	c-12.7-1.9-2.3,24.1-19.4,19.2c5.8,9.4,9.9,23.4-7.6,19.7c-15.3,1.9-10.5-19.9-23.3-20.3c-8.7-11.1-19.4,5.1-28.4,5.7
	c1.3,9.7-8.6,8.3-0.2,17.1c-17.5,1.4,8.9,32.2-12.9,29.6c-11.4,18-21.1-11.3-7.1-17.7c-8.5-9.8-31.6,3.3-42.2-9.3
	c-8.5-7.1-31.9-24-14-30.9c2.3-18.1-16.8-23.6-23.7-35.5c4.4-12.3-0.6-14.6-11.3-10.1c-15.9,3.3-31.4,5.2-48.1,5.4
	c-13.4,0.4-15.7,13.1-13.6,18.2c-14.6,5.5,0,23.6-12.2,30.7c6.1,20.7-20,25.8-21,43.4c-6,7.4-7.7,16.6-10,1.4
	c-1.4-14.9-5.8,11.9-9.4,15.1c-11.3,0.5-19.2,21.1-32.3,7.4c-9.4-7.6-22.8-8-32.6-13.4c0.7,9.8,12.8,15.6,0.3,22.5
	c-6.7,23.1,22.5,11.8,33.2,19.6c10.6-8.9,31.3-0.1,34.6,12.4c-0.5,13.7,14.5,21.3,21.7,8.7c2.2,8.3,8.4,10.2,10.8,2.8
	c11.8,13.7,30.6,6.7,46,10.5c10.2,8.4,38.7-2,37.5,14.1c-8.3,6.2-8,17.4-21.8,14.2c-5.8,11.1,18.4,10.4,25.1,6.3
	c7.6,3.3-18.3,5.7-1.9,10.4c8.6,19.7,17.9-16.4,9.4-24.1c-1.2-17.4,29.7-9.3,42.2-14.4c13.1-2.8,30.3-1.8,39.7,6.2
	c-3.8,12,3.6,27.1,17,15.7c15.3-5,15.5-23.4,32.5-26.8c14.7-5.1,22.8-19.5,32.6-29.9c11.7-12,13-28.5,19.1-43.4
	c13.3-12.5,11.8,24.2,25.7,5.3c4-13-2.6-27.8,0.2-40.7c-7.5-7.4,5.3-26.7,6.9-8.2c-0.8,7.9-0.3,42.6,9.6,23.6
	c1.3-15.9,4-31.9,9.8-47c4.3-7.2,3.4-40.1-4.1-18c-0.5-1.4,1.2-22.6-6.3-15.8c2.2,7.8,1.4,26.7-4.7,9.6c-4.5-13.3-7-0.6-4.5,6.3
	c-7.5,0.2-3.4-19.2-13.5-10.5c6.5,3.4,10,14.2,0.6,6.5c-9.6-9.2,10.1-19-1.9-28.9c-2.3-18.6-4,7,0.8,12.4
	C521.9,296.2,519.6,292.9,519,290.6L519,290.6z M333.5,391.1c-12.2,3.3-11.8,38.3-26.8,21.1c-11.7-2.7-19.3,24.2-33.8,11.4
	c-4.2-7,0.5-16.2-8.6-20.3c1.5-12.1-15.8-17.1-5-29c-5.6-11.5-30.9-18.2-19-34.1c10.2-9.9-6.3-24.7,8.6-34.3
	c1.4-14.6,26-14.6,37.6-10.3c10.8-5.1,35.2-13.4,25.1,8c-10.9,13.2-4.8,30.6,13.9,23.1c7.6,1.1,7.3,12.9-0.7,4.4
	c-12,2.5,14.4,12.9,0.1,17.1c-20.2-2,11.9,20.1-8.9,17.6c-11.4,11.5,18.3,32.5,12,12.6c6.7-5.2,5.7-7.5,2.7-13.2
	c7.5-0.5,5.6-14.4,9.5-1.1c6.6,3.6,10.2,7.8,17.2,6.5c3.3,13,7.4,1.6,12.4,1.1c7.9,4.1,24.3-2.2,18.7,13
	c11.1,18.2-32.9,21.4-14.3,4.3c-7.2-11.9-17.6,19.5-18.9-0.8c-7.2-5.2-20.6,2.6-20.5-7.4C334,384.4,336.2,387.8,333.5,391.1
	L333.5,391.1z M293.5,249.2c-2-2,4.5-6.1-3.7-8.1c-2.8-0.7-4.9,0.8-8.1,0c-4.9-1.2-5.9-2.6-9.6-0.7c-3,1.5,6.5,5.1,6.7,5.2
	c4.8,1.2-0.1,3.9-2.2,4.4c-2.6,0.6-5.5,2.8-7.4,3.7c-2.7,1.4,7.6,1.6,8.1,1.5c3.1-0.8,5.3-2.6,7.4-3.7
	C286.8,250.4,290.5,250.4,293.5,249.2L293.5,249.2z M93.2,334.6c10.3,1.6,21.9-11.4,16.7-19.8c-3.9-7.7-14.2-0.3-15.2,5
	c-7.6-1.8,5.4-15.8,11.6-12.1c11.4,2.1,11.4,17.7,2.5,23.1C104.7,334.4,98.7,336.4,93.2,334.6L93.2,334.6z M60.3,364.1
	c-3.8-13.6,21.3-17,20.1-2.3c0.8,6.4-5.5,15.3-13,12.4c14.7-2.1,5.1-27-3.9-13.2L60.3,364.1L60.3,364.1z M54,401.5
	c-0.6-3.9-1-5.9-6.7-5.9c-3.1,0,0.1,7.5,0.7,8.1C50.9,406.5,53.2,405.5,54,401.5L54,401.5z M45.2,222.6c3.7,15.5,0.7,43.4-13.4,46
	c-16.4,2.4-19.4-25.9-5.9-31.6c18.2-1.8-8.7,25.7,8.3,23.1c10-4.9,8.6-22,10.2-31.3C44.5,226.7,44.8,224.6,45.2,222.6L45.2,222.6z"
	/>
<radialGradient id="SVGID_2_" cx="-259.3149" cy="791.7777" r="214.7324" gradientTransform="matrix(0.3072 5.032100e-02 6.350900e-02 -0.3877 590.647 700.6857)" gradientUnits="userSpaceOnUse">
	<stop  offset="0" style="stop-color:#5F4433"/>
	<stop  offset="1" style="stop-color:#5F4433;stop-opacity:0"/>
</radialGradient>
<path class="st35" d="M562.2,324.6c3.8,2.1,5.7,6.8,9.5,8.3c4.5-0.3,9.2-0.6,12.9,2.4c3.7,2.6,2.1,7.5,2.4,11.3
	c-0.3,4.6,1.1,9.8-2,13.7c-2,4.5-4.4,9.3-3.2,14.3c1.6,3.2,4.4,6.2,4.2,10c0.3,4.5-3.6,7.7-5.3,11.5c-3.6,3.1-7.1,6.6-9.2,10.9
	c-2.1,3.9-9.1,3.7-9.3,8.8c-1.2,3.9,0.4,7.7,0.5,11.6c-1.6,4.9-6.6,0-9.6-0.7c-3.7,0.4-8.8,0.7-11,4.1c-4,4.8-7.5-1.9-10.9-3.9
	c-2.4-3.2,2.3-7.9-2.5-10.4c-2.2-3.7,0.1-7.7,0.9-11.5c3-3.2,1.4-8.2,2.3-12.2c0.1-6.4,0.2-12.8-0.1-19.2c-1.9-3.9-0.3-8.2-1.6-12.2
	c-0.9-3.8-2-7.8-0.9-11.7c2-1.4,6.5-2.6,8.5-1.6c0.9,7.4,0.7,14.8,0.8,22.2c0.6,3.4-0.2,8.9,3.8,10.2c4.9,1.7,5.6-4.6,6.1-8
	c0.8-4.7,1.4-9.4,1.1-14.2c-0.5-4.5,2-8.4,2.2-12.8c0.1-4.5,2.7-7.9,4.7-11.7c2.4-2.6-0.7-8.8,4.3-8.7
	C561.3,325.1,561.8,324.8,562.2,324.6L562.2,324.6z"/>
<radialGradient id="SVGID_3_" cx="634.5878" cy="301.1945" r="114.4653" gradientTransform="matrix(1.9105 -1.0389 -0.8791 -1.6166 -563.4489 1317.2019)" gradientUnits="userSpaceOnUse">
	<stop  offset="0" style="stop-color:#4C362C"/>
	<stop  offset="1" style="stop-color:#93654C;stop-opacity:0.5102"/>
</radialGradient>
<path class="st36" d="M346,43c-18.6,2.8-37.4,4-56.2,3.7c-7.7-3.6-22.8,1.7-12.5,10.6c4.6,8.6,17.7,19.6,9.7,28
	c11.6,7.2,21.7,16.8,36.2,18.1c5.6-3.7,19.9,1.9,9.2,7c-11.4,6.6-20-9.3-31.3-1.1c-8.8,2.3-19-8.7-22.7,0.5c-17-3.6-3.4,15.1,5.8,15
	c10.9,8.3,25.6,4.4,36.5,12.5c7.8,9.6,14.2,20.3,25.4,26.8c1,4.8-12.1,2.5-5.9,11.2c5.1,12.7-20.2-9.6-18.4,3.4
	c8.1,4,28.9,9.2,17.3,20.8c-6.1,4.8-13,27.5-0.1,25.9c3.6-8.8,8.3-16.9,14.8-12.7c1.9-5.5,1.5-18.3,5.2-5.6
	c4.7,10.2,5.4,26-5.4,32.4c-9,7.8,7.2,27.5,17.7,19.2c12.3-0.7,11.3-17.3,18-21.1c3.1,11.3-13.9,29.2,5.6,32.2
	c3.4,6.2,10.8,6.8,14.6,7.7c2.4,10.7,7.2,30.4,21,17c7.1-4.2,11.6-9.8,20.4-6.7c9.4-3.9,6.6-22.2,20.6-17.6
	c8.3,8.8-4.1-23.9,10.2-14.6c11,5.9,2.4-4.8-2.5-7.2c3.9-3.1,10.8-5.7,3-11.1c-9.8-2.4-13.2-9.1-6.5-17.2c1.8-9-1.4-18.8,3.5-27.1
	c4.2-9-1.9-13.8-8.3-18.1c5.7-8.2,20.3,2.2,27.3-6.8c-4.6-4.3-1-9.7-1.5-14.7c-13.2-3,2.4-21.5-13.3-23.9
	c-10.3-4.7-19.4-12.1-30.9-14.1c-11.4,0.7-21.1-4.2-28.1-13.3c-7.2-11.3-22.5-11.7-32.5-20.4c-10-6.3-26.2-12.8-24.4-26.8
	C360.6,50.6,353.8,45.7,346,43L346,43z"/>
<path class="st37" d="M340.1,14.1c5.7-1.7,10.6,2.3,16.2,2.5c8.1,1.6,15,7,20,13.4c4,3.1,8.6,10.7,1.5,12.6
	c-2.2,3.6-7.1,5.9-2.6,10.2c2.1,6.8-8.2,0.9-9.8,5.3c-3.7,5.9-10.1-5.4-14-0.3c1,1.5,7.6,5.9,2.5,7.2c-4.9,1-9.5-6.6-13.3-4.5
	c3.4,6.3-5.3,1.9-8.1,1.9c-1,6-7.8,0.4-11.1-0.9c-4.1-0.7-10.8-3.8-12.9,1.5c-3.9,4.6-10.4,2.4-12.6-2.6c-3.5-1.2-6.3,7.8-8.9,2.9
	c1.8-5.7-3.3-9-8.4-8.5c-3.6-2.7-6-7.1-11.5-6.3c-5.5-0.8-11-3.1-16.6-2.2c-3.8-0.8-0.3-7.6-5.2-8.8c-6.3-4.3-1.3-11.4,4.5-12.6
	c3.5-0.5-0.4-6.5,4.8-6.4c6-1.9,11.8-5.4,18.4-4.8c7.6-0.4,15.1-2.6,22.8-2.2c8-0.2,16,0.5,24-0.6c6.3,0.7,13.1-0.4,18.8,2.7
	l0.7,0.2L340.1,14.1L340.1,14.1L340.1,14.1z M353,18.2c4.8,1.1,8.5,4.5,12.9,6.3c2.5,2.3,4.3,5.2,7.9,6.3c2.3,1,6.9,5.9,2.6,7.2
	c-4,1.1,2.4,2.8-0.8,4.3c-2.6,3.5-6.5,5.6-10.8,3.4c-4.1-0.3-8-1.3-11.8-2.8c-5.6-0.7-11.2-0.6-16.8-0.2c-4.4-0.2-8.8,0.4-13.2,1.1
	c-7.8,0-15.5,0-23.3,0.1c-3.6-0.6-7.1-1-10.8-0.5c-5-0.1-10-0.4-14.9-1c-4.3-0.1-5.9-4.9-5-8.5c2.4-5.9,8.2-9.8,13.9-12.2
	c4-1.7,8.1-2.5,12.4-2.9c4.2-0.9,8.6,0,12.6-1.9c3.5-1.5,7.2-1.9,10.8-2.6c6.5,0.1,13.1-0.4,19.5,0.8c3.9,0.9,7.5,2.5,11.3,3.5
	C351,19.2,351.7,19,353,18.2L353,18.2z"/>
<path class="st38" d="M275.8,24.1c-0.3,1.5-2.8,1.2-4,2.1c-2.3,1.5-0.1,3.8,1.9,3.7c0.9,0.2,3.4,0.4,3.1,1.1
	c-2.1,0.9-4.3,0.2-6.3-0.6c-2.2-0.5-3,1.9-2.8,3.6c-0.1,2.1,0,4.5,1.2,6.3c1.7,1.2,3.9,1.3,5.5,2.7c1.8,0.6,3.5,1.3,5.4,1.8
	c1.9,0.3,3.8,0,5.7-0.2c2-0.9,4-1.6,6-2.2c1.3-0.6,3.5-1.5,4.6-1.1c-1.6,1.3-4.1,1.1-5.4,3c-1.2,1.2-0.9,3.4,1.1,3
	c2.4-0.1,5.1,0.4,7.2-1.1c1-1-1.5-3.3-0.6-3.6c1.3,1,1.5,4.6,3.9,3.1c2.2-0.7,4.5-0.2,6.7-0.8c1.7-1.1,1.3-3.5,2.2-5.2
	c1.1-3.2,0.6-7.1-1.9-9.5c-3.6-3.6-8.7-4.9-13.6-5.9c-6.2-1-12.5-1.3-18.7-0.7C276.7,23.9,276.1,23.8,275.8,24.1L275.8,24.1z"/>
<path class="st39" d="M341.9,16c4.1,2.8,9.5,1.2,13.5,3.6c2.3,1.7-4.4,4.2,0.9,3.8c3.7-1.1,3.6,1.3,1.5,3.5c1.6,2.7,6.7,0.5,4.8,5.4
	c0.4,2.8,6.1,4.8,2.4,8.2c-3.2,0.3-9.1-3.9-9.4,1.8c-4.3,2.9-9.7,1.3-14.4,2.5c-5.4,0.8-10.6-1.4-16-0.5c-6.2,0.9-12.5,0.6-18.7-0.2
	c-0.8-3.2-1-6.7,1.7-8.3c1.4-3.7-2-3.9-2.9-0.8c-3.2,2.7-8,3.5-12,2.2c-4.9-1.3-9,2.2-13.6,2.8c-5.2-2.8,3.6-6.5,3-10.2
	c-0.5-4.8-12.2-0.9-8-6.6c4.3-1.3,7.9-4.2,12.3-5.3c5-0.1,9.2-2.1,14-3c5.4-0.4,10.8-0.4,16.2,0.2c5.9-0.2,11.8,0.4,17.7,0.3
	C337.2,15.5,339.6,15.9,341.9,16L341.9,16z M252.7,50.9c-3.3,1.2-9.2-0.4-10.8,2.8c3.7,0.8,10,4.5,12.6,0.8
	C254.1,53.4,254.3,51.1,252.7,50.9L252.7,50.9z M242.5,33c-5.7-1.2-1,5.8,2.4,4.5c3.1,5.2-5.8,4.8-8.9,5.9c-2.4,0.2-9.8,2.7-4.4,4.2
	c2.2-1.2,6.3-2.3,6.1-4.1c-0.4,2.9,4.9,2,0.3,3.8c1.4,2.4,9.9,1,8.2-3.8c1.9-1.7,10.9-0.5,4.9-3.3c-4.7,0-0.9-5.9-5.9-5.5
	C244.2,34.2,243.6,33.3,242.5,33L242.5,33z M247,25.2c0.4,2.9-4.6,5.1-6.8,4.5c2.8-2.4,6.9-5.5,1.3-7.1c-5.9-1.5,9-4.2,3.3-5.2
	c-4.5-2.4,7.5-2.2,2,0.5c4.7,0.1,8.5-3.4,13-4.2c4.3-1.1,8.8,0.6,12.8-1.7c4.7-0.1,9.3-2.3,13.8-0.2c4.9-0.9,9.8-1.4,14.9-1.1
	c6.3,0.3,12.8-0.8,18.8,1c2.2,1.3,8.7,2.5,2.8,2.1c-4.9-0.1-9.7-1.4-14.6-1.2c-5.4-0.2-10.7-0.6-16.1-0.6c-4.2,1.7-9,0.7-13.4,0.7
	c-2.3-0.6-7.2,1.4-2.1,2c6.8,0.5-5.2,2.7-4.8-0.6c-3.8-1.3-7.6,3.1-11.5,3.8C255.4,18.9,249.6,20.8,247,25.2c1.2,0.3,9-3.5,7.6-0.9
	C252.7,24.8,247.5,28.9,247,25.2L247,25.2z M330.5,11c4.2,0.4,9.9-1.2,13,2.2c-3.6,2.4-7.9-0.8-11.4-2l-0.6,0L330.5,11L330.5,11
	L330.5,11z"/>
<path class="st40" d="M342.7,32.2c-2-0.3-3,0.9-3.9,1.3c-0.8,0.4-1.5,0.8-2.4,1.3c-0.9,0.4-1.7,0.6-2.4,0.9
	c-0.9,0.3-1.1,0.4-1.1,1.7c0,1.1,1.4,1.6,2.4,1.8c0.9,0.2,2.1,0.6,2.8,0.7c1.4,0.3,1.7,1.1,3.1,1.1c1.2,0,2.1,0,2.8-0.4
	s1.5-0.8,2.2-1.3c0.8-0.6,1.3-0.7,1.8-1.8c0.4-0.8,0.6-1.5,0.6-2.6c0-1.2-0.3-1.6-0.9-2.2c-0.3-0.3-1.5-0.7-2-0.9
	c-0.9-0.4-1.5-0.7-2-1.5c-0.5-0.7-0.7-1.2-1.3-2c-0.4-0.6-1.6-1.1-2-1.3c-0.8-0.4-2.2-0.4-3.1-0.4c-1.2,0-2.4-0.2-3.5-0.2
	c-0.6,0-1.7-0.8-2.4-1.3c-0.6-0.4-1.4-1-2-1.7c-0.7-0.7-0.6-1.2-1.8-1.8c-1.1-0.6-1.5,0.3-2.4,0.7c-0.9,0.4-1.5,0.9-2.2,1.3
	c-0.7,0.4-1.1,0.7-1.8,0.9c-0.8,0.2-1.4,0.5-2.2,0.7c-1,0.2-2.3,0-3.3,0c-0.4,0-1.6-1.1-1.8-1.3c-0.7-0.5-1-0.8-1.5-1.7
	c-0.8-1.6-3.8-1.6-5.2-1.7c-0.8,0-1.7,0.8-2.4,1.1c-1,0.4-2.2,0.4-3.3,0.4c-1,0-1.9,0.2-2.6,0.4c-0.9,0.2-1,0.7-1.8,0.9
	c-0.8,0.2-1.7,0.3-2.2,0.6c-0.9,0.4-0.8,1-0.6,2c0.3,1.2,1.4,1.8,2.4,2.6c0.8,0.5,1.5,1.1,2.6,1.1c1.6,0,2.9,0.3,4.1-0.6
	c0.8-0.6,1.1-1,1.3-1.8c0.2-0.9,1-1.4,1.3-2.4c0.2-0.8,0.7-1.1,1.3-1.7c0.6-0.6,2-0.1,2.6,0.2c0.8,0.4,1.2,0.6,1.7,1.1
	c0.7,0.7,1.3,0.8,2.2,1.3c0.9,0.5,1.6,1.1,2.4,1.5c0.9,0.4,1.8,0.7,2.8,0.9c1.1,0.2,2.7,0,3.5-0.2c1.1-0.2,1.6-0.6,2.8-0.6
	c1,0,1.9,0,2.8,0.2c1,0.3,2,0.5,2.8,0.9c0.9,0.4,0.9,1,0.9,2c0,1,1.1,1.5,1.7,2c0.7,0.7,2.1,0,2.4-0.4c0.6-0.6,1.2-1,1.7-1.7
	c0.4-0.6,1.6-0.4,2.4-0.4C340.5,30.4,342,31.4,342.7,32.2L342.7,32.2z"/>
<path class="st41" d="M309.1,45.2c0.6-1,2.7-4.8,3.3-6.1c0.6-1.2,1.8-2,3-2.6c1.4-0.7,2.7-1.1,4.1-1.5c2.1-0.5,5.6-3,7-3.7
	c1.3-0.7,3.5-0.4,5.2-0.4c2.8,0-0.1,1.2-1.5,1.8c-1.4,0.7-2.7,1.5-4.1,2.2c-1.3,0.7-3.3,1.3-4.4,1.8c-1.6,0.8-2.4,1.6-3.3,2.6
	c-1,1-1.7,2.3-2.2,3.3c-0.8,1.7-0.3,2.6-3,2.6C312.2,45.4,310.1,45.6,309.1,45.2L309.1,45.2z M287.1,22.8c-1.9,0-3.1,0-4.6,1.5
	c-0.4,0.4,6,0.1,7.8,1.8C290.8,26.8,287.7,23.4,287.1,22.8L287.1,22.8z M291,27.4c-6.4,0.5-8.3,6.1-0.7,10.2
	C287.9,33.2,284.8,30.9,291,27.4z M297.2,28.5c-5,0.4-6.5,4.7-0.6,7.9C294.9,33,292.4,31.2,297.2,28.5z M316.4,19.7
	c3.9,2.8,2.8,6.8-3.7,6.1C315.9,24.2,318.8,24.1,316.4,19.7z M341.6,18.6c-4.5-0.4-5.2,5.4,0.5,11C340.1,24.5,337.6,21.5,341.6,18.6
	z"/>
<radialGradient id="SVGID_4_" cx="559.8207" cy="557.2848" r="114.4653" gradientTransform="matrix(0.6733 -0.2545 -0.3 -0.7938 312.7971 758.8021)" gradientUnits="userSpaceOnUse">
	<stop  offset="0" style="stop-color:#4C362C"/>
	<stop  offset="1" style="stop-color:#93654C;stop-opacity:0.5102"/>
</radialGradient>
<path class="st42" d="M516.8,98.4c-0.8,4.6,4,8.1,4.4,12.7c1.9,2.3,2.9,8.1-1.7,5.7c-3.8,1.2-0.3,7.1,1.3,9.4
	c2.9,3.9,3.9,9,3.1,13.7c-2.8,2.2-8,1.1-8.9,5.6c-0.8,3.8-1.1,8.2,1.7,11.2c3.6,3.9-0.2,8.2-3.7,10.4c-3.3,0.5-9.6-1.9-9,4.1
	c0.4,4.6-1.1,8.5-4,11.8c-1,4.1,1.8,8.2,1.7,12c3.9,1,8.5,1.3,11.1,4.9c3.5,4.2,7.6,8,12.7,10c3.4,3.4,9.6,0.8,8.3-4.2
	c0.1-4-5.2-8.8-0.9-11.9c3.8-0.9,8-2.7,6.7-7.5c-0.9-3.8-1.1-8.5,4-8.8c4-3.7-3.8-7.2-3.8-11.3c0.6-4.4-3.4-10.2,0.2-13.4
	c4.3-0.9,6.9-5,3.6-8.7c-2.7-3.3-5.9-7.1-4.5-11.8c2.3-5-4.7-6.8-7.6-9.3c-4-4-2-10.6-5.2-15.1c-1.4-4-5.7-5.2-8.3-8.1
	C517.6,99.4,517.2,98.9,516.8,98.4L516.8,98.4z"/>
<path class="st43" d="M332.3,226.3c2.8,2.8,4.5,7.6,2.7,11.4c-3.6,2.3-3.1-4.3-4.7-4.1c-1.1,4.9-0.5,10-0.2,14.9
	c-1.2,3.6-7,1.1-5.2-2.6c-0.3-4.2,3.5-7.5,3-11.9c0.9-3.9-2.8-5.2-5.5-2.9c-4.5,0.9-2.5-5.7,1.3-4.3c3.3,0,0.2-5.8,4.6-4
	C330.3,223,331.9,224.3,332.3,226.3L332.3,226.3z M309.8,230.7c3.2,1.6,9.9,1.3,10.8,4.5c-2.5,1.4-3.2,4-3.4,6.4c-2-2-3.9-9-7.1-4
	c-3.6,3.6,1.2,8,5.1,6.7c3.4-2.1,0.4,4.7,4.4,2.7c5.8,0.3-1.1,3.7-3.6,3.3c-2.7,2.8-4.7,6.6-9.4,6.2c-3.9-0.8-8.2-2-12.2-0.4
	c-3.2,2.3,3.2,6.9,6.1,4.5c3-1.8,6.4-3,9.5-4.5c3.5-2,8-1.8,11.8-0.7c3.3,2.1,8,2.5,9.9,6.2c2.5,3.9,8,1.7,11.8,3
	c3.5,1.3,6.8,4.4,5.3,8.5c-0.5,4.2,0.5,8.4,0.1,12.7c-1.3,3.6-5.2,5.7-6.4,9.6c-2.2,3.2-5.9,4.4-9.1,6.2c-0.5,3-2.4,7.1-5.2,2.9
	c-1-1.9-1.4-6-4-2.8c-4.3,1.8-5.9-5-1.3-5.6c3.1-3.1,3.8-8,1.3-11.8c-1.4-4.2-5.2-5.6-8.7-2.7c-4.5-1.5,4.2-8.2-1.1-5.3
	c-3.3,2.3-6.9,4.2-10.4,6.1c-1.5,0.4-4.9,3.7-3.2,0c3.5-1.4,7.1-2.8,9.9-5.3c2.2-2.1,0.3-4.1-2-2.1c-3.9,2.3-7.9,4.4-11.7,6.8
	c-1.8,1.1-5.6,2.1-3.5-1.3c3.4-2,7.2-3.4,10.3-5.8c2.5-0.6,3-2-0.1-1.3c-3,0.4,3.2-5.3-1.4-5.1c-3.8,0.1-6.5-3-10.1-3.3
	c-3.7,0.4-7.6-0.6-10.4-3.1c-3.9-2.1-1.7-7.3,2.3-7.6c3.3-1.6,6.7-3,9.8-4.9c4.1-1.4,8.2-4,12.7-2.9c1.7,0.5,5.2,1.1,2.2-1.1
	c-1.9-3.2-4.8-5.4-7.6-7.5C300.5,233.1,306,231,309.8,230.7L309.8,230.7L309.8,230.7z M342,251.8c4.1-2.2,7.9,1.2,11.2,3.2
	c2.5,1.1,3,8.7-0.2,4.7c-1.9-3.5-5.2-6.3-9.1-7.2C343.1,252.7,342.5,252.1,342,251.8L342,251.8z M336.8,254.4
	c-2.3,0.5-8.1-1-8.6,0.7c2.3,1,7.6,2.5,8.7,0.1L336.8,254.4L336.8,254.4z M297.6,272.5c-1.4,0-10.6-0.6-4.8,2.2
	C294.9,275.5,297,274.8,297.6,272.5z M288.7,288.7c-3.5,2.1-4.3-1.7-2.7-4c-1.3,1-8.3,2.5-4.5,4.3C282.4,292,289,292.8,288.7,288.7
	L288.7,288.7z M313.1,261.8c-1.3,1.2-3.1,1.9-4.9,1.8c-0.9,0.1-1.8-0.1-2.7-0.4c-0.8,0.1-1.5,0.8-1.5,1.6c0,1.6,0.3,3.1,0.7,4.6
	c0.5,1.3,2.1,1.7,3.2,2.3c1.5,0.8,3.2,1.2,4.8,1.1c0.9,0,1.9,0.2,2.7-0.5c1-0.8,2-2,2.1-3.4c0.1-1.4,0.2-3-0.7-4.1
	c-0.3-0.7-1.5-1.2-1.4-1.9c0.8-0.7,1.8-1.1,2.8-1.5c0.8-0.2,1.3-0.9,1.9-1.4c0-0.7-1.3-0.2-1.8-0.2
	C316.5,260.3,314.7,260.7,313.1,261.8L313.1,261.8L313.1,261.8L313.1,261.8z"/>
<path class="st43" d="M313.1,265.8c-2.1,0-2.4,1.3-3,3.3c-0.7,2.7,1.2,3,3.3,3c2.1,0,1.8-1.7,1.8-3.7
	C315.3,267.2,314.3,266.8,313.1,265.8L313.1,265.8z"/>
<path class="st44" d="M155.3,424c-2.3,0,4.4,1.3,6.7,1.8c2.3,0.6,4.2,0.8,6.3,1.8c2.3,1.1,5.3,1.7,7.8,3c3.2,1.6,6.6,2.4,10,3.7
	c3.8,1.5,8.1,2.6,11.8,3.3c2.6,0.5,5.1,1.9,7.8,2.6c2.2,0.5,4.3,1.8,5.9,2.6c1.3,0.6,2.7,1.1,4.1,1.5c2.1,0.5-3.1,1.1-3.7,1.1
	c-1.5,0-3.7-1.5-4.4-2.2c-0.8-0.8-4.3-1.2-5.5-1.8c-1.7-0.8-4.3-0.9-6.3-1.8c-2-1-3.9-1.6-5.9-2.6c-2.1-1-4.1-1.3-6.3-1.8
	c-2-0.5-3.6-1.4-5.5-1.8c-1.8-0.4-4-1.4-5.5-2.2c-1.9-0.9-3.5-1.1-5.2-1.5c-1.4-0.3-3.5-0.7-5.2-1.1c-1.7-0.4-3.6-0.8-4.8-1.1
	c-1.6-0.4-3.2-0.7-4.8-1.1c-2.2-0.5-3-0.7-3,1.8c0,2.3-0.6,2.6-3,2.6c-2.2,0-0.8-2.9-0.4-3.7c0.6-1.2,2.8-2.5,4.4-3.3
	C151.5,423.2,154.5,423.9,155.3,424L155.3,424z M167.9,416.3c0.8-0.4,4.1,0.7,5.9,1.1c2.1,0.5,4.1,1,6.3,1.5
	c2.2,0.4,4.5,0.6,6.7,1.1c2.1,0.5,4.2,0.7,6.3,1.1c2,0.4,4,1.4,5.9,1.8c1.7,0.4,3.4,1,5.2,1.5c2.3,0.6,3.4,1.3,5.5,1.8
	c2.1,0.5,2.8,1.1,0,1.1c-2,0-4.1-1-5.9-1.5c-2.3-0.6-4.5-0.9-6.7-1.5c-2.1-0.5-3.4-1-5.2-1.5c-1.7-0.4-3.1-1.1-4.4-1.5
	c-1.8-0.4-3.5-0.4-4.8-0.7c-1.9-0.5-3.5,0-5.2-0.4c-1.5-0.4-2.7-1.1-4.1-1.5C170.9,418.2,169.7,418.6,167.9,416.3L167.9,416.3z
	 M214.8,407c-1.6-0.4,3.2,1.1,4.8,1.5c1.8,0.5,2.8,1.1,4.8,1.1c2.1,0,3.1,0.4,5.2,0.4c2,0-2.6,0.9-3.3,1.1c-1.5,0.4-3.7,0.4-5.2,0.7
	c-2.8,0.7-1.4,1.2,0,2.6c1.2,1.2,2.4,1.7,3.3,2.6c1.5,1.5,2.4,3.2,3.3,4.4c1.4,1.9-1.2,1.1-2.6,0.7c-2.1-0.5-2.9-1.2-4.8-0.7
	c-1.8,0.5,1,3.6,1.5,4.1c1.1,1.1,3.1,1.5,4.4,1.8c1.5,0.4,2.9,1,3.7,1.8c1.5,1.5-1.9,0.7-3.3,0.4c-1.9-0.5-3.7-1.4-4.8-2.2
	c-1-0.8-2.8-1.2-4.1-1.8c-0.9-0.5-4,0.8-5.2,1.1c-1.6,0.4,1-2.8,1.1-3c0.8-0.8,3.2-1.6,4.1-2.2c1.5-1.2,1.4-1.7,1.8-3.7
	c0.4-1.6-1-3.2-1.8-4.1c-1-1-1.7-2.3-2.2-3.3C215.1,409.5,215.1,408.4,214.8,407L214.8,407z M206.7,435.8c-1-1.9,4.2,0.7,6.3,1.1
	c2.6,0.5,5,1.4,7.8,2.2l2.6,0.7c1.5,0.4,3.2,1.1,4.8,1.5c2.2,0.5,3.2,1,4.8,1.8c3.3,1.7-0.5,0.7-2.2,0.4c-2.2-0.4-4.1-1.1-6.3-1.5
	c-1.9-0.4-3.8-0.4-5.9-0.4c-2,0-3.3,0.4-4.8,0c-1.5-0.4-3.3-1.3-4.4-1.8C207.2,438.9,206.7,438.8,206.7,435.8z M234.4,428.8
	c-1.7-0.8,3.7,0.7,5.5,0.7c2.2,0,1.1,1.9,0.7,3.3c-0.5,1.9,0.3,3.8,0.7,4.8c0.6,1.3,1.6-2.4,2.2-3.7c1-1.9,1.4-3.3,2.6-4.4
	c1-1,2-3,1.1,0.4c-0.4,1.7-1.2,2.9-1.8,4.1c-0.7,1.4-0.6,3.3-0.4,4.4c0.2,0.7,2.9,2,3.3,2.2c0.9,0.4,1.6,3.7,1.8,4.8
	c0.5,2,0.1,3.4,0.7,4.8c0.4,0.7,3.4,1.7,4.4,2.2c2.4,1.2,4.5,1.9,7,3c2.4,0.9,4.8,1.1,7,2.2c2.4,1.2,6.3,1.2,8.9,1.8
	c2.9,0.7,5.6,0.9,8.5,1.5c2.4,0.5,5.4,1.6,7.4,2.6c1.8,0.9,4.6,1.4,6.3,1.8c2.1,0.5,4,1.6,5.9,2.6c1.6,0.8,4.3,1.2,5.5,1.5
	c2.2,0.5,4.5,0.3,6.3,0.7c1.9,0.5,3.4,1.1,4.8,1.5c2,0.5-4.2,0.3-6.3,0c-2.6-0.4-4.9-1.2-7.4-1.8c-2.6-0.6-5.8-1.5-8.1-1.5
	c-2.7,0-5.8-1.4-8.5-1.8c-3.4-0.6-6.6-2.1-10-3c-3.1-0.8-6.1-2.2-9.2-2.2c-2,0-4.7-1.1-6.3-1.5c-1.9-0.5-4.1-0.9-5.5-1.5
	c-1.8-0.7-4.2-1.2-5.5-1.8c-1.6-0.8-3-1.5-4.4-1.8c-1.3-0.3-2.4-2.2-3-3.3c-0.6-1.2-1.3-2.9-1.8-4.1c-0.8-1.6-0.7-2.6-1.8-3.7
	c-0.9-0.9-3.2-1-4.1-1.8c-0.7-0.7-3.8-0.4-5.2-0.4c-0.7,0-2.1-3.4-2.2-3.7c-0.9-1.7-1.5-3-1.1-4.4c0.6-2.3,3.1,1.3,3.3,2.2
	c0.4,1.7,0.1,3.5,2.2,4.1c1.2,0.3,0.7-3.8,0.7-4.8c0-2.8-0.7-2.2-2.2-3.7L234.4,428.8L234.4,428.8z M519.7,298
	c-2.8-2.8,0,7.9,0,11.8c0,3.7,0.7,6.1,0.7,10.3c0,3.3,0.7,6.7,0,9.6c-0.7,2.9-2.2,5.3-3,8.1c-0.8,3.2,0,7.7,0,11.1
	c0,3.9,0.8,7.5,1.5,10.3c0.8,3.2,0,7.7,0,11.1c0,6.1-2.9,2.3-4.4,0.7c-2-2-2.7-7.6-3.7-9.6c-1.9-3.8-3.6-6.3-4.4-9.6
	c-0.3-1.3-2.4-1.2-3.7-1.5c-2.9-0.7,2.4,5.5,3.7,8.1c1.5,3,2.3,5.3,3.7,8.1c1,2.1,1.7,7.5,2.2,9.6c0.8,3.2,0,7.7,0,11.1
	c0,7.3,5.2,14.1,6.7,20c0.8,3.1-1,4.9-2.2,7.4c-1.6,3.2-3.1,4.8-4.4,7.4c-1.1,2.2-4.3,4-6.7,5.2c-2.7,1.3-4.4,3.3-6.7,4.4
	c-6,3-3.1-7-2.2-8.9c1.8-3.6,1.6-7,3-9.6c1.8-3.6-1.5-7.5-2.2-8.9c-1.7-3.5-3.7-3.9-7.4-3c-2.5,0.6-4.2,4.2-5.9,5.9
	c-2.3,2.3-3.8,5.5-4.4,8.1c-0.9,3.5-2.9,5.9-4.4,8.9c-1.6,3.1-3.7,6.8-5.2,9.6c-1.4,2.7-5.7,3.8-8.1,4.4c-3.7,0.9-5.5,2.5-7.4,4.4
	c-2.9,2.9-4.8,4-9.6,5.2c-4.2,1-6,1.6-8.1,3.7c-2.8,2.8-7,1.3-9.6,0c-1.9-0.9-3.3-2.7-5.2-3.7c-2.5-1.3,4.7-3.2,6.7-5.2
	c1.9-1.9,3.9-3.3,5.2-5.9c0.5-1.1,6.1-3.1,7.4-3.7c3.6-1.8,3.2-3,8.9-3c4.5,0,6.6-0.7,9.6-1.5c2.8-0.7,4.7-3.2,6.7-5.2
	c2.7-2.7,2.6-6.2,3-8.1c0.6-3.2-2-3.4,3-5.9c2.6-1.3,5.4-4.2,7.4-5.2c2.5-1.2,4.3-3.6,5.9-5.2c2.3-2.3,4.1-3.2,6.7-4.4
	c3.2-1.6,4.7-3.5,8.1-5.2c2.3-1.2,3.5-4.7,4.4-6.7c1.6-3.2,2.2-4.7,2.2-8.9V363c0-0.8-4.7-5.7-5.2-6.7c-1.9-3.8-4.3-2.6-6.7-1.5
	c-3.9,1.9-1.7,4.2-5.9,0c-3.9-3.9-1.9-8,0-11.8c1.5-3,0.4-7.4,1.5-9.6c1-2,6-1.5,7.4-2.2c2.4-1.2,0-5.4,0-8.1c0-2.1,2.4,3.9,4.4,4.4
	c1.6,0.4-1.2-6.1,3.7-3.7c2.8,1.4,3.1,2.9,4.4-2.2c0.6-2.3-1.7-6.9-2.2-8.9c-0.9-3.6,0-7.4-0.7-10.3c-1.3-5.3,3-1.1,3.7,1.5
	c0.8,3.3,1.8,6.2,3.7,8.1c2.6,2.6-0.2-7.5,0.7-11.1C516.9,297.4,513.7,296.8,519.7,298L519.7,298z M494.6,363.8
	c0.8-3.4-5.8,4.7-6.7,8.1c-1,3.9-1.6,4.8,0,8.1c1.7,3.5,3.3,3.8,6.7,3c3-0.7,4.2-4.6,5.2-6.7c1.7-3.4,1.5-6.2,1.5-10.3
	C501.2,362.4,496.4,362.9,494.6,363.8L494.6,363.8z M433.2,385.2c0-4.7,2.1,7.6,3.7,15.5c0.6,3.1-2.8,6.4-3.7,8.1
	c-1.8,3.6-3.1,4.9,0.7,5.9c1.8,0.4,6.7-4.5,7.4-5.2c1.6-1.6,2.7-5.3,3.7-7.4c1.3-2.7,1.5-5.6,1.5-9.6c0-4.2-1.7-5.4-3.7-7.4
	C440.7,383.1,435.2,385.2,433.2,385.2L433.2,385.2z"/>
<radialGradient id="SVGID_5_" cx="44.0214" cy="659.5471" r="214.7324" gradientTransform="matrix(0.3531 -0.1172 -0.1526 -0.46 186.2549 814.1483)" gradientUnits="userSpaceOnUse">
	<stop  offset="0" style="stop-color:#5F4433"/>
	<stop  offset="1" style="stop-color:#5F4433;stop-opacity:0"/>
</radialGradient>
<path class="st45" d="M124.6,541.7c-32.8-26-60.8-56.4-84.3-101.6c5.9-0.2,13.2,2.5,15.5,8.3c3.1,5.4,4.2,11.8,7.8,17
	c2,7,11.9,6.8,10.4-1.5c-0.7-8.3,8.1-4.6,10.4,0.1c1.8,4.6,11,6.1,7.1-0.6c-3-6.1-8.7-11.3-9.7-18.3c0.2-2.3-3.6-5,1-4.9
	c4.2,4.3,1.4,11.3,6.5,15.6c2.7,5,10.8,10.7,5.3,16.2c4.1,2.7,6.2,8.1,9.4,10.8c2.2-1.6,4.1,2.3,3.9-2.6c-0.9-2.3-2.5-9.1,0.7-3.6
	c2.6,5.9,8.8,10.5,8.4,17.3c4.8,5.1,6,12,9.2,17.7c6.6,2.2,8.2,9.5,13.7,13.3c2.6,5,9.7,7.5,10.4,13.1c-3.1,1.3-11.5-2-11.3,0.9
	c5.5,3.3,11.4,5.8,16.8,9.2c5.4,3.2,11.3,6,16.1,10c-6.7-0.8-12.6-4.6-19-6.4c-6.1-3.3-13.2-5.3-17.9-10.8
	C131.5,539.2,127.7,540,124.6,541.7L124.6,541.7z"/>
<path class="st46" d="M335.7,404.4c-2.4-1.4-6.2-1.9-8.1,0c-2.9,2.9-2.1,4.6-0.7,7.4c1.5,3.1,6.9,0.6,8.1,0
	C338.4,410.1,338.8,409.6,335.7,404.4L335.7,404.4z M303.9,421.4c3.3-1.6-6.1,4.3-9.6,5.2c-2.4,0.6-6.2,4-7.4,5.2
	c-3,3-1,5.6,0.7,7.4c3,3,2.3,3.2,7.4,4.4c2.5,0.6,4,5.4,5.2,6.7c1.3,1.3,3.4,1.5,5.2,1.5c2.7,0-3.2-4.3-4.4-6.7
	c-1.5-3.1-3.2-4-5.2-5.9c-2.8-2.8,2.4-5.4,3.7-6.7c1.8-1.8,5.5-1.8,7.4-3.7C309.9,425.8,308.4,422.3,303.9,421.4L303.9,421.4z
	 M372.6,411.1c-1.4,2.8,4.2-5.9,7.4-5.9c4.1,0-0.6,7.1-0.7,7.4C377.4,416.3,374.9,414.8,372.6,411.1L372.6,411.1z M343.4,393.3
	c1.2,0.7,2.8,1.5,5.2,1.5c1.8,0,0.9,0.1,0,1.8c-0.8,1.6-3.6,0.2-4.1,0C343.6,396.2,343.6,394.4,343.4,393.3z M418.1,401.1
	c-1.3,0.6-3.1,2.7-4.1,3.7c-1.2,1.2-1.1,2.4-1.5,4.1c-0.4,1.7-1.1,2.9-2.6,3.3c-2,0.5-0.6-2.6-0.4-3.3c0.4-1.4,1.7-2.4,2.6-3.3
	c1.1-1.1,1.3-2.1,3.3-2.6C416.5,402.7,417.3,401.8,418.1,401.1L418.1,401.1z M399.2,425.1c1.4-0.4-3.7,0.4-4.1,1.8
	c-0.2,0.7,4.1,0.7,4.8,0.7C401.4,427.7,402,425.1,399.2,425.1L399.2,425.1z M542.6,282.1c0,0.8-0.7,1.5-1.5,1.5
	c-0.8,0-1.5-0.7-1.5-1.5s0.7-1.5,1.5-1.5C542,280.6,542.6,281.3,542.6,282.1z M551.1,299.1c0,0.8-0.7,1.5-1.5,1.5
	c-0.8,0-1.5-0.7-1.5-1.5s0.7-1.5,1.5-1.5C550.5,297.6,551.1,298.3,551.1,299.1z M540.8,305c0,0.8-0.7,1.5-1.5,1.5s-1.5-0.7-1.5-1.5
	c0-0.8,0.7-1.5,1.5-1.5S540.8,304.2,540.8,305z M531.9,304.3c0,1-0.8,1.8-1.8,1.8s-1.8-0.8-1.8-1.8c0-1,0.8-1.8,1.8-1.8
	S531.9,303.3,531.9,304.3z M477.6,277.3c0,0.8-0.7,1.5-1.5,1.5c-0.8,0-1.5-0.7-1.5-1.5c0-0.8,0.7-1.5,1.5-1.5
	C476.9,275.8,477.6,276.5,477.6,277.3z M483.9,267.3c0,1-0.8,1.8-1.8,1.8c-1,0-1.8-0.8-1.8-1.8s0.8-1.8,1.8-1.8
	C483,265.5,483.9,266.3,483.9,267.3z M414.8,480.6c0.6,3-4.7,6.8-5.9,9.2c-1.6,3.2-2,3.8-0.7,7.8c1.5,4.5,8.1,1.5,8.9,0.7
	c2.6-2.6-1-4.3,2.2-5.9c2.8-1.4,5.6-2.3,8.1-3c4.1-1,8.2,0,2.2-1.5c-3.5-0.9-4.9,0.7-8.1,1.5c-4,1-5.2,2.9-5.2-3
	C416.2,483.6,416.2,484.1,414.8,480.6L414.8,480.6z M586.2,349c0,2.4,0,4.9-0.2,7.3c-0.4-1.5-0.2-5.6-0.5-5.7
	c-0.4,3.4,0.5,6.8,0.6,10.2c-1.7,3-3.8,6-3.2,9.7c0.8,3.2,0.5,7.2,1.5,10c2.3-3.2,2.2-7.5,4.4-10.8c2.2-3.6-2.2-6.8-1.5-10.5
	c1.7-2.4,3.1,3.2,4.2,4.4c2.3,3.9,4.2-5.7,4.3-1c-0.4,3.5,0.6,7.4-1.2,10.6c-3.6,2.2-2.1,6.5-4.4,9.4c-2,3.9,0,8.7-2.6,12.4
	c-1.4,3.5-5.4,3.3-8.1,5c-3.9,1.9-5.7,6.2-9.3,8.5c-4.1,1.2-2.3-4.9-1.5-7c-1.1-2-3.4-3.1-4.8-5c-4.7,0-4.5,6.6-0.4,7.6
	c2.6,2.5-0.2,7.6-3.4,8.1c-3.3,0.5-6.5-1.1-9.8-0.8c-3-1-4.4-4.8-7.9-4.7c-5.1-1.4-1.5,5.9-5.8,6.2c-3.6,1.3-1.5-5.2-0.2-6.6
	c1.1-3.8,5.7-1.9,8.1-3.9c1.4-3.7-7.8-4-2.6-7.4c2.7-1.2,6.2-1.8,5.8-5.8c1.1-3.6,4.9-3.3,7.8-2.6c2.9,1.3,5.4-3,1.8-3.9
	c-2.1-1.2-7.5-2-5.1-5.4c1.4-3,7.3-5.7,8-0.8c1.2,4,3.6-1.3,3-3.3c1.3-1.2,5.3-0.1,3.8-3.3c-1.1-3.9,4.7-3.5,4.7,0
	c1,4.6,2.7-1.3,2.9-3c-0.3-3.1,0.3-6.7,4.2-6.4c3-1.1,0.7-5.6,1.7-8.1c-0.2-2.7-0.1-7.5,3.6-4.5C584.9,348.3,585.5,348.7,586.2,349
	L586.2,349z M89.9,487.2c1.6,0.8,2.4,2.6,3.3,4.1c0.8,1.9,2.6,3.3,3.4,5.2c1.3,2,3.2,3.5,5.1,4.8c0.8,0.7-0.3-2-0.3-2.6
	c-0.7-1.9-1-3.8-1.1-5.8c-0.6-1.2-0.2-3.1,1.3-1.7c1.9,0.8,2.6,2.7,3.3,4.5c1.1,2.3,3.1,4.1,4.5,6.2c1.4,1.7,3,3.3,4.5,5
	c1.5,1.4,3.7,2.4,4,4.7c0.4,1.7-2.6,2.8-0.9,4.6c1.3,2.9,4.1,4.7,5.7,7.3c0.7,0.9,2.4,3.3,1.6,3.8c-2.5-1.1-5.2-2.2-7-4.3
	c-1.5-1.6-3.3-2.9-4.9-4.4c-0.7-0.5-3.6-2.3-2.2-0.2c1.2,1.8,2.8,3.3,4.5,4.6c1.2,1.3,3,2.1,3.8,3.7c-1.1,1.6-3.6,0.1-4.6-1
	c-2.3-2.4-5.6-4.2-6.5-7.6c-0.2-2.1,2.5-2.5,3.6-3.8c2-0.8,0.1-3.1-1.5-2.1c-1.6,0-3.8,1.1-4.6-0.9c-1.1-1.9-2.1-3.9-3.6-5.6
	c-1.4-1.3-2.7-2.7-3.5-4.4c-1.6-2.1-3.6-4-4.7-6.5c-0.9-1.9-2.1-3.7-2.6-5.7C89.6,489,90,488,89.9,487.2L89.9,487.2z M92.5,499.4
	c1.7,0.6,2.5,2.1,3.3,3.7c0.5,1.1,1.9,2.2,2.6,3c2,2-1.3,0.3-1.8,0c-1.2-0.6-1.8-2.2-2.6-3C92.8,502,92.5,501.6,92.5,499.4
	L92.5,499.4z M283.9,144.2c0.4,2.2-5.7,6.2-10.3,7.4c-4.6,1.2,0,2.4,3.3,2.2c2.9-0.2-3.5,1.5-6.3,2.2c-3,0.8-4.9,4.6-7.4,3.7
	c-3.7-1.3,2.2-16.4,4.1-18.1c4.5-2,0.7,5.5,1.8,7.8c0.4,0.8,6.9-3.4,7.4-3.7C278.3,144.8,281.5,143.2,283.9,144.2L283.9,144.2z"/>
<path class="st47" d="M94,320.5c2.1-4.6,5.9-10,11.5-9.6c4,0.4,5.9,4.9,6.2,8.5c-0.5,5.5-5.4,9.3-9.8,11.9c-3.7,2.1-8.7-0.6-8.3-5
	C93.4,324.4,93.7,322.5,94,320.5L94,320.5z M65.1,359.3c-2.5,1.7-4.8,4.3-4.5,7.5c-0.1,3,0.7,6.9,4,7.9c3.7,1,7.5-1.5,9.3-4.5
	c0.7-2.7,0.4-5.6,0.4-8.4c0.1-3.4-3.7-5.4-6.7-4.2C66.7,357.8,65.9,358.6,65.1,359.3L65.1,359.3z M32.6,242.9
	c-0.9,3.4-3.1,6.3-4.4,9.6c-0.9,2-1.4,4.5-0.2,6.4c0.7,1,1.7,2,3.1,1.9c1.7-0.1,3.2-1.1,4.5-2.2c1.8-1,4.1-2.1,4.7-4.4
	c0.8-3.9,2.4-7.8,1.7-11.8c-0.2-1.8,0.2-3.8-1-5.3c-0.9-0.9-2.2-1.1-3.4-1c-2.2,0.2-4.5,1.8-4.6,4.2C31.9,241,32.3,242,32.6,242.9
	L32.6,242.9z M46.9,402.9c3.2,2.6,5.4,2.9,5.8,1.8c0.6-0.6,1.9,0.3,1.4,1c-0.5,1.5-2.1,1.7-3.6,2.2c-2.5,0.8-5.1,0-6.2-2.5
	c-0.8-2.9-2.5-8.4,3.7-9.8C45.2,397.2,46.6,401.4,46.9,402.9L46.9,402.9z"/>
<path class="st48" d="M104.3,319.8c-2,0.9-3.2,1.3-2.6,3.7c0.6,2.4,3.1-0.5,3.3-0.7C105.9,321.9,104.9,320.8,104.3,319.8
	L104.3,319.8z M36.3,244c-1.6,1.1-1.5,2.9-1.8,4.4c-0.7,2.6,2.2-0.4,2.6-1.1C37.5,246.5,37.4,244.5,36.3,244L36.3,244z M33,240.9
	c1.3-1.2,3-2.1,4.8-1.8c1.9-0.3,3.2,1.2,2.9,3c0.3,2,0.1,4-0.4,5.9c-0.3,1.9-0.7,3.9-1.6,5.6c-0.8,1.2-1.3,2.9-2.8,3.5
	c-1.4,0.7-3.1,1.6-4.7,1.2c0.3-0.6,2.4-0.9,3.2-1.8c1.6-0.8,2.4-2.4,3-4c0.8-1.8,0.8-3.7,1.2-5.6c0.1-1.6,0.2-3.6-1.2-4.8
	c-1.4-0.6-2.3,1.2-3.2,1.9c-0.3,0.7-1.4,3.5-1.4,1.2C32.9,243.7,32.6,242.3,33,240.9L33,240.9z M72.5,367.1c-1.6,1-2.5,2.8-4,3.9
	c-1.2,0.6-2.5,0.5-3.7,0.5c-0.4-0.1-1.1-0.1-1.3,0.3c0.3,0.5,0.9,0.4,1.4,0.7c0.9,0.4,1.9,0.9,2.9,0.6c1.1-0.3,2.1-1.2,3.2-1.5
	c1.1-0.6,2-1.5,2.5-2.6C73.4,368.3,72.7,367.8,72.5,367.1L72.5,367.1z M69.2,363.4c0.4-0.8-1.1,1.6-1.1,2.6c0,1,0.5,1.3,1.3,1.5
	c1,0.3,1.1-0.8,1.1-1.7c0-1,0.1-1.6-0.2-2.2C70.1,363.2,69.5,363.4,69.2,363.4L69.2,363.4z M157.5,321.1c-1.6-0.5-3.3,0.2-4.3,1.5
	c-0.4,1-0.4,2.2-0.1,3.2c0.5,1.1,1.2,2.2,2.2,2.8c1.5,1.1,3.4,1.9,5.3,1.6c1,0.3,2.3-0.9,0.9-1.4c-0.9-0.1-1.8-0.5-2.6-0.9
	c-1.2-0.3-2.2-1.3-2.5-2.4c-0.4-1.2,0.1-2.4,0.9-3.3C157.5,321.8,157.5,321.4,157.5,321.1L157.5,321.1z M159,322.7
	c-0.4,0.6-0.9,1.5-0.9,2.6c0,0.7,1.2,1,1.7,1.1c1.5,0.4,0.9-2,0.7-2.6C160.3,323,160,322.5,159,322.7L159,322.7z M145.5,262.5
	c-1-0.1-1.9,0.4-2.8,0.7c-1.8,1.1-2,4.3,0,5.2c1.3,0.6,3.2,0.7,4.1-0.6c0.9-1.4,0.7-3.2,0-4.6C146.5,262.9,146,262.7,145.5,262.5
	L145.5,262.5z M143.9,252.1c-0.2,0.5-0.4,1.6-0.4,2.8c0,0.7,1.2,1.1,1.8,1.1c0.9,0,1.1-0.8,1.1-1.8c0-0.8-0.5-1.5-0.9-2
	C145.1,251.6,144.5,251.9,143.9,252.1L143.9,252.1z M163.6,448.2c-1.5-1-3.7-0.3-4.9,0.8c-1.3,2.2,0.6,5.5,3.3,5.3
	c1.6,0.4,3.4-0.5,3.4-2.4C165.7,450.6,165.5,448.2,163.6,448.2L163.6,448.2z M155,437.5c1.6,0.8,2.6,2.8,2.5,4.5
	c-0.8,2.4-4.1,4-6.3,2.4c-1.5-1.2-2.8-3.1-2.4-5.2c0.3-0.7,1.1-3.2,1.9-2c0,1.3-0.5,2.5-0.2,3.8c0.1,1.8,2.2,2.1,3.5,1.4
	c1.7-0.9,1.6-3,1.2-4.6l0-0.2L155,437.5L155,437.5z"/>
<radialGradient id="SVGID_6_" cx="410.587" cy="333.0105" r="214.7411" gradientTransform="matrix(1.241 0 0 -0.6119 -151.917 719.7136)" gradientUnits="userSpaceOnUse">
	<stop  offset="0" style="stop-color:#5F4433"/>
	<stop  offset="1" style="stop-color:#5F4433;stop-opacity:0"/>
</radialGradient>
<path class="st49" d="M306.1,466.5c-0.1-13.5-28.1-27.3-13.5-36.7c5.6-12.2,20.7-13.5,26.6-1c10.4-0.3,1.8-19.3,16.9-13.8
	c5.9-4.1,14.7-11,9.3,1.8c-7.3,8.8,12.8,4.1,16.4,8.6c4.5-4.7,18.7-29.5,18.4-12c-9.3,9.1-14.3,29.8,5.7,25.6
	c10.4,9.1,32.6-9,33.8,11.9c-5.5,12.9-26.2,9.8-31.4,19.1c13.8,4.6,16,18.5,21.4,30.9c13.5-1.3,24.8-12.8,33.2-23.3
	c11.6-14.2,27.8-2.4,25.5,13.2c-16.7,16.8,14.7,25,24.1,11.6c10.4-8.6,23-14.9,29.7-27.3c9.8-16.5,19-35.4,36-45.6
	c15.3-5.8,16.5,6.1,9.6,18.3c-11.8,20.9-25.9,43.9-57.6,74.6c-16.3,6.6-29.9,16.6-45.1,25.4c-17.6,7.2-35.3,15.1-50.1,27.2
	c-14.9,12.5-34.2,19.6-53.7,19.9c-7.4,2-28.8,3.4-10.8-3.2c10.9-4.9,49.3,3.5,34.6-22.5c-14.3-9.9-29.5,2.3-42.3,13
	c-18,10.8-27.6-14.9-11.9-20.1c-11.1-4.8-3.6-14.1-2.7-21.5c-7.6-3.6-33.5-10.6-27.1,3.4c-17.1,1.7-22.6,19.8-41.3,15.5
	c-15.4-8-32.2,17.2-11.3,20.1c11.8-0.9,24.1,10,30.6,14c-16.6-1.7-31.1-5.8-43-7.7c-6.5,4-14.9-0.9-5.4-4.4
	c-6.9-2.9-18,1.1-17.4-9.7c-18.2-9.1,10.5-5.4,14.3-10.7c6.2-13.9,27.1-7.5,38.6-17c6.4-1.1,31.4-8.5,12.1-10
	c-8.9,3.6-14.8,9.2-23.7,3.3c-7.3,7.3-21.3,0.7-26.6,12.5c-9.2-0.9-18.6,0-26.6,2.6c1.9-8.5,6.3-17.2-5.9-9.9
	c-0.1-8.5,21.3-11.6,2.8-13.2c-6.8,0.1-11.4-8.6-15-11.8c5.9-12.3-22.9,3.3-29.3-7.4c-11.4-2.1-16.2-21.2,0.5-15.4
	c18,5.1,31.6-10.9,49.1-2.3c12.2,5.1,24.9,30.8,39.8,15.3c8-8,17.7,14.6,29.6,5.1c14.9,1.1-1.8-23.2,18.5-21.2
	c-6.9-8.5-3.1-12.2,7-12.1C304.1,477.8,305.4,471.9,306.1,466.5L306.1,466.5z M311.5,484.1c-2.9,2-12.6,18.3-19.3,14.1
	c-5.6-1-3,7-1.8,7.6c2.2,1.1,12.6,2.3,15.3,2.3c3.1,0,4.7-1,7.3-1c2.9,0-4.1,2.4-5.2,4.7c-1.1,2.2,3.2,3.2,4.2,3.7
	c1.4,0.7,2.9,3.1,3.7,4.2c2.7,3.8,8.1-2.4,8.4-3.7c0.6-2.4,1.2-4.3,1.6-6.3c1.9-9.5-2.3-20.3-2.6-21.4
	C321.1,481.3,314.4,482.4,311.5,484.1L311.5,484.1z"/>
<radialGradient id="SVGID_7_" cx="361.6185" cy="943.4662" r="114.4653" gradientTransform="matrix(0.4409 -0.1266 -0.1566 -0.5452 453.1894 640.5438)" gradientUnits="userSpaceOnUse">
	<stop  offset="0" style="stop-color:#4C362C"/>
	<stop  offset="1" style="stop-color:#93654C;stop-opacity:0.5102"/>
</radialGradient>
<path class="st50" d="M450.2,63.7c-0.9,2,1.6,3,2.5,4.4c1,1.4,2.8,3.4,1.3,5c-1.6,1.6-4.2,0.5-5.9,1.9c-1.3,1-3.2,2.9-4.6,0.9
	c-0.6-1.2-2.4-3.4-3.5-1.6c-0.3,2.1,0.1,4.3,0.6,6.3c1.1,2.5,4,3.3,6.5,3.5c5.4,0.6,10.9-0.5,16.1,1.3c2,0.7,3.7,1.8,5.6,2.6
	c2.3,0.4,2.5-2.4,2.8-3.9c1-5.3-1.3-11.1-5.8-14.1c-2.3-1.7-4.2-3.9-6.8-5.1c-2.5-1.3-5.5-1.9-8.3-1.4
	C450.6,63.7,450.4,63.7,450.2,63.7L450.2,63.7z M493.9,89.5c-3.4-0.8,4.9,4.9,7.4,7.4c2,2-0.2-6.1-2.2-8.1
	C497.8,87.6,495.6,89.2,493.9,89.5L493.9,89.5z"/>
<radialGradient id="SVGID_8_" cx="306.1066" cy="309.1399" r="297.8907" gradientTransform="matrix(1 0 0 -0.9902 0 611.4802)" gradientUnits="userSpaceOnUse">
	<stop  offset="0" style="stop-color:#F2F2F2;stop-opacity:0.1531"/>
	<stop  offset="0.5" style="stop-color:#7F7F7F;stop-opacity:0"/>
	<stop  offset="0.75" style="stop-color:#3F3F3F;stop-opacity:0.2347"/>
	<stop  offset="1" style="stop-color:#000000;stop-opacity:0.4286"/>
</radialGradient>
<path class="st51" d="M604,305.4C605,469.9,472.4,604,307.9,605S9.2,473.4,8.2,308.9c0-1.2,0-2.3,0-3.5
	C7.3,140.9,139.8,6.7,304.4,5.7S603,137.4,604,301.9C604,303,604,304.2,604,305.4z"/>
</svg>
